ISO-10303-21;
HEADER;
FILE_DESCRIPTION(('FreeCAD Model'),'2;1');
FILE_NAME('Open CASCADE Shape Model','2026-08-20T01:22:36',(''),(''),
  'Open CASCADE STEP processor 7.8','FreeCAD','Unknown');
FILE_SCHEMA(('AUTOMOTIVE_DESIGN { 1 0 10303 214 1 1 1 1 }'));
ENDSEC;
DATA;
#1 = APPLICATION_PROTOCOL_DEFINITION('international standard',
  'automotive_design',2000,#2);
#2 = APPLICATION_CONTEXT(
  'core data for automotive mechanical design processes');
#3 = SHAPE_DEFINITION_REPRESENTATION(#4,#10);
#4 = PRODUCT_DEFINITION_SHAPE('','',#5);
#5 = PRODUCT_DEFINITION('design','',#6,#9);
#6 = PRODUCT_DEFINITION_FORMATION('','',#7);
#7 = PRODUCT('HW-C3-PHBB-PA-A','HW-C3-PHBB-PA-A','',(#8));
#8 = PRODUCT_CONTEXT('',#2,'mechanical');
#9 = PRODUCT_DEFINITION_CONTEXT('part definition',#2,'design');
#10 = ADVANCED_BREP_SHAPE_REPRESENTATION('',(#11,#15),#889);
#11 = AXIS2_PLACEMENT_3D('',#12,#13,#14);
#12 = CARTESIAN_POINT('',(0.,0.,0.));
#13 = DIRECTION('',(0.,0.,1.));
#14 = DIRECTION('',(1.,0.,-0.));
#15 = MANIFOLD_SOLID_BREP('',#16);
#16 = CLOSED_SHELL('',(#17,#57,#146,#235,#252,#269,#286,#303,#320,#337,
    #370,#392,#404,#437,#554,#578,#602,#627,#651,#675,#699,#724,#748,
    #773,#797,#821,#845,#863));
#17 = ADVANCED_FACE('',(#18),#52,.T.);
#18 = FACE_BOUND('',#19,.T.);
#19 = EDGE_LOOP('',(#20,#30,#38,#46));
#20 = ORIENTED_EDGE('',*,*,#21,.T.);
#21 = EDGE_CURVE('',#22,#24,#26,.T.);
#22 = VERTEX_POINT('',#23);
#23 = CARTESIAN_POINT('',(0.,0.,0.));
#24 = VERTEX_POINT('',#25);
#25 = CARTESIAN_POINT('',(0.,3.,-1.E-15));
#26 = LINE('',#27,#28);
#27 = CARTESIAN_POINT('',(0.,0.,0.));
#28 = VECTOR('',#29,1.);
#29 = DIRECTION('',(0.,1.,-2.2E-16));
#30 = ORIENTED_EDGE('',*,*,#31,.T.);
#31 = EDGE_CURVE('',#24,#32,#34,.T.);
#32 = VERTEX_POINT('',#33);
#33 = CARTESIAN_POINT('',(36.,3.,-1.E-15));
#34 = LINE('',#35,#36);
#35 = CARTESIAN_POINT('',(0.,3.,-1.E-15));
#36 = VECTOR('',#37,1.);
#37 = DIRECTION('',(1.,0.,0.));
#38 = ORIENTED_EDGE('',*,*,#39,.F.);
#39 = EDGE_CURVE('',#40,#32,#42,.T.);
#40 = VERTEX_POINT('',#41);
#41 = CARTESIAN_POINT('',(36.,0.,0.));
#42 = LINE('',#43,#44);
#43 = CARTESIAN_POINT('',(36.,0.,0.));
#44 = VECTOR('',#45,1.);
#45 = DIRECTION('',(0.,1.,-2.2E-16));
#46 = ORIENTED_EDGE('',*,*,#47,.F.);
#47 = EDGE_CURVE('',#22,#40,#48,.T.);
#48 = LINE('',#49,#50);
#49 = CARTESIAN_POINT('',(0.,0.,0.));
#50 = VECTOR('',#51,1.);
#51 = DIRECTION('',(1.,0.,0.));
#52 = PLANE('',#53);
#53 = AXIS2_PLACEMENT_3D('',#54,#55,#56);
#54 = CARTESIAN_POINT('',(0.,0.,0.));
#55 = DIRECTION('',(0.,-2.2E-16,-1.));
#56 = DIRECTION('',(1.,0.,0.));
#57 = ADVANCED_FACE('',(#58),#141,.T.);
#58 = FACE_BOUND('',#59,.T.);
#59 = EDGE_LOOP('',(#60,#68,#76,#85,#93,#101,#109,#117,#126,#134,#140));
#60 = ORIENTED_EDGE('',*,*,#61,.F.);
#61 = EDGE_CURVE('',#62,#22,#64,.T.);
#62 = VERTEX_POINT('',#63);
#63 = CARTESIAN_POINT('',(0.,6.E-15,25.));
#64 = LINE('',#65,#66);
#65 = CARTESIAN_POINT('',(0.,5.55E-15,25.));
#66 = VECTOR('',#67,1.);
#67 = DIRECTION('',(0.,-2.2E-16,-1.));
#68 = ORIENTED_EDGE('',*,*,#69,.T.);
#69 = EDGE_CURVE('',#62,#70,#72,.T.);
#70 = VERTEX_POINT('',#71);
#71 = CARTESIAN_POINT('',(0.,2.7111552E-07,28.000001689654));
#72 = LINE('',#73,#74);
#73 = CARTESIAN_POINT('',(0.,2.7111552026E-07,24.));
#74 = VECTOR('',#75,1.);
#75 = DIRECTION('',(0.,0.,1.));
#76 = ORIENTED_EDGE('',*,*,#77,.F.);
#77 = EDGE_CURVE('',#78,#70,#80,.T.);
#78 = VERTEX_POINT('',#79);
#79 = CARTESIAN_POINT('',(0.,0.878680696296,30.121321));
#80 = CIRCLE('',#81,2.999999728885);
#81 = AXIS2_PLACEMENT_3D('',#82,#83,#84);
#82 = CARTESIAN_POINT('',(0.,3.,28.));
#83 = DIRECTION('',(1.,0.,0.));
#84 = DIRECTION('',(0.,1.,0.));
#85 = ORIENTED_EDGE('',*,*,#86,.T.);
#86 = EDGE_CURVE('',#78,#87,#89,.T.);
#87 = VERTEX_POINT('',#88);
#88 = CARTESIAN_POINT('',(0.,26.999999870259,54.999999908534));
#89 = LINE('',#90,#91);
#90 = CARTESIAN_POINT('',(0.,0.878680696296,30.121321));
#91 = VECTOR('',#92,1.);
#92 = DIRECTION('',(0.,0.724120873649,0.689673082225));
#93 = ORIENTED_EDGE('',*,*,#94,.F.);
#94 = EDGE_CURVE('',#95,#87,#97,.T.);
#95 = VERTEX_POINT('',#96);
#96 = CARTESIAN_POINT('',(0.,26.999999870259,60.));
#97 = LINE('',#98,#99);
#98 = CARTESIAN_POINT('',(0.,26.999999870259,60.));
#99 = VECTOR('',#100,1.);
#100 = DIRECTION('',(0.,0.,-1.));
#101 = ORIENTED_EDGE('',*,*,#102,.F.);
#102 = EDGE_CURVE('',#103,#95,#105,.T.);
#103 = VERTEX_POINT('',#104);
#104 = CARTESIAN_POINT('',(0.,30.,60.));
#105 = LINE('',#106,#107);
#106 = CARTESIAN_POINT('',(0.,30.,60.));
#107 = VECTOR('',#108,1.);
#108 = DIRECTION('',(0.,-1.,0.));
#109 = ORIENTED_EDGE('',*,*,#110,.F.);
#110 = EDGE_CURVE('',#111,#103,#113,.T.);
#111 = VERTEX_POINT('',#112);
#112 = CARTESIAN_POINT('',(0.,30.,54.999998850042));
#113 = LINE('',#114,#115);
#114 = CARTESIAN_POINT('',(0.,30.,54.999998850042));
#115 = VECTOR('',#116,1.);
#116 = DIRECTION('',(0.,0.,1.));
#117 = ORIENTED_EDGE('',*,*,#118,.F.);
#118 = EDGE_CURVE('',#119,#111,#121,.T.);
#119 = VERTEX_POINT('',#120);
#120 = CARTESIAN_POINT('',(0.,29.121319903711,52.878679071385));
#121 = CIRCLE('',#122,3.000000129742);
#122 = AXIS2_PLACEMENT_3D('',#123,#124,#125);
#123 = CARTESIAN_POINT('',(0.,26.999999870259,54.999999908534));
#124 = DIRECTION('',(1.,0.,0.));
#125 = DIRECTION('',(0.,1.,0.));
#126 = ORIENTED_EDGE('',*,*,#127,.T.);
#127 = EDGE_CURVE('',#119,#128,#130,.T.);
#128 = VERTEX_POINT('',#129);
#129 = CARTESIAN_POINT('',(0.,3.,28.));
#130 = LINE('',#131,#132);
#131 = CARTESIAN_POINT('',(0.,29.121319903711,52.878679071385));
#132 = VECTOR('',#133,1.);
#133 = DIRECTION('',(0.,-0.724120881017,-0.689673074489));
#134 = ORIENTED_EDGE('',*,*,#135,.T.);
#135 = EDGE_CURVE('',#128,#24,#136,.T.);
#136 = LINE('',#137,#138);
#137 = CARTESIAN_POINT('',(0.,3.,25.));
#138 = VECTOR('',#139,1.);
#139 = DIRECTION('',(0.,-2.2E-16,-1.));
#140 = ORIENTED_EDGE('',*,*,#21,.F.);
#141 = PLANE('',#142);
#142 = AXIS2_PLACEMENT_3D('',#143,#144,#145);
#143 = CARTESIAN_POINT('',(0.,10.827881448408,31.765056562446));
#144 = DIRECTION('',(-1.,-0.,-0.));
#145 = DIRECTION('',(0.,0.,-1.));
#146 = ADVANCED_FACE('',(#147),#230,.T.);
#147 = FACE_BOUND('',#148,.T.);
#148 = EDGE_LOOP('',(#149,#157,#158,#166,#174,#183,#191,#199,#207,#215,
    #224));
#149 = ORIENTED_EDGE('',*,*,#150,.F.);
#150 = EDGE_CURVE('',#40,#151,#153,.T.);
#151 = VERTEX_POINT('',#152);
#152 = CARTESIAN_POINT('',(36.,6.E-15,25.));
#153 = LINE('',#154,#155);
#154 = CARTESIAN_POINT('',(36.,0.,0.));
#155 = VECTOR('',#156,1.);
#156 = DIRECTION('',(0.,2.2E-16,1.));
#157 = ORIENTED_EDGE('',*,*,#39,.T.);
#158 = ORIENTED_EDGE('',*,*,#159,.T.);
#159 = EDGE_CURVE('',#32,#160,#162,.T.);
#160 = VERTEX_POINT('',#161);
#161 = CARTESIAN_POINT('',(36.,3.,28.));
#162 = LINE('',#163,#164);
#163 = CARTESIAN_POINT('',(36.,3.,-6.7E-16));
#164 = VECTOR('',#165,1.);
#165 = DIRECTION('',(0.,2.2E-16,1.));
#166 = ORIENTED_EDGE('',*,*,#167,.F.);
#167 = EDGE_CURVE('',#168,#160,#170,.T.);
#168 = VERTEX_POINT('',#169);
#169 = CARTESIAN_POINT('',(36.,29.121319903711,52.878679071385));
#170 = LINE('',#171,#172);
#171 = CARTESIAN_POINT('',(36.,29.121319903711,52.878679071385));
#172 = VECTOR('',#173,1.);
#173 = DIRECTION('',(0.,-0.724120881017,-0.689673074489));
#174 = ORIENTED_EDGE('',*,*,#175,.T.);
#175 = EDGE_CURVE('',#168,#176,#178,.T.);
#176 = VERTEX_POINT('',#177);
#177 = CARTESIAN_POINT('',(36.,30.,54.999998850042));
#178 = CIRCLE('',#179,3.000000129742);
#179 = AXIS2_PLACEMENT_3D('',#180,#181,#182);
#180 = CARTESIAN_POINT('',(36.,26.999999870259,54.999999908534));
#181 = DIRECTION('',(1.,0.,0.));
#182 = DIRECTION('',(0.,1.,0.));
#183 = ORIENTED_EDGE('',*,*,#184,.T.);
#184 = EDGE_CURVE('',#176,#185,#187,.T.);
#185 = VERTEX_POINT('',#186);
#186 = CARTESIAN_POINT('',(36.,30.,60.));
#187 = LINE('',#188,#189);
#188 = CARTESIAN_POINT('',(36.,30.,54.999998850042));
#189 = VECTOR('',#190,1.);
#190 = DIRECTION('',(0.,0.,1.));
#191 = ORIENTED_EDGE('',*,*,#192,.T.);
#192 = EDGE_CURVE('',#185,#193,#195,.T.);
#193 = VERTEX_POINT('',#194);
#194 = CARTESIAN_POINT('',(36.,26.999999870259,60.));
#195 = LINE('',#196,#197);
#196 = CARTESIAN_POINT('',(36.,30.,60.));
#197 = VECTOR('',#198,1.);
#198 = DIRECTION('',(0.,-1.,0.));
#199 = ORIENTED_EDGE('',*,*,#200,.T.);
#200 = EDGE_CURVE('',#193,#201,#203,.T.);
#201 = VERTEX_POINT('',#202);
#202 = CARTESIAN_POINT('',(36.,26.999999870259,54.999999908534));
#203 = LINE('',#204,#205);
#204 = CARTESIAN_POINT('',(36.,26.999999870259,60.));
#205 = VECTOR('',#206,1.);
#206 = DIRECTION('',(0.,0.,-1.));
#207 = ORIENTED_EDGE('',*,*,#208,.F.);
#208 = EDGE_CURVE('',#209,#201,#211,.T.);
#209 = VERTEX_POINT('',#210);
#210 = CARTESIAN_POINT('',(36.,0.878680696296,30.121321));
#211 = LINE('',#212,#213);
#212 = CARTESIAN_POINT('',(36.,0.878680696296,30.121321));
#213 = VECTOR('',#214,1.);
#214 = DIRECTION('',(0.,0.724120873649,0.689673082225));
#215 = ORIENTED_EDGE('',*,*,#216,.T.);
#216 = EDGE_CURVE('',#209,#217,#219,.T.);
#217 = VERTEX_POINT('',#218);
#218 = CARTESIAN_POINT('',(36.,2.7111552E-07,28.000001689654));
#219 = CIRCLE('',#220,2.999999728885);
#220 = AXIS2_PLACEMENT_3D('',#221,#222,#223);
#221 = CARTESIAN_POINT('',(36.,3.,28.));
#222 = DIRECTION('',(1.,0.,0.));
#223 = DIRECTION('',(0.,1.,0.));
#224 = ORIENTED_EDGE('',*,*,#225,.F.);
#225 = EDGE_CURVE('',#151,#217,#226,.T.);
#226 = LINE('',#227,#228);
#227 = CARTESIAN_POINT('',(36.,2.7111552026E-07,24.));
#228 = VECTOR('',#229,1.);
#229 = DIRECTION('',(0.,0.,1.));
#230 = PLANE('',#231);
#231 = AXIS2_PLACEMENT_3D('',#232,#233,#234);
#232 = CARTESIAN_POINT('',(36.,10.827881448408,31.765056562446));
#233 = DIRECTION('',(1.,0.,0.));
#234 = DIRECTION('',(0.,0.,1.));
#235 = ADVANCED_FACE('',(#236),#247,.T.);
#236 = FACE_BOUND('',#237,.T.);
#237 = EDGE_LOOP('',(#238,#244,#245,#246));
#238 = ORIENTED_EDGE('',*,*,#239,.T.);
#239 = EDGE_CURVE('',#151,#62,#240,.T.);
#240 = LINE('',#241,#242);
#241 = CARTESIAN_POINT('',(36.,0.,25.));
#242 = VECTOR('',#243,1.);
#243 = DIRECTION('',(-1.,0.,0.));
#244 = ORIENTED_EDGE('',*,*,#61,.T.);
#245 = ORIENTED_EDGE('',*,*,#47,.T.);
#246 = ORIENTED_EDGE('',*,*,#150,.T.);
#247 = PLANE('',#248);
#248 = AXIS2_PLACEMENT_3D('',#249,#250,#251);
#249 = CARTESIAN_POINT('',(18.,2.78E-15,12.5));
#250 = DIRECTION('',(-0.,-1.,-0.));
#251 = DIRECTION('',(0.,0.,-1.));
#252 = ADVANCED_FACE('',(#253),#264,.T.);
#253 = FACE_BOUND('',#254,.T.);
#254 = EDGE_LOOP('',(#255,#261,#262,#263));
#255 = ORIENTED_EDGE('',*,*,#256,.T.);
#256 = EDGE_CURVE('',#128,#160,#257,.T.);
#257 = LINE('',#258,#259);
#258 = CARTESIAN_POINT('',(0.,3.,28.));
#259 = VECTOR('',#260,1.);
#260 = DIRECTION('',(1.,0.,0.));
#261 = ORIENTED_EDGE('',*,*,#159,.F.);
#262 = ORIENTED_EDGE('',*,*,#31,.F.);
#263 = ORIENTED_EDGE('',*,*,#135,.F.);
#264 = PLANE('',#265);
#265 = AXIS2_PLACEMENT_3D('',#266,#267,#268);
#266 = CARTESIAN_POINT('',(18.,3.,14.));
#267 = DIRECTION('',(0.,1.,0.));
#268 = DIRECTION('',(0.,0.,1.));
#269 = ADVANCED_FACE('',(#270),#281,.T.);
#270 = FACE_BOUND('',#271,.T.);
#271 = EDGE_LOOP('',(#272,#273,#274,#275));
#272 = ORIENTED_EDGE('',*,*,#69,.F.);
#273 = ORIENTED_EDGE('',*,*,#239,.F.);
#274 = ORIENTED_EDGE('',*,*,#225,.T.);
#275 = ORIENTED_EDGE('',*,*,#276,.F.);
#276 = EDGE_CURVE('',#70,#217,#277,.T.);
#277 = LINE('',#278,#279);
#278 = CARTESIAN_POINT('',(0.,2.7111552026E-07,28.000001689654));
#279 = VECTOR('',#280,1.);
#280 = DIRECTION('',(1.,0.,0.));
#281 = PLANE('',#282);
#282 = AXIS2_PLACEMENT_3D('',#283,#284,#285);
#283 = CARTESIAN_POINT('',(0.,2.7111552026E-07,24.));
#284 = DIRECTION('',(0.,-1.,0.));
#285 = DIRECTION('',(0.,0.,1.));
#286 = ADVANCED_FACE('',(#287),#298,.T.);
#287 = FACE_BOUND('',#288,.F.);
#288 = EDGE_LOOP('',(#289,#295,#296,#297));
#289 = ORIENTED_EDGE('',*,*,#290,.T.);
#290 = EDGE_CURVE('',#78,#209,#291,.T.);
#291 = LINE('',#292,#293);
#292 = CARTESIAN_POINT('',(0.,0.878680696296,30.121321));
#293 = VECTOR('',#294,1.);
#294 = DIRECTION('',(1.,0.,0.));
#295 = ORIENTED_EDGE('',*,*,#216,.T.);
#296 = ORIENTED_EDGE('',*,*,#276,.F.);
#297 = ORIENTED_EDGE('',*,*,#77,.F.);
#298 = CYLINDRICAL_SURFACE('',#299,2.999999728885);
#299 = AXIS2_PLACEMENT_3D('',#300,#301,#302);
#300 = CARTESIAN_POINT('',(0.,3.,28.));
#301 = DIRECTION('',(-1.,-0.,-0.));
#302 = DIRECTION('',(0.,1.,0.));
#303 = ADVANCED_FACE('',(#304),#315,.T.);
#304 = FACE_BOUND('',#305,.T.);
#305 = EDGE_LOOP('',(#306,#307,#308,#314));
#306 = ORIENTED_EDGE('',*,*,#290,.T.);
#307 = ORIENTED_EDGE('',*,*,#208,.T.);
#308 = ORIENTED_EDGE('',*,*,#309,.F.);
#309 = EDGE_CURVE('',#87,#201,#310,.T.);
#310 = LINE('',#311,#312);
#311 = CARTESIAN_POINT('',(0.,26.999999870259,54.999999908534));
#312 = VECTOR('',#313,1.);
#313 = DIRECTION('',(1.,0.,0.));
#314 = ORIENTED_EDGE('',*,*,#86,.F.);
#315 = PLANE('',#316);
#316 = AXIS2_PLACEMENT_3D('',#317,#318,#319);
#317 = CARTESIAN_POINT('',(0.,0.878680696296,30.121321));
#318 = DIRECTION('',(0.,-0.689673082225,0.724120873649));
#319 = DIRECTION('',(0.,0.724120873649,0.689673082225));
#320 = ADVANCED_FACE('',(#321),#332,.F.);
#321 = FACE_BOUND('',#322,.F.);
#322 = EDGE_LOOP('',(#323,#329,#330,#331));
#323 = ORIENTED_EDGE('',*,*,#324,.T.);
#324 = EDGE_CURVE('',#95,#193,#325,.T.);
#325 = LINE('',#326,#327);
#326 = CARTESIAN_POINT('',(0.,26.999999870259,60.));
#327 = VECTOR('',#328,1.);
#328 = DIRECTION('',(1.,0.,0.));
#329 = ORIENTED_EDGE('',*,*,#200,.T.);
#330 = ORIENTED_EDGE('',*,*,#309,.F.);
#331 = ORIENTED_EDGE('',*,*,#94,.F.);
#332 = PLANE('',#333);
#333 = AXIS2_PLACEMENT_3D('',#334,#335,#336);
#334 = CARTESIAN_POINT('',(0.,26.999999870259,60.));
#335 = DIRECTION('',(0.,1.,0.));
#336 = DIRECTION('',(0.,0.,-1.));
#337 = ADVANCED_FACE('',(#338),#365,.F.);
#338 = FACE_BOUND('',#339,.F.);
#339 = EDGE_LOOP('',(#340,#341,#350,#358));
#340 = ORIENTED_EDGE('',*,*,#102,.F.);
#341 = ORIENTED_EDGE('',*,*,#342,.T.);
#342 = EDGE_CURVE('',#103,#343,#345,.T.);
#343 = VERTEX_POINT('',#344);
#344 = CARTESIAN_POINT('',(-3.000001098077,30.,63.));
#345 = CIRCLE('',#346,3.);
#346 = AXIS2_PLACEMENT_3D('',#347,#348,#349);
#347 = CARTESIAN_POINT('',(-3.,30.,60.));
#348 = DIRECTION('',(0.,-1.,0.));
#349 = DIRECTION('',(1.,0.,0.));
#350 = ORIENTED_EDGE('',*,*,#351,.F.);
#351 = EDGE_CURVE('',#352,#343,#354,.T.);
#352 = VERTEX_POINT('',#353);
#353 = CARTESIAN_POINT('',(-3.000001098077,27.,63.));
#354 = LINE('',#355,#356);
#355 = CARTESIAN_POINT('',(-3.000001098077,27.,63.));
#356 = VECTOR('',#357,1.);
#357 = DIRECTION('',(0.,1.,-2.2E-16));
#358 = ORIENTED_EDGE('',*,*,#359,.F.);
#359 = EDGE_CURVE('',#95,#352,#360,.T.);
#360 = CIRCLE('',#361,3.);
#361 = AXIS2_PLACEMENT_3D('',#362,#363,#364);
#362 = CARTESIAN_POINT('',(-3.,27.,60.));
#363 = DIRECTION('',(0.,-1.,0.));
#364 = DIRECTION('',(1.,0.,0.));
#365 = CYLINDRICAL_SURFACE('',#366,3.);
#366 = AXIS2_PLACEMENT_3D('',#367,#368,#369);
#367 = CARTESIAN_POINT('',(-3.,27.,60.));
#368 = DIRECTION('',(0.,-1.,2.2E-16));
#369 = DIRECTION('',(1.,0.,0.));
#370 = ADVANCED_FACE('',(#371),#387,.T.);
#371 = FACE_BOUND('',#372,.F.);
#372 = EDGE_LOOP('',(#373,#379,#380,#386));
#373 = ORIENTED_EDGE('',*,*,#374,.T.);
#374 = EDGE_CURVE('',#119,#168,#375,.T.);
#375 = LINE('',#376,#377);
#376 = CARTESIAN_POINT('',(0.,29.121319903711,52.878679071385));
#377 = VECTOR('',#378,1.);
#378 = DIRECTION('',(1.,0.,0.));
#379 = ORIENTED_EDGE('',*,*,#175,.T.);
#380 = ORIENTED_EDGE('',*,*,#381,.F.);
#381 = EDGE_CURVE('',#111,#176,#382,.T.);
#382 = LINE('',#383,#384);
#383 = CARTESIAN_POINT('',(0.,30.,54.999998850042));
#384 = VECTOR('',#385,1.);
#385 = DIRECTION('',(1.,0.,0.));
#386 = ORIENTED_EDGE('',*,*,#118,.F.);
#387 = CYLINDRICAL_SURFACE('',#388,3.000000129742);
#388 = AXIS2_PLACEMENT_3D('',#389,#390,#391);
#389 = CARTESIAN_POINT('',(0.,26.999999870259,54.999999908534));
#390 = DIRECTION('',(-1.,-0.,-0.));
#391 = DIRECTION('',(0.,1.,0.));
#392 = ADVANCED_FACE('',(#393),#399,.T.);
#393 = FACE_BOUND('',#394,.T.);
#394 = EDGE_LOOP('',(#395,#396,#397,#398));
#395 = ORIENTED_EDGE('',*,*,#374,.T.);
#396 = ORIENTED_EDGE('',*,*,#167,.T.);
#397 = ORIENTED_EDGE('',*,*,#256,.F.);
#398 = ORIENTED_EDGE('',*,*,#127,.F.);
#399 = PLANE('',#400);
#400 = AXIS2_PLACEMENT_3D('',#401,#402,#403);
#401 = CARTESIAN_POINT('',(0.,29.121319903711,52.878679071385));
#402 = DIRECTION('',(0.,0.689673074489,-0.724120881017));
#403 = DIRECTION('',(0.,-0.724120881017,-0.689673074489));
#404 = ADVANCED_FACE('',(#405),#432,.F.);
#405 = FACE_BOUND('',#406,.F.);
#406 = EDGE_LOOP('',(#407,#417,#424,#425));
#407 = ORIENTED_EDGE('',*,*,#408,.T.);
#408 = EDGE_CURVE('',#409,#411,#413,.T.);
#409 = VERTEX_POINT('',#410);
#410 = CARTESIAN_POINT('',(39.000001,27.,63.));
#411 = VERTEX_POINT('',#412);
#412 = CARTESIAN_POINT('',(39.000001,30.,63.));
#413 = LINE('',#414,#415);
#414 = CARTESIAN_POINT('',(39.000001,27.,63.));
#415 = VECTOR('',#416,1.);
#416 = DIRECTION('',(0.,1.,-2.2E-16));
#417 = ORIENTED_EDGE('',*,*,#418,.T.);
#418 = EDGE_CURVE('',#411,#185,#419,.T.);
#419 = CIRCLE('',#420,3.);
#420 = AXIS2_PLACEMENT_3D('',#421,#422,#423);
#421 = CARTESIAN_POINT('',(39.,30.,60.));
#422 = DIRECTION('',(0.,-1.,0.));
#423 = DIRECTION('',(1.,0.,0.));
#424 = ORIENTED_EDGE('',*,*,#192,.T.);
#425 = ORIENTED_EDGE('',*,*,#426,.F.);
#426 = EDGE_CURVE('',#409,#193,#427,.T.);
#427 = CIRCLE('',#428,3.);
#428 = AXIS2_PLACEMENT_3D('',#429,#430,#431);
#429 = CARTESIAN_POINT('',(39.,27.,60.));
#430 = DIRECTION('',(0.,-1.,0.));
#431 = DIRECTION('',(1.,0.,0.));
#432 = CYLINDRICAL_SURFACE('',#433,3.);
#433 = AXIS2_PLACEMENT_3D('',#434,#435,#436);
#434 = CARTESIAN_POINT('',(39.,27.,60.));
#435 = DIRECTION('',(0.,-1.,2.2E-16));
#436 = DIRECTION('',(1.,0.,0.));
#437 = ADVANCED_FACE('',(#438),#549,.F.);
#438 = FACE_BOUND('',#439,.F.);
#439 = EDGE_LOOP('',(#440,#441,#442,#450,#459,#467,#475,#483,#492,#500,
    #509,#517,#525,#533,#542,#548));
#440 = ORIENTED_EDGE('',*,*,#324,.F.);
#441 = ORIENTED_EDGE('',*,*,#359,.T.);
#442 = ORIENTED_EDGE('',*,*,#443,.T.);
#443 = EDGE_CURVE('',#352,#444,#446,.T.);
#444 = VERTEX_POINT('',#445);
#445 = CARTESIAN_POINT('',(-11.99999994115,27.,63.));
#446 = LINE('',#447,#448);
#447 = CARTESIAN_POINT('',(-3.000001098077,27.,63.));
#448 = VECTOR('',#449,1.);
#449 = DIRECTION('',(-1.,0.,0.));
#450 = ORIENTED_EDGE('',*,*,#451,.F.);
#451 = EDGE_CURVE('',#452,#444,#454,.T.);
#452 = VERTEX_POINT('',#453);
#453 = CARTESIAN_POINT('',(-15.,27.,65.999999));
#454 = CIRCLE('',#455,3.);
#455 = AXIS2_PLACEMENT_3D('',#456,#457,#458);
#456 = CARTESIAN_POINT('',(-12.,27.,66.));
#457 = DIRECTION('',(0.,-1.,0.));
#458 = DIRECTION('',(1.,0.,0.));
#459 = ORIENTED_EDGE('',*,*,#460,.T.);
#460 = EDGE_CURVE('',#452,#461,#463,.T.);
#461 = VERTEX_POINT('',#462);
#462 = CARTESIAN_POINT('',(-15.,27.,124.));
#463 = LINE('',#464,#465);
#464 = CARTESIAN_POINT('',(-15.,27.,65.999999));
#465 = VECTOR('',#466,1.);
#466 = DIRECTION('',(0.,0.,1.));
#467 = ORIENTED_EDGE('',*,*,#468,.T.);
#468 = EDGE_CURVE('',#461,#469,#471,.T.);
#469 = VERTEX_POINT('',#470);
#470 = CARTESIAN_POINT('',(4.,27.,124.));
#471 = LINE('',#472,#473);
#472 = CARTESIAN_POINT('',(-15.,27.,124.));
#473 = VECTOR('',#474,1.);
#474 = DIRECTION('',(1.,0.,0.));
#475 = ORIENTED_EDGE('',*,*,#476,.T.);
#476 = EDGE_CURVE('',#469,#477,#479,.T.);
#477 = VERTEX_POINT('',#478);
#478 = CARTESIAN_POINT('',(4.,27.,81.999998960769));
#479 = LINE('',#480,#481);
#480 = CARTESIAN_POINT('',(4.,27.,89.));
#481 = VECTOR('',#482,1.);
#482 = DIRECTION('',(0.,-2.2E-16,-1.));
#483 = ORIENTED_EDGE('',*,*,#484,.T.);
#484 = EDGE_CURVE('',#477,#485,#487,.T.);
#485 = VERTEX_POINT('',#486);
#486 = CARTESIAN_POINT('',(7.000000058846,27.,79.));
#487 = CIRCLE('',#488,3.);
#488 = AXIS2_PLACEMENT_3D('',#489,#490,#491);
#489 = CARTESIAN_POINT('',(7.,27.,82.));
#490 = DIRECTION('',(0.,-1.,0.));
#491 = DIRECTION('',(1.,0.,0.));
#492 = ORIENTED_EDGE('',*,*,#493,.T.);
#493 = EDGE_CURVE('',#485,#494,#496,.T.);
#494 = VERTEX_POINT('',#495);
#495 = CARTESIAN_POINT('',(29.,27.,79.));
#496 = LINE('',#497,#498);
#497 = CARTESIAN_POINT('',(7.000000058846,27.,79.));
#498 = VECTOR('',#499,1.);
#499 = DIRECTION('',(1.,0.,0.));
#500 = ORIENTED_EDGE('',*,*,#501,.T.);
#501 = EDGE_CURVE('',#494,#502,#504,.T.);
#502 = VERTEX_POINT('',#503);
#503 = CARTESIAN_POINT('',(32.,27.,81.999999078461));
#504 = CIRCLE('',#505,3.);
#505 = AXIS2_PLACEMENT_3D('',#506,#507,#508);
#506 = CARTESIAN_POINT('',(29.,27.,82.));
#507 = DIRECTION('',(0.,-1.,0.));
#508 = DIRECTION('',(1.,0.,0.));
#509 = ORIENTED_EDGE('',*,*,#510,.F.);
#510 = EDGE_CURVE('',#511,#502,#513,.T.);
#511 = VERTEX_POINT('',#512);
#512 = CARTESIAN_POINT('',(32.,27.,124.));
#513 = LINE('',#514,#515);
#514 = CARTESIAN_POINT('',(32.,27.,124.));
#515 = VECTOR('',#516,1.);
#516 = DIRECTION('',(0.,-2.2E-16,-1.));
#517 = ORIENTED_EDGE('',*,*,#518,.F.);
#518 = EDGE_CURVE('',#519,#511,#521,.T.);
#519 = VERTEX_POINT('',#520);
#520 = CARTESIAN_POINT('',(51.,27.,124.));
#521 = LINE('',#522,#523);
#522 = CARTESIAN_POINT('',(51.,27.,124.));
#523 = VECTOR('',#524,1.);
#524 = DIRECTION('',(-1.,0.,0.));
#525 = ORIENTED_EDGE('',*,*,#526,.F.);
#526 = EDGE_CURVE('',#527,#519,#529,.T.);
#527 = VERTEX_POINT('',#528);
#528 = CARTESIAN_POINT('',(51.,27.,65.999999078461));
#529 = LINE('',#530,#531);
#530 = CARTESIAN_POINT('',(51.,27.,65.999999078461));
#531 = VECTOR('',#532,1.);
#532 = DIRECTION('',(0.,0.,1.));
#533 = ORIENTED_EDGE('',*,*,#534,.F.);
#534 = EDGE_CURVE('',#535,#527,#537,.T.);
#535 = VERTEX_POINT('',#536);
#536 = CARTESIAN_POINT('',(48.000000058846,27.,63.));
#537 = CIRCLE('',#538,3.);
#538 = AXIS2_PLACEMENT_3D('',#539,#540,#541);
#539 = CARTESIAN_POINT('',(48.,27.,66.));
#540 = DIRECTION('',(0.,-1.,0.));
#541 = DIRECTION('',(1.,0.,0.));
#542 = ORIENTED_EDGE('',*,*,#543,.F.);
#543 = EDGE_CURVE('',#409,#535,#544,.T.);
#544 = LINE('',#545,#546);
#545 = CARTESIAN_POINT('',(39.000001,27.,63.));
#546 = VECTOR('',#547,1.);
#547 = DIRECTION('',(1.,0.,0.));
#548 = ORIENTED_EDGE('',*,*,#426,.T.);
#549 = PLANE('',#550);
#550 = AXIS2_PLACEMENT_3D('',#551,#552,#553);
#551 = CARTESIAN_POINT('',(18.000000000155,27.,91.640371707903));
#552 = DIRECTION('',(0.,1.,-2.3E-16));
#553 = DIRECTION('',(0.,2.3E-16,1.));
#554 = ADVANCED_FACE('',(#555),#573,.F.);
#555 = FACE_BOUND('',#556,.F.);
#556 = EDGE_LOOP('',(#557,#558,#566,#572));
#557 = ORIENTED_EDGE('',*,*,#351,.T.);
#558 = ORIENTED_EDGE('',*,*,#559,.T.);
#559 = EDGE_CURVE('',#343,#560,#562,.T.);
#560 = VERTEX_POINT('',#561);
#561 = CARTESIAN_POINT('',(-11.99999994115,30.,63.));
#562 = LINE('',#563,#564);
#563 = CARTESIAN_POINT('',(-3.000001098077,30.,63.));
#564 = VECTOR('',#565,1.);
#565 = DIRECTION('',(-1.,0.,0.));
#566 = ORIENTED_EDGE('',*,*,#567,.F.);
#567 = EDGE_CURVE('',#444,#560,#568,.T.);
#568 = LINE('',#569,#570);
#569 = CARTESIAN_POINT('',(-11.99999994115,27.,63.));
#570 = VECTOR('',#571,1.);
#571 = DIRECTION('',(0.,1.,-2.2E-16));
#572 = ORIENTED_EDGE('',*,*,#443,.F.);
#573 = PLANE('',#574);
#574 = AXIS2_PLACEMENT_3D('',#575,#576,#577);
#575 = CARTESIAN_POINT('',(-3.000001098077,27.,63.));
#576 = DIRECTION('',(0.,2.2E-16,1.));
#577 = DIRECTION('',(-1.,0.,0.));
#578 = ADVANCED_FACE('',(#579),#597,.T.);
#579 = FACE_BOUND('',#580,.T.);
#580 = EDGE_LOOP('',(#581,#582,#590,#596));
#581 = ORIENTED_EDGE('',*,*,#408,.T.);
#582 = ORIENTED_EDGE('',*,*,#583,.T.);
#583 = EDGE_CURVE('',#411,#584,#586,.T.);
#584 = VERTEX_POINT('',#585);
#585 = CARTESIAN_POINT('',(48.000000058846,30.,63.));
#586 = LINE('',#587,#588);
#587 = CARTESIAN_POINT('',(39.000001,30.,63.));
#588 = VECTOR('',#589,1.);
#589 = DIRECTION('',(1.,0.,0.));
#590 = ORIENTED_EDGE('',*,*,#591,.F.);
#591 = EDGE_CURVE('',#535,#584,#592,.T.);
#592 = LINE('',#593,#594);
#593 = CARTESIAN_POINT('',(48.000000058846,27.,63.));
#594 = VECTOR('',#595,1.);
#595 = DIRECTION('',(0.,1.,-2.2E-16));
#596 = ORIENTED_EDGE('',*,*,#543,.F.);
#597 = PLANE('',#598);
#598 = AXIS2_PLACEMENT_3D('',#599,#600,#601);
#599 = CARTESIAN_POINT('',(39.000001,27.,63.));
#600 = DIRECTION('',(0.,-2.2E-16,-1.));
#601 = DIRECTION('',(1.,0.,0.));
#602 = ADVANCED_FACE('',(#603),#622,.T.);
#603 = FACE_BOUND('',#604,.T.);
#604 = EDGE_LOOP('',(#605,#613,#620,#621));
#605 = ORIENTED_EDGE('',*,*,#606,.T.);
#606 = EDGE_CURVE('',#452,#607,#609,.T.);
#607 = VERTEX_POINT('',#608);
#608 = CARTESIAN_POINT('',(-15.,30.,65.999999));
#609 = LINE('',#610,#611);
#610 = CARTESIAN_POINT('',(-15.,27.,65.999999));
#611 = VECTOR('',#612,1.);
#612 = DIRECTION('',(0.,1.,-2.2E-16));
#613 = ORIENTED_EDGE('',*,*,#614,.T.);
#614 = EDGE_CURVE('',#607,#560,#615,.T.);
#615 = CIRCLE('',#616,3.);
#616 = AXIS2_PLACEMENT_3D('',#617,#618,#619);
#617 = CARTESIAN_POINT('',(-12.,30.,66.));
#618 = DIRECTION('',(0.,-1.,0.));
#619 = DIRECTION('',(1.,0.,0.));
#620 = ORIENTED_EDGE('',*,*,#567,.F.);
#621 = ORIENTED_EDGE('',*,*,#451,.F.);
#622 = CYLINDRICAL_SURFACE('',#623,3.);
#623 = AXIS2_PLACEMENT_3D('',#624,#625,#626);
#624 = CARTESIAN_POINT('',(-12.,27.,66.));
#625 = DIRECTION('',(0.,-1.,2.2E-16));
#626 = DIRECTION('',(1.,0.,0.));
#627 = ADVANCED_FACE('',(#628),#646,.F.);
#628 = FACE_BOUND('',#629,.F.);
#629 = EDGE_LOOP('',(#630,#631,#639,#645));
#630 = ORIENTED_EDGE('',*,*,#606,.T.);
#631 = ORIENTED_EDGE('',*,*,#632,.T.);
#632 = EDGE_CURVE('',#607,#633,#635,.T.);
#633 = VERTEX_POINT('',#634);
#634 = CARTESIAN_POINT('',(-15.,30.,124.));
#635 = LINE('',#636,#637);
#636 = CARTESIAN_POINT('',(-15.,30.,65.999999));
#637 = VECTOR('',#638,1.);
#638 = DIRECTION('',(0.,0.,1.));
#639 = ORIENTED_EDGE('',*,*,#640,.F.);
#640 = EDGE_CURVE('',#461,#633,#641,.T.);
#641 = LINE('',#642,#643);
#642 = CARTESIAN_POINT('',(-15.,27.,124.));
#643 = VECTOR('',#644,1.);
#644 = DIRECTION('',(0.,1.,-2.2E-16));
#645 = ORIENTED_EDGE('',*,*,#460,.F.);
#646 = PLANE('',#647);
#647 = AXIS2_PLACEMENT_3D('',#648,#649,#650);
#648 = CARTESIAN_POINT('',(-15.,27.,65.999999));
#649 = DIRECTION('',(1.,0.,0.));
#650 = DIRECTION('',(-0.,2.2E-16,1.));
#651 = ADVANCED_FACE('',(#652),#670,.F.);
#652 = FACE_BOUND('',#653,.F.);
#653 = EDGE_LOOP('',(#654,#655,#663,#669));
#654 = ORIENTED_EDGE('',*,*,#640,.T.);
#655 = ORIENTED_EDGE('',*,*,#656,.T.);
#656 = EDGE_CURVE('',#633,#657,#659,.T.);
#657 = VERTEX_POINT('',#658);
#658 = CARTESIAN_POINT('',(4.,30.,124.));
#659 = LINE('',#660,#661);
#660 = CARTESIAN_POINT('',(-15.,30.,124.));
#661 = VECTOR('',#662,1.);
#662 = DIRECTION('',(1.,0.,0.));
#663 = ORIENTED_EDGE('',*,*,#664,.F.);
#664 = EDGE_CURVE('',#469,#657,#665,.T.);
#665 = LINE('',#666,#667);
#666 = CARTESIAN_POINT('',(4.,27.,124.));
#667 = VECTOR('',#668,1.);
#668 = DIRECTION('',(0.,1.,-2.2E-16));
#669 = ORIENTED_EDGE('',*,*,#468,.F.);
#670 = PLANE('',#671);
#671 = AXIS2_PLACEMENT_3D('',#672,#673,#674);
#672 = CARTESIAN_POINT('',(-15.,27.,124.));
#673 = DIRECTION('',(0.,-2.2E-16,-1.));
#674 = DIRECTION('',(1.,0.,0.));
#675 = ADVANCED_FACE('',(#676),#694,.T.);
#676 = FACE_BOUND('',#677,.T.);
#677 = EDGE_LOOP('',(#678,#679,#680,#688));
#678 = ORIENTED_EDGE('',*,*,#664,.F.);
#679 = ORIENTED_EDGE('',*,*,#476,.T.);
#680 = ORIENTED_EDGE('',*,*,#681,.T.);
#681 = EDGE_CURVE('',#477,#682,#684,.T.);
#682 = VERTEX_POINT('',#683);
#683 = CARTESIAN_POINT('',(4.,30.,81.999998960769));
#684 = LINE('',#685,#686);
#685 = CARTESIAN_POINT('',(4.,27.,81.999998960769));
#686 = VECTOR('',#687,1.);
#687 = DIRECTION('',(0.,1.,-2.2E-16));
#688 = ORIENTED_EDGE('',*,*,#689,.F.);
#689 = EDGE_CURVE('',#657,#682,#690,.T.);
#690 = LINE('',#691,#692);
#691 = CARTESIAN_POINT('',(4.,30.,124.));
#692 = VECTOR('',#693,1.);
#693 = DIRECTION('',(0.,-2.2E-16,-1.));
#694 = PLANE('',#695);
#695 = AXIS2_PLACEMENT_3D('',#696,#697,#698);
#696 = CARTESIAN_POINT('',(4.,28.5,102.99999948038));
#697 = DIRECTION('',(1.,0.,0.));
#698 = DIRECTION('',(0.,0.,1.));
#699 = ADVANCED_FACE('',(#700),#719,.F.);
#700 = FACE_BOUND('',#701,.F.);
#701 = EDGE_LOOP('',(#702,#703,#712,#718));
#702 = ORIENTED_EDGE('',*,*,#681,.T.);
#703 = ORIENTED_EDGE('',*,*,#704,.T.);
#704 = EDGE_CURVE('',#682,#705,#707,.T.);
#705 = VERTEX_POINT('',#706);
#706 = CARTESIAN_POINT('',(7.000000058846,30.,79.));
#707 = CIRCLE('',#708,3.);
#708 = AXIS2_PLACEMENT_3D('',#709,#710,#711);
#709 = CARTESIAN_POINT('',(7.,30.,82.));
#710 = DIRECTION('',(0.,-1.,0.));
#711 = DIRECTION('',(1.,0.,0.));
#712 = ORIENTED_EDGE('',*,*,#713,.F.);
#713 = EDGE_CURVE('',#485,#705,#714,.T.);
#714 = LINE('',#715,#716);
#715 = CARTESIAN_POINT('',(7.000000058846,27.,79.));
#716 = VECTOR('',#717,1.);
#717 = DIRECTION('',(0.,1.,-2.2E-16));
#718 = ORIENTED_EDGE('',*,*,#484,.F.);
#719 = CYLINDRICAL_SURFACE('',#720,3.);
#720 = AXIS2_PLACEMENT_3D('',#721,#722,#723);
#721 = CARTESIAN_POINT('',(7.,27.,82.));
#722 = DIRECTION('',(0.,-1.,2.2E-16));
#723 = DIRECTION('',(1.,0.,0.));
#724 = ADVANCED_FACE('',(#725),#743,.F.);
#725 = FACE_BOUND('',#726,.F.);
#726 = EDGE_LOOP('',(#727,#728,#736,#742));
#727 = ORIENTED_EDGE('',*,*,#713,.T.);
#728 = ORIENTED_EDGE('',*,*,#729,.T.);
#729 = EDGE_CURVE('',#705,#730,#732,.T.);
#730 = VERTEX_POINT('',#731);
#731 = CARTESIAN_POINT('',(29.,30.,79.));
#732 = LINE('',#733,#734);
#733 = CARTESIAN_POINT('',(7.000000058846,30.,79.));
#734 = VECTOR('',#735,1.);
#735 = DIRECTION('',(1.,0.,0.));
#736 = ORIENTED_EDGE('',*,*,#737,.F.);
#737 = EDGE_CURVE('',#494,#730,#738,.T.);
#738 = LINE('',#739,#740);
#739 = CARTESIAN_POINT('',(29.,27.,79.));
#740 = VECTOR('',#741,1.);
#741 = DIRECTION('',(0.,1.,-2.2E-16));
#742 = ORIENTED_EDGE('',*,*,#493,.F.);
#743 = PLANE('',#744);
#744 = AXIS2_PLACEMENT_3D('',#745,#746,#747);
#745 = CARTESIAN_POINT('',(7.000000058846,27.,79.));
#746 = DIRECTION('',(0.,-2.2E-16,-1.));
#747 = DIRECTION('',(1.,0.,0.));
#748 = ADVANCED_FACE('',(#749),#768,.F.);
#749 = FACE_BOUND('',#750,.F.);
#750 = EDGE_LOOP('',(#751,#752,#761,#767));
#751 = ORIENTED_EDGE('',*,*,#737,.T.);
#752 = ORIENTED_EDGE('',*,*,#753,.T.);
#753 = EDGE_CURVE('',#730,#754,#756,.T.);
#754 = VERTEX_POINT('',#755);
#755 = CARTESIAN_POINT('',(32.,30.,81.999999078461));
#756 = CIRCLE('',#757,3.);
#757 = AXIS2_PLACEMENT_3D('',#758,#759,#760);
#758 = CARTESIAN_POINT('',(29.,30.,82.));
#759 = DIRECTION('',(0.,-1.,0.));
#760 = DIRECTION('',(1.,0.,0.));
#761 = ORIENTED_EDGE('',*,*,#762,.F.);
#762 = EDGE_CURVE('',#502,#754,#763,.T.);
#763 = LINE('',#764,#765);
#764 = CARTESIAN_POINT('',(32.,27.,81.999999078461));
#765 = VECTOR('',#766,1.);
#766 = DIRECTION('',(0.,1.,-2.2E-16));
#767 = ORIENTED_EDGE('',*,*,#501,.F.);
#768 = CYLINDRICAL_SURFACE('',#769,3.);
#769 = AXIS2_PLACEMENT_3D('',#770,#771,#772);
#770 = CARTESIAN_POINT('',(29.,27.,82.));
#771 = DIRECTION('',(0.,-1.,2.2E-16));
#772 = DIRECTION('',(1.,0.,0.));
#773 = ADVANCED_FACE('',(#774),#792,.T.);
#774 = FACE_BOUND('',#775,.T.);
#775 = EDGE_LOOP('',(#776,#777,#778,#786));
#776 = ORIENTED_EDGE('',*,*,#762,.F.);
#777 = ORIENTED_EDGE('',*,*,#510,.F.);
#778 = ORIENTED_EDGE('',*,*,#779,.T.);
#779 = EDGE_CURVE('',#511,#780,#782,.T.);
#780 = VERTEX_POINT('',#781);
#781 = CARTESIAN_POINT('',(32.,30.,124.));
#782 = LINE('',#783,#784);
#783 = CARTESIAN_POINT('',(32.,27.,124.));
#784 = VECTOR('',#785,1.);
#785 = DIRECTION('',(0.,1.,-2.2E-16));
#786 = ORIENTED_EDGE('',*,*,#787,.T.);
#787 = EDGE_CURVE('',#780,#754,#788,.T.);
#788 = LINE('',#789,#790);
#789 = CARTESIAN_POINT('',(32.,30.,89.));
#790 = VECTOR('',#791,1.);
#791 = DIRECTION('',(0.,-2.2E-16,-1.));
#792 = PLANE('',#793);
#793 = AXIS2_PLACEMENT_3D('',#794,#795,#796);
#794 = CARTESIAN_POINT('',(32.,28.5,102.99999953923));
#795 = DIRECTION('',(-1.,-0.,-0.));
#796 = DIRECTION('',(0.,0.,-1.));
#797 = ADVANCED_FACE('',(#798),#816,.T.);
#798 = FACE_BOUND('',#799,.T.);
#799 = EDGE_LOOP('',(#800,#808,#814,#815));
#800 = ORIENTED_EDGE('',*,*,#801,.T.);
#801 = EDGE_CURVE('',#519,#802,#804,.T.);
#802 = VERTEX_POINT('',#803);
#803 = CARTESIAN_POINT('',(51.,30.,124.));
#804 = LINE('',#805,#806);
#805 = CARTESIAN_POINT('',(51.,27.,124.));
#806 = VECTOR('',#807,1.);
#807 = DIRECTION('',(0.,1.,-2.2E-16));
#808 = ORIENTED_EDGE('',*,*,#809,.T.);
#809 = EDGE_CURVE('',#802,#780,#810,.T.);
#810 = LINE('',#811,#812);
#811 = CARTESIAN_POINT('',(51.,30.,124.));
#812 = VECTOR('',#813,1.);
#813 = DIRECTION('',(-1.,0.,0.));
#814 = ORIENTED_EDGE('',*,*,#779,.F.);
#815 = ORIENTED_EDGE('',*,*,#518,.F.);
#816 = PLANE('',#817);
#817 = AXIS2_PLACEMENT_3D('',#818,#819,#820);
#818 = CARTESIAN_POINT('',(51.,27.,124.));
#819 = DIRECTION('',(0.,2.2E-16,1.));
#820 = DIRECTION('',(-1.,0.,0.));
#821 = ADVANCED_FACE('',(#822),#840,.T.);
#822 = FACE_BOUND('',#823,.T.);
#823 = EDGE_LOOP('',(#824,#832,#838,#839));
#824 = ORIENTED_EDGE('',*,*,#825,.T.);
#825 = EDGE_CURVE('',#527,#826,#828,.T.);
#826 = VERTEX_POINT('',#827);
#827 = CARTESIAN_POINT('',(51.,30.,65.999999078461));
#828 = LINE('',#829,#830);
#829 = CARTESIAN_POINT('',(51.,27.,65.999999078461));
#830 = VECTOR('',#831,1.);
#831 = DIRECTION('',(0.,1.,-2.2E-16));
#832 = ORIENTED_EDGE('',*,*,#833,.T.);
#833 = EDGE_CURVE('',#826,#802,#834,.T.);
#834 = LINE('',#835,#836);
#835 = CARTESIAN_POINT('',(51.,30.,65.999999078461));
#836 = VECTOR('',#837,1.);
#837 = DIRECTION('',(0.,0.,1.));
#838 = ORIENTED_EDGE('',*,*,#801,.F.);
#839 = ORIENTED_EDGE('',*,*,#526,.F.);
#840 = PLANE('',#841);
#841 = AXIS2_PLACEMENT_3D('',#842,#843,#844);
#842 = CARTESIAN_POINT('',(51.,27.,65.999999078461));
#843 = DIRECTION('',(1.,0.,0.));
#844 = DIRECTION('',(-0.,2.2E-16,1.));
#845 = ADVANCED_FACE('',(#846),#858,.T.);
#846 = FACE_BOUND('',#847,.T.);
#847 = EDGE_LOOP('',(#848,#849,#856,#857));
#848 = ORIENTED_EDGE('',*,*,#591,.T.);
#849 = ORIENTED_EDGE('',*,*,#850,.T.);
#850 = EDGE_CURVE('',#584,#826,#851,.T.);
#851 = CIRCLE('',#852,3.);
#852 = AXIS2_PLACEMENT_3D('',#853,#854,#855);
#853 = CARTESIAN_POINT('',(48.,30.,66.));
#854 = DIRECTION('',(0.,-1.,0.));
#855 = DIRECTION('',(1.,0.,0.));
#856 = ORIENTED_EDGE('',*,*,#825,.F.);
#857 = ORIENTED_EDGE('',*,*,#534,.F.);
#858 = CYLINDRICAL_SURFACE('',#859,3.);
#859 = AXIS2_PLACEMENT_3D('',#860,#861,#862);
#860 = CARTESIAN_POINT('',(48.,27.,66.));
#861 = DIRECTION('',(0.,-1.,2.2E-16));
#862 = DIRECTION('',(1.,0.,0.));
#863 = ADVANCED_FACE('',(#864),#884,.T.);
#864 = FACE_BOUND('',#865,.T.);
#865 = EDGE_LOOP('',(#866,#867,#868,#869,#870,#871,#872,#873,#874,#875,
    #876,#877,#878,#879,#880,#881,#882,#883));
#866 = ORIENTED_EDGE('',*,*,#381,.F.);
#867 = ORIENTED_EDGE('',*,*,#110,.T.);
#868 = ORIENTED_EDGE('',*,*,#342,.T.);
#869 = ORIENTED_EDGE('',*,*,#559,.T.);
#870 = ORIENTED_EDGE('',*,*,#614,.F.);
#871 = ORIENTED_EDGE('',*,*,#632,.T.);
#872 = ORIENTED_EDGE('',*,*,#656,.T.);
#873 = ORIENTED_EDGE('',*,*,#689,.T.);
#874 = ORIENTED_EDGE('',*,*,#704,.T.);
#875 = ORIENTED_EDGE('',*,*,#729,.T.);
#876 = ORIENTED_EDGE('',*,*,#753,.T.);
#877 = ORIENTED_EDGE('',*,*,#787,.F.);
#878 = ORIENTED_EDGE('',*,*,#809,.F.);
#879 = ORIENTED_EDGE('',*,*,#833,.F.);
#880 = ORIENTED_EDGE('',*,*,#850,.F.);
#881 = ORIENTED_EDGE('',*,*,#583,.F.);
#882 = ORIENTED_EDGE('',*,*,#418,.T.);
#883 = ORIENTED_EDGE('',*,*,#184,.F.);
#884 = PLANE('',#885);
#885 = AXIS2_PLACEMENT_3D('',#886,#887,#888);
#886 = CARTESIAN_POINT('',(18.000000000151,30.,90.158910808111));
#887 = DIRECTION('',(0.,1.,-3.1E-16));
#888 = DIRECTION('',(0.,3.1E-16,1.));
#889 = ( GEOMETRIC_REPRESENTATION_CONTEXT(3) 
GLOBAL_UNCERTAINTY_ASSIGNED_CONTEXT((#893)) GLOBAL_UNIT_ASSIGNED_CONTEXT
((#890,#891,#892)) REPRESENTATION_CONTEXT('Context #1',
  '3D Context with UNIT and UNCERTAINTY') );
#890 = ( LENGTH_UNIT() NAMED_UNIT(*) SI_UNIT(.MILLI.,.METRE.) );
#891 = ( NAMED_UNIT(*) PLANE_ANGLE_UNIT() SI_UNIT($,.RADIAN.) );
#892 = ( NAMED_UNIT(*) SI_UNIT($,.STERADIAN.) SOLID_ANGLE_UNIT() );
#893 = UNCERTAINTY_MEASURE_WITH_UNIT(LENGTH_MEASURE(5.E-06),#890,
  'distance_accuracy_value','confusion accuracy');
#894 = PRODUCT_RELATED_PRODUCT_CATEGORY('part',$,(#7));
ENDSEC;
END-ISO-10303-21;
