ISO-10303-21;
HEADER;
FILE_DESCRIPTION(('FreeCAD Model'),'2;1');
FILE_NAME('Open CASCADE Shape Model','2026-09-05T02:34:02',(''),(''),
  'Open CASCADE STEP processor 7.8','FreeCAD','Unknown');
FILE_SCHEMA(('AUTOMOTIVE_DESIGN { 1 0 10303 214 1 1 1 1 }'));
ENDSEC;
DATA;
#1 = APPLICATION_PROTOCOL_DEFINITION('international standard',
  'automotive_design',2000,#2);
#2 = APPLICATION_CONTEXT(
  'core data for automotive mechanical design processes');
#3 = SHAPE_DEFINITION_REPRESENTATION(#4,#10);
#4 = PRODUCT_DEFINITION_SHAPE('','',#5);
#5 = PRODUCT_DEFINITION('design','',#6,#9);
#6 = PRODUCT_DEFINITION_FORMATION('','',#7);
#7 = PRODUCT('HW-C3-DCLBB-SP-A','HW-C3-DCLBB-SP-A','',(#8));
#8 = PRODUCT_CONTEXT('',#2,'mechanical');
#9 = PRODUCT_DEFINITION_CONTEXT('part definition',#2,'design');
#10 = ADVANCED_BREP_SHAPE_REPRESENTATION('',(#11,#15),#1321);
#11 = AXIS2_PLACEMENT_3D('',#12,#13,#14);
#12 = CARTESIAN_POINT('',(0.,0.,0.));
#13 = DIRECTION('',(0.,0.,1.));
#14 = DIRECTION('',(1.,0.,-0.));
#15 = MANIFOLD_SOLID_BREP('',#16);
#16 = CLOSED_SHELL('',(#17,#57,#88,#119,#332,#545,#562,#579,#596,#647,
    #664,#689,#706,#754,#766,#783,#800,#817,#834,#851,#868,#885,#902,
    #919,#936,#953,#970,#987,#1080,#1173,#1190,#1207,#1224,#1241,#1253,
    #1270,#1287,#1304));
#17 = ADVANCED_FACE('',(#18),#52,.F.);
#18 = FACE_BOUND('',#19,.F.);
#19 = EDGE_LOOP('',(#20,#30,#38,#46));
#20 = ORIENTED_EDGE('',*,*,#21,.T.);
#21 = EDGE_CURVE('',#22,#24,#26,.T.);
#22 = VERTEX_POINT('',#23);
#23 = CARTESIAN_POINT('',(15.,30.,0.));
#24 = VERTEX_POINT('',#25);
#25 = CARTESIAN_POINT('',(15.,30.,0.25));
#26 = LINE('',#27,#28);
#27 = CARTESIAN_POINT('',(15.,30.,0.));
#28 = VECTOR('',#29,1.);
#29 = DIRECTION('',(0.,0.,1.));
#30 = ORIENTED_EDGE('',*,*,#31,.T.);
#31 = EDGE_CURVE('',#24,#32,#34,.T.);
#32 = VERTEX_POINT('',#33);
#33 = CARTESIAN_POINT('',(380.,30.,0.25));
#34 = LINE('',#35,#36);
#35 = CARTESIAN_POINT('',(15.,30.,0.25));
#36 = VECTOR('',#37,1.);
#37 = DIRECTION('',(1.,0.,0.));
#38 = ORIENTED_EDGE('',*,*,#39,.F.);
#39 = EDGE_CURVE('',#40,#32,#42,.T.);
#40 = VERTEX_POINT('',#41);
#41 = CARTESIAN_POINT('',(380.,30.,0.));
#42 = LINE('',#43,#44);
#43 = CARTESIAN_POINT('',(380.,30.,0.));
#44 = VECTOR('',#45,1.);
#45 = DIRECTION('',(0.,0.,1.));
#46 = ORIENTED_EDGE('',*,*,#47,.F.);
#47 = EDGE_CURVE('',#22,#40,#48,.T.);
#48 = LINE('',#49,#50);
#49 = CARTESIAN_POINT('',(15.,30.,0.));
#50 = VECTOR('',#51,1.);
#51 = DIRECTION('',(1.,0.,0.));
#52 = PLANE('',#53);
#53 = AXIS2_PLACEMENT_3D('',#54,#55,#56);
#54 = CARTESIAN_POINT('',(15.,30.,0.));
#55 = DIRECTION('',(0.,1.,0.));
#56 = DIRECTION('',(1.,0.,0.));
#57 = ADVANCED_FACE('',(#58),#83,.T.);
#58 = FACE_BOUND('',#59,.T.);
#59 = EDGE_LOOP('',(#60,#61,#69,#77));
#60 = ORIENTED_EDGE('',*,*,#21,.T.);
#61 = ORIENTED_EDGE('',*,*,#62,.T.);
#62 = EDGE_CURVE('',#24,#63,#65,.T.);
#63 = VERTEX_POINT('',#64);
#64 = CARTESIAN_POINT('',(15.,150.,0.25));
#65 = LINE('',#66,#67);
#66 = CARTESIAN_POINT('',(15.,40.,0.25));
#67 = VECTOR('',#68,1.);
#68 = DIRECTION('',(0.,1.,0.));
#69 = ORIENTED_EDGE('',*,*,#70,.F.);
#70 = EDGE_CURVE('',#71,#63,#73,.T.);
#71 = VERTEX_POINT('',#72);
#72 = CARTESIAN_POINT('',(15.,150.,0.));
#73 = LINE('',#74,#75);
#74 = CARTESIAN_POINT('',(15.,150.,0.));
#75 = VECTOR('',#76,1.);
#76 = DIRECTION('',(0.,0.,1.));
#77 = ORIENTED_EDGE('',*,*,#78,.T.);
#78 = EDGE_CURVE('',#71,#22,#79,.T.);
#79 = LINE('',#80,#81);
#80 = CARTESIAN_POINT('',(15.,40.,0.));
#81 = VECTOR('',#82,1.);
#82 = DIRECTION('',(0.,-1.,0.));
#83 = PLANE('',#84);
#84 = AXIS2_PLACEMENT_3D('',#85,#86,#87);
#85 = CARTESIAN_POINT('',(15.,90.,0.125));
#86 = DIRECTION('',(-1.,-0.,-0.));
#87 = DIRECTION('',(0.,0.,-1.));
#88 = ADVANCED_FACE('',(#89),#114,.T.);
#89 = FACE_BOUND('',#90,.T.);
#90 = EDGE_LOOP('',(#91,#101,#107,#108));
#91 = ORIENTED_EDGE('',*,*,#92,.T.);
#92 = EDGE_CURVE('',#93,#95,#97,.T.);
#93 = VERTEX_POINT('',#94);
#94 = CARTESIAN_POINT('',(380.,280.,0.));
#95 = VERTEX_POINT('',#96);
#96 = CARTESIAN_POINT('',(380.,280.,0.25));
#97 = LINE('',#98,#99);
#98 = CARTESIAN_POINT('',(380.,280.,0.));
#99 = VECTOR('',#100,1.);
#100 = DIRECTION('',(0.,0.,1.));
#101 = ORIENTED_EDGE('',*,*,#102,.F.);
#102 = EDGE_CURVE('',#32,#95,#103,.T.);
#103 = LINE('',#104,#105);
#104 = CARTESIAN_POINT('',(380.,30.,0.25));
#105 = VECTOR('',#106,1.);
#106 = DIRECTION('',(0.,1.,0.));
#107 = ORIENTED_EDGE('',*,*,#39,.F.);
#108 = ORIENTED_EDGE('',*,*,#109,.F.);
#109 = EDGE_CURVE('',#93,#40,#110,.T.);
#110 = LINE('',#111,#112);
#111 = CARTESIAN_POINT('',(380.,280.,0.));
#112 = VECTOR('',#113,1.);
#113 = DIRECTION('',(0.,-1.,0.));
#114 = PLANE('',#115);
#115 = AXIS2_PLACEMENT_3D('',#116,#117,#118);
#116 = CARTESIAN_POINT('',(380.,155.,0.125));
#117 = DIRECTION('',(1.,0.,0.));
#118 = DIRECTION('',(0.,0.,1.));
#119 = ADVANCED_FACE('',(#120,#195,#206,#217,#228,#239,#250,#261,#272,
    #283,#294,#305,#316),#327,.T.);
#120 = FACE_BOUND('',#121,.T.);
#121 = EDGE_LOOP('',(#122,#123,#124,#132,#140,#148,#156,#164,#172,#180,
    #188,#194));
#122 = ORIENTED_EDGE('',*,*,#47,.F.);
#123 = ORIENTED_EDGE('',*,*,#78,.F.);
#124 = ORIENTED_EDGE('',*,*,#125,.T.);
#125 = EDGE_CURVE('',#71,#126,#128,.T.);
#126 = VERTEX_POINT('',#127);
#127 = CARTESIAN_POINT('',(20.,150.,0.));
#128 = LINE('',#129,#130);
#129 = CARTESIAN_POINT('',(15.,150.,0.));
#130 = VECTOR('',#131,1.);
#131 = DIRECTION('',(1.,0.,0.));
#132 = ORIENTED_EDGE('',*,*,#133,.T.);
#133 = EDGE_CURVE('',#126,#134,#136,.T.);
#134 = VERTEX_POINT('',#135);
#135 = CARTESIAN_POINT('',(20.,160.,0.));
#136 = LINE('',#137,#138);
#137 = CARTESIAN_POINT('',(20.,150.,0.));
#138 = VECTOR('',#139,1.);
#139 = DIRECTION('',(0.,1.,0.));
#140 = ORIENTED_EDGE('',*,*,#141,.T.);
#141 = EDGE_CURVE('',#134,#142,#144,.T.);
#142 = VERTEX_POINT('',#143);
#143 = CARTESIAN_POINT('',(15.,160.,0.));
#144 = LINE('',#145,#146);
#145 = CARTESIAN_POINT('',(20.,160.,0.));
#146 = VECTOR('',#147,1.);
#147 = DIRECTION('',(-1.,0.,0.));
#148 = ORIENTED_EDGE('',*,*,#149,.T.);
#149 = EDGE_CURVE('',#142,#150,#152,.T.);
#150 = VERTEX_POINT('',#151);
#151 = CARTESIAN_POINT('',(15.,280.,0.));
#152 = LINE('',#153,#154);
#153 = CARTESIAN_POINT('',(15.,160.,0.));
#154 = VECTOR('',#155,1.);
#155 = DIRECTION('',(0.,1.,0.));
#156 = ORIENTED_EDGE('',*,*,#157,.T.);
#157 = EDGE_CURVE('',#150,#158,#160,.T.);
#158 = VERTEX_POINT('',#159);
#159 = CARTESIAN_POINT('',(120.,280.,-1.07E-13));
#160 = LINE('',#161,#162);
#161 = CARTESIAN_POINT('',(196.12227174442,280.,-1.0166E-13));
#162 = VECTOR('',#163,1.);
#163 = DIRECTION('',(1.,0.,0.));
#164 = ORIENTED_EDGE('',*,*,#165,.T.);
#165 = EDGE_CURVE('',#158,#166,#168,.T.);
#166 = VERTEX_POINT('',#167);
#167 = CARTESIAN_POINT('',(120.,315.00000098038,-1.6E-13));
#168 = LINE('',#169,#170);
#169 = CARTESIAN_POINT('',(120.,247.53703727772,-8.86E-14));
#170 = VECTOR('',#171,1.);
#171 = DIRECTION('',(0.,1.,-4.6E-16));
#172 = ORIENTED_EDGE('',*,*,#173,.T.);
#173 = EDGE_CURVE('',#166,#174,#176,.T.);
#174 = VERTEX_POINT('',#175);
#175 = CARTESIAN_POINT('',(339.,315.00000098038,-1.6E-13));
#176 = LINE('',#177,#178);
#177 = CARTESIAN_POINT('',(5.,315.00000098038,-1.6032E-13));
#178 = VECTOR('',#179,1.);
#179 = DIRECTION('',(1.,0.,0.));
#180 = ORIENTED_EDGE('',*,*,#181,.F.);
#181 = EDGE_CURVE('',#182,#174,#184,.T.);
#182 = VERTEX_POINT('',#183);
#183 = CARTESIAN_POINT('',(339.,280.,-1.07E-13));
#184 = LINE('',#185,#186);
#185 = CARTESIAN_POINT('',(339.,247.53703727772,-8.86E-14));
#186 = VECTOR('',#187,1.);
#187 = DIRECTION('',(0.,1.,-4.6E-16));
#188 = ORIENTED_EDGE('',*,*,#189,.T.);
#189 = EDGE_CURVE('',#182,#93,#190,.T.);
#190 = LINE('',#191,#192);
#191 = CARTESIAN_POINT('',(196.12227174442,280.,-1.0166E-13));
#192 = VECTOR('',#193,1.);
#193 = DIRECTION('',(1.,0.,0.));
#194 = ORIENTED_EDGE('',*,*,#109,.T.);
#195 = FACE_BOUND('',#196,.T.);
#196 = EDGE_LOOP('',(#197));
#197 = ORIENTED_EDGE('',*,*,#198,.F.);
#198 = EDGE_CURVE('',#199,#199,#201,.T.);
#199 = VERTEX_POINT('',#200);
#200 = CARTESIAN_POINT('',(341.000005,211.000003,0.));
#201 = CIRCLE('',#202,9.5);
#202 = AXIS2_PLACEMENT_3D('',#203,#204,#205);
#203 = CARTESIAN_POINT('',(350.500005,211.000003,0.));
#204 = DIRECTION('',(0.,0.,-1.));
#205 = DIRECTION('',(-1.,0.,0.));
#206 = FACE_BOUND('',#207,.T.);
#207 = EDGE_LOOP('',(#208));
#208 = ORIENTED_EDGE('',*,*,#209,.F.);
#209 = EDGE_CURVE('',#210,#210,#212,.T.);
#210 = VERTEX_POINT('',#211);
#211 = CARTESIAN_POINT('',(224.000003,211.000003,0.));
#212 = CIRCLE('',#213,9.5);
#213 = AXIS2_PLACEMENT_3D('',#214,#215,#216);
#214 = CARTESIAN_POINT('',(233.500003,211.000003,0.));
#215 = DIRECTION('',(0.,0.,-1.));
#216 = DIRECTION('',(-1.,0.,0.));
#217 = FACE_BOUND('',#218,.T.);
#218 = EDGE_LOOP('',(#219));
#219 = ORIENTED_EDGE('',*,*,#220,.F.);
#220 = EDGE_CURVE('',#221,#221,#223,.T.);
#221 = VERTEX_POINT('',#222);
#222 = CARTESIAN_POINT('',(266.000005,161.000003,0.));
#223 = CIRCLE('',#224,9.5);
#224 = AXIS2_PLACEMENT_3D('',#225,#226,#227);
#225 = CARTESIAN_POINT('',(275.500005,161.000003,0.));
#226 = DIRECTION('',(0.,0.,-1.));
#227 = DIRECTION('',(-1.,0.,0.));
#228 = FACE_BOUND('',#229,.T.);
#229 = EDGE_LOOP('',(#230));
#230 = ORIENTED_EDGE('',*,*,#231,.F.);
#231 = EDGE_CURVE('',#232,#232,#234,.T.);
#232 = VERTEX_POINT('',#233);
#233 = CARTESIAN_POINT('',(341.000005,109.000002,0.));
#234 = CIRCLE('',#235,9.5);
#235 = AXIS2_PLACEMENT_3D('',#236,#237,#238);
#236 = CARTESIAN_POINT('',(350.500005,109.000002,0.));
#237 = DIRECTION('',(0.,0.,-1.));
#238 = DIRECTION('',(-1.,0.,0.));
#239 = FACE_BOUND('',#240,.T.);
#240 = EDGE_LOOP('',(#241));
#241 = ORIENTED_EDGE('',*,*,#242,.F.);
#242 = EDGE_CURVE('',#243,#243,#245,.T.);
#243 = VERTEX_POINT('',#244);
#244 = CARTESIAN_POINT('',(224.000003,109.000002,0.));
#245 = CIRCLE('',#246,9.5);
#246 = AXIS2_PLACEMENT_3D('',#247,#248,#249);
#247 = CARTESIAN_POINT('',(233.500003,109.000002,0.));
#248 = DIRECTION('',(0.,0.,-1.));
#249 = DIRECTION('',(-1.,0.,0.));
#250 = FACE_BOUND('',#251,.T.);
#251 = EDGE_LOOP('',(#252));
#252 = ORIENTED_EDGE('',*,*,#253,.F.);
#253 = EDGE_CURVE('',#254,#254,#256,.T.);
#254 = VERTEX_POINT('',#255);
#255 = CARTESIAN_POINT('',(266.000005,59.000002,0.));
#256 = CIRCLE('',#257,9.5);
#257 = AXIS2_PLACEMENT_3D('',#258,#259,#260);
#258 = CARTESIAN_POINT('',(275.500005,59.000002,0.));
#259 = DIRECTION('',(0.,0.,-1.));
#260 = DIRECTION('',(-1.,0.,0.));
#261 = FACE_BOUND('',#262,.T.);
#262 = EDGE_LOOP('',(#263));
#263 = ORIENTED_EDGE('',*,*,#264,.F.);
#264 = EDGE_CURVE('',#265,#265,#267,.T.);
#265 = VERTEX_POINT('',#266);
#266 = CARTESIAN_POINT('',(107.000002,211.000003,0.));
#267 = CIRCLE('',#268,9.5);
#268 = AXIS2_PLACEMENT_3D('',#269,#270,#271);
#269 = CARTESIAN_POINT('',(116.500002,211.000003,0.));
#270 = DIRECTION('',(0.,0.,-1.));
#271 = DIRECTION('',(-1.,0.,0.));
#272 = FACE_BOUND('',#273,.T.);
#273 = EDGE_LOOP('',(#274));
#274 = ORIENTED_EDGE('',*,*,#275,.F.);
#275 = EDGE_CURVE('',#276,#276,#278,.T.);
#276 = VERTEX_POINT('',#277);
#277 = CARTESIAN_POINT('',(149.000003,161.000003,0.));
#278 = CIRCLE('',#279,9.5);
#279 = AXIS2_PLACEMENT_3D('',#280,#281,#282);
#280 = CARTESIAN_POINT('',(158.500003,161.000003,0.));
#281 = DIRECTION('',(0.,0.,-1.));
#282 = DIRECTION('',(-1.,0.,0.));
#283 = FACE_BOUND('',#284,.T.);
#284 = EDGE_LOOP('',(#285));
#285 = ORIENTED_EDGE('',*,*,#286,.F.);
#286 = EDGE_CURVE('',#287,#287,#289,.T.);
#287 = VERTEX_POINT('',#288);
#288 = CARTESIAN_POINT('',(32.000002,161.000003,0.));
#289 = CIRCLE('',#290,9.5);
#290 = AXIS2_PLACEMENT_3D('',#291,#292,#293);
#291 = CARTESIAN_POINT('',(41.500002,161.000003,0.));
#292 = DIRECTION('',(0.,0.,-1.));
#293 = DIRECTION('',(-1.,0.,0.));
#294 = FACE_BOUND('',#295,.T.);
#295 = EDGE_LOOP('',(#296));
#296 = ORIENTED_EDGE('',*,*,#297,.F.);
#297 = EDGE_CURVE('',#298,#298,#300,.T.);
#298 = VERTEX_POINT('',#299);
#299 = CARTESIAN_POINT('',(107.000002,109.000002,0.));
#300 = CIRCLE('',#301,9.5);
#301 = AXIS2_PLACEMENT_3D('',#302,#303,#304);
#302 = CARTESIAN_POINT('',(116.500002,109.000002,0.));
#303 = DIRECTION('',(0.,0.,-1.));
#304 = DIRECTION('',(-1.,0.,0.));
#305 = FACE_BOUND('',#306,.T.);
#306 = EDGE_LOOP('',(#307));
#307 = ORIENTED_EDGE('',*,*,#308,.F.);
#308 = EDGE_CURVE('',#309,#309,#311,.T.);
#309 = VERTEX_POINT('',#310);
#310 = CARTESIAN_POINT('',(149.000003,59.000002,0.));
#311 = CIRCLE('',#312,9.5);
#312 = AXIS2_PLACEMENT_3D('',#313,#314,#315);
#313 = CARTESIAN_POINT('',(158.500003,59.000002,0.));
#314 = DIRECTION('',(0.,0.,-1.));
#315 = DIRECTION('',(-1.,0.,0.));
#316 = FACE_BOUND('',#317,.T.);
#317 = EDGE_LOOP('',(#318));
#318 = ORIENTED_EDGE('',*,*,#319,.F.);
#319 = EDGE_CURVE('',#320,#320,#322,.T.);
#320 = VERTEX_POINT('',#321);
#321 = CARTESIAN_POINT('',(32.000002,59.000002,0.));
#322 = CIRCLE('',#323,9.5);
#323 = AXIS2_PLACEMENT_3D('',#324,#325,#326);
#324 = CARTESIAN_POINT('',(41.500002,59.000002,0.));
#325 = DIRECTION('',(0.,0.,-1.));
#326 = DIRECTION('',(-1.,0.,0.));
#327 = PLANE('',#328);
#328 = AXIS2_PLACEMENT_3D('',#329,#330,#331);
#329 = CARTESIAN_POINT('',(196.20370370558,176.07407455544,-5.641E-14));
#330 = DIRECTION('',(-0.,-4.6E-16,-1.));
#331 = DIRECTION('',(0.,-1.,4.6E-16));
#332 = ADVANCED_FACE('',(#333,#408,#419,#430,#441,#452,#463,#474,#485,
    #496,#507,#518,#529),#540,.T.);
#333 = FACE_BOUND('',#334,.T.);
#334 = EDGE_LOOP('',(#335,#336,#337,#338,#346,#354,#362,#370,#378,#386,
    #394,#402));
#335 = ORIENTED_EDGE('',*,*,#62,.F.);
#336 = ORIENTED_EDGE('',*,*,#31,.T.);
#337 = ORIENTED_EDGE('',*,*,#102,.T.);
#338 = ORIENTED_EDGE('',*,*,#339,.T.);
#339 = EDGE_CURVE('',#95,#340,#342,.T.);
#340 = VERTEX_POINT('',#341);
#341 = CARTESIAN_POINT('',(339.,280.,0.25));
#342 = LINE('',#343,#344);
#343 = CARTESIAN_POINT('',(196.12227174449,280.,0.25));
#344 = VECTOR('',#345,1.);
#345 = DIRECTION('',(-1.,0.,0.));
#346 = ORIENTED_EDGE('',*,*,#347,.F.);
#347 = EDGE_CURVE('',#348,#340,#350,.T.);
#348 = VERTEX_POINT('',#349);
#349 = CARTESIAN_POINT('',(339.,315.00000106208,0.25));
#350 = LINE('',#351,#352);
#351 = CARTESIAN_POINT('',(339.,247.53703729777,0.25));
#352 = VECTOR('',#353,1.);
#353 = DIRECTION('',(0.,-1.,4.9E-16));
#354 = ORIENTED_EDGE('',*,*,#355,.F.);
#355 = EDGE_CURVE('',#356,#348,#358,.T.);
#356 = VERTEX_POINT('',#357);
#357 = CARTESIAN_POINT('',(120.,315.00000106208,0.25));
#358 = LINE('',#359,#360);
#359 = CARTESIAN_POINT('',(5.,315.00000106208,0.25));
#360 = VECTOR('',#361,1.);
#361 = DIRECTION('',(1.,0.,0.));
#362 = ORIENTED_EDGE('',*,*,#363,.T.);
#363 = EDGE_CURVE('',#356,#364,#366,.T.);
#364 = VERTEX_POINT('',#365);
#365 = CARTESIAN_POINT('',(120.,280.,0.25));
#366 = LINE('',#367,#368);
#367 = CARTESIAN_POINT('',(120.,247.53703729777,0.25));
#368 = VECTOR('',#369,1.);
#369 = DIRECTION('',(0.,-1.,4.9E-16));
#370 = ORIENTED_EDGE('',*,*,#371,.T.);
#371 = EDGE_CURVE('',#364,#372,#374,.T.);
#372 = VERTEX_POINT('',#373);
#373 = CARTESIAN_POINT('',(15.,280.,0.25));
#374 = LINE('',#375,#376);
#375 = CARTESIAN_POINT('',(196.12227174449,280.,0.25));
#376 = VECTOR('',#377,1.);
#377 = DIRECTION('',(-1.,0.,0.));
#378 = ORIENTED_EDGE('',*,*,#379,.F.);
#379 = EDGE_CURVE('',#380,#372,#382,.T.);
#380 = VERTEX_POINT('',#381);
#381 = CARTESIAN_POINT('',(15.,160.,0.25));
#382 = LINE('',#383,#384);
#383 = CARTESIAN_POINT('',(15.,270.,0.25));
#384 = VECTOR('',#385,1.);
#385 = DIRECTION('',(0.,1.,0.));
#386 = ORIENTED_EDGE('',*,*,#387,.F.);
#387 = EDGE_CURVE('',#388,#380,#390,.T.);
#388 = VERTEX_POINT('',#389);
#389 = CARTESIAN_POINT('',(20.,160.,0.25));
#390 = LINE('',#391,#392);
#391 = CARTESIAN_POINT('',(20.,160.,0.25));
#392 = VECTOR('',#393,1.);
#393 = DIRECTION('',(-1.,0.,0.));
#394 = ORIENTED_EDGE('',*,*,#395,.F.);
#395 = EDGE_CURVE('',#396,#388,#398,.T.);
#396 = VERTEX_POINT('',#397);
#397 = CARTESIAN_POINT('',(20.,150.,0.25));
#398 = LINE('',#399,#400);
#399 = CARTESIAN_POINT('',(20.,150.,0.25));
#400 = VECTOR('',#401,1.);
#401 = DIRECTION('',(0.,1.,0.));
#402 = ORIENTED_EDGE('',*,*,#403,.F.);
#403 = EDGE_CURVE('',#63,#396,#404,.T.);
#404 = LINE('',#405,#406);
#405 = CARTESIAN_POINT('',(15.,150.,0.25));
#406 = VECTOR('',#407,1.);
#407 = DIRECTION('',(1.,0.,0.));
#408 = FACE_BOUND('',#409,.T.);
#409 = EDGE_LOOP('',(#410));
#410 = ORIENTED_EDGE('',*,*,#411,.F.);
#411 = EDGE_CURVE('',#412,#412,#414,.T.);
#412 = VERTEX_POINT('',#413);
#413 = CARTESIAN_POINT('',(341.000005,109.000002,0.25));
#414 = CIRCLE('',#415,9.5);
#415 = AXIS2_PLACEMENT_3D('',#416,#417,#418);
#416 = CARTESIAN_POINT('',(350.500005,109.000002,0.25));
#417 = DIRECTION('',(0.,0.,1.));
#418 = DIRECTION('',(-1.,0.,0.));
#419 = FACE_BOUND('',#420,.T.);
#420 = EDGE_LOOP('',(#421));
#421 = ORIENTED_EDGE('',*,*,#422,.F.);
#422 = EDGE_CURVE('',#423,#423,#425,.T.);
#423 = VERTEX_POINT('',#424);
#424 = CARTESIAN_POINT('',(266.000005,59.000002,0.25));
#425 = CIRCLE('',#426,9.5);
#426 = AXIS2_PLACEMENT_3D('',#427,#428,#429);
#427 = CARTESIAN_POINT('',(275.500005,59.000002,0.25));
#428 = DIRECTION('',(0.,0.,1.));
#429 = DIRECTION('',(-1.,0.,0.));
#430 = FACE_BOUND('',#431,.T.);
#431 = EDGE_LOOP('',(#432));
#432 = ORIENTED_EDGE('',*,*,#433,.F.);
#433 = EDGE_CURVE('',#434,#434,#436,.T.);
#434 = VERTEX_POINT('',#435);
#435 = CARTESIAN_POINT('',(224.000003,109.000002,0.25));
#436 = CIRCLE('',#437,9.5);
#437 = AXIS2_PLACEMENT_3D('',#438,#439,#440);
#438 = CARTESIAN_POINT('',(233.500003,109.000002,0.25));
#439 = DIRECTION('',(0.,0.,1.));
#440 = DIRECTION('',(-1.,0.,0.));
#441 = FACE_BOUND('',#442,.T.);
#442 = EDGE_LOOP('',(#443));
#443 = ORIENTED_EDGE('',*,*,#444,.F.);
#444 = EDGE_CURVE('',#445,#445,#447,.T.);
#445 = VERTEX_POINT('',#446);
#446 = CARTESIAN_POINT('',(341.000005,211.000003,0.25));
#447 = CIRCLE('',#448,9.5);
#448 = AXIS2_PLACEMENT_3D('',#449,#450,#451);
#449 = CARTESIAN_POINT('',(350.500005,211.000003,0.25));
#450 = DIRECTION('',(0.,0.,1.));
#451 = DIRECTION('',(-1.,0.,0.));
#452 = FACE_BOUND('',#453,.T.);
#453 = EDGE_LOOP('',(#454));
#454 = ORIENTED_EDGE('',*,*,#455,.F.);
#455 = EDGE_CURVE('',#456,#456,#458,.T.);
#456 = VERTEX_POINT('',#457);
#457 = CARTESIAN_POINT('',(266.000005,161.000003,0.25));
#458 = CIRCLE('',#459,9.5);
#459 = AXIS2_PLACEMENT_3D('',#460,#461,#462);
#460 = CARTESIAN_POINT('',(275.500005,161.000003,0.25));
#461 = DIRECTION('',(0.,0.,1.));
#462 = DIRECTION('',(-1.,0.,0.));
#463 = FACE_BOUND('',#464,.T.);
#464 = EDGE_LOOP('',(#465));
#465 = ORIENTED_EDGE('',*,*,#466,.F.);
#466 = EDGE_CURVE('',#467,#467,#469,.T.);
#467 = VERTEX_POINT('',#468);
#468 = CARTESIAN_POINT('',(224.000003,211.000003,0.25));
#469 = CIRCLE('',#470,9.5);
#470 = AXIS2_PLACEMENT_3D('',#471,#472,#473);
#471 = CARTESIAN_POINT('',(233.500003,211.000003,0.25));
#472 = DIRECTION('',(0.,0.,1.));
#473 = DIRECTION('',(-1.,0.,0.));
#474 = FACE_BOUND('',#475,.T.);
#475 = EDGE_LOOP('',(#476));
#476 = ORIENTED_EDGE('',*,*,#477,.F.);
#477 = EDGE_CURVE('',#478,#478,#480,.T.);
#478 = VERTEX_POINT('',#479);
#479 = CARTESIAN_POINT('',(149.000003,59.000002,0.25));
#480 = CIRCLE('',#481,9.5);
#481 = AXIS2_PLACEMENT_3D('',#482,#483,#484);
#482 = CARTESIAN_POINT('',(158.500003,59.000002,0.25));
#483 = DIRECTION('',(0.,0.,1.));
#484 = DIRECTION('',(-1.,0.,0.));
#485 = FACE_BOUND('',#486,.T.);
#486 = EDGE_LOOP('',(#487));
#487 = ORIENTED_EDGE('',*,*,#488,.F.);
#488 = EDGE_CURVE('',#489,#489,#491,.T.);
#489 = VERTEX_POINT('',#490);
#490 = CARTESIAN_POINT('',(107.000002,109.000002,0.25));
#491 = CIRCLE('',#492,9.5);
#492 = AXIS2_PLACEMENT_3D('',#493,#494,#495);
#493 = CARTESIAN_POINT('',(116.500002,109.000002,0.25));
#494 = DIRECTION('',(0.,0.,1.));
#495 = DIRECTION('',(-1.,0.,0.));
#496 = FACE_BOUND('',#497,.T.);
#497 = EDGE_LOOP('',(#498));
#498 = ORIENTED_EDGE('',*,*,#499,.F.);
#499 = EDGE_CURVE('',#500,#500,#502,.T.);
#500 = VERTEX_POINT('',#501);
#501 = CARTESIAN_POINT('',(32.000002,59.000002,0.25));
#502 = CIRCLE('',#503,9.5);
#503 = AXIS2_PLACEMENT_3D('',#504,#505,#506);
#504 = CARTESIAN_POINT('',(41.500002,59.000002,0.25));
#505 = DIRECTION('',(0.,0.,1.));
#506 = DIRECTION('',(-1.,0.,0.));
#507 = FACE_BOUND('',#508,.T.);
#508 = EDGE_LOOP('',(#509));
#509 = ORIENTED_EDGE('',*,*,#510,.F.);
#510 = EDGE_CURVE('',#511,#511,#513,.T.);
#511 = VERTEX_POINT('',#512);
#512 = CARTESIAN_POINT('',(149.000003,161.000003,0.25));
#513 = CIRCLE('',#514,9.5);
#514 = AXIS2_PLACEMENT_3D('',#515,#516,#517);
#515 = CARTESIAN_POINT('',(158.500003,161.000003,0.25));
#516 = DIRECTION('',(0.,0.,1.));
#517 = DIRECTION('',(-1.,0.,0.));
#518 = FACE_BOUND('',#519,.T.);
#519 = EDGE_LOOP('',(#520));
#520 = ORIENTED_EDGE('',*,*,#521,.F.);
#521 = EDGE_CURVE('',#522,#522,#524,.T.);
#522 = VERTEX_POINT('',#523);
#523 = CARTESIAN_POINT('',(107.000002,211.000003,0.25));
#524 = CIRCLE('',#525,9.5);
#525 = AXIS2_PLACEMENT_3D('',#526,#527,#528);
#526 = CARTESIAN_POINT('',(116.500002,211.000003,0.25));
#527 = DIRECTION('',(0.,0.,1.));
#528 = DIRECTION('',(-1.,0.,0.));
#529 = FACE_BOUND('',#530,.T.);
#530 = EDGE_LOOP('',(#531));
#531 = ORIENTED_EDGE('',*,*,#532,.F.);
#532 = EDGE_CURVE('',#533,#533,#535,.T.);
#533 = VERTEX_POINT('',#534);
#534 = CARTESIAN_POINT('',(32.000002,161.000003,0.25));
#535 = CIRCLE('',#536,9.5);
#536 = AXIS2_PLACEMENT_3D('',#537,#538,#539);
#537 = CARTESIAN_POINT('',(41.500002,161.000003,0.25));
#538 = DIRECTION('',(0.,0.,1.));
#539 = DIRECTION('',(-1.,0.,0.));
#540 = PLANE('',#541);
#541 = AXIS2_PLACEMENT_3D('',#542,#543,#544);
#542 = CARTESIAN_POINT('',(196.20370370574,176.07407459555,0.25));
#543 = DIRECTION('',(0.,4.9E-16,1.));
#544 = DIRECTION('',(0.,1.,-4.9E-16));
#545 = ADVANCED_FACE('',(#546),#557,.T.);
#546 = FACE_BOUND('',#547,.T.);
#547 = EDGE_LOOP('',(#548,#549,#550,#556));
#548 = ORIENTED_EDGE('',*,*,#70,.T.);
#549 = ORIENTED_EDGE('',*,*,#403,.T.);
#550 = ORIENTED_EDGE('',*,*,#551,.F.);
#551 = EDGE_CURVE('',#126,#396,#552,.T.);
#552 = LINE('',#553,#554);
#553 = CARTESIAN_POINT('',(20.,150.,0.));
#554 = VECTOR('',#555,1.);
#555 = DIRECTION('',(0.,0.,1.));
#556 = ORIENTED_EDGE('',*,*,#125,.F.);
#557 = PLANE('',#558);
#558 = AXIS2_PLACEMENT_3D('',#559,#560,#561);
#559 = CARTESIAN_POINT('',(15.,150.,0.));
#560 = DIRECTION('',(0.,1.,0.));
#561 = DIRECTION('',(1.,0.,0.));
#562 = ADVANCED_FACE('',(#563),#574,.T.);
#563 = FACE_BOUND('',#564,.T.);
#564 = EDGE_LOOP('',(#565,#571,#572,#573));
#565 = ORIENTED_EDGE('',*,*,#566,.T.);
#566 = EDGE_CURVE('',#182,#340,#567,.T.);
#567 = LINE('',#568,#569);
#568 = CARTESIAN_POINT('',(339.,280.,-58.));
#569 = VECTOR('',#570,1.);
#570 = DIRECTION('',(0.,0.,1.));
#571 = ORIENTED_EDGE('',*,*,#339,.F.);
#572 = ORIENTED_EDGE('',*,*,#92,.F.);
#573 = ORIENTED_EDGE('',*,*,#189,.F.);
#574 = PLANE('',#575);
#575 = AXIS2_PLACEMENT_3D('',#576,#577,#578);
#576 = CARTESIAN_POINT('',(196.04083978325,280.,-67.36047020755));
#577 = DIRECTION('',(0.,1.,-3.8E-16));
#578 = DIRECTION('',(0.,3.8E-16,1.));
#579 = ADVANCED_FACE('',(#580),#591,.T.);
#580 = FACE_BOUND('',#581,.T.);
#581 = EDGE_LOOP('',(#582,#583,#584,#590));
#582 = ORIENTED_EDGE('',*,*,#551,.T.);
#583 = ORIENTED_EDGE('',*,*,#395,.T.);
#584 = ORIENTED_EDGE('',*,*,#585,.F.);
#585 = EDGE_CURVE('',#134,#388,#586,.T.);
#586 = LINE('',#587,#588);
#587 = CARTESIAN_POINT('',(20.,160.,0.));
#588 = VECTOR('',#589,1.);
#589 = DIRECTION('',(0.,0.,1.));
#590 = ORIENTED_EDGE('',*,*,#133,.F.);
#591 = PLANE('',#592);
#592 = AXIS2_PLACEMENT_3D('',#593,#594,#595);
#593 = CARTESIAN_POINT('',(20.,150.,0.));
#594 = DIRECTION('',(-1.,0.,0.));
#595 = DIRECTION('',(0.,1.,0.));
#596 = ADVANCED_FACE('',(#597),#642,.F.);
#597 = FACE_BOUND('',#598,.F.);
#598 = EDGE_LOOP('',(#599,#609,#617,#625,#632,#633,#634,#635));
#599 = ORIENTED_EDGE('',*,*,#600,.F.);
#600 = EDGE_CURVE('',#601,#603,#605,.T.);
#601 = VERTEX_POINT('',#602);
#602 = CARTESIAN_POINT('',(339.,318.25,-58.));
#603 = VERTEX_POINT('',#604);
#604 = CARTESIAN_POINT('',(339.,318.25,-3.));
#605 = LINE('',#606,#607);
#606 = CARTESIAN_POINT('',(339.,318.25,-62.25));
#607 = VECTOR('',#608,1.);
#608 = DIRECTION('',(0.,0.,1.));
#609 = ORIENTED_EDGE('',*,*,#610,.T.);
#610 = EDGE_CURVE('',#601,#611,#613,.T.);
#611 = VERTEX_POINT('',#612);
#612 = CARTESIAN_POINT('',(339.,318.,-58.));
#613 = LINE('',#614,#615);
#614 = CARTESIAN_POINT('',(339.,319.,-58.));
#615 = VECTOR('',#616,1.);
#616 = DIRECTION('',(0.,-1.,2.2E-16));
#617 = ORIENTED_EDGE('',*,*,#618,.F.);
#618 = EDGE_CURVE('',#619,#611,#621,.T.);
#619 = VERTEX_POINT('',#620);
#620 = CARTESIAN_POINT('',(339.,318.,-3.));
#621 = LINE('',#622,#623);
#622 = CARTESIAN_POINT('',(339.,318.,-62.25));
#623 = VECTOR('',#624,1.);
#624 = DIRECTION('',(0.,0.,-1.));
#625 = ORIENTED_EDGE('',*,*,#626,.F.);
#626 = EDGE_CURVE('',#174,#619,#627,.T.);
#627 = CIRCLE('',#628,3.);
#628 = AXIS2_PLACEMENT_3D('',#629,#630,#631);
#629 = CARTESIAN_POINT('',(339.,315.,-3.));
#630 = DIRECTION('',(-1.,0.,0.));
#631 = DIRECTION('',(0.,1.,0.));
#632 = ORIENTED_EDGE('',*,*,#181,.F.);
#633 = ORIENTED_EDGE('',*,*,#566,.T.);
#634 = ORIENTED_EDGE('',*,*,#347,.F.);
#635 = ORIENTED_EDGE('',*,*,#636,.T.);
#636 = EDGE_CURVE('',#348,#603,#637,.T.);
#637 = CIRCLE('',#638,3.25);
#638 = AXIS2_PLACEMENT_3D('',#639,#640,#641);
#639 = CARTESIAN_POINT('',(339.,315.,-3.));
#640 = DIRECTION('',(-1.,0.,0.));
#641 = DIRECTION('',(0.,1.,0.));
#642 = PLANE('',#643);
#643 = AXIS2_PLACEMENT_3D('',#644,#645,#646);
#644 = CARTESIAN_POINT('',(339.,319.,-58.));
#645 = DIRECTION('',(-1.,0.,0.));
#646 = DIRECTION('',(0.,2.2E-16,1.));
#647 = ADVANCED_FACE('',(#648),#659,.T.);
#648 = FACE_BOUND('',#649,.T.);
#649 = EDGE_LOOP('',(#650,#651,#652,#658));
#650 = ORIENTED_EDGE('',*,*,#585,.T.);
#651 = ORIENTED_EDGE('',*,*,#387,.T.);
#652 = ORIENTED_EDGE('',*,*,#653,.F.);
#653 = EDGE_CURVE('',#142,#380,#654,.T.);
#654 = LINE('',#655,#656);
#655 = CARTESIAN_POINT('',(15.,160.,0.));
#656 = VECTOR('',#657,1.);
#657 = DIRECTION('',(0.,0.,1.));
#658 = ORIENTED_EDGE('',*,*,#141,.F.);
#659 = PLANE('',#660);
#660 = AXIS2_PLACEMENT_3D('',#661,#662,#663);
#661 = CARTESIAN_POINT('',(20.,160.,0.));
#662 = DIRECTION('',(0.,-1.,0.));
#663 = DIRECTION('',(-1.,0.,0.));
#664 = ADVANCED_FACE('',(#665),#684,.F.);
#665 = FACE_BOUND('',#666,.T.);
#666 = EDGE_LOOP('',(#667,#676,#682,#683));
#667 = ORIENTED_EDGE('',*,*,#668,.T.);
#668 = EDGE_CURVE('',#166,#669,#671,.T.);
#669 = VERTEX_POINT('',#670);
#670 = CARTESIAN_POINT('',(120.,318.,-3.));
#671 = CIRCLE('',#672,3.);
#672 = AXIS2_PLACEMENT_3D('',#673,#674,#675);
#673 = CARTESIAN_POINT('',(120.,315.,-3.));
#674 = DIRECTION('',(-1.,0.,0.));
#675 = DIRECTION('',(0.,1.,0.));
#676 = ORIENTED_EDGE('',*,*,#677,.T.);
#677 = EDGE_CURVE('',#669,#619,#678,.T.);
#678 = LINE('',#679,#680);
#679 = CARTESIAN_POINT('',(5.,318.,-3.));
#680 = VECTOR('',#681,1.);
#681 = DIRECTION('',(1.,0.,0.));
#682 = ORIENTED_EDGE('',*,*,#626,.F.);
#683 = ORIENTED_EDGE('',*,*,#173,.F.);
#684 = CYLINDRICAL_SURFACE('',#685,3.);
#685 = AXIS2_PLACEMENT_3D('',#686,#687,#688);
#686 = CARTESIAN_POINT('',(5.,315.,-3.));
#687 = DIRECTION('',(-1.,-0.,-0.));
#688 = DIRECTION('',(0.,1.,0.));
#689 = ADVANCED_FACE('',(#690),#701,.T.);
#690 = FACE_BOUND('',#691,.T.);
#691 = EDGE_LOOP('',(#692,#693,#694,#700));
#692 = ORIENTED_EDGE('',*,*,#653,.T.);
#693 = ORIENTED_EDGE('',*,*,#379,.T.);
#694 = ORIENTED_EDGE('',*,*,#695,.F.);
#695 = EDGE_CURVE('',#150,#372,#696,.T.);
#696 = LINE('',#697,#698);
#697 = CARTESIAN_POINT('',(15.,280.,0.));
#698 = VECTOR('',#699,1.);
#699 = DIRECTION('',(0.,0.,1.));
#700 = ORIENTED_EDGE('',*,*,#149,.F.);
#701 = PLANE('',#702);
#702 = AXIS2_PLACEMENT_3D('',#703,#704,#705);
#703 = CARTESIAN_POINT('',(15.,220.,0.125));
#704 = DIRECTION('',(-1.,-0.,-0.));
#705 = DIRECTION('',(0.,0.,-1.));
#706 = ADVANCED_FACE('',(#707),#749,.T.);
#707 = FACE_BOUND('',#708,.T.);
#708 = EDGE_LOOP('',(#709,#719,#727,#733,#734,#735,#741,#742));
#709 = ORIENTED_EDGE('',*,*,#710,.F.);
#710 = EDGE_CURVE('',#711,#713,#715,.T.);
#711 = VERTEX_POINT('',#712);
#712 = CARTESIAN_POINT('',(120.,318.25,-58.));
#713 = VERTEX_POINT('',#714);
#714 = CARTESIAN_POINT('',(120.,318.25,-3.));
#715 = LINE('',#716,#717);
#716 = CARTESIAN_POINT('',(120.,318.25,-62.25));
#717 = VECTOR('',#718,1.);
#718 = DIRECTION('',(0.,0.,1.));
#719 = ORIENTED_EDGE('',*,*,#720,.T.);
#720 = EDGE_CURVE('',#711,#721,#723,.T.);
#721 = VERTEX_POINT('',#722);
#722 = CARTESIAN_POINT('',(120.,318.,-58.));
#723 = LINE('',#724,#725);
#724 = CARTESIAN_POINT('',(120.,319.,-58.));
#725 = VECTOR('',#726,1.);
#726 = DIRECTION('',(0.,-1.,2.2E-16));
#727 = ORIENTED_EDGE('',*,*,#728,.F.);
#728 = EDGE_CURVE('',#669,#721,#729,.T.);
#729 = LINE('',#730,#731);
#730 = CARTESIAN_POINT('',(120.,318.,-62.25));
#731 = VECTOR('',#732,1.);
#732 = DIRECTION('',(0.,0.,-1.));
#733 = ORIENTED_EDGE('',*,*,#668,.F.);
#734 = ORIENTED_EDGE('',*,*,#165,.F.);
#735 = ORIENTED_EDGE('',*,*,#736,.T.);
#736 = EDGE_CURVE('',#158,#364,#737,.T.);
#737 = LINE('',#738,#739);
#738 = CARTESIAN_POINT('',(120.,280.,-58.));
#739 = VECTOR('',#740,1.);
#740 = DIRECTION('',(0.,0.,1.));
#741 = ORIENTED_EDGE('',*,*,#363,.F.);
#742 = ORIENTED_EDGE('',*,*,#743,.T.);
#743 = EDGE_CURVE('',#356,#713,#744,.T.);
#744 = CIRCLE('',#745,3.25);
#745 = AXIS2_PLACEMENT_3D('',#746,#747,#748);
#746 = CARTESIAN_POINT('',(120.,315.,-3.));
#747 = DIRECTION('',(-1.,0.,0.));
#748 = DIRECTION('',(0.,1.,0.));
#749 = PLANE('',#750);
#750 = AXIS2_PLACEMENT_3D('',#751,#752,#753);
#751 = CARTESIAN_POINT('',(120.,319.,-58.));
#752 = DIRECTION('',(-1.,0.,0.));
#753 = DIRECTION('',(0.,2.2E-16,1.));
#754 = ADVANCED_FACE('',(#755),#761,.T.);
#755 = FACE_BOUND('',#756,.T.);
#756 = EDGE_LOOP('',(#757,#758,#759,#760));
#757 = ORIENTED_EDGE('',*,*,#371,.F.);
#758 = ORIENTED_EDGE('',*,*,#736,.F.);
#759 = ORIENTED_EDGE('',*,*,#157,.F.);
#760 = ORIENTED_EDGE('',*,*,#695,.T.);
#761 = PLANE('',#762);
#762 = AXIS2_PLACEMENT_3D('',#763,#764,#765);
#763 = CARTESIAN_POINT('',(196.04083978325,280.,-67.36047020755));
#764 = DIRECTION('',(0.,1.,-3.8E-16));
#765 = DIRECTION('',(0.,3.8E-16,1.));
#766 = ADVANCED_FACE('',(#767),#778,.F.);
#767 = FACE_BOUND('',#768,.T.);
#768 = EDGE_LOOP('',(#769,#775,#776,#777));
#769 = ORIENTED_EDGE('',*,*,#770,.F.);
#770 = EDGE_CURVE('',#199,#445,#771,.T.);
#771 = LINE('',#772,#773);
#772 = CARTESIAN_POINT('',(341.000005,211.000003,0.));
#773 = VECTOR('',#774,1.);
#774 = DIRECTION('',(7.E-17,0.,1.));
#775 = ORIENTED_EDGE('',*,*,#198,.T.);
#776 = ORIENTED_EDGE('',*,*,#770,.T.);
#777 = ORIENTED_EDGE('',*,*,#444,.T.);
#778 = CYLINDRICAL_SURFACE('',#779,9.5);
#779 = AXIS2_PLACEMENT_3D('',#780,#781,#782);
#780 = CARTESIAN_POINT('',(350.500005,211.000003,0.));
#781 = DIRECTION('',(0.,0.,1.));
#782 = DIRECTION('',(-1.,0.,0.));
#783 = ADVANCED_FACE('',(#784),#795,.F.);
#784 = FACE_BOUND('',#785,.T.);
#785 = EDGE_LOOP('',(#786,#792,#793,#794));
#786 = ORIENTED_EDGE('',*,*,#787,.F.);
#787 = EDGE_CURVE('',#210,#467,#788,.T.);
#788 = LINE('',#789,#790);
#789 = CARTESIAN_POINT('',(224.000003,211.000003,0.));
#790 = VECTOR('',#791,1.);
#791 = DIRECTION('',(7.E-17,0.,1.));
#792 = ORIENTED_EDGE('',*,*,#209,.T.);
#793 = ORIENTED_EDGE('',*,*,#787,.T.);
#794 = ORIENTED_EDGE('',*,*,#466,.T.);
#795 = CYLINDRICAL_SURFACE('',#796,9.5);
#796 = AXIS2_PLACEMENT_3D('',#797,#798,#799);
#797 = CARTESIAN_POINT('',(233.500003,211.000003,0.));
#798 = DIRECTION('',(0.,0.,1.));
#799 = DIRECTION('',(-1.,0.,0.));
#800 = ADVANCED_FACE('',(#801),#812,.F.);
#801 = FACE_BOUND('',#802,.T.);
#802 = EDGE_LOOP('',(#803,#809,#810,#811));
#803 = ORIENTED_EDGE('',*,*,#804,.F.);
#804 = EDGE_CURVE('',#221,#456,#805,.T.);
#805 = LINE('',#806,#807);
#806 = CARTESIAN_POINT('',(266.000005,161.000003,0.));
#807 = VECTOR('',#808,1.);
#808 = DIRECTION('',(7.E-17,0.,1.));
#809 = ORIENTED_EDGE('',*,*,#220,.T.);
#810 = ORIENTED_EDGE('',*,*,#804,.T.);
#811 = ORIENTED_EDGE('',*,*,#455,.T.);
#812 = CYLINDRICAL_SURFACE('',#813,9.5);
#813 = AXIS2_PLACEMENT_3D('',#814,#815,#816);
#814 = CARTESIAN_POINT('',(275.500005,161.000003,0.));
#815 = DIRECTION('',(0.,0.,1.));
#816 = DIRECTION('',(-1.,0.,0.));
#817 = ADVANCED_FACE('',(#818),#829,.F.);
#818 = FACE_BOUND('',#819,.T.);
#819 = EDGE_LOOP('',(#820,#826,#827,#828));
#820 = ORIENTED_EDGE('',*,*,#821,.F.);
#821 = EDGE_CURVE('',#232,#412,#822,.T.);
#822 = LINE('',#823,#824);
#823 = CARTESIAN_POINT('',(341.000005,109.000002,0.));
#824 = VECTOR('',#825,1.);
#825 = DIRECTION('',(7.E-17,0.,1.));
#826 = ORIENTED_EDGE('',*,*,#231,.T.);
#827 = ORIENTED_EDGE('',*,*,#821,.T.);
#828 = ORIENTED_EDGE('',*,*,#411,.T.);
#829 = CYLINDRICAL_SURFACE('',#830,9.5);
#830 = AXIS2_PLACEMENT_3D('',#831,#832,#833);
#831 = CARTESIAN_POINT('',(350.500005,109.000002,0.));
#832 = DIRECTION('',(0.,0.,1.));
#833 = DIRECTION('',(-1.,0.,0.));
#834 = ADVANCED_FACE('',(#835),#846,.F.);
#835 = FACE_BOUND('',#836,.T.);
#836 = EDGE_LOOP('',(#837,#843,#844,#845));
#837 = ORIENTED_EDGE('',*,*,#838,.F.);
#838 = EDGE_CURVE('',#243,#434,#839,.T.);
#839 = LINE('',#840,#841);
#840 = CARTESIAN_POINT('',(224.000003,109.000002,0.));
#841 = VECTOR('',#842,1.);
#842 = DIRECTION('',(7.E-17,0.,1.));
#843 = ORIENTED_EDGE('',*,*,#242,.T.);
#844 = ORIENTED_EDGE('',*,*,#838,.T.);
#845 = ORIENTED_EDGE('',*,*,#433,.T.);
#846 = CYLINDRICAL_SURFACE('',#847,9.5);
#847 = AXIS2_PLACEMENT_3D('',#848,#849,#850);
#848 = CARTESIAN_POINT('',(233.500003,109.000002,0.));
#849 = DIRECTION('',(0.,0.,1.));
#850 = DIRECTION('',(-1.,0.,0.));
#851 = ADVANCED_FACE('',(#852),#863,.F.);
#852 = FACE_BOUND('',#853,.T.);
#853 = EDGE_LOOP('',(#854,#860,#861,#862));
#854 = ORIENTED_EDGE('',*,*,#855,.F.);
#855 = EDGE_CURVE('',#254,#423,#856,.T.);
#856 = LINE('',#857,#858);
#857 = CARTESIAN_POINT('',(266.000005,59.000002,0.));
#858 = VECTOR('',#859,1.);
#859 = DIRECTION('',(7.E-17,0.,1.));
#860 = ORIENTED_EDGE('',*,*,#253,.T.);
#861 = ORIENTED_EDGE('',*,*,#855,.T.);
#862 = ORIENTED_EDGE('',*,*,#422,.T.);
#863 = CYLINDRICAL_SURFACE('',#864,9.5);
#864 = AXIS2_PLACEMENT_3D('',#865,#866,#867);
#865 = CARTESIAN_POINT('',(275.500005,59.000002,0.));
#866 = DIRECTION('',(0.,0.,1.));
#867 = DIRECTION('',(-1.,0.,0.));
#868 = ADVANCED_FACE('',(#869),#880,.F.);
#869 = FACE_BOUND('',#870,.T.);
#870 = EDGE_LOOP('',(#871,#877,#878,#879));
#871 = ORIENTED_EDGE('',*,*,#872,.F.);
#872 = EDGE_CURVE('',#265,#522,#873,.T.);
#873 = LINE('',#874,#875);
#874 = CARTESIAN_POINT('',(107.000002,211.000003,0.));
#875 = VECTOR('',#876,1.);
#876 = DIRECTION('',(7.E-17,0.,1.));
#877 = ORIENTED_EDGE('',*,*,#264,.T.);
#878 = ORIENTED_EDGE('',*,*,#872,.T.);
#879 = ORIENTED_EDGE('',*,*,#521,.T.);
#880 = CYLINDRICAL_SURFACE('',#881,9.5);
#881 = AXIS2_PLACEMENT_3D('',#882,#883,#884);
#882 = CARTESIAN_POINT('',(116.500002,211.000003,0.));
#883 = DIRECTION('',(0.,0.,1.));
#884 = DIRECTION('',(-1.,0.,0.));
#885 = ADVANCED_FACE('',(#886),#897,.F.);
#886 = FACE_BOUND('',#887,.T.);
#887 = EDGE_LOOP('',(#888,#894,#895,#896));
#888 = ORIENTED_EDGE('',*,*,#889,.F.);
#889 = EDGE_CURVE('',#276,#511,#890,.T.);
#890 = LINE('',#891,#892);
#891 = CARTESIAN_POINT('',(149.000003,161.000003,0.));
#892 = VECTOR('',#893,1.);
#893 = DIRECTION('',(7.E-17,0.,1.));
#894 = ORIENTED_EDGE('',*,*,#275,.T.);
#895 = ORIENTED_EDGE('',*,*,#889,.T.);
#896 = ORIENTED_EDGE('',*,*,#510,.T.);
#897 = CYLINDRICAL_SURFACE('',#898,9.5);
#898 = AXIS2_PLACEMENT_3D('',#899,#900,#901);
#899 = CARTESIAN_POINT('',(158.500003,161.000003,0.));
#900 = DIRECTION('',(0.,0.,1.));
#901 = DIRECTION('',(-1.,0.,0.));
#902 = ADVANCED_FACE('',(#903),#914,.F.);
#903 = FACE_BOUND('',#904,.T.);
#904 = EDGE_LOOP('',(#905,#911,#912,#913));
#905 = ORIENTED_EDGE('',*,*,#906,.F.);
#906 = EDGE_CURVE('',#287,#533,#907,.T.);
#907 = LINE('',#908,#909);
#908 = CARTESIAN_POINT('',(32.000002,161.000003,0.));
#909 = VECTOR('',#910,1.);
#910 = DIRECTION('',(7.E-17,0.,1.));
#911 = ORIENTED_EDGE('',*,*,#286,.T.);
#912 = ORIENTED_EDGE('',*,*,#906,.T.);
#913 = ORIENTED_EDGE('',*,*,#532,.T.);
#914 = CYLINDRICAL_SURFACE('',#915,9.5);
#915 = AXIS2_PLACEMENT_3D('',#916,#917,#918);
#916 = CARTESIAN_POINT('',(41.500002,161.000003,0.));
#917 = DIRECTION('',(0.,0.,1.));
#918 = DIRECTION('',(-1.,0.,0.));
#919 = ADVANCED_FACE('',(#920),#931,.F.);
#920 = FACE_BOUND('',#921,.T.);
#921 = EDGE_LOOP('',(#922,#928,#929,#930));
#922 = ORIENTED_EDGE('',*,*,#923,.F.);
#923 = EDGE_CURVE('',#298,#489,#924,.T.);
#924 = LINE('',#925,#926);
#925 = CARTESIAN_POINT('',(107.000002,109.000002,0.));
#926 = VECTOR('',#927,1.);
#927 = DIRECTION('',(7.E-17,0.,1.));
#928 = ORIENTED_EDGE('',*,*,#297,.T.);
#929 = ORIENTED_EDGE('',*,*,#923,.T.);
#930 = ORIENTED_EDGE('',*,*,#488,.T.);
#931 = CYLINDRICAL_SURFACE('',#932,9.5);
#932 = AXIS2_PLACEMENT_3D('',#933,#934,#935);
#933 = CARTESIAN_POINT('',(116.500002,109.000002,0.));
#934 = DIRECTION('',(0.,0.,1.));
#935 = DIRECTION('',(-1.,0.,0.));
#936 = ADVANCED_FACE('',(#937),#948,.F.);
#937 = FACE_BOUND('',#938,.T.);
#938 = EDGE_LOOP('',(#939,#945,#946,#947));
#939 = ORIENTED_EDGE('',*,*,#940,.F.);
#940 = EDGE_CURVE('',#309,#478,#941,.T.);
#941 = LINE('',#942,#943);
#942 = CARTESIAN_POINT('',(149.000003,59.000002,0.));
#943 = VECTOR('',#944,1.);
#944 = DIRECTION('',(7.E-17,0.,1.));
#945 = ORIENTED_EDGE('',*,*,#308,.T.);
#946 = ORIENTED_EDGE('',*,*,#940,.T.);
#947 = ORIENTED_EDGE('',*,*,#477,.T.);
#948 = CYLINDRICAL_SURFACE('',#949,9.5);
#949 = AXIS2_PLACEMENT_3D('',#950,#951,#952);
#950 = CARTESIAN_POINT('',(158.500003,59.000002,0.));
#951 = DIRECTION('',(0.,0.,1.));
#952 = DIRECTION('',(-1.,0.,0.));
#953 = ADVANCED_FACE('',(#954),#965,.F.);
#954 = FACE_BOUND('',#955,.T.);
#955 = EDGE_LOOP('',(#956,#962,#963,#964));
#956 = ORIENTED_EDGE('',*,*,#957,.F.);
#957 = EDGE_CURVE('',#320,#500,#958,.T.);
#958 = LINE('',#959,#960);
#959 = CARTESIAN_POINT('',(32.000002,59.000002,0.));
#960 = VECTOR('',#961,1.);
#961 = DIRECTION('',(7.E-17,0.,1.));
#962 = ORIENTED_EDGE('',*,*,#319,.T.);
#963 = ORIENTED_EDGE('',*,*,#957,.T.);
#964 = ORIENTED_EDGE('',*,*,#499,.T.);
#965 = CYLINDRICAL_SURFACE('',#966,9.5);
#966 = AXIS2_PLACEMENT_3D('',#967,#968,#969);
#967 = CARTESIAN_POINT('',(41.500002,59.000002,0.));
#968 = DIRECTION('',(0.,0.,1.));
#969 = DIRECTION('',(-1.,0.,0.));
#970 = ADVANCED_FACE('',(#971),#982,.T.);
#971 = FACE_BOUND('',#972,.F.);
#972 = EDGE_LOOP('',(#973,#974,#980,#981));
#973 = ORIENTED_EDGE('',*,*,#743,.T.);
#974 = ORIENTED_EDGE('',*,*,#975,.T.);
#975 = EDGE_CURVE('',#713,#603,#976,.T.);
#976 = LINE('',#977,#978);
#977 = CARTESIAN_POINT('',(5.,318.25,-3.));
#978 = VECTOR('',#979,1.);
#979 = DIRECTION('',(1.,0.,0.));
#980 = ORIENTED_EDGE('',*,*,#636,.F.);
#981 = ORIENTED_EDGE('',*,*,#355,.F.);
#982 = CYLINDRICAL_SURFACE('',#983,3.25);
#983 = AXIS2_PLACEMENT_3D('',#984,#985,#986);
#984 = CARTESIAN_POINT('',(5.,315.,-3.));
#985 = DIRECTION('',(-1.,-0.,-0.));
#986 = DIRECTION('',(0.,1.,0.));
#987 = ADVANCED_FACE('',(#988,#1031,#1042,#1053,#1064),#1075,.T.);
#988 = FACE_BOUND('',#989,.T.);
#989 = EDGE_LOOP('',(#990,#991,#992,#993,#1001,#1009,#1017,#1025));
#990 = ORIENTED_EDGE('',*,*,#710,.T.);
#991 = ORIENTED_EDGE('',*,*,#975,.T.);
#992 = ORIENTED_EDGE('',*,*,#600,.F.);
#993 = ORIENTED_EDGE('',*,*,#994,.F.);
#994 = EDGE_CURVE('',#995,#601,#997,.T.);
#995 = VERTEX_POINT('',#996);
#996 = CARTESIAN_POINT('',(304.,318.25,-93.));
#997 = LINE('',#998,#999);
#998 = CARTESIAN_POINT('',(284.,318.25,-113.));
#999 = VECTOR('',#1000,1.);
#1000 = DIRECTION('',(0.707106781187,0.,0.707106781187));
#1001 = ORIENTED_EDGE('',*,*,#1002,.F.);
#1002 = EDGE_CURVE('',#1003,#995,#1005,.T.);
#1003 = VERTEX_POINT('',#1004);
#1004 = CARTESIAN_POINT('',(304.,318.25,-130.));
#1005 = LINE('',#1006,#1007);
#1006 = CARTESIAN_POINT('',(304.,318.25,-103.25));
#1007 = VECTOR('',#1008,1.);
#1008 = DIRECTION('',(0.,0.,1.));
#1009 = ORIENTED_EDGE('',*,*,#1010,.F.);
#1010 = EDGE_CURVE('',#1011,#1003,#1013,.T.);
#1011 = VERTEX_POINT('',#1012);
#1012 = CARTESIAN_POINT('',(155.,318.25,-130.));
#1013 = LINE('',#1014,#1015);
#1014 = CARTESIAN_POINT('',(5.,318.25,-130.));
#1015 = VECTOR('',#1016,1.);
#1016 = DIRECTION('',(1.,0.,0.));
#1017 = ORIENTED_EDGE('',*,*,#1018,.T.);
#1018 = EDGE_CURVE('',#1011,#1019,#1021,.T.);
#1019 = VERTEX_POINT('',#1020);
#1020 = CARTESIAN_POINT('',(155.,318.25,-93.));
#1021 = LINE('',#1022,#1023);
#1022 = CARTESIAN_POINT('',(155.,318.25,-98.25));
#1023 = VECTOR('',#1024,1.);
#1024 = DIRECTION('',(0.,0.,1.));
#1025 = ORIENTED_EDGE('',*,*,#1026,.T.);
#1026 = EDGE_CURVE('',#1019,#711,#1027,.T.);
#1027 = LINE('',#1028,#1029);
#1028 = CARTESIAN_POINT('',(159.,318.25,-97.));
#1029 = VECTOR('',#1030,1.);
#1030 = DIRECTION('',(-0.707106781187,0.,0.707106781187));
#1031 = FACE_BOUND('',#1032,.T.);
#1032 = EDGE_LOOP('',(#1033));
#1033 = ORIENTED_EDGE('',*,*,#1034,.F.);
#1034 = EDGE_CURVE('',#1035,#1035,#1037,.T.);
#1035 = VERTEX_POINT('',#1036);
#1036 = CARTESIAN_POINT('',(201.50000314414,318.25,-110.600002));
#1037 = CIRCLE('',#1038,9.5);
#1038 = AXIS2_PLACEMENT_3D('',#1039,#1040,#1041);
#1039 = CARTESIAN_POINT('',(211.00000314414,318.25,-110.600002));
#1040 = DIRECTION('',(0.,1.,-2.2E-16));
#1041 = DIRECTION('',(-1.,0.,0.));
#1042 = FACE_BOUND('',#1043,.T.);
#1043 = EDGE_LOOP('',(#1044));
#1044 = ORIENTED_EDGE('',*,*,#1045,.F.);
#1045 = EDGE_CURVE('',#1046,#1046,#1048,.T.);
#1046 = VERTEX_POINT('',#1047);
#1047 = CARTESIAN_POINT('',(164.5,318.25,-110.6));
#1048 = CIRCLE('',#1049,9.5);
#1049 = AXIS2_PLACEMENT_3D('',#1050,#1051,#1052);
#1050 = CARTESIAN_POINT('',(174.,318.25,-110.6));
#1051 = DIRECTION('',(0.,1.,-2.2E-16));
#1052 = DIRECTION('',(-1.,0.,0.));
#1053 = FACE_BOUND('',#1054,.T.);
#1054 = EDGE_LOOP('',(#1055));
#1055 = ORIENTED_EDGE('',*,*,#1056,.F.);
#1056 = EDGE_CURVE('',#1057,#1057,#1059,.T.);
#1057 = VERTEX_POINT('',#1058);
#1058 = CARTESIAN_POINT('',(238.50000369548,318.25,-110.600002));
#1059 = CIRCLE('',#1060,9.5);
#1060 = AXIS2_PLACEMENT_3D('',#1061,#1062,#1063);
#1061 = CARTESIAN_POINT('',(248.00000369548,318.25,-110.600002));
#1062 = DIRECTION('',(0.,1.,-2.2E-16));
#1063 = DIRECTION('',(-1.,0.,0.));
#1064 = FACE_BOUND('',#1065,.T.);
#1065 = EDGE_LOOP('',(#1066));
#1066 = ORIENTED_EDGE('',*,*,#1067,.F.);
#1067 = EDGE_CURVE('',#1068,#1068,#1070,.T.);
#1068 = VERTEX_POINT('',#1069);
#1069 = CARTESIAN_POINT('',(275.50000424683,318.25,-110.6000016));
#1070 = CIRCLE('',#1071,9.5);
#1071 = AXIS2_PLACEMENT_3D('',#1072,#1073,#1074);
#1072 = CARTESIAN_POINT('',(285.00000424683,318.25,-110.6000016));
#1073 = DIRECTION('',(0.,1.,-2.2E-16));
#1074 = DIRECTION('',(-1.,0.,0.));
#1075 = PLANE('',#1076);
#1076 = AXIS2_PLACEMENT_3D('',#1077,#1078,#1079);
#1077 = CARTESIAN_POINT('',(197.5,318.25,-66.5));
#1078 = DIRECTION('',(0.,1.,0.));
#1079 = DIRECTION('',(0.,0.,1.));
#1080 = ADVANCED_FACE('',(#1081,#1124,#1135,#1146,#1157),#1168,.T.);
#1081 = FACE_BOUND('',#1082,.T.);
#1082 = EDGE_LOOP('',(#1083,#1093,#1101,#1109,#1115,#1116,#1117,#1118));
#1083 = ORIENTED_EDGE('',*,*,#1084,.T.);
#1084 = EDGE_CURVE('',#1085,#1087,#1089,.T.);
#1085 = VERTEX_POINT('',#1086);
#1086 = CARTESIAN_POINT('',(155.,318.,-93.));
#1087 = VERTEX_POINT('',#1088);
#1088 = CARTESIAN_POINT('',(155.,318.,-130.));
#1089 = LINE('',#1090,#1091);
#1090 = CARTESIAN_POINT('',(155.,318.,-98.25));
#1091 = VECTOR('',#1092,1.);
#1092 = DIRECTION('',(0.,0.,-1.));
#1093 = ORIENTED_EDGE('',*,*,#1094,.T.);
#1094 = EDGE_CURVE('',#1087,#1095,#1097,.T.);
#1095 = VERTEX_POINT('',#1096);
#1096 = CARTESIAN_POINT('',(304.,318.,-130.));
#1097 = LINE('',#1098,#1099);
#1098 = CARTESIAN_POINT('',(5.,318.,-130.));
#1099 = VECTOR('',#1100,1.);
#1100 = DIRECTION('',(1.,0.,0.));
#1101 = ORIENTED_EDGE('',*,*,#1102,.F.);
#1102 = EDGE_CURVE('',#1103,#1095,#1105,.T.);
#1103 = VERTEX_POINT('',#1104);
#1104 = CARTESIAN_POINT('',(304.,318.,-93.));
#1105 = LINE('',#1106,#1107);
#1106 = CARTESIAN_POINT('',(304.,318.,-103.25));
#1107 = VECTOR('',#1108,1.);
#1108 = DIRECTION('',(0.,0.,-1.));
#1109 = ORIENTED_EDGE('',*,*,#1110,.F.);
#1110 = EDGE_CURVE('',#611,#1103,#1111,.T.);
#1111 = LINE('',#1112,#1113);
#1112 = CARTESIAN_POINT('',(284.,318.,-113.));
#1113 = VECTOR('',#1114,1.);
#1114 = DIRECTION('',(-0.707106781187,0.,-0.707106781187));
#1115 = ORIENTED_EDGE('',*,*,#618,.F.);
#1116 = ORIENTED_EDGE('',*,*,#677,.F.);
#1117 = ORIENTED_EDGE('',*,*,#728,.T.);
#1118 = ORIENTED_EDGE('',*,*,#1119,.T.);
#1119 = EDGE_CURVE('',#721,#1085,#1120,.T.);
#1120 = LINE('',#1121,#1122);
#1121 = CARTESIAN_POINT('',(159.,318.,-97.));
#1122 = VECTOR('',#1123,1.);
#1123 = DIRECTION('',(0.707106781187,0.,-0.707106781187));
#1124 = FACE_BOUND('',#1125,.T.);
#1125 = EDGE_LOOP('',(#1126));
#1126 = ORIENTED_EDGE('',*,*,#1127,.T.);
#1127 = EDGE_CURVE('',#1128,#1128,#1130,.T.);
#1128 = VERTEX_POINT('',#1129);
#1129 = CARTESIAN_POINT('',(164.5,318.,-110.6));
#1130 = CIRCLE('',#1131,9.5);
#1131 = AXIS2_PLACEMENT_3D('',#1132,#1133,#1134);
#1132 = CARTESIAN_POINT('',(174.,318.,-110.6));
#1133 = DIRECTION('',(0.,1.,-2.2E-16));
#1134 = DIRECTION('',(-1.,0.,0.));
#1135 = FACE_BOUND('',#1136,.T.);
#1136 = EDGE_LOOP('',(#1137));
#1137 = ORIENTED_EDGE('',*,*,#1138,.T.);
#1138 = EDGE_CURVE('',#1139,#1139,#1141,.T.);
#1139 = VERTEX_POINT('',#1140);
#1140 = CARTESIAN_POINT('',(201.50000314414,318.,-110.600002));
#1141 = CIRCLE('',#1142,9.5);
#1142 = AXIS2_PLACEMENT_3D('',#1143,#1144,#1145);
#1143 = CARTESIAN_POINT('',(211.00000314414,318.,-110.600002));
#1144 = DIRECTION('',(0.,1.,-2.2E-16));
#1145 = DIRECTION('',(-1.,0.,0.));
#1146 = FACE_BOUND('',#1147,.T.);
#1147 = EDGE_LOOP('',(#1148));
#1148 = ORIENTED_EDGE('',*,*,#1149,.T.);
#1149 = EDGE_CURVE('',#1150,#1150,#1152,.T.);
#1150 = VERTEX_POINT('',#1151);
#1151 = CARTESIAN_POINT('',(238.50000369548,318.,-110.600002));
#1152 = CIRCLE('',#1153,9.5);
#1153 = AXIS2_PLACEMENT_3D('',#1154,#1155,#1156);
#1154 = CARTESIAN_POINT('',(248.00000369548,318.,-110.600002));
#1155 = DIRECTION('',(0.,1.,-2.2E-16));
#1156 = DIRECTION('',(-1.,0.,0.));
#1157 = FACE_BOUND('',#1158,.T.);
#1158 = EDGE_LOOP('',(#1159));
#1159 = ORIENTED_EDGE('',*,*,#1160,.T.);
#1160 = EDGE_CURVE('',#1161,#1161,#1163,.T.);
#1161 = VERTEX_POINT('',#1162);
#1162 = CARTESIAN_POINT('',(275.50000424683,318.,-110.6000016));
#1163 = CIRCLE('',#1164,9.5);
#1164 = AXIS2_PLACEMENT_3D('',#1165,#1166,#1167);
#1165 = CARTESIAN_POINT('',(285.00000424683,318.,-110.6000016));
#1166 = DIRECTION('',(0.,1.,-2.2E-16));
#1167 = DIRECTION('',(-1.,0.,0.));
#1168 = PLANE('',#1169);
#1169 = AXIS2_PLACEMENT_3D('',#1170,#1171,#1172);
#1170 = CARTESIAN_POINT('',(197.5,318.,-66.5));
#1171 = DIRECTION('',(-0.,-1.,-0.));
#1172 = DIRECTION('',(0.,0.,-1.));
#1173 = ADVANCED_FACE('',(#1174),#1185,.F.);
#1174 = FACE_BOUND('',#1175,.F.);
#1175 = EDGE_LOOP('',(#1176,#1177,#1183,#1184));
#1176 = ORIENTED_EDGE('',*,*,#994,.F.);
#1177 = ORIENTED_EDGE('',*,*,#1178,.T.);
#1178 = EDGE_CURVE('',#995,#1103,#1179,.T.);
#1179 = LINE('',#1180,#1181);
#1180 = CARTESIAN_POINT('',(304.,319.,-93.));
#1181 = VECTOR('',#1182,1.);
#1182 = DIRECTION('',(0.,-1.,2.2E-16));
#1183 = ORIENTED_EDGE('',*,*,#1110,.F.);
#1184 = ORIENTED_EDGE('',*,*,#610,.F.);
#1185 = PLANE('',#1186);
#1186 = AXIS2_PLACEMENT_3D('',#1187,#1188,#1189);
#1187 = CARTESIAN_POINT('',(304.,319.,-93.));
#1188 = DIRECTION('',(-0.707106781187,1.6E-16,0.707106781187));
#1189 = DIRECTION('',(0.707106781187,1.6E-16,0.707106781187));
#1190 = ADVANCED_FACE('',(#1191),#1202,.T.);
#1191 = FACE_BOUND('',#1192,.T.);
#1192 = EDGE_LOOP('',(#1193,#1194,#1200,#1201));
#1193 = ORIENTED_EDGE('',*,*,#1026,.F.);
#1194 = ORIENTED_EDGE('',*,*,#1195,.T.);
#1195 = EDGE_CURVE('',#1019,#1085,#1196,.T.);
#1196 = LINE('',#1197,#1198);
#1197 = CARTESIAN_POINT('',(155.,319.,-93.));
#1198 = VECTOR('',#1199,1.);
#1199 = DIRECTION('',(0.,-1.,2.2E-16));
#1200 = ORIENTED_EDGE('',*,*,#1119,.F.);
#1201 = ORIENTED_EDGE('',*,*,#720,.F.);
#1202 = PLANE('',#1203);
#1203 = AXIS2_PLACEMENT_3D('',#1204,#1205,#1206);
#1204 = CARTESIAN_POINT('',(155.,319.,-93.));
#1205 = DIRECTION('',(-0.707106781187,-1.6E-16,-0.707106781187));
#1206 = DIRECTION('',(-0.707106781187,1.6E-16,0.707106781187));
#1207 = ADVANCED_FACE('',(#1208),#1219,.T.);
#1208 = FACE_BOUND('',#1209,.T.);
#1209 = EDGE_LOOP('',(#1210,#1211,#1217,#1218));
#1210 = ORIENTED_EDGE('',*,*,#1018,.F.);
#1211 = ORIENTED_EDGE('',*,*,#1212,.T.);
#1212 = EDGE_CURVE('',#1011,#1087,#1213,.T.);
#1213 = LINE('',#1214,#1215);
#1214 = CARTESIAN_POINT('',(155.,319.,-130.));
#1215 = VECTOR('',#1216,1.);
#1216 = DIRECTION('',(0.,-1.,2.2E-16));
#1217 = ORIENTED_EDGE('',*,*,#1084,.F.);
#1218 = ORIENTED_EDGE('',*,*,#1195,.F.);
#1219 = PLANE('',#1220);
#1220 = AXIS2_PLACEMENT_3D('',#1221,#1222,#1223);
#1221 = CARTESIAN_POINT('',(155.,319.,-130.));
#1222 = DIRECTION('',(-1.,0.,0.));
#1223 = DIRECTION('',(0.,2.2E-16,1.));
#1224 = ADVANCED_FACE('',(#1225),#1236,.F.);
#1225 = FACE_BOUND('',#1226,.F.);
#1226 = EDGE_LOOP('',(#1227,#1228,#1229,#1235));
#1227 = ORIENTED_EDGE('',*,*,#1212,.T.);
#1228 = ORIENTED_EDGE('',*,*,#1094,.T.);
#1229 = ORIENTED_EDGE('',*,*,#1230,.F.);
#1230 = EDGE_CURVE('',#1003,#1095,#1231,.T.);
#1231 = LINE('',#1232,#1233);
#1232 = CARTESIAN_POINT('',(304.,318.5,-130.));
#1233 = VECTOR('',#1234,1.);
#1234 = DIRECTION('',(0.,-1.,0.));
#1235 = ORIENTED_EDGE('',*,*,#1010,.F.);
#1236 = PLANE('',#1237);
#1237 = AXIS2_PLACEMENT_3D('',#1238,#1239,#1240);
#1238 = CARTESIAN_POINT('',(5.,318.,-130.));
#1239 = DIRECTION('',(0.,0.,1.));
#1240 = DIRECTION('',(0.,1.,0.));
#1241 = ADVANCED_FACE('',(#1242),#1248,.F.);
#1242 = FACE_BOUND('',#1243,.F.);
#1243 = EDGE_LOOP('',(#1244,#1245,#1246,#1247));
#1244 = ORIENTED_EDGE('',*,*,#1178,.F.);
#1245 = ORIENTED_EDGE('',*,*,#1002,.F.);
#1246 = ORIENTED_EDGE('',*,*,#1230,.T.);
#1247 = ORIENTED_EDGE('',*,*,#1102,.F.);
#1248 = PLANE('',#1249);
#1249 = AXIS2_PLACEMENT_3D('',#1250,#1251,#1252);
#1250 = CARTESIAN_POINT('',(304.,319.,-140.));
#1251 = DIRECTION('',(-1.,0.,0.));
#1252 = DIRECTION('',(0.,2.2E-16,1.));
#1253 = ADVANCED_FACE('',(#1254),#1265,.F.);
#1254 = FACE_BOUND('',#1255,.T.);
#1255 = EDGE_LOOP('',(#1256,#1257,#1263,#1264));
#1256 = ORIENTED_EDGE('',*,*,#1138,.F.);
#1257 = ORIENTED_EDGE('',*,*,#1258,.T.);
#1258 = EDGE_CURVE('',#1139,#1035,#1259,.T.);
#1259 = LINE('',#1260,#1261);
#1260 = CARTESIAN_POINT('',(201.50000314414,-2.5E-14,-110.600002));
#1261 = VECTOR('',#1262,1.);
#1262 = DIRECTION('',(6.E-17,1.,-2.2E-16));
#1263 = ORIENTED_EDGE('',*,*,#1034,.T.);
#1264 = ORIENTED_EDGE('',*,*,#1258,.F.);
#1265 = CYLINDRICAL_SURFACE('',#1266,9.5);
#1266 = AXIS2_PLACEMENT_3D('',#1267,#1268,#1269);
#1267 = CARTESIAN_POINT('',(211.00000314414,-2.5E-14,-110.600002));
#1268 = DIRECTION('',(0.,1.,-2.2E-16));
#1269 = DIRECTION('',(-1.,0.,0.));
#1270 = ADVANCED_FACE('',(#1271),#1282,.F.);
#1271 = FACE_BOUND('',#1272,.T.);
#1272 = EDGE_LOOP('',(#1273,#1274,#1280,#1281));
#1273 = ORIENTED_EDGE('',*,*,#1127,.F.);
#1274 = ORIENTED_EDGE('',*,*,#1275,.T.);
#1275 = EDGE_CURVE('',#1128,#1046,#1276,.T.);
#1276 = LINE('',#1277,#1278);
#1277 = CARTESIAN_POINT('',(164.5,-2.5E-14,-110.6));
#1278 = VECTOR('',#1279,1.);
#1279 = DIRECTION('',(6.E-17,1.,-2.2E-16));
#1280 = ORIENTED_EDGE('',*,*,#1045,.T.);
#1281 = ORIENTED_EDGE('',*,*,#1275,.F.);
#1282 = CYLINDRICAL_SURFACE('',#1283,9.5);
#1283 = AXIS2_PLACEMENT_3D('',#1284,#1285,#1286);
#1284 = CARTESIAN_POINT('',(174.,-2.5E-14,-110.6));
#1285 = DIRECTION('',(0.,1.,-2.2E-16));
#1286 = DIRECTION('',(-1.,0.,0.));
#1287 = ADVANCED_FACE('',(#1288),#1299,.F.);
#1288 = FACE_BOUND('',#1289,.T.);
#1289 = EDGE_LOOP('',(#1290,#1291,#1297,#1298));
#1290 = ORIENTED_EDGE('',*,*,#1149,.F.);
#1291 = ORIENTED_EDGE('',*,*,#1292,.T.);
#1292 = EDGE_CURVE('',#1150,#1057,#1293,.T.);
#1293 = LINE('',#1294,#1295);
#1294 = CARTESIAN_POINT('',(238.50000369548,-2.5E-14,-110.600002));
#1295 = VECTOR('',#1296,1.);
#1296 = DIRECTION('',(6.E-17,1.,-2.2E-16));
#1297 = ORIENTED_EDGE('',*,*,#1056,.T.);
#1298 = ORIENTED_EDGE('',*,*,#1292,.F.);
#1299 = CYLINDRICAL_SURFACE('',#1300,9.5);
#1300 = AXIS2_PLACEMENT_3D('',#1301,#1302,#1303);
#1301 = CARTESIAN_POINT('',(248.00000369548,-2.5E-14,-110.600002));
#1302 = DIRECTION('',(0.,1.,-2.2E-16));
#1303 = DIRECTION('',(-1.,0.,0.));
#1304 = ADVANCED_FACE('',(#1305),#1316,.F.);
#1305 = FACE_BOUND('',#1306,.T.);
#1306 = EDGE_LOOP('',(#1307,#1308,#1314,#1315));
#1307 = ORIENTED_EDGE('',*,*,#1160,.F.);
#1308 = ORIENTED_EDGE('',*,*,#1309,.T.);
#1309 = EDGE_CURVE('',#1161,#1068,#1310,.T.);
#1310 = LINE('',#1311,#1312);
#1311 = CARTESIAN_POINT('',(275.50000424683,-2.5E-14,-110.6000016));
#1312 = VECTOR('',#1313,1.);
#1313 = DIRECTION('',(6.E-17,1.,-2.2E-16));
#1314 = ORIENTED_EDGE('',*,*,#1067,.T.);
#1315 = ORIENTED_EDGE('',*,*,#1309,.F.);
#1316 = CYLINDRICAL_SURFACE('',#1317,9.5);
#1317 = AXIS2_PLACEMENT_3D('',#1318,#1319,#1320);
#1318 = CARTESIAN_POINT('',(285.00000424683,-2.5E-14,-110.6000016));
#1319 = DIRECTION('',(0.,1.,-2.2E-16));
#1320 = DIRECTION('',(-1.,0.,0.));
#1321 = ( GEOMETRIC_REPRESENTATION_CONTEXT(3) 
GLOBAL_UNCERTAINTY_ASSIGNED_CONTEXT((#1325)) 
GLOBAL_UNIT_ASSIGNED_CONTEXT((#1322,#1323,#1324)) REPRESENTATION_CONTEXT
('Context #1','3D Context with UNIT and UNCERTAINTY') );
#1322 = ( LENGTH_UNIT() NAMED_UNIT(*) SI_UNIT(.MILLI.,.METRE.) );
#1323 = ( NAMED_UNIT(*) PLANE_ANGLE_UNIT() SI_UNIT($,.RADIAN.) );
#1324 = ( NAMED_UNIT(*) SI_UNIT($,.STERADIAN.) SOLID_ANGLE_UNIT() );
#1325 = UNCERTAINTY_MEASURE_WITH_UNIT(LENGTH_MEASURE(1.E-04),#1322,
  'distance_accuracy_value','confusion accuracy');
#1326 = PRODUCT_RELATED_PRODUCT_CATEGORY('part',$,(#7));
ENDSEC;
END-ISO-10303-21;
