ISO-10303-21;
HEADER;
FILE_DESCRIPTION(('FreeCAD Model'),'2;1');
FILE_NAME('Open CASCADE Shape Model','2026-08-28T21:06:41',(''),(''),
  'Open CASCADE STEP processor 7.8','FreeCAD','Unknown');
FILE_SCHEMA(('AUTOMOTIVE_DESIGN { 1 0 10303 214 1 1 1 1 }'));
ENDSEC;
DATA;
#1 = APPLICATION_PROTOCOL_DEFINITION('international standard',
  'automotive_design',2000,#2);
#2 = APPLICATION_CONTEXT(
  'core data for automotive mechanical design processes');
#3 = SHAPE_DEFINITION_REPRESENTATION(#4,#10);
#4 = PRODUCT_DEFINITION_SHAPE('','',#5);
#5 = PRODUCT_DEFINITION('design','',#6,#9);
#6 = PRODUCT_DEFINITION_FORMATION('','',#7);
#7 = PRODUCT('HW-C3-FR-BSP-A','HW-C3-FR-BSP-A','',(#8));
#8 = PRODUCT_CONTEXT('',#2,'mechanical');
#9 = PRODUCT_DEFINITION_CONTEXT('part definition',#2,'design');
#10 = ADVANCED_BREP_SHAPE_REPRESENTATION('',(#11,#15),#2353);
#11 = AXIS2_PLACEMENT_3D('',#12,#13,#14);
#12 = CARTESIAN_POINT('',(0.,0.,0.));
#13 = DIRECTION('',(0.,0.,1.));
#14 = DIRECTION('',(1.,0.,-0.));
#15 = MANIFOLD_SOLID_BREP('',#16);
#16 = CLOSED_SHELL('',(#17,#57,#88,#119,#159,#474,#523,#831,#848,#865,
    #890,#932,#971,#996,#1013,#1052,#1069,#1081,#1098,#1115,#1132,#1149,
    #1166,#1183,#1200,#1217,#1234,#1251,#1268,#1285,#1302,#1319,#1336,
    #1353,#1370,#1387,#1404,#1421,#1452,#1578,#1602,#1721,#1752,#1769,
    #1791,#1813,#1825,#1837,#1854,#1871,#1888,#1905,#1922,#1939,#1956,
    #1987,#2018,#2040,#2137,#2162,#2187,#2212,#2237,#2262,#2287,#2312));
#17 = ADVANCED_FACE('',(#18),#52,.T.);
#18 = FACE_BOUND('',#19,.T.);
#19 = EDGE_LOOP('',(#20,#30,#38,#46));
#20 = ORIENTED_EDGE('',*,*,#21,.T.);
#21 = EDGE_CURVE('',#22,#24,#26,.T.);
#22 = VERTEX_POINT('',#23);
#23 = CARTESIAN_POINT('',(402.,30.,40.));
#24 = VERTEX_POINT('',#25);
#25 = CARTESIAN_POINT('',(405.,30.,40.));
#26 = LINE('',#27,#28);
#27 = CARTESIAN_POINT('',(402.,30.,40.));
#28 = VECTOR('',#29,1.);
#29 = DIRECTION('',(1.,0.,0.));
#30 = ORIENTED_EDGE('',*,*,#31,.T.);
#31 = EDGE_CURVE('',#24,#32,#34,.T.);
#32 = VERTEX_POINT('',#33);
#33 = CARTESIAN_POINT('',(405.,372.,40.));
#34 = LINE('',#35,#36);
#35 = CARTESIAN_POINT('',(405.,-42.,40.));
#36 = VECTOR('',#37,1.);
#37 = DIRECTION('',(0.,1.,-2.2E-16));
#38 = ORIENTED_EDGE('',*,*,#39,.F.);
#39 = EDGE_CURVE('',#40,#32,#42,.T.);
#40 = VERTEX_POINT('',#41);
#41 = CARTESIAN_POINT('',(402.,372.,40.));
#42 = LINE('',#43,#44);
#43 = CARTESIAN_POINT('',(402.,372.,40.));
#44 = VECTOR('',#45,1.);
#45 = DIRECTION('',(1.,0.,0.));
#46 = ORIENTED_EDGE('',*,*,#47,.F.);
#47 = EDGE_CURVE('',#22,#40,#48,.T.);
#48 = LINE('',#49,#50);
#49 = CARTESIAN_POINT('',(402.,-42.,40.));
#50 = VECTOR('',#51,1.);
#51 = DIRECTION('',(0.,1.,-2.2E-16));
#52 = PLANE('',#53);
#53 = AXIS2_PLACEMENT_3D('',#54,#55,#56);
#54 = CARTESIAN_POINT('',(405.,-42.,40.));
#55 = DIRECTION('',(0.,2.2E-16,1.));
#56 = DIRECTION('',(-1.,0.,0.));
#57 = ADVANCED_FACE('',(#58),#83,.F.);
#58 = FACE_BOUND('',#59,.F.);
#59 = EDGE_LOOP('',(#60,#61,#69,#77));
#60 = ORIENTED_EDGE('',*,*,#21,.T.);
#61 = ORIENTED_EDGE('',*,*,#62,.T.);
#62 = EDGE_CURVE('',#24,#63,#65,.T.);
#63 = VERTEX_POINT('',#64);
#64 = CARTESIAN_POINT('',(405.,30.,70.));
#65 = LINE('',#66,#67);
#66 = CARTESIAN_POINT('',(405.,30.,40.));
#67 = VECTOR('',#68,1.);
#68 = DIRECTION('',(0.,0.,1.));
#69 = ORIENTED_EDGE('',*,*,#70,.F.);
#70 = EDGE_CURVE('',#71,#63,#73,.T.);
#71 = VERTEX_POINT('',#72);
#72 = CARTESIAN_POINT('',(402.,30.,70.));
#73 = LINE('',#74,#75);
#74 = CARTESIAN_POINT('',(402.,30.,70.));
#75 = VECTOR('',#76,1.);
#76 = DIRECTION('',(1.,0.,0.));
#77 = ORIENTED_EDGE('',*,*,#78,.F.);
#78 = EDGE_CURVE('',#22,#71,#79,.T.);
#79 = LINE('',#80,#81);
#80 = CARTESIAN_POINT('',(402.,30.,40.));
#81 = VECTOR('',#82,1.);
#82 = DIRECTION('',(0.,0.,1.));
#83 = PLANE('',#84);
#84 = AXIS2_PLACEMENT_3D('',#85,#86,#87);
#85 = CARTESIAN_POINT('',(402.,30.,40.));
#86 = DIRECTION('',(0.,-1.,0.));
#87 = DIRECTION('',(0.,0.,1.));
#88 = ADVANCED_FACE('',(#89),#114,.F.);
#89 = FACE_BOUND('',#90,.F.);
#90 = EDGE_LOOP('',(#91,#92,#100,#108));
#91 = ORIENTED_EDGE('',*,*,#70,.T.);
#92 = ORIENTED_EDGE('',*,*,#93,.T.);
#93 = EDGE_CURVE('',#63,#94,#96,.T.);
#94 = VERTEX_POINT('',#95);
#95 = CARTESIAN_POINT('',(405.,0.,70.));
#96 = LINE('',#97,#98);
#97 = CARTESIAN_POINT('',(405.,30.,70.));
#98 = VECTOR('',#99,1.);
#99 = DIRECTION('',(0.,-1.,0.));
#100 = ORIENTED_EDGE('',*,*,#101,.F.);
#101 = EDGE_CURVE('',#102,#94,#104,.T.);
#102 = VERTEX_POINT('',#103);
#103 = CARTESIAN_POINT('',(402.,0.,70.));
#104 = LINE('',#105,#106);
#105 = CARTESIAN_POINT('',(402.,0.,70.));
#106 = VECTOR('',#107,1.);
#107 = DIRECTION('',(1.,0.,0.));
#108 = ORIENTED_EDGE('',*,*,#109,.F.);
#109 = EDGE_CURVE('',#71,#102,#110,.T.);
#110 = LINE('',#111,#112);
#111 = CARTESIAN_POINT('',(402.,30.,70.));
#112 = VECTOR('',#113,1.);
#113 = DIRECTION('',(0.,-1.,0.));
#114 = PLANE('',#115);
#115 = AXIS2_PLACEMENT_3D('',#116,#117,#118);
#116 = CARTESIAN_POINT('',(402.,30.,70.));
#117 = DIRECTION('',(0.,0.,-1.));
#118 = DIRECTION('',(0.,-1.,0.));
#119 = ADVANCED_FACE('',(#120),#154,.F.);
#120 = FACE_BOUND('',#121,.F.);
#121 = EDGE_LOOP('',(#122,#132,#140,#148));
#122 = ORIENTED_EDGE('',*,*,#123,.F.);
#123 = EDGE_CURVE('',#124,#126,#128,.T.);
#124 = VERTEX_POINT('',#125);
#125 = CARTESIAN_POINT('',(400.,-42.110119,0.));
#126 = VERTEX_POINT('',#127);
#127 = CARTESIAN_POINT('',(400.,-42.,1.E-14));
#128 = LINE('',#129,#130);
#129 = CARTESIAN_POINT('',(400.,-42.110119,0.));
#130 = VECTOR('',#131,1.);
#131 = DIRECTION('',(0.,1.,0.));
#132 = ORIENTED_EDGE('',*,*,#133,.T.);
#133 = EDGE_CURVE('',#124,#134,#136,.T.);
#134 = VERTEX_POINT('',#135);
#135 = CARTESIAN_POINT('',(400.,-42.110119,3.));
#136 = LINE('',#137,#138);
#137 = CARTESIAN_POINT('',(400.,-42.110119,0.));
#138 = VECTOR('',#139,1.);
#139 = DIRECTION('',(0.,0.,1.));
#140 = ORIENTED_EDGE('',*,*,#141,.T.);
#141 = EDGE_CURVE('',#134,#142,#144,.T.);
#142 = VERTEX_POINT('',#143);
#143 = CARTESIAN_POINT('',(400.,-42.,3.));
#144 = LINE('',#145,#146);
#145 = CARTESIAN_POINT('',(400.,-42.110119,3.));
#146 = VECTOR('',#147,1.);
#147 = DIRECTION('',(0.,1.,0.));
#148 = ORIENTED_EDGE('',*,*,#149,.F.);
#149 = EDGE_CURVE('',#126,#142,#150,.T.);
#150 = LINE('',#151,#152);
#151 = CARTESIAN_POINT('',(400.,-42.,9.89E-15));
#152 = VECTOR('',#153,1.);
#153 = DIRECTION('',(0.,0.,1.));
#154 = PLANE('',#155);
#155 = AXIS2_PLACEMENT_3D('',#156,#157,#158);
#156 = CARTESIAN_POINT('',(400.,-42.110119,0.));
#157 = DIRECTION('',(-1.,0.,0.));
#158 = DIRECTION('',(0.,1.,0.));
#159 = ADVANCED_FACE('',(#160,#249,#260,#271,#282,#293,#304,#315,#326,
    #337,#348,#359,#370,#381,#392,#403,#414,#425,#436,#447,#458),#469,
  .T.);
#160 = FACE_BOUND('',#161,.T.);
#161 = EDGE_LOOP('',(#162,#163,#171,#179,#187,#195,#203,#211,#219,#227,
    #235,#243));
#162 = ORIENTED_EDGE('',*,*,#123,.F.);
#163 = ORIENTED_EDGE('',*,*,#164,.F.);
#164 = EDGE_CURVE('',#165,#124,#167,.T.);
#165 = VERTEX_POINT('',#166);
#166 = CARTESIAN_POINT('',(0.,-42.110119,0.));
#167 = LINE('',#168,#169);
#168 = CARTESIAN_POINT('',(0.,-42.110119,0.));
#169 = VECTOR('',#170,1.);
#170 = DIRECTION('',(1.,0.,0.));
#171 = ORIENTED_EDGE('',*,*,#172,.F.);
#172 = EDGE_CURVE('',#173,#165,#175,.T.);
#173 = VERTEX_POINT('',#174);
#174 = CARTESIAN_POINT('',(0.,-42.,1.E-14));
#175 = LINE('',#176,#177);
#176 = CARTESIAN_POINT('',(0.,465.,0.));
#177 = VECTOR('',#178,1.);
#178 = DIRECTION('',(0.,-1.,0.));
#179 = ORIENTED_EDGE('',*,*,#180,.T.);
#180 = EDGE_CURVE('',#173,#181,#183,.T.);
#181 = VERTEX_POINT('',#182);
#182 = CARTESIAN_POINT('',(-2.,-42.,9.E-15));
#183 = LINE('',#184,#185);
#184 = CARTESIAN_POINT('',(0.,-42.,9.44E-15));
#185 = VECTOR('',#186,1.);
#186 = DIRECTION('',(-1.,0.,0.));
#187 = ORIENTED_EDGE('',*,*,#188,.T.);
#188 = EDGE_CURVE('',#181,#189,#191,.T.);
#189 = VERTEX_POINT('',#190);
#190 = CARTESIAN_POINT('',(-2.,466.,-1.04E-13));
#191 = LINE('',#192,#193);
#192 = CARTESIAN_POINT('',(-2.,-42.,9.77E-15));
#193 = VECTOR('',#194,1.);
#194 = DIRECTION('',(0.,1.,-2.2E-16));
#195 = ORIENTED_EDGE('',*,*,#196,.F.);
#196 = EDGE_CURVE('',#197,#189,#199,.T.);
#197 = VERTEX_POINT('',#198);
#198 = CARTESIAN_POINT('',(0.,466.,-1.04E-13));
#199 = LINE('',#200,#201);
#200 = CARTESIAN_POINT('',(0.,466.,-1.0356E-13));
#201 = VECTOR('',#202,1.);
#202 = DIRECTION('',(-1.,0.,0.));
#203 = ORIENTED_EDGE('',*,*,#204,.F.);
#204 = EDGE_CURVE('',#205,#197,#207,.T.);
#205 = VERTEX_POINT('',#206);
#206 = CARTESIAN_POINT('',(0.,465.,0.));
#207 = LINE('',#208,#209);
#208 = CARTESIAN_POINT('',(0.,-42.,9.77E-15));
#209 = VECTOR('',#210,1.);
#210 = DIRECTION('',(0.,1.,-2.2E-16));
#211 = ORIENTED_EDGE('',*,*,#212,.F.);
#212 = EDGE_CURVE('',#213,#205,#215,.T.);
#213 = VERTEX_POINT('',#214);
#214 = CARTESIAN_POINT('',(400.,465.,0.));
#215 = LINE('',#216,#217);
#216 = CARTESIAN_POINT('',(400.,465.,0.));
#217 = VECTOR('',#218,1.);
#218 = DIRECTION('',(-1.,0.,0.));
#219 = ORIENTED_EDGE('',*,*,#220,.T.);
#220 = EDGE_CURVE('',#213,#221,#223,.T.);
#221 = VERTEX_POINT('',#222);
#222 = CARTESIAN_POINT('',(400.,466.,-1.03E-13));
#223 = LINE('',#224,#225);
#224 = CARTESIAN_POINT('',(400.,-42.,1.021E-14));
#225 = VECTOR('',#226,1.);
#226 = DIRECTION('',(0.,1.,-2.2E-16));
#227 = ORIENTED_EDGE('',*,*,#228,.F.);
#228 = EDGE_CURVE('',#229,#221,#231,.T.);
#229 = VERTEX_POINT('',#230);
#230 = CARTESIAN_POINT('',(402.00000005884,466.,-1.03E-13));
#231 = LINE('',#232,#233);
#232 = CARTESIAN_POINT('',(402.00000005884,466.,-1.0311E-13));
#233 = VECTOR('',#234,1.);
#234 = DIRECTION('',(-1.,0.,0.));
#235 = ORIENTED_EDGE('',*,*,#236,.F.);
#236 = EDGE_CURVE('',#237,#229,#239,.T.);
#237 = VERTEX_POINT('',#238);
#238 = CARTESIAN_POINT('',(402.00000005884,-42.,1.E-14));
#239 = LINE('',#240,#241);
#240 = CARTESIAN_POINT('',(402.00000005884,-42.,1.021E-14));
#241 = VECTOR('',#242,1.);
#242 = DIRECTION('',(0.,1.,-2.2E-16));
#243 = ORIENTED_EDGE('',*,*,#244,.T.);
#244 = EDGE_CURVE('',#237,#126,#245,.T.);
#245 = LINE('',#246,#247);
#246 = CARTESIAN_POINT('',(402.00000005884,-42.,9.89E-15));
#247 = VECTOR('',#248,1.);
#248 = DIRECTION('',(-1.,0.,0.));
#249 = FACE_BOUND('',#250,.T.);
#250 = EDGE_LOOP('',(#251));
#251 = ORIENTED_EDGE('',*,*,#252,.F.);
#252 = EDGE_CURVE('',#253,#253,#255,.T.);
#253 = VERTEX_POINT('',#254);
#254 = CARTESIAN_POINT('',(324.3,-20.,0.));
#255 = CIRCLE('',#256,5.5);
#256 = AXIS2_PLACEMENT_3D('',#257,#258,#259);
#257 = CARTESIAN_POINT('',(329.8,-20.,0.));
#258 = DIRECTION('',(0.,0.,-1.));
#259 = DIRECTION('',(-1.,0.,0.));
#260 = FACE_BOUND('',#261,.T.);
#261 = EDGE_LOOP('',(#262));
#262 = ORIENTED_EDGE('',*,*,#263,.F.);
#263 = EDGE_CURVE('',#264,#264,#266,.T.);
#264 = VERTEX_POINT('',#265);
#265 = CARTESIAN_POINT('',(352.200002,16.,0.));
#266 = CIRCLE('',#267,3.3);
#267 = AXIS2_PLACEMENT_3D('',#268,#269,#270);
#268 = CARTESIAN_POINT('',(355.500002,16.,0.));
#269 = DIRECTION('',(0.,0.,-1.));
#270 = DIRECTION('',(-1.,0.,0.));
#271 = FACE_BOUND('',#272,.T.);
#272 = EDGE_LOOP('',(#273));
#273 = ORIENTED_EDGE('',*,*,#274,.F.);
#274 = EDGE_CURVE('',#275,#275,#277,.T.);
#275 = VERTEX_POINT('',#276);
#276 = CARTESIAN_POINT('',(267.200001,16.,0.));
#277 = CIRCLE('',#278,3.3);
#278 = AXIS2_PLACEMENT_3D('',#279,#280,#281);
#279 = CARTESIAN_POINT('',(270.500001,16.,0.));
#280 = DIRECTION('',(0.,0.,-1.));
#281 = DIRECTION('',(-1.,0.,0.));
#282 = FACE_BOUND('',#283,.T.);
#283 = EDGE_LOOP('',(#284));
#284 = ORIENTED_EDGE('',*,*,#285,.F.);
#285 = EDGE_CURVE('',#286,#286,#288,.T.);
#286 = VERTEX_POINT('',#287);
#287 = CARTESIAN_POINT('',(235.200002,16.,0.));
#288 = CIRCLE('',#289,3.3);
#289 = AXIS2_PLACEMENT_3D('',#290,#291,#292);
#290 = CARTESIAN_POINT('',(238.500002,16.,0.));
#291 = DIRECTION('',(0.,0.,-1.));
#292 = DIRECTION('',(-1.,0.,0.));
#293 = FACE_BOUND('',#294,.T.);
#294 = EDGE_LOOP('',(#295));
#295 = ORIENTED_EDGE('',*,*,#296,.F.);
#296 = EDGE_CURVE('',#297,#297,#299,.T.);
#297 = VERTEX_POINT('',#298);
#298 = CARTESIAN_POINT('',(222.7,-20.,0.));
#299 = CIRCLE('',#300,5.5);
#300 = AXIS2_PLACEMENT_3D('',#301,#302,#303);
#301 = CARTESIAN_POINT('',(228.2,-20.,0.));
#302 = DIRECTION('',(0.,0.,-1.));
#303 = DIRECTION('',(-1.,0.,0.));
#304 = FACE_BOUND('',#305,.T.);
#305 = EDGE_LOOP('',(#306));
#306 = ORIENTED_EDGE('',*,*,#307,.F.);
#307 = EDGE_CURVE('',#308,#308,#310,.T.);
#308 = VERTEX_POINT('',#309);
#309 = CARTESIAN_POINT('',(150.200001,16.,0.));
#310 = CIRCLE('',#311,3.3);
#311 = AXIS2_PLACEMENT_3D('',#312,#313,#314);
#312 = CARTESIAN_POINT('',(153.500001,16.,0.));
#313 = DIRECTION('',(0.,0.,-1.));
#314 = DIRECTION('',(-1.,0.,0.));
#315 = FACE_BOUND('',#316,.T.);
#316 = EDGE_LOOP('',(#317));
#317 = ORIENTED_EDGE('',*,*,#318,.F.);
#318 = EDGE_CURVE('',#319,#319,#321,.T.);
#319 = VERTEX_POINT('',#320);
#320 = CARTESIAN_POINT('',(121.1,-20.,0.));
#321 = CIRCLE('',#322,5.5);
#322 = AXIS2_PLACEMENT_3D('',#323,#324,#325);
#323 = CARTESIAN_POINT('',(126.6,-20.,0.));
#324 = DIRECTION('',(0.,0.,-1.));
#325 = DIRECTION('',(-1.,0.,0.));
#326 = FACE_BOUND('',#327,.T.);
#327 = EDGE_LOOP('',(#328));
#328 = ORIENTED_EDGE('',*,*,#329,.F.);
#329 = EDGE_CURVE('',#330,#330,#332,.T.);
#330 = VERTEX_POINT('',#331);
#331 = CARTESIAN_POINT('',(118.200002,16.,0.));
#332 = CIRCLE('',#333,3.3);
#333 = AXIS2_PLACEMENT_3D('',#334,#335,#336);
#334 = CARTESIAN_POINT('',(121.500002,16.,0.));
#335 = DIRECTION('',(0.,0.,-1.));
#336 = DIRECTION('',(-1.,0.,0.));
#337 = FACE_BOUND('',#338,.T.);
#338 = EDGE_LOOP('',(#339));
#339 = ORIENTED_EDGE('',*,*,#340,.F.);
#340 = EDGE_CURVE('',#341,#341,#343,.T.);
#341 = VERTEX_POINT('',#342);
#342 = CARTESIAN_POINT('',(19.5,-20.,0.));
#343 = CIRCLE('',#344,5.5);
#344 = AXIS2_PLACEMENT_3D('',#345,#346,#347);
#345 = CARTESIAN_POINT('',(25.,-20.,0.));
#346 = DIRECTION('',(0.,0.,-1.));
#347 = DIRECTION('',(-1.,0.,0.));
#348 = FACE_BOUND('',#349,.T.);
#349 = EDGE_LOOP('',(#350));
#350 = ORIENTED_EDGE('',*,*,#351,.F.);
#351 = EDGE_CURVE('',#352,#352,#354,.T.);
#352 = VERTEX_POINT('',#353);
#353 = CARTESIAN_POINT('',(33.200001,16.,0.));
#354 = CIRCLE('',#355,3.3);
#355 = AXIS2_PLACEMENT_3D('',#356,#357,#358);
#356 = CARTESIAN_POINT('',(36.500001,16.,0.));
#357 = DIRECTION('',(0.,0.,-1.));
#358 = DIRECTION('',(-1.,0.,0.));
#359 = FACE_BOUND('',#360,.T.);
#360 = EDGE_LOOP('',(#361));
#361 = ORIENTED_EDGE('',*,*,#362,.F.);
#362 = EDGE_CURVE('',#363,#363,#365,.T.);
#363 = VERTEX_POINT('',#364);
#364 = CARTESIAN_POINT('',(352.221042,254.000004,0.));
#365 = CIRCLE('',#366,3.3);
#366 = AXIS2_PLACEMENT_3D('',#367,#368,#369);
#367 = CARTESIAN_POINT('',(355.521042,254.000004,0.));
#368 = DIRECTION('',(0.,0.,-1.));
#369 = DIRECTION('',(-1.,0.,0.));
#370 = FACE_BOUND('',#371,.T.);
#371 = EDGE_LOOP('',(#372));
#372 = ORIENTED_EDGE('',*,*,#373,.F.);
#373 = EDGE_CURVE('',#374,#374,#376,.T.);
#374 = VERTEX_POINT('',#375);
#375 = CARTESIAN_POINT('',(267.200001,254.000004,0.));
#376 = CIRCLE('',#377,3.3);
#377 = AXIS2_PLACEMENT_3D('',#378,#379,#380);
#378 = CARTESIAN_POINT('',(270.500001,254.000004,0.));
#379 = DIRECTION('',(0.,0.,-1.));
#380 = DIRECTION('',(-1.,0.,0.));
#381 = FACE_BOUND('',#382,.T.);
#382 = EDGE_LOOP('',(#383));
#383 = ORIENTED_EDGE('',*,*,#384,.F.);
#384 = EDGE_CURVE('',#385,#385,#387,.T.);
#385 = VERTEX_POINT('',#386);
#386 = CARTESIAN_POINT('',(235.221042,254.000004,0.));
#387 = CIRCLE('',#388,3.3);
#388 = AXIS2_PLACEMENT_3D('',#389,#390,#391);
#389 = CARTESIAN_POINT('',(238.521042,254.000004,0.));
#390 = DIRECTION('',(0.,0.,-1.));
#391 = DIRECTION('',(-1.,0.,0.));
#392 = FACE_BOUND('',#393,.T.);
#393 = EDGE_LOOP('',(#394));
#394 = ORIENTED_EDGE('',*,*,#395,.F.);
#395 = EDGE_CURVE('',#396,#396,#398,.T.);
#396 = VERTEX_POINT('',#397);
#397 = CARTESIAN_POINT('',(324.3,445.,0.));
#398 = CIRCLE('',#399,5.5);
#399 = AXIS2_PLACEMENT_3D('',#400,#401,#402);
#400 = CARTESIAN_POINT('',(329.8,445.,0.));
#401 = DIRECTION('',(0.,0.,-1.));
#402 = DIRECTION('',(-1.,0.,0.));
#403 = FACE_BOUND('',#404,.T.);
#404 = EDGE_LOOP('',(#405));
#405 = ORIENTED_EDGE('',*,*,#406,.F.);
#406 = EDGE_CURVE('',#407,#407,#409,.T.);
#407 = VERTEX_POINT('',#408);
#408 = CARTESIAN_POINT('',(222.7,445.,0.));
#409 = CIRCLE('',#410,5.5);
#410 = AXIS2_PLACEMENT_3D('',#411,#412,#413);
#411 = CARTESIAN_POINT('',(228.2,445.,0.));
#412 = DIRECTION('',(0.,0.,-1.));
#413 = DIRECTION('',(-1.,0.,0.));
#414 = FACE_BOUND('',#415,.T.);
#415 = EDGE_LOOP('',(#416));
#416 = ORIENTED_EDGE('',*,*,#417,.F.);
#417 = EDGE_CURVE('',#418,#418,#420,.T.);
#418 = VERTEX_POINT('',#419);
#419 = CARTESIAN_POINT('',(150.200001,254.000004,0.));
#420 = CIRCLE('',#421,3.3);
#421 = AXIS2_PLACEMENT_3D('',#422,#423,#424);
#422 = CARTESIAN_POINT('',(153.500001,254.000004,0.));
#423 = DIRECTION('',(0.,0.,-1.));
#424 = DIRECTION('',(-1.,0.,0.));
#425 = FACE_BOUND('',#426,.T.);
#426 = EDGE_LOOP('',(#427));
#427 = ORIENTED_EDGE('',*,*,#428,.F.);
#428 = EDGE_CURVE('',#429,#429,#431,.T.);
#429 = VERTEX_POINT('',#430);
#430 = CARTESIAN_POINT('',(118.221042,254.000004,0.));
#431 = CIRCLE('',#432,3.3);
#432 = AXIS2_PLACEMENT_3D('',#433,#434,#435);
#433 = CARTESIAN_POINT('',(121.521042,254.000004,0.));
#434 = DIRECTION('',(0.,0.,-1.));
#435 = DIRECTION('',(-1.,0.,0.));
#436 = FACE_BOUND('',#437,.T.);
#437 = EDGE_LOOP('',(#438));
#438 = ORIENTED_EDGE('',*,*,#439,.F.);
#439 = EDGE_CURVE('',#440,#440,#442,.T.);
#440 = VERTEX_POINT('',#441);
#441 = CARTESIAN_POINT('',(33.200001,254.000004,0.));
#442 = CIRCLE('',#443,3.3);
#443 = AXIS2_PLACEMENT_3D('',#444,#445,#446);
#444 = CARTESIAN_POINT('',(36.500001,254.000004,0.));
#445 = DIRECTION('',(0.,0.,-1.));
#446 = DIRECTION('',(-1.,0.,0.));
#447 = FACE_BOUND('',#448,.T.);
#448 = EDGE_LOOP('',(#449));
#449 = ORIENTED_EDGE('',*,*,#450,.F.);
#450 = EDGE_CURVE('',#451,#451,#453,.T.);
#451 = VERTEX_POINT('',#452);
#452 = CARTESIAN_POINT('',(121.1,445.,0.));
#453 = CIRCLE('',#454,5.5);
#454 = AXIS2_PLACEMENT_3D('',#455,#456,#457);
#455 = CARTESIAN_POINT('',(126.6,445.,0.));
#456 = DIRECTION('',(0.,0.,-1.));
#457 = DIRECTION('',(-1.,0.,0.));
#458 = FACE_BOUND('',#459,.T.);
#459 = EDGE_LOOP('',(#460));
#460 = ORIENTED_EDGE('',*,*,#461,.F.);
#461 = EDGE_CURVE('',#462,#462,#464,.T.);
#462 = VERTEX_POINT('',#463);
#463 = CARTESIAN_POINT('',(19.5,445.,0.));
#464 = CIRCLE('',#465,5.5);
#465 = AXIS2_PLACEMENT_3D('',#466,#467,#468);
#466 = CARTESIAN_POINT('',(25.,445.,0.));
#467 = DIRECTION('',(0.,0.,-1.));
#468 = DIRECTION('',(-1.,0.,0.));
#469 = PLANE('',#470);
#470 = AXIS2_PLACEMENT_3D('',#471,#472,#473);
#471 = CARTESIAN_POINT('',(200.00000002938,212.00383295599,-2.613E-14));
#472 = DIRECTION('',(-0.,-0.,-1.));
#473 = DIRECTION('',(-1.,0.,0.));
#474 = ADVANCED_FACE('',(#475),#518,.F.);
#475 = FACE_BOUND('',#476,.T.);
#476 = EDGE_LOOP('',(#477,#486,#494,#502,#510,#516,#517));
#477 = ORIENTED_EDGE('',*,*,#478,.T.);
#478 = EDGE_CURVE('',#237,#479,#481,.T.);
#479 = VERTEX_POINT('',#480);
#480 = CARTESIAN_POINT('',(405.,-42.,2.999999078461));
#481 = CIRCLE('',#482,3.);
#482 = AXIS2_PLACEMENT_3D('',#483,#484,#485);
#483 = CARTESIAN_POINT('',(402.,-42.,3.));
#484 = DIRECTION('',(0.,-1.,0.));
#485 = DIRECTION('',(1.,0.,0.));
#486 = ORIENTED_EDGE('',*,*,#487,.T.);
#487 = EDGE_CURVE('',#479,#488,#490,.T.);
#488 = VERTEX_POINT('',#489);
#489 = CARTESIAN_POINT('',(405.,-42.,40.));
#490 = LINE('',#491,#492);
#491 = CARTESIAN_POINT('',(405.,-42.,2.999999078461));
#492 = VECTOR('',#493,1.);
#493 = DIRECTION('',(0.,2.2E-16,1.));
#494 = ORIENTED_EDGE('',*,*,#495,.T.);
#495 = EDGE_CURVE('',#488,#496,#498,.T.);
#496 = VERTEX_POINT('',#497);
#497 = CARTESIAN_POINT('',(402.,-42.,40.));
#498 = LINE('',#499,#500);
#499 = CARTESIAN_POINT('',(405.,-42.,40.));
#500 = VECTOR('',#501,1.);
#501 = DIRECTION('',(-1.,0.,0.));
#502 = ORIENTED_EDGE('',*,*,#503,.T.);
#503 = EDGE_CURVE('',#496,#504,#506,.T.);
#504 = VERTEX_POINT('',#505);
#505 = CARTESIAN_POINT('',(402.,-42.,3.));
#506 = LINE('',#507,#508);
#507 = CARTESIAN_POINT('',(402.,-42.,40.));
#508 = VECTOR('',#509,1.);
#509 = DIRECTION('',(0.,-2.2E-16,-1.));
#510 = ORIENTED_EDGE('',*,*,#511,.F.);
#511 = EDGE_CURVE('',#142,#504,#512,.T.);
#512 = LINE('',#513,#514);
#513 = CARTESIAN_POINT('',(400.,-42.,3.));
#514 = VECTOR('',#515,1.);
#515 = DIRECTION('',(1.,0.,0.));
#516 = ORIENTED_EDGE('',*,*,#149,.F.);
#517 = ORIENTED_EDGE('',*,*,#244,.F.);
#518 = PLANE('',#519);
#519 = AXIS2_PLACEMENT_3D('',#520,#521,#522);
#520 = CARTESIAN_POINT('',(199.99999999917,-42.,19.476735633129));
#521 = DIRECTION('',(0.,1.,0.));
#522 = DIRECTION('',(0.,0.,1.));
#523 = ADVANCED_FACE('',(#524,#606,#617,#628,#639,#650,#661,#672,#683,
    #694,#705,#716,#727,#738,#749,#760,#771,#782,#793,#804,#815),#826,
  .T.);
#524 = FACE_BOUND('',#525,.T.);
#525 = EDGE_LOOP('',(#526,#527,#528,#536,#544,#552,#560,#568,#576,#584,
    #592,#600));
#526 = ORIENTED_EDGE('',*,*,#141,.T.);
#527 = ORIENTED_EDGE('',*,*,#511,.T.);
#528 = ORIENTED_EDGE('',*,*,#529,.T.);
#529 = EDGE_CURVE('',#504,#530,#532,.T.);
#530 = VERTEX_POINT('',#531);
#531 = CARTESIAN_POINT('',(402.,466.,3.));
#532 = LINE('',#533,#534);
#533 = CARTESIAN_POINT('',(402.,-42.,3.));
#534 = VECTOR('',#535,1.);
#535 = DIRECTION('',(0.,1.,-2.2E-16));
#536 = ORIENTED_EDGE('',*,*,#537,.F.);
#537 = EDGE_CURVE('',#538,#530,#540,.T.);
#538 = VERTEX_POINT('',#539);
#539 = CARTESIAN_POINT('',(400.,466.,3.));
#540 = LINE('',#541,#542);
#541 = CARTESIAN_POINT('',(400.,466.,3.));
#542 = VECTOR('',#543,1.);
#543 = DIRECTION('',(1.,0.,0.));
#544 = ORIENTED_EDGE('',*,*,#545,.F.);
#545 = EDGE_CURVE('',#546,#538,#548,.T.);
#546 = VERTEX_POINT('',#547);
#547 = CARTESIAN_POINT('',(400.,465.,3.));
#548 = LINE('',#549,#550);
#549 = CARTESIAN_POINT('',(400.,-42.,3.));
#550 = VECTOR('',#551,1.);
#551 = DIRECTION('',(0.,1.,-2.2E-16));
#552 = ORIENTED_EDGE('',*,*,#553,.T.);
#553 = EDGE_CURVE('',#546,#554,#556,.T.);
#554 = VERTEX_POINT('',#555);
#555 = CARTESIAN_POINT('',(0.,465.,3.));
#556 = LINE('',#557,#558);
#557 = CARTESIAN_POINT('',(400.,465.,3.));
#558 = VECTOR('',#559,1.);
#559 = DIRECTION('',(-1.,0.,0.));
#560 = ORIENTED_EDGE('',*,*,#561,.T.);
#561 = EDGE_CURVE('',#554,#562,#564,.T.);
#562 = VERTEX_POINT('',#563);
#563 = CARTESIAN_POINT('',(0.,466.,3.));
#564 = LINE('',#565,#566);
#565 = CARTESIAN_POINT('',(0.,-42.,3.));
#566 = VECTOR('',#567,1.);
#567 = DIRECTION('',(0.,1.,-2.2E-16));
#568 = ORIENTED_EDGE('',*,*,#569,.F.);
#569 = EDGE_CURVE('',#570,#562,#572,.T.);
#570 = VERTEX_POINT('',#571);
#571 = CARTESIAN_POINT('',(-2.,466.,3.));
#572 = LINE('',#573,#574);
#573 = CARTESIAN_POINT('',(-2.,466.,3.));
#574 = VECTOR('',#575,1.);
#575 = DIRECTION('',(1.,0.,0.));
#576 = ORIENTED_EDGE('',*,*,#577,.F.);
#577 = EDGE_CURVE('',#578,#570,#580,.T.);
#578 = VERTEX_POINT('',#579);
#579 = CARTESIAN_POINT('',(-2.,-42.,3.));
#580 = LINE('',#581,#582);
#581 = CARTESIAN_POINT('',(-2.,-42.,3.));
#582 = VECTOR('',#583,1.);
#583 = DIRECTION('',(0.,1.,-2.2E-16));
#584 = ORIENTED_EDGE('',*,*,#585,.T.);
#585 = EDGE_CURVE('',#578,#586,#588,.T.);
#586 = VERTEX_POINT('',#587);
#587 = CARTESIAN_POINT('',(0.,-42.,3.));
#588 = LINE('',#589,#590);
#589 = CARTESIAN_POINT('',(-2.,-42.,3.));
#590 = VECTOR('',#591,1.);
#591 = DIRECTION('',(1.,0.,0.));
#592 = ORIENTED_EDGE('',*,*,#593,.T.);
#593 = EDGE_CURVE('',#586,#594,#596,.T.);
#594 = VERTEX_POINT('',#595);
#595 = CARTESIAN_POINT('',(0.,-42.110119,3.));
#596 = LINE('',#597,#598);
#597 = CARTESIAN_POINT('',(0.,465.,3.));
#598 = VECTOR('',#599,1.);
#599 = DIRECTION('',(0.,-1.,0.));
#600 = ORIENTED_EDGE('',*,*,#601,.T.);
#601 = EDGE_CURVE('',#594,#134,#602,.T.);
#602 = LINE('',#603,#604);
#603 = CARTESIAN_POINT('',(0.,-42.110119,3.));
#604 = VECTOR('',#605,1.);
#605 = DIRECTION('',(1.,0.,0.));
#606 = FACE_BOUND('',#607,.T.);
#607 = EDGE_LOOP('',(#608));
#608 = ORIENTED_EDGE('',*,*,#609,.F.);
#609 = EDGE_CURVE('',#610,#610,#612,.T.);
#610 = VERTEX_POINT('',#611);
#611 = CARTESIAN_POINT('',(19.5,-20.,3.));
#612 = CIRCLE('',#613,5.5);
#613 = AXIS2_PLACEMENT_3D('',#614,#615,#616);
#614 = CARTESIAN_POINT('',(25.,-20.,3.));
#615 = DIRECTION('',(0.,0.,1.));
#616 = DIRECTION('',(-1.,0.,0.));
#617 = FACE_BOUND('',#618,.T.);
#618 = EDGE_LOOP('',(#619));
#619 = ORIENTED_EDGE('',*,*,#620,.F.);
#620 = EDGE_CURVE('',#621,#621,#623,.T.);
#621 = VERTEX_POINT('',#622);
#622 = CARTESIAN_POINT('',(33.200001,16.,3.));
#623 = CIRCLE('',#624,3.3);
#624 = AXIS2_PLACEMENT_3D('',#625,#626,#627);
#625 = CARTESIAN_POINT('',(36.500001,16.,3.));
#626 = DIRECTION('',(0.,0.,1.));
#627 = DIRECTION('',(-1.,0.,0.));
#628 = FACE_BOUND('',#629,.T.);
#629 = EDGE_LOOP('',(#630));
#630 = ORIENTED_EDGE('',*,*,#631,.F.);
#631 = EDGE_CURVE('',#632,#632,#634,.T.);
#632 = VERTEX_POINT('',#633);
#633 = CARTESIAN_POINT('',(121.1,-20.,3.));
#634 = CIRCLE('',#635,5.5);
#635 = AXIS2_PLACEMENT_3D('',#636,#637,#638);
#636 = CARTESIAN_POINT('',(126.6,-20.,3.));
#637 = DIRECTION('',(0.,0.,1.));
#638 = DIRECTION('',(-1.,0.,0.));
#639 = FACE_BOUND('',#640,.T.);
#640 = EDGE_LOOP('',(#641));
#641 = ORIENTED_EDGE('',*,*,#642,.F.);
#642 = EDGE_CURVE('',#643,#643,#645,.T.);
#643 = VERTEX_POINT('',#644);
#644 = CARTESIAN_POINT('',(118.200002,16.,3.));
#645 = CIRCLE('',#646,3.3);
#646 = AXIS2_PLACEMENT_3D('',#647,#648,#649);
#647 = CARTESIAN_POINT('',(121.500002,16.,3.));
#648 = DIRECTION('',(0.,0.,1.));
#649 = DIRECTION('',(-1.,0.,0.));
#650 = FACE_BOUND('',#651,.T.);
#651 = EDGE_LOOP('',(#652));
#652 = ORIENTED_EDGE('',*,*,#653,.F.);
#653 = EDGE_CURVE('',#654,#654,#656,.T.);
#654 = VERTEX_POINT('',#655);
#655 = CARTESIAN_POINT('',(150.200001,16.,3.));
#656 = CIRCLE('',#657,3.3);
#657 = AXIS2_PLACEMENT_3D('',#658,#659,#660);
#658 = CARTESIAN_POINT('',(153.500001,16.,3.));
#659 = DIRECTION('',(0.,0.,1.));
#660 = DIRECTION('',(-1.,0.,0.));
#661 = FACE_BOUND('',#662,.T.);
#662 = EDGE_LOOP('',(#663));
#663 = ORIENTED_EDGE('',*,*,#664,.F.);
#664 = EDGE_CURVE('',#665,#665,#667,.T.);
#665 = VERTEX_POINT('',#666);
#666 = CARTESIAN_POINT('',(222.7,-20.,3.));
#667 = CIRCLE('',#668,5.5);
#668 = AXIS2_PLACEMENT_3D('',#669,#670,#671);
#669 = CARTESIAN_POINT('',(228.2,-20.,3.));
#670 = DIRECTION('',(0.,0.,1.));
#671 = DIRECTION('',(-1.,0.,0.));
#672 = FACE_BOUND('',#673,.T.);
#673 = EDGE_LOOP('',(#674));
#674 = ORIENTED_EDGE('',*,*,#675,.F.);
#675 = EDGE_CURVE('',#676,#676,#678,.T.);
#676 = VERTEX_POINT('',#677);
#677 = CARTESIAN_POINT('',(235.200002,16.,3.));
#678 = CIRCLE('',#679,3.3);
#679 = AXIS2_PLACEMENT_3D('',#680,#681,#682);
#680 = CARTESIAN_POINT('',(238.500002,16.,3.));
#681 = DIRECTION('',(0.,0.,1.));
#682 = DIRECTION('',(-1.,0.,0.));
#683 = FACE_BOUND('',#684,.T.);
#684 = EDGE_LOOP('',(#685));
#685 = ORIENTED_EDGE('',*,*,#686,.F.);
#686 = EDGE_CURVE('',#687,#687,#689,.T.);
#687 = VERTEX_POINT('',#688);
#688 = CARTESIAN_POINT('',(267.200001,16.,3.));
#689 = CIRCLE('',#690,3.3);
#690 = AXIS2_PLACEMENT_3D('',#691,#692,#693);
#691 = CARTESIAN_POINT('',(270.500001,16.,3.));
#692 = DIRECTION('',(0.,0.,1.));
#693 = DIRECTION('',(-1.,0.,0.));
#694 = FACE_BOUND('',#695,.T.);
#695 = EDGE_LOOP('',(#696));
#696 = ORIENTED_EDGE('',*,*,#697,.F.);
#697 = EDGE_CURVE('',#698,#698,#700,.T.);
#698 = VERTEX_POINT('',#699);
#699 = CARTESIAN_POINT('',(324.3,-20.,3.));
#700 = CIRCLE('',#701,5.5);
#701 = AXIS2_PLACEMENT_3D('',#702,#703,#704);
#702 = CARTESIAN_POINT('',(329.8,-20.,3.));
#703 = DIRECTION('',(0.,0.,1.));
#704 = DIRECTION('',(-1.,0.,0.));
#705 = FACE_BOUND('',#706,.T.);
#706 = EDGE_LOOP('',(#707));
#707 = ORIENTED_EDGE('',*,*,#708,.F.);
#708 = EDGE_CURVE('',#709,#709,#711,.T.);
#709 = VERTEX_POINT('',#710);
#710 = CARTESIAN_POINT('',(352.200002,16.,3.));
#711 = CIRCLE('',#712,3.3);
#712 = AXIS2_PLACEMENT_3D('',#713,#714,#715);
#713 = CARTESIAN_POINT('',(355.500002,16.,3.));
#714 = DIRECTION('',(0.,0.,1.));
#715 = DIRECTION('',(-1.,0.,0.));
#716 = FACE_BOUND('',#717,.T.);
#717 = EDGE_LOOP('',(#718));
#718 = ORIENTED_EDGE('',*,*,#719,.F.);
#719 = EDGE_CURVE('',#720,#720,#722,.T.);
#720 = VERTEX_POINT('',#721);
#721 = CARTESIAN_POINT('',(33.200001,254.000004,3.));
#722 = CIRCLE('',#723,3.3);
#723 = AXIS2_PLACEMENT_3D('',#724,#725,#726);
#724 = CARTESIAN_POINT('',(36.500001,254.000004,3.));
#725 = DIRECTION('',(0.,0.,1.));
#726 = DIRECTION('',(-1.,0.,0.));
#727 = FACE_BOUND('',#728,.T.);
#728 = EDGE_LOOP('',(#729));
#729 = ORIENTED_EDGE('',*,*,#730,.F.);
#730 = EDGE_CURVE('',#731,#731,#733,.T.);
#731 = VERTEX_POINT('',#732);
#732 = CARTESIAN_POINT('',(118.221042,254.000004,3.));
#733 = CIRCLE('',#734,3.3);
#734 = AXIS2_PLACEMENT_3D('',#735,#736,#737);
#735 = CARTESIAN_POINT('',(121.521042,254.000004,3.));
#736 = DIRECTION('',(0.,0.,1.));
#737 = DIRECTION('',(-1.,0.,0.));
#738 = FACE_BOUND('',#739,.T.);
#739 = EDGE_LOOP('',(#740));
#740 = ORIENTED_EDGE('',*,*,#741,.F.);
#741 = EDGE_CURVE('',#742,#742,#744,.T.);
#742 = VERTEX_POINT('',#743);
#743 = CARTESIAN_POINT('',(150.200001,254.000004,3.));
#744 = CIRCLE('',#745,3.3);
#745 = AXIS2_PLACEMENT_3D('',#746,#747,#748);
#746 = CARTESIAN_POINT('',(153.500001,254.000004,3.));
#747 = DIRECTION('',(0.,0.,1.));
#748 = DIRECTION('',(-1.,0.,0.));
#749 = FACE_BOUND('',#750,.T.);
#750 = EDGE_LOOP('',(#751));
#751 = ORIENTED_EDGE('',*,*,#752,.F.);
#752 = EDGE_CURVE('',#753,#753,#755,.T.);
#753 = VERTEX_POINT('',#754);
#754 = CARTESIAN_POINT('',(19.5,445.,3.));
#755 = CIRCLE('',#756,5.5);
#756 = AXIS2_PLACEMENT_3D('',#757,#758,#759);
#757 = CARTESIAN_POINT('',(25.,445.,3.));
#758 = DIRECTION('',(0.,0.,1.));
#759 = DIRECTION('',(-1.,0.,0.));
#760 = FACE_BOUND('',#761,.T.);
#761 = EDGE_LOOP('',(#762));
#762 = ORIENTED_EDGE('',*,*,#763,.F.);
#763 = EDGE_CURVE('',#764,#764,#766,.T.);
#764 = VERTEX_POINT('',#765);
#765 = CARTESIAN_POINT('',(121.1,445.,3.));
#766 = CIRCLE('',#767,5.5);
#767 = AXIS2_PLACEMENT_3D('',#768,#769,#770);
#768 = CARTESIAN_POINT('',(126.6,445.,3.));
#769 = DIRECTION('',(0.,0.,1.));
#770 = DIRECTION('',(-1.,0.,0.));
#771 = FACE_BOUND('',#772,.T.);
#772 = EDGE_LOOP('',(#773));
#773 = ORIENTED_EDGE('',*,*,#774,.F.);
#774 = EDGE_CURVE('',#775,#775,#777,.T.);
#775 = VERTEX_POINT('',#776);
#776 = CARTESIAN_POINT('',(235.221042,254.000004,3.));
#777 = CIRCLE('',#778,3.3);
#778 = AXIS2_PLACEMENT_3D('',#779,#780,#781);
#779 = CARTESIAN_POINT('',(238.521042,254.000004,3.));
#780 = DIRECTION('',(0.,0.,1.));
#781 = DIRECTION('',(-1.,0.,0.));
#782 = FACE_BOUND('',#783,.T.);
#783 = EDGE_LOOP('',(#784));
#784 = ORIENTED_EDGE('',*,*,#785,.F.);
#785 = EDGE_CURVE('',#786,#786,#788,.T.);
#786 = VERTEX_POINT('',#787);
#787 = CARTESIAN_POINT('',(267.200001,254.000004,3.));
#788 = CIRCLE('',#789,3.3);
#789 = AXIS2_PLACEMENT_3D('',#790,#791,#792);
#790 = CARTESIAN_POINT('',(270.500001,254.000004,3.));
#791 = DIRECTION('',(0.,0.,1.));
#792 = DIRECTION('',(-1.,0.,0.));
#793 = FACE_BOUND('',#794,.T.);
#794 = EDGE_LOOP('',(#795));
#795 = ORIENTED_EDGE('',*,*,#796,.F.);
#796 = EDGE_CURVE('',#797,#797,#799,.T.);
#797 = VERTEX_POINT('',#798);
#798 = CARTESIAN_POINT('',(352.221042,254.000004,3.));
#799 = CIRCLE('',#800,3.3);
#800 = AXIS2_PLACEMENT_3D('',#801,#802,#803);
#801 = CARTESIAN_POINT('',(355.521042,254.000004,3.));
#802 = DIRECTION('',(0.,0.,1.));
#803 = DIRECTION('',(-1.,0.,0.));
#804 = FACE_BOUND('',#805,.T.);
#805 = EDGE_LOOP('',(#806));
#806 = ORIENTED_EDGE('',*,*,#807,.F.);
#807 = EDGE_CURVE('',#808,#808,#810,.T.);
#808 = VERTEX_POINT('',#809);
#809 = CARTESIAN_POINT('',(222.7,445.,3.));
#810 = CIRCLE('',#811,5.5);
#811 = AXIS2_PLACEMENT_3D('',#812,#813,#814);
#812 = CARTESIAN_POINT('',(228.2,445.,3.));
#813 = DIRECTION('',(0.,0.,1.));
#814 = DIRECTION('',(-1.,0.,0.));
#815 = FACE_BOUND('',#816,.T.);
#816 = EDGE_LOOP('',(#817));
#817 = ORIENTED_EDGE('',*,*,#818,.F.);
#818 = EDGE_CURVE('',#819,#819,#821,.T.);
#819 = VERTEX_POINT('',#820);
#820 = CARTESIAN_POINT('',(324.3,445.,3.));
#821 = CIRCLE('',#822,5.5);
#822 = AXIS2_PLACEMENT_3D('',#823,#824,#825);
#823 = CARTESIAN_POINT('',(329.8,445.,3.));
#824 = DIRECTION('',(0.,0.,1.));
#825 = DIRECTION('',(-1.,0.,0.));
#826 = PLANE('',#827);
#827 = AXIS2_PLACEMENT_3D('',#828,#829,#830);
#828 = CARTESIAN_POINT('',(200.,212.00383295599,3.));
#829 = DIRECTION('',(0.,0.,1.));
#830 = DIRECTION('',(1.,0.,0.));
#831 = ADVANCED_FACE('',(#832),#843,.F.);
#832 = FACE_BOUND('',#833,.F.);
#833 = EDGE_LOOP('',(#834,#840,#841,#842));
#834 = ORIENTED_EDGE('',*,*,#835,.T.);
#835 = EDGE_CURVE('',#165,#594,#836,.T.);
#836 = LINE('',#837,#838);
#837 = CARTESIAN_POINT('',(0.,-42.110119,0.));
#838 = VECTOR('',#839,1.);
#839 = DIRECTION('',(0.,0.,1.));
#840 = ORIENTED_EDGE('',*,*,#601,.T.);
#841 = ORIENTED_EDGE('',*,*,#133,.F.);
#842 = ORIENTED_EDGE('',*,*,#164,.F.);
#843 = PLANE('',#844);
#844 = AXIS2_PLACEMENT_3D('',#845,#846,#847);
#845 = CARTESIAN_POINT('',(0.,-42.110119,0.));
#846 = DIRECTION('',(0.,1.,0.));
#847 = DIRECTION('',(1.,0.,0.));
#848 = ADVANCED_FACE('',(#849),#860,.F.);
#849 = FACE_BOUND('',#850,.F.);
#850 = EDGE_LOOP('',(#851,#852,#858,#859));
#851 = ORIENTED_EDGE('',*,*,#172,.F.);
#852 = ORIENTED_EDGE('',*,*,#853,.F.);
#853 = EDGE_CURVE('',#586,#173,#854,.T.);
#854 = LINE('',#855,#856);
#855 = CARTESIAN_POINT('',(0.,-42.,3.));
#856 = VECTOR('',#857,1.);
#857 = DIRECTION('',(0.,0.,-1.));
#858 = ORIENTED_EDGE('',*,*,#593,.T.);
#859 = ORIENTED_EDGE('',*,*,#835,.F.);
#860 = PLANE('',#861);
#861 = AXIS2_PLACEMENT_3D('',#862,#863,#864);
#862 = CARTESIAN_POINT('',(0.,465.,0.));
#863 = DIRECTION('',(1.,0.,0.));
#864 = DIRECTION('',(0.,-1.,0.));
#865 = ADVANCED_FACE('',(#866),#885,.T.);
#866 = FACE_BOUND('',#867,.T.);
#867 = EDGE_LOOP('',(#868,#869,#878,#884));
#868 = ORIENTED_EDGE('',*,*,#236,.T.);
#869 = ORIENTED_EDGE('',*,*,#870,.T.);
#870 = EDGE_CURVE('',#229,#871,#873,.T.);
#871 = VERTEX_POINT('',#872);
#872 = CARTESIAN_POINT('',(405.,466.,2.999999078461));
#873 = CIRCLE('',#874,3.);
#874 = AXIS2_PLACEMENT_3D('',#875,#876,#877);
#875 = CARTESIAN_POINT('',(402.,466.,3.));
#876 = DIRECTION('',(0.,-1.,0.));
#877 = DIRECTION('',(1.,0.,0.));
#878 = ORIENTED_EDGE('',*,*,#879,.F.);
#879 = EDGE_CURVE('',#479,#871,#880,.T.);
#880 = LINE('',#881,#882);
#881 = CARTESIAN_POINT('',(405.,-42.,2.999999078461));
#882 = VECTOR('',#883,1.);
#883 = DIRECTION('',(0.,1.,-2.2E-16));
#884 = ORIENTED_EDGE('',*,*,#478,.F.);
#885 = CYLINDRICAL_SURFACE('',#886,3.);
#886 = AXIS2_PLACEMENT_3D('',#887,#888,#889);
#887 = CARTESIAN_POINT('',(402.,-42.,3.));
#888 = DIRECTION('',(0.,-1.,2.2E-16));
#889 = DIRECTION('',(1.,0.,0.));
#890 = ADVANCED_FACE('',(#891),#927,.T.);
#891 = FACE_BOUND('',#892,.T.);
#892 = EDGE_LOOP('',(#893,#902,#903,#904,#905,#913,#921));
#893 = ORIENTED_EDGE('',*,*,#894,.T.);
#894 = EDGE_CURVE('',#895,#181,#897,.T.);
#895 = VERTEX_POINT('',#896);
#896 = CARTESIAN_POINT('',(-5.,-42.,2.999999));
#897 = CIRCLE('',#898,3.);
#898 = AXIS2_PLACEMENT_3D('',#899,#900,#901);
#899 = CARTESIAN_POINT('',(-2.,-42.,3.));
#900 = DIRECTION('',(0.,-1.,0.));
#901 = DIRECTION('',(1.,0.,0.));
#902 = ORIENTED_EDGE('',*,*,#180,.F.);
#903 = ORIENTED_EDGE('',*,*,#853,.F.);
#904 = ORIENTED_EDGE('',*,*,#585,.F.);
#905 = ORIENTED_EDGE('',*,*,#906,.F.);
#906 = EDGE_CURVE('',#907,#578,#909,.T.);
#907 = VERTEX_POINT('',#908);
#908 = CARTESIAN_POINT('',(-2.,-42.,70.));
#909 = LINE('',#910,#911);
#910 = CARTESIAN_POINT('',(-2.,-42.,4.999999));
#911 = VECTOR('',#912,1.);
#912 = DIRECTION('',(0.,-2.2E-16,-1.));
#913 = ORIENTED_EDGE('',*,*,#914,.T.);
#914 = EDGE_CURVE('',#907,#915,#917,.T.);
#915 = VERTEX_POINT('',#916);
#916 = CARTESIAN_POINT('',(-5.,-42.,70.));
#917 = LINE('',#918,#919);
#918 = CARTESIAN_POINT('',(-2.,-42.,70.));
#919 = VECTOR('',#920,1.);
#920 = DIRECTION('',(-1.,-0.,-0.));
#921 = ORIENTED_EDGE('',*,*,#922,.F.);
#922 = EDGE_CURVE('',#895,#915,#923,.T.);
#923 = LINE('',#924,#925);
#924 = CARTESIAN_POINT('',(-5.,-42.,40.));
#925 = VECTOR('',#926,1.);
#926 = DIRECTION('',(0.,0.,1.));
#927 = PLANE('',#928);
#928 = AXIS2_PLACEMENT_3D('',#929,#930,#931);
#929 = CARTESIAN_POINT('',(-3.373570963666,-42.,34.41965671185));
#930 = DIRECTION('',(-0.,-1.,-0.));
#931 = DIRECTION('',(0.,0.,-1.));
#932 = ADVANCED_FACE('',(#933),#966,.T.);
#933 = FACE_BOUND('',#934,.F.);
#934 = EDGE_LOOP('',(#935,#936,#944,#952,#958,#959,#965));
#935 = ORIENTED_EDGE('',*,*,#870,.T.);
#936 = ORIENTED_EDGE('',*,*,#937,.T.);
#937 = EDGE_CURVE('',#871,#938,#940,.T.);
#938 = VERTEX_POINT('',#939);
#939 = CARTESIAN_POINT('',(405.,466.,40.));
#940 = LINE('',#941,#942);
#941 = CARTESIAN_POINT('',(405.,466.,4.999998));
#942 = VECTOR('',#943,1.);
#943 = DIRECTION('',(0.,2.2E-16,1.));
#944 = ORIENTED_EDGE('',*,*,#945,.T.);
#945 = EDGE_CURVE('',#938,#946,#948,.T.);
#946 = VERTEX_POINT('',#947);
#947 = CARTESIAN_POINT('',(402.,466.,40.));
#948 = LINE('',#949,#950);
#949 = CARTESIAN_POINT('',(405.,466.,40.));
#950 = VECTOR('',#951,1.);
#951 = DIRECTION('',(-1.,0.,0.));
#952 = ORIENTED_EDGE('',*,*,#953,.F.);
#953 = EDGE_CURVE('',#530,#946,#954,.T.);
#954 = LINE('',#955,#956);
#955 = CARTESIAN_POINT('',(402.,466.,3.));
#956 = VECTOR('',#957,1.);
#957 = DIRECTION('',(0.,2.2E-16,1.));
#958 = ORIENTED_EDGE('',*,*,#537,.F.);
#959 = ORIENTED_EDGE('',*,*,#960,.F.);
#960 = EDGE_CURVE('',#221,#538,#961,.T.);
#961 = LINE('',#962,#963);
#962 = CARTESIAN_POINT('',(400.,466.,-1.0311E-13));
#963 = VECTOR('',#964,1.);
#964 = DIRECTION('',(0.,0.,1.));
#965 = ORIENTED_EDGE('',*,*,#228,.F.);
#966 = PLANE('',#967);
#967 = AXIS2_PLACEMENT_3D('',#968,#969,#970);
#968 = CARTESIAN_POINT('',(199.99999999917,466.,19.476735633129));
#969 = DIRECTION('',(0.,1.,0.));
#970 = DIRECTION('',(0.,0.,1.));
#971 = ADVANCED_FACE('',(#972),#991,.T.);
#972 = FACE_BOUND('',#973,.T.);
#973 = EDGE_LOOP('',(#974,#982,#989,#990));
#974 = ORIENTED_EDGE('',*,*,#975,.T.);
#975 = EDGE_CURVE('',#895,#976,#978,.T.);
#976 = VERTEX_POINT('',#977);
#977 = CARTESIAN_POINT('',(-5.,466.,2.999999));
#978 = LINE('',#979,#980);
#979 = CARTESIAN_POINT('',(-5.,-42.,2.999999));
#980 = VECTOR('',#981,1.);
#981 = DIRECTION('',(0.,1.,-2.2E-16));
#982 = ORIENTED_EDGE('',*,*,#983,.T.);
#983 = EDGE_CURVE('',#976,#189,#984,.T.);
#984 = CIRCLE('',#985,3.);
#985 = AXIS2_PLACEMENT_3D('',#986,#987,#988);
#986 = CARTESIAN_POINT('',(-2.,466.,3.));
#987 = DIRECTION('',(0.,-1.,0.));
#988 = DIRECTION('',(1.,0.,0.));
#989 = ORIENTED_EDGE('',*,*,#188,.F.);
#990 = ORIENTED_EDGE('',*,*,#894,.F.);
#991 = CYLINDRICAL_SURFACE('',#992,3.);
#992 = AXIS2_PLACEMENT_3D('',#993,#994,#995);
#993 = CARTESIAN_POINT('',(-2.,-42.,3.));
#994 = DIRECTION('',(0.,-1.,2.2E-16));
#995 = DIRECTION('',(1.,0.,0.));
#996 = ADVANCED_FACE('',(#997),#1008,.F.);
#997 = FACE_BOUND('',#998,.F.);
#998 = EDGE_LOOP('',(#999,#1005,#1006,#1007));
#999 = ORIENTED_EDGE('',*,*,#1000,.F.);
#1000 = EDGE_CURVE('',#213,#546,#1001,.T.);
#1001 = LINE('',#1002,#1003);
#1002 = CARTESIAN_POINT('',(400.,465.,0.));
#1003 = VECTOR('',#1004,1.);
#1004 = DIRECTION('',(0.,0.,1.));
#1005 = ORIENTED_EDGE('',*,*,#220,.T.);
#1006 = ORIENTED_EDGE('',*,*,#960,.T.);
#1007 = ORIENTED_EDGE('',*,*,#545,.F.);
#1008 = PLANE('',#1009);
#1009 = AXIS2_PLACEMENT_3D('',#1010,#1011,#1012);
#1010 = CARTESIAN_POINT('',(400.,-42.,1.021E-14));
#1011 = DIRECTION('',(1.,0.,0.));
#1012 = DIRECTION('',(0.,2.2E-16,1.));
#1013 = ADVANCED_FACE('',(#1014),#1047,.T.);
#1014 = FACE_BOUND('',#1015,.T.);
#1015 = EDGE_LOOP('',(#1016,#1024,#1032,#1038,#1039,#1045,#1046));
#1016 = ORIENTED_EDGE('',*,*,#1017,.T.);
#1017 = EDGE_CURVE('',#976,#1018,#1020,.T.);
#1018 = VERTEX_POINT('',#1019);
#1019 = CARTESIAN_POINT('',(-5.,466.,70.));
#1020 = LINE('',#1021,#1022);
#1021 = CARTESIAN_POINT('',(-5.,466.,2.999999));
#1022 = VECTOR('',#1023,1.);
#1023 = DIRECTION('',(0.,2.2E-16,1.));
#1024 = ORIENTED_EDGE('',*,*,#1025,.F.);
#1025 = EDGE_CURVE('',#1026,#1018,#1028,.T.);
#1026 = VERTEX_POINT('',#1027);
#1027 = CARTESIAN_POINT('',(-2.,466.,70.));
#1028 = LINE('',#1029,#1030);
#1029 = CARTESIAN_POINT('',(-2.,466.,70.));
#1030 = VECTOR('',#1031,1.);
#1031 = DIRECTION('',(-1.,-0.,-0.));
#1032 = ORIENTED_EDGE('',*,*,#1033,.F.);
#1033 = EDGE_CURVE('',#570,#1026,#1034,.T.);
#1034 = LINE('',#1035,#1036);
#1035 = CARTESIAN_POINT('',(-2.,466.,40.));
#1036 = VECTOR('',#1037,1.);
#1037 = DIRECTION('',(0.,0.,1.));
#1038 = ORIENTED_EDGE('',*,*,#569,.T.);
#1039 = ORIENTED_EDGE('',*,*,#1040,.T.);
#1040 = EDGE_CURVE('',#562,#197,#1041,.T.);
#1041 = LINE('',#1042,#1043);
#1042 = CARTESIAN_POINT('',(0.,466.,3.));
#1043 = VECTOR('',#1044,1.);
#1044 = DIRECTION('',(0.,0.,-1.));
#1045 = ORIENTED_EDGE('',*,*,#196,.T.);
#1046 = ORIENTED_EDGE('',*,*,#983,.F.);
#1047 = PLANE('',#1048);
#1048 = AXIS2_PLACEMENT_3D('',#1049,#1050,#1051);
#1049 = CARTESIAN_POINT('',(-3.373570963666,466.,34.41965671185));
#1050 = DIRECTION('',(0.,1.,0.));
#1051 = DIRECTION('',(0.,0.,1.));
#1052 = ADVANCED_FACE('',(#1053),#1064,.F.);
#1053 = FACE_BOUND('',#1054,.F.);
#1054 = EDGE_LOOP('',(#1055,#1056,#1057,#1063));
#1055 = ORIENTED_EDGE('',*,*,#1000,.T.);
#1056 = ORIENTED_EDGE('',*,*,#553,.T.);
#1057 = ORIENTED_EDGE('',*,*,#1058,.F.);
#1058 = EDGE_CURVE('',#205,#554,#1059,.T.);
#1059 = LINE('',#1060,#1061);
#1060 = CARTESIAN_POINT('',(0.,465.,0.));
#1061 = VECTOR('',#1062,1.);
#1062 = DIRECTION('',(0.,0.,1.));
#1063 = ORIENTED_EDGE('',*,*,#212,.F.);
#1064 = PLANE('',#1065);
#1065 = AXIS2_PLACEMENT_3D('',#1066,#1067,#1068);
#1066 = CARTESIAN_POINT('',(400.,465.,0.));
#1067 = DIRECTION('',(0.,-1.,0.));
#1068 = DIRECTION('',(-1.,0.,0.));
#1069 = ADVANCED_FACE('',(#1070),#1076,.F.);
#1070 = FACE_BOUND('',#1071,.F.);
#1071 = EDGE_LOOP('',(#1072,#1073,#1074,#1075));
#1072 = ORIENTED_EDGE('',*,*,#1058,.T.);
#1073 = ORIENTED_EDGE('',*,*,#561,.T.);
#1074 = ORIENTED_EDGE('',*,*,#1040,.T.);
#1075 = ORIENTED_EDGE('',*,*,#204,.F.);
#1076 = PLANE('',#1077);
#1077 = AXIS2_PLACEMENT_3D('',#1078,#1079,#1080);
#1078 = CARTESIAN_POINT('',(0.,-42.,3.));
#1079 = DIRECTION('',(-1.,0.,0.));
#1080 = DIRECTION('',(-0.,-2.2E-16,-1.));
#1081 = ADVANCED_FACE('',(#1082),#1093,.F.);
#1082 = FACE_BOUND('',#1083,.T.);
#1083 = EDGE_LOOP('',(#1084,#1090,#1091,#1092));
#1084 = ORIENTED_EDGE('',*,*,#1085,.F.);
#1085 = EDGE_CURVE('',#253,#698,#1086,.T.);
#1086 = LINE('',#1087,#1088);
#1087 = CARTESIAN_POINT('',(324.3,-20.,0.));
#1088 = VECTOR('',#1089,1.);
#1089 = DIRECTION('',(7.E-17,0.,1.));
#1090 = ORIENTED_EDGE('',*,*,#252,.T.);
#1091 = ORIENTED_EDGE('',*,*,#1085,.T.);
#1092 = ORIENTED_EDGE('',*,*,#697,.T.);
#1093 = CYLINDRICAL_SURFACE('',#1094,5.5);
#1094 = AXIS2_PLACEMENT_3D('',#1095,#1096,#1097);
#1095 = CARTESIAN_POINT('',(329.8,-20.,0.));
#1096 = DIRECTION('',(0.,0.,1.));
#1097 = DIRECTION('',(-1.,0.,0.));
#1098 = ADVANCED_FACE('',(#1099),#1110,.F.);
#1099 = FACE_BOUND('',#1100,.T.);
#1100 = EDGE_LOOP('',(#1101,#1107,#1108,#1109));
#1101 = ORIENTED_EDGE('',*,*,#1102,.F.);
#1102 = EDGE_CURVE('',#264,#709,#1103,.T.);
#1103 = LINE('',#1104,#1105);
#1104 = CARTESIAN_POINT('',(352.200002,16.,0.));
#1105 = VECTOR('',#1106,1.);
#1106 = DIRECTION('',(5.E-17,0.,1.));
#1107 = ORIENTED_EDGE('',*,*,#263,.T.);
#1108 = ORIENTED_EDGE('',*,*,#1102,.T.);
#1109 = ORIENTED_EDGE('',*,*,#708,.T.);
#1110 = CYLINDRICAL_SURFACE('',#1111,3.3);
#1111 = AXIS2_PLACEMENT_3D('',#1112,#1113,#1114);
#1112 = CARTESIAN_POINT('',(355.500002,16.,0.));
#1113 = DIRECTION('',(0.,0.,1.));
#1114 = DIRECTION('',(-1.,0.,0.));
#1115 = ADVANCED_FACE('',(#1116),#1127,.F.);
#1116 = FACE_BOUND('',#1117,.T.);
#1117 = EDGE_LOOP('',(#1118,#1124,#1125,#1126));
#1118 = ORIENTED_EDGE('',*,*,#1119,.F.);
#1119 = EDGE_CURVE('',#275,#687,#1120,.T.);
#1120 = LINE('',#1121,#1122);
#1121 = CARTESIAN_POINT('',(267.200001,16.,0.));
#1122 = VECTOR('',#1123,1.);
#1123 = DIRECTION('',(5.E-17,0.,1.));
#1124 = ORIENTED_EDGE('',*,*,#274,.T.);
#1125 = ORIENTED_EDGE('',*,*,#1119,.T.);
#1126 = ORIENTED_EDGE('',*,*,#686,.T.);
#1127 = CYLINDRICAL_SURFACE('',#1128,3.3);
#1128 = AXIS2_PLACEMENT_3D('',#1129,#1130,#1131);
#1129 = CARTESIAN_POINT('',(270.500001,16.,0.));
#1130 = DIRECTION('',(0.,0.,1.));
#1131 = DIRECTION('',(-1.,0.,0.));
#1132 = ADVANCED_FACE('',(#1133),#1144,.F.);
#1133 = FACE_BOUND('',#1134,.T.);
#1134 = EDGE_LOOP('',(#1135,#1141,#1142,#1143));
#1135 = ORIENTED_EDGE('',*,*,#1136,.F.);
#1136 = EDGE_CURVE('',#286,#676,#1137,.T.);
#1137 = LINE('',#1138,#1139);
#1138 = CARTESIAN_POINT('',(235.200002,16.,0.));
#1139 = VECTOR('',#1140,1.);
#1140 = DIRECTION('',(5.E-17,0.,1.));
#1141 = ORIENTED_EDGE('',*,*,#285,.T.);
#1142 = ORIENTED_EDGE('',*,*,#1136,.T.);
#1143 = ORIENTED_EDGE('',*,*,#675,.T.);
#1144 = CYLINDRICAL_SURFACE('',#1145,3.3);
#1145 = AXIS2_PLACEMENT_3D('',#1146,#1147,#1148);
#1146 = CARTESIAN_POINT('',(238.500002,16.,0.));
#1147 = DIRECTION('',(0.,0.,1.));
#1148 = DIRECTION('',(-1.,0.,0.));
#1149 = ADVANCED_FACE('',(#1150),#1161,.F.);
#1150 = FACE_BOUND('',#1151,.T.);
#1151 = EDGE_LOOP('',(#1152,#1158,#1159,#1160));
#1152 = ORIENTED_EDGE('',*,*,#1153,.F.);
#1153 = EDGE_CURVE('',#297,#665,#1154,.T.);
#1154 = LINE('',#1155,#1156);
#1155 = CARTESIAN_POINT('',(222.7,-20.,0.));
#1156 = VECTOR('',#1157,1.);
#1157 = DIRECTION('',(7.E-17,0.,1.));
#1158 = ORIENTED_EDGE('',*,*,#296,.T.);
#1159 = ORIENTED_EDGE('',*,*,#1153,.T.);
#1160 = ORIENTED_EDGE('',*,*,#664,.T.);
#1161 = CYLINDRICAL_SURFACE('',#1162,5.5);
#1162 = AXIS2_PLACEMENT_3D('',#1163,#1164,#1165);
#1163 = CARTESIAN_POINT('',(228.2,-20.,0.));
#1164 = DIRECTION('',(0.,0.,1.));
#1165 = DIRECTION('',(-1.,0.,0.));
#1166 = ADVANCED_FACE('',(#1167),#1178,.F.);
#1167 = FACE_BOUND('',#1168,.T.);
#1168 = EDGE_LOOP('',(#1169,#1175,#1176,#1177));
#1169 = ORIENTED_EDGE('',*,*,#1170,.F.);
#1170 = EDGE_CURVE('',#308,#654,#1171,.T.);
#1171 = LINE('',#1172,#1173);
#1172 = CARTESIAN_POINT('',(150.200001,16.,0.));
#1173 = VECTOR('',#1174,1.);
#1174 = DIRECTION('',(5.E-17,0.,1.));
#1175 = ORIENTED_EDGE('',*,*,#307,.T.);
#1176 = ORIENTED_EDGE('',*,*,#1170,.T.);
#1177 = ORIENTED_EDGE('',*,*,#653,.T.);
#1178 = CYLINDRICAL_SURFACE('',#1179,3.3);
#1179 = AXIS2_PLACEMENT_3D('',#1180,#1181,#1182);
#1180 = CARTESIAN_POINT('',(153.500001,16.,0.));
#1181 = DIRECTION('',(0.,0.,1.));
#1182 = DIRECTION('',(-1.,0.,0.));
#1183 = ADVANCED_FACE('',(#1184),#1195,.F.);
#1184 = FACE_BOUND('',#1185,.T.);
#1185 = EDGE_LOOP('',(#1186,#1192,#1193,#1194));
#1186 = ORIENTED_EDGE('',*,*,#1187,.F.);
#1187 = EDGE_CURVE('',#319,#632,#1188,.T.);
#1188 = LINE('',#1189,#1190);
#1189 = CARTESIAN_POINT('',(121.1,-20.,0.));
#1190 = VECTOR('',#1191,1.);
#1191 = DIRECTION('',(7.E-17,0.,1.));
#1192 = ORIENTED_EDGE('',*,*,#318,.T.);
#1193 = ORIENTED_EDGE('',*,*,#1187,.T.);
#1194 = ORIENTED_EDGE('',*,*,#631,.T.);
#1195 = CYLINDRICAL_SURFACE('',#1196,5.5);
#1196 = AXIS2_PLACEMENT_3D('',#1197,#1198,#1199);
#1197 = CARTESIAN_POINT('',(126.6,-20.,0.));
#1198 = DIRECTION('',(0.,0.,1.));
#1199 = DIRECTION('',(-1.,0.,0.));
#1200 = ADVANCED_FACE('',(#1201),#1212,.F.);
#1201 = FACE_BOUND('',#1202,.T.);
#1202 = EDGE_LOOP('',(#1203,#1209,#1210,#1211));
#1203 = ORIENTED_EDGE('',*,*,#1204,.F.);
#1204 = EDGE_CURVE('',#330,#643,#1205,.T.);
#1205 = LINE('',#1206,#1207);
#1206 = CARTESIAN_POINT('',(118.200002,16.,0.));
#1207 = VECTOR('',#1208,1.);
#1208 = DIRECTION('',(5.E-17,0.,1.));
#1209 = ORIENTED_EDGE('',*,*,#329,.T.);
#1210 = ORIENTED_EDGE('',*,*,#1204,.T.);
#1211 = ORIENTED_EDGE('',*,*,#642,.T.);
#1212 = CYLINDRICAL_SURFACE('',#1213,3.3);
#1213 = AXIS2_PLACEMENT_3D('',#1214,#1215,#1216);
#1214 = CARTESIAN_POINT('',(121.500002,16.,0.));
#1215 = DIRECTION('',(0.,0.,1.));
#1216 = DIRECTION('',(-1.,0.,0.));
#1217 = ADVANCED_FACE('',(#1218),#1229,.F.);
#1218 = FACE_BOUND('',#1219,.T.);
#1219 = EDGE_LOOP('',(#1220,#1226,#1227,#1228));
#1220 = ORIENTED_EDGE('',*,*,#1221,.F.);
#1221 = EDGE_CURVE('',#341,#610,#1222,.T.);
#1222 = LINE('',#1223,#1224);
#1223 = CARTESIAN_POINT('',(19.5,-20.,0.));
#1224 = VECTOR('',#1225,1.);
#1225 = DIRECTION('',(7.E-17,0.,1.));
#1226 = ORIENTED_EDGE('',*,*,#340,.T.);
#1227 = ORIENTED_EDGE('',*,*,#1221,.T.);
#1228 = ORIENTED_EDGE('',*,*,#609,.T.);
#1229 = CYLINDRICAL_SURFACE('',#1230,5.5);
#1230 = AXIS2_PLACEMENT_3D('',#1231,#1232,#1233);
#1231 = CARTESIAN_POINT('',(25.,-20.,0.));
#1232 = DIRECTION('',(0.,0.,1.));
#1233 = DIRECTION('',(-1.,0.,0.));
#1234 = ADVANCED_FACE('',(#1235),#1246,.F.);
#1235 = FACE_BOUND('',#1236,.T.);
#1236 = EDGE_LOOP('',(#1237,#1243,#1244,#1245));
#1237 = ORIENTED_EDGE('',*,*,#1238,.F.);
#1238 = EDGE_CURVE('',#352,#621,#1239,.T.);
#1239 = LINE('',#1240,#1241);
#1240 = CARTESIAN_POINT('',(33.200001,16.,0.));
#1241 = VECTOR('',#1242,1.);
#1242 = DIRECTION('',(5.E-17,0.,1.));
#1243 = ORIENTED_EDGE('',*,*,#351,.T.);
#1244 = ORIENTED_EDGE('',*,*,#1238,.T.);
#1245 = ORIENTED_EDGE('',*,*,#620,.T.);
#1246 = CYLINDRICAL_SURFACE('',#1247,3.3);
#1247 = AXIS2_PLACEMENT_3D('',#1248,#1249,#1250);
#1248 = CARTESIAN_POINT('',(36.500001,16.,0.));
#1249 = DIRECTION('',(0.,0.,1.));
#1250 = DIRECTION('',(-1.,0.,0.));
#1251 = ADVANCED_FACE('',(#1252),#1263,.F.);
#1252 = FACE_BOUND('',#1253,.T.);
#1253 = EDGE_LOOP('',(#1254,#1260,#1261,#1262));
#1254 = ORIENTED_EDGE('',*,*,#1255,.F.);
#1255 = EDGE_CURVE('',#363,#797,#1256,.T.);
#1256 = LINE('',#1257,#1258);
#1257 = CARTESIAN_POINT('',(352.221042,254.000004,0.));
#1258 = VECTOR('',#1259,1.);
#1259 = DIRECTION('',(5.E-17,0.,1.));
#1260 = ORIENTED_EDGE('',*,*,#362,.T.);
#1261 = ORIENTED_EDGE('',*,*,#1255,.T.);
#1262 = ORIENTED_EDGE('',*,*,#796,.T.);
#1263 = CYLINDRICAL_SURFACE('',#1264,3.3);
#1264 = AXIS2_PLACEMENT_3D('',#1265,#1266,#1267);
#1265 = CARTESIAN_POINT('',(355.521042,254.000004,0.));
#1266 = DIRECTION('',(0.,0.,1.));
#1267 = DIRECTION('',(-1.,0.,0.));
#1268 = ADVANCED_FACE('',(#1269),#1280,.F.);
#1269 = FACE_BOUND('',#1270,.T.);
#1270 = EDGE_LOOP('',(#1271,#1277,#1278,#1279));
#1271 = ORIENTED_EDGE('',*,*,#1272,.F.);
#1272 = EDGE_CURVE('',#374,#786,#1273,.T.);
#1273 = LINE('',#1274,#1275);
#1274 = CARTESIAN_POINT('',(267.200001,254.000004,0.));
#1275 = VECTOR('',#1276,1.);
#1276 = DIRECTION('',(5.E-17,0.,1.));
#1277 = ORIENTED_EDGE('',*,*,#373,.T.);
#1278 = ORIENTED_EDGE('',*,*,#1272,.T.);
#1279 = ORIENTED_EDGE('',*,*,#785,.T.);
#1280 = CYLINDRICAL_SURFACE('',#1281,3.3);
#1281 = AXIS2_PLACEMENT_3D('',#1282,#1283,#1284);
#1282 = CARTESIAN_POINT('',(270.500001,254.000004,0.));
#1283 = DIRECTION('',(0.,0.,1.));
#1284 = DIRECTION('',(-1.,0.,0.));
#1285 = ADVANCED_FACE('',(#1286),#1297,.F.);
#1286 = FACE_BOUND('',#1287,.T.);
#1287 = EDGE_LOOP('',(#1288,#1294,#1295,#1296));
#1288 = ORIENTED_EDGE('',*,*,#1289,.F.);
#1289 = EDGE_CURVE('',#385,#775,#1290,.T.);
#1290 = LINE('',#1291,#1292);
#1291 = CARTESIAN_POINT('',(235.221042,254.000004,0.));
#1292 = VECTOR('',#1293,1.);
#1293 = DIRECTION('',(5.E-17,0.,1.));
#1294 = ORIENTED_EDGE('',*,*,#384,.T.);
#1295 = ORIENTED_EDGE('',*,*,#1289,.T.);
#1296 = ORIENTED_EDGE('',*,*,#774,.T.);
#1297 = CYLINDRICAL_SURFACE('',#1298,3.3);
#1298 = AXIS2_PLACEMENT_3D('',#1299,#1300,#1301);
#1299 = CARTESIAN_POINT('',(238.521042,254.000004,0.));
#1300 = DIRECTION('',(0.,0.,1.));
#1301 = DIRECTION('',(-1.,0.,0.));
#1302 = ADVANCED_FACE('',(#1303),#1314,.F.);
#1303 = FACE_BOUND('',#1304,.T.);
#1304 = EDGE_LOOP('',(#1305,#1311,#1312,#1313));
#1305 = ORIENTED_EDGE('',*,*,#1306,.F.);
#1306 = EDGE_CURVE('',#396,#819,#1307,.T.);
#1307 = LINE('',#1308,#1309);
#1308 = CARTESIAN_POINT('',(324.3,445.,0.));
#1309 = VECTOR('',#1310,1.);
#1310 = DIRECTION('',(7.E-17,0.,1.));
#1311 = ORIENTED_EDGE('',*,*,#395,.T.);
#1312 = ORIENTED_EDGE('',*,*,#1306,.T.);
#1313 = ORIENTED_EDGE('',*,*,#818,.T.);
#1314 = CYLINDRICAL_SURFACE('',#1315,5.5);
#1315 = AXIS2_PLACEMENT_3D('',#1316,#1317,#1318);
#1316 = CARTESIAN_POINT('',(329.8,445.,0.));
#1317 = DIRECTION('',(0.,0.,1.));
#1318 = DIRECTION('',(-1.,0.,0.));
#1319 = ADVANCED_FACE('',(#1320),#1331,.F.);
#1320 = FACE_BOUND('',#1321,.T.);
#1321 = EDGE_LOOP('',(#1322,#1328,#1329,#1330));
#1322 = ORIENTED_EDGE('',*,*,#1323,.F.);
#1323 = EDGE_CURVE('',#407,#808,#1324,.T.);
#1324 = LINE('',#1325,#1326);
#1325 = CARTESIAN_POINT('',(222.7,445.,0.));
#1326 = VECTOR('',#1327,1.);
#1327 = DIRECTION('',(7.E-17,0.,1.));
#1328 = ORIENTED_EDGE('',*,*,#406,.T.);
#1329 = ORIENTED_EDGE('',*,*,#1323,.T.);
#1330 = ORIENTED_EDGE('',*,*,#807,.T.);
#1331 = CYLINDRICAL_SURFACE('',#1332,5.5);
#1332 = AXIS2_PLACEMENT_3D('',#1333,#1334,#1335);
#1333 = CARTESIAN_POINT('',(228.2,445.,0.));
#1334 = DIRECTION('',(0.,0.,1.));
#1335 = DIRECTION('',(-1.,0.,0.));
#1336 = ADVANCED_FACE('',(#1337),#1348,.F.);
#1337 = FACE_BOUND('',#1338,.T.);
#1338 = EDGE_LOOP('',(#1339,#1345,#1346,#1347));
#1339 = ORIENTED_EDGE('',*,*,#1340,.F.);
#1340 = EDGE_CURVE('',#418,#742,#1341,.T.);
#1341 = LINE('',#1342,#1343);
#1342 = CARTESIAN_POINT('',(150.200001,254.000004,0.));
#1343 = VECTOR('',#1344,1.);
#1344 = DIRECTION('',(5.E-17,0.,1.));
#1345 = ORIENTED_EDGE('',*,*,#417,.T.);
#1346 = ORIENTED_EDGE('',*,*,#1340,.T.);
#1347 = ORIENTED_EDGE('',*,*,#741,.T.);
#1348 = CYLINDRICAL_SURFACE('',#1349,3.3);
#1349 = AXIS2_PLACEMENT_3D('',#1350,#1351,#1352);
#1350 = CARTESIAN_POINT('',(153.500001,254.000004,0.));
#1351 = DIRECTION('',(0.,0.,1.));
#1352 = DIRECTION('',(-1.,0.,0.));
#1353 = ADVANCED_FACE('',(#1354),#1365,.F.);
#1354 = FACE_BOUND('',#1355,.T.);
#1355 = EDGE_LOOP('',(#1356,#1362,#1363,#1364));
#1356 = ORIENTED_EDGE('',*,*,#1357,.F.);
#1357 = EDGE_CURVE('',#429,#731,#1358,.T.);
#1358 = LINE('',#1359,#1360);
#1359 = CARTESIAN_POINT('',(118.221042,254.000004,0.));
#1360 = VECTOR('',#1361,1.);
#1361 = DIRECTION('',(5.E-17,0.,1.));
#1362 = ORIENTED_EDGE('',*,*,#428,.T.);
#1363 = ORIENTED_EDGE('',*,*,#1357,.T.);
#1364 = ORIENTED_EDGE('',*,*,#730,.T.);
#1365 = CYLINDRICAL_SURFACE('',#1366,3.3);
#1366 = AXIS2_PLACEMENT_3D('',#1367,#1368,#1369);
#1367 = CARTESIAN_POINT('',(121.521042,254.000004,0.));
#1368 = DIRECTION('',(0.,0.,1.));
#1369 = DIRECTION('',(-1.,0.,0.));
#1370 = ADVANCED_FACE('',(#1371),#1382,.F.);
#1371 = FACE_BOUND('',#1372,.T.);
#1372 = EDGE_LOOP('',(#1373,#1379,#1380,#1381));
#1373 = ORIENTED_EDGE('',*,*,#1374,.F.);
#1374 = EDGE_CURVE('',#440,#720,#1375,.T.);
#1375 = LINE('',#1376,#1377);
#1376 = CARTESIAN_POINT('',(33.200001,254.000004,0.));
#1377 = VECTOR('',#1378,1.);
#1378 = DIRECTION('',(5.E-17,0.,1.));
#1379 = ORIENTED_EDGE('',*,*,#439,.T.);
#1380 = ORIENTED_EDGE('',*,*,#1374,.T.);
#1381 = ORIENTED_EDGE('',*,*,#719,.T.);
#1382 = CYLINDRICAL_SURFACE('',#1383,3.3);
#1383 = AXIS2_PLACEMENT_3D('',#1384,#1385,#1386);
#1384 = CARTESIAN_POINT('',(36.500001,254.000004,0.));
#1385 = DIRECTION('',(0.,0.,1.));
#1386 = DIRECTION('',(-1.,0.,0.));
#1387 = ADVANCED_FACE('',(#1388),#1399,.F.);
#1388 = FACE_BOUND('',#1389,.T.);
#1389 = EDGE_LOOP('',(#1390,#1396,#1397,#1398));
#1390 = ORIENTED_EDGE('',*,*,#1391,.F.);
#1391 = EDGE_CURVE('',#451,#764,#1392,.T.);
#1392 = LINE('',#1393,#1394);
#1393 = CARTESIAN_POINT('',(121.1,445.,0.));
#1394 = VECTOR('',#1395,1.);
#1395 = DIRECTION('',(7.E-17,0.,1.));
#1396 = ORIENTED_EDGE('',*,*,#450,.T.);
#1397 = ORIENTED_EDGE('',*,*,#1391,.T.);
#1398 = ORIENTED_EDGE('',*,*,#763,.T.);
#1399 = CYLINDRICAL_SURFACE('',#1400,5.5);
#1400 = AXIS2_PLACEMENT_3D('',#1401,#1402,#1403);
#1401 = CARTESIAN_POINT('',(126.6,445.,0.));
#1402 = DIRECTION('',(0.,0.,1.));
#1403 = DIRECTION('',(-1.,0.,0.));
#1404 = ADVANCED_FACE('',(#1405),#1416,.F.);
#1405 = FACE_BOUND('',#1406,.T.);
#1406 = EDGE_LOOP('',(#1407,#1413,#1414,#1415));
#1407 = ORIENTED_EDGE('',*,*,#1408,.F.);
#1408 = EDGE_CURVE('',#462,#753,#1409,.T.);
#1409 = LINE('',#1410,#1411);
#1410 = CARTESIAN_POINT('',(19.5,445.,0.));
#1411 = VECTOR('',#1412,1.);
#1412 = DIRECTION('',(7.E-17,0.,1.));
#1413 = ORIENTED_EDGE('',*,*,#461,.T.);
#1414 = ORIENTED_EDGE('',*,*,#1408,.T.);
#1415 = ORIENTED_EDGE('',*,*,#752,.T.);
#1416 = CYLINDRICAL_SURFACE('',#1417,5.5);
#1417 = AXIS2_PLACEMENT_3D('',#1418,#1419,#1420);
#1418 = CARTESIAN_POINT('',(25.,445.,0.));
#1419 = DIRECTION('',(0.,0.,1.));
#1420 = DIRECTION('',(-1.,0.,0.));
#1421 = ADVANCED_FACE('',(#1422),#1447,.T.);
#1422 = FACE_BOUND('',#1423,.T.);
#1423 = EDGE_LOOP('',(#1424,#1425,#1433,#1441));
#1424 = ORIENTED_EDGE('',*,*,#495,.F.);
#1425 = ORIENTED_EDGE('',*,*,#1426,.T.);
#1426 = EDGE_CURVE('',#488,#1427,#1429,.T.);
#1427 = VERTEX_POINT('',#1428);
#1428 = CARTESIAN_POINT('',(405.,-20.,40.));
#1429 = LINE('',#1430,#1431);
#1430 = CARTESIAN_POINT('',(405.,-42.,40.));
#1431 = VECTOR('',#1432,1.);
#1432 = DIRECTION('',(0.,1.,-2.2E-16));
#1433 = ORIENTED_EDGE('',*,*,#1434,.F.);
#1434 = EDGE_CURVE('',#1435,#1427,#1437,.T.);
#1435 = VERTEX_POINT('',#1436);
#1436 = CARTESIAN_POINT('',(402.,-20.,40.));
#1437 = LINE('',#1438,#1439);
#1438 = CARTESIAN_POINT('',(402.,-20.,40.));
#1439 = VECTOR('',#1440,1.);
#1440 = DIRECTION('',(1.,0.,0.));
#1441 = ORIENTED_EDGE('',*,*,#1442,.F.);
#1442 = EDGE_CURVE('',#496,#1435,#1443,.T.);
#1443 = LINE('',#1444,#1445);
#1444 = CARTESIAN_POINT('',(402.,-42.,40.));
#1445 = VECTOR('',#1446,1.);
#1446 = DIRECTION('',(0.,1.,-2.2E-16));
#1447 = PLANE('',#1448);
#1448 = AXIS2_PLACEMENT_3D('',#1449,#1450,#1451);
#1449 = CARTESIAN_POINT('',(405.,-42.,40.));
#1450 = DIRECTION('',(0.,2.2E-16,1.));
#1451 = DIRECTION('',(-1.,0.,0.));
#1452 = ADVANCED_FACE('',(#1453,#1496,#1507,#1518,#1529,#1540,#1551,
    #1562),#1573,.T.);
#1453 = FACE_BOUND('',#1454,.T.);
#1454 = EDGE_LOOP('',(#1455,#1465,#1473,#1479,#1480,#1481,#1482,#1490));
#1455 = ORIENTED_EDGE('',*,*,#1456,.F.);
#1456 = EDGE_CURVE('',#1457,#1459,#1461,.T.);
#1457 = VERTEX_POINT('',#1458);
#1458 = CARTESIAN_POINT('',(-2.,10.,40.));
#1459 = VERTEX_POINT('',#1460);
#1460 = CARTESIAN_POINT('',(-2.,404.,40.));
#1461 = LINE('',#1462,#1463);
#1462 = CARTESIAN_POINT('',(-2.,-42.,40.));
#1463 = VECTOR('',#1464,1.);
#1464 = DIRECTION('',(0.,1.,-2.2E-16));
#1465 = ORIENTED_EDGE('',*,*,#1466,.F.);
#1466 = EDGE_CURVE('',#1467,#1457,#1469,.T.);
#1467 = VERTEX_POINT('',#1468);
#1468 = CARTESIAN_POINT('',(-2.,-10.,70.));
#1469 = LINE('',#1470,#1471);
#1470 = CARTESIAN_POINT('',(-2.,-10.,70.));
#1471 = VECTOR('',#1472,1.);
#1472 = DIRECTION('',(0.,0.554700196225,-0.832050294338));
#1473 = ORIENTED_EDGE('',*,*,#1474,.F.);
#1474 = EDGE_CURVE('',#907,#1467,#1475,.T.);
#1475 = LINE('',#1476,#1477);
#1476 = CARTESIAN_POINT('',(-2.,-42.,70.));
#1477 = VECTOR('',#1478,1.);
#1478 = DIRECTION('',(0.,1.,0.));
#1479 = ORIENTED_EDGE('',*,*,#906,.T.);
#1480 = ORIENTED_EDGE('',*,*,#577,.T.);
#1481 = ORIENTED_EDGE('',*,*,#1033,.T.);
#1482 = ORIENTED_EDGE('',*,*,#1483,.T.);
#1483 = EDGE_CURVE('',#1026,#1484,#1486,.T.);
#1484 = VERTEX_POINT('',#1485);
#1485 = CARTESIAN_POINT('',(-2.,434.,70.));
#1486 = LINE('',#1487,#1488);
#1487 = CARTESIAN_POINT('',(-2.,466.,70.));
#1488 = VECTOR('',#1489,1.);
#1489 = DIRECTION('',(0.,-1.,0.));
#1490 = ORIENTED_EDGE('',*,*,#1491,.T.);
#1491 = EDGE_CURVE('',#1484,#1459,#1492,.T.);
#1492 = LINE('',#1493,#1494);
#1493 = CARTESIAN_POINT('',(-2.,434.,70.));
#1494 = VECTOR('',#1495,1.);
#1495 = DIRECTION('',(0.,-0.707106781187,-0.707106781187));
#1496 = FACE_BOUND('',#1497,.T.);
#1497 = EDGE_LOOP('',(#1498));
#1498 = ORIENTED_EDGE('',*,*,#1499,.F.);
#1499 = EDGE_CURVE('',#1500,#1500,#1502,.T.);
#1500 = VERTEX_POINT('',#1501);
#1501 = CARTESIAN_POINT('',(-2.,210.,25.5));
#1502 = CIRCLE('',#1503,5.5);
#1503 = AXIS2_PLACEMENT_3D('',#1504,#1505,#1506);
#1504 = CARTESIAN_POINT('',(-2.,210.,20.));
#1505 = DIRECTION('',(1.,0.,-0.));
#1506 = DIRECTION('',(0.,0.,1.));
#1507 = FACE_BOUND('',#1508,.T.);
#1508 = EDGE_LOOP('',(#1509));
#1509 = ORIENTED_EDGE('',*,*,#1510,.F.);
#1510 = EDGE_CURVE('',#1511,#1511,#1513,.T.);
#1511 = VERTEX_POINT('',#1512);
#1512 = CARTESIAN_POINT('',(-2.,95.,25.5));
#1513 = CIRCLE('',#1514,5.5);
#1514 = AXIS2_PLACEMENT_3D('',#1515,#1516,#1517);
#1515 = CARTESIAN_POINT('',(-2.,95.,20.));
#1516 = DIRECTION('',(1.,0.,-0.));
#1517 = DIRECTION('',(0.,0.,1.));
#1518 = FACE_BOUND('',#1519,.T.);
#1519 = EDGE_LOOP('',(#1520));
#1520 = ORIENTED_EDGE('',*,*,#1521,.F.);
#1521 = EDGE_CURVE('',#1522,#1522,#1524,.T.);
#1522 = VERTEX_POINT('',#1523);
#1523 = CARTESIAN_POINT('',(-2.,-20.,25.5));
#1524 = CIRCLE('',#1525,5.5);
#1525 = AXIS2_PLACEMENT_3D('',#1526,#1527,#1528);
#1526 = CARTESIAN_POINT('',(-2.,-20.,20.));
#1527 = DIRECTION('',(1.,0.,-0.));
#1528 = DIRECTION('',(0.,0.,1.));
#1529 = FACE_BOUND('',#1530,.T.);
#1530 = EDGE_LOOP('',(#1531));
#1531 = ORIENTED_EDGE('',*,*,#1532,.F.);
#1532 = EDGE_CURVE('',#1533,#1533,#1535,.T.);
#1533 = VERTEX_POINT('',#1534);
#1534 = CARTESIAN_POINT('',(-2.,440.,25.5));
#1535 = CIRCLE('',#1536,5.5);
#1536 = AXIS2_PLACEMENT_3D('',#1537,#1538,#1539);
#1537 = CARTESIAN_POINT('',(-2.,440.,20.));
#1538 = DIRECTION('',(1.,0.,-0.));
#1539 = DIRECTION('',(0.,0.,1.));
#1540 = FACE_BOUND('',#1541,.T.);
#1541 = EDGE_LOOP('',(#1542));
#1542 = ORIENTED_EDGE('',*,*,#1543,.F.);
#1543 = EDGE_CURVE('',#1544,#1544,#1546,.T.);
#1544 = VERTEX_POINT('',#1545);
#1545 = CARTESIAN_POINT('',(-2.,325.,25.5));
#1546 = CIRCLE('',#1547,5.5);
#1547 = AXIS2_PLACEMENT_3D('',#1548,#1549,#1550);
#1548 = CARTESIAN_POINT('',(-2.,325.,20.));
#1549 = DIRECTION('',(1.,0.,-0.));
#1550 = DIRECTION('',(0.,0.,1.));
#1551 = FACE_BOUND('',#1552,.T.);
#1552 = EDGE_LOOP('',(#1553));
#1553 = ORIENTED_EDGE('',*,*,#1554,.F.);
#1554 = EDGE_CURVE('',#1555,#1555,#1557,.T.);
#1555 = VERTEX_POINT('',#1556);
#1556 = CARTESIAN_POINT('',(-2.,-20.5,55.));
#1557 = CIRCLE('',#1558,5.5);
#1558 = AXIS2_PLACEMENT_3D('',#1559,#1560,#1561);
#1559 = CARTESIAN_POINT('',(-2.,-26.,55.));
#1560 = DIRECTION('',(1.,0.,0.));
#1561 = DIRECTION('',(0.,1.,0.));
#1562 = FACE_BOUND('',#1563,.T.);
#1563 = EDGE_LOOP('',(#1564));
#1564 = ORIENTED_EDGE('',*,*,#1565,.F.);
#1565 = EDGE_CURVE('',#1566,#1566,#1568,.T.);
#1566 = VERTEX_POINT('',#1567);
#1567 = CARTESIAN_POINT('',(-2.,455.5,55.));
#1568 = CIRCLE('',#1569,5.5);
#1569 = AXIS2_PLACEMENT_3D('',#1570,#1571,#1572);
#1570 = CARTESIAN_POINT('',(-2.,450.,55.));
#1571 = DIRECTION('',(1.,0.,0.));
#1572 = DIRECTION('',(0.,1.,0.));
#1573 = PLANE('',#1574);
#1574 = AXIS2_PLACEMENT_3D('',#1575,#1576,#1577);
#1575 = CARTESIAN_POINT('',(-2.,211.29442915686,26.280849170138));
#1576 = DIRECTION('',(1.,0.,0.));
#1577 = DIRECTION('',(0.,0.,1.));
#1578 = ADVANCED_FACE('',(#1579),#1597,.F.);
#1579 = FACE_BOUND('',#1580,.F.);
#1580 = EDGE_LOOP('',(#1581,#1582,#1590,#1596));
#1581 = ORIENTED_EDGE('',*,*,#914,.T.);
#1582 = ORIENTED_EDGE('',*,*,#1583,.T.);
#1583 = EDGE_CURVE('',#915,#1584,#1586,.T.);
#1584 = VERTEX_POINT('',#1585);
#1585 = CARTESIAN_POINT('',(-5.,-10.,70.));
#1586 = LINE('',#1587,#1588);
#1587 = CARTESIAN_POINT('',(-5.,-42.,70.));
#1588 = VECTOR('',#1589,1.);
#1589 = DIRECTION('',(0.,1.,0.));
#1590 = ORIENTED_EDGE('',*,*,#1591,.F.);
#1591 = EDGE_CURVE('',#1467,#1584,#1592,.T.);
#1592 = LINE('',#1593,#1594);
#1593 = CARTESIAN_POINT('',(-2.,-10.,70.));
#1594 = VECTOR('',#1595,1.);
#1595 = DIRECTION('',(-1.,-0.,-0.));
#1596 = ORIENTED_EDGE('',*,*,#1474,.F.);
#1597 = PLANE('',#1598);
#1598 = AXIS2_PLACEMENT_3D('',#1599,#1600,#1601);
#1599 = CARTESIAN_POINT('',(-2.,-42.,70.));
#1600 = DIRECTION('',(0.,0.,-1.));
#1601 = DIRECTION('',(0.,1.,0.));
#1602 = ADVANCED_FACE('',(#1603,#1639,#1650,#1661,#1672,#1683,#1694,
    #1705),#1716,.T.);
#1603 = FACE_BOUND('',#1604,.T.);
#1604 = EDGE_LOOP('',(#1605,#1606,#1607,#1608,#1616,#1624,#1632,#1638));
#1605 = ORIENTED_EDGE('',*,*,#975,.F.);
#1606 = ORIENTED_EDGE('',*,*,#922,.T.);
#1607 = ORIENTED_EDGE('',*,*,#1583,.T.);
#1608 = ORIENTED_EDGE('',*,*,#1609,.T.);
#1609 = EDGE_CURVE('',#1584,#1610,#1612,.T.);
#1610 = VERTEX_POINT('',#1611);
#1611 = CARTESIAN_POINT('',(-5.,10.,40.));
#1612 = LINE('',#1613,#1614);
#1613 = CARTESIAN_POINT('',(-5.,-10.,70.));
#1614 = VECTOR('',#1615,1.);
#1615 = DIRECTION('',(0.,0.554700196225,-0.832050294338));
#1616 = ORIENTED_EDGE('',*,*,#1617,.T.);
#1617 = EDGE_CURVE('',#1610,#1618,#1620,.T.);
#1618 = VERTEX_POINT('',#1619);
#1619 = CARTESIAN_POINT('',(-5.,404.,40.));
#1620 = LINE('',#1621,#1622);
#1621 = CARTESIAN_POINT('',(-5.,-42.,40.));
#1622 = VECTOR('',#1623,1.);
#1623 = DIRECTION('',(0.,1.,-2.2E-16));
#1624 = ORIENTED_EDGE('',*,*,#1625,.F.);
#1625 = EDGE_CURVE('',#1626,#1618,#1628,.T.);
#1626 = VERTEX_POINT('',#1627);
#1627 = CARTESIAN_POINT('',(-5.,434.,70.));
#1628 = LINE('',#1629,#1630);
#1629 = CARTESIAN_POINT('',(-5.,434.,70.));
#1630 = VECTOR('',#1631,1.);
#1631 = DIRECTION('',(0.,-0.707106781187,-0.707106781187));
#1632 = ORIENTED_EDGE('',*,*,#1633,.F.);
#1633 = EDGE_CURVE('',#1018,#1626,#1634,.T.);
#1634 = LINE('',#1635,#1636);
#1635 = CARTESIAN_POINT('',(-5.,466.,70.));
#1636 = VECTOR('',#1637,1.);
#1637 = DIRECTION('',(0.,-1.,0.));
#1638 = ORIENTED_EDGE('',*,*,#1017,.F.);
#1639 = FACE_BOUND('',#1640,.T.);
#1640 = EDGE_LOOP('',(#1641));
#1641 = ORIENTED_EDGE('',*,*,#1642,.F.);
#1642 = EDGE_CURVE('',#1643,#1643,#1645,.T.);
#1643 = VERTEX_POINT('',#1644);
#1644 = CARTESIAN_POINT('',(-5.,210.,25.5));
#1645 = CIRCLE('',#1646,5.5);
#1646 = AXIS2_PLACEMENT_3D('',#1647,#1648,#1649);
#1647 = CARTESIAN_POINT('',(-5.,210.,20.));
#1648 = DIRECTION('',(-1.,0.,0.));
#1649 = DIRECTION('',(0.,0.,1.));
#1650 = FACE_BOUND('',#1651,.T.);
#1651 = EDGE_LOOP('',(#1652));
#1652 = ORIENTED_EDGE('',*,*,#1653,.F.);
#1653 = EDGE_CURVE('',#1654,#1654,#1656,.T.);
#1654 = VERTEX_POINT('',#1655);
#1655 = CARTESIAN_POINT('',(-5.,95.,25.5));
#1656 = CIRCLE('',#1657,5.5);
#1657 = AXIS2_PLACEMENT_3D('',#1658,#1659,#1660);
#1658 = CARTESIAN_POINT('',(-5.,95.,20.));
#1659 = DIRECTION('',(-1.,0.,0.));
#1660 = DIRECTION('',(0.,0.,1.));
#1661 = FACE_BOUND('',#1662,.T.);
#1662 = EDGE_LOOP('',(#1663));
#1663 = ORIENTED_EDGE('',*,*,#1664,.F.);
#1664 = EDGE_CURVE('',#1665,#1665,#1667,.T.);
#1665 = VERTEX_POINT('',#1666);
#1666 = CARTESIAN_POINT('',(-5.,-20.,25.5));
#1667 = CIRCLE('',#1668,5.5);
#1668 = AXIS2_PLACEMENT_3D('',#1669,#1670,#1671);
#1669 = CARTESIAN_POINT('',(-5.,-20.,20.));
#1670 = DIRECTION('',(-1.,0.,0.));
#1671 = DIRECTION('',(0.,0.,1.));
#1672 = FACE_BOUND('',#1673,.T.);
#1673 = EDGE_LOOP('',(#1674));
#1674 = ORIENTED_EDGE('',*,*,#1675,.F.);
#1675 = EDGE_CURVE('',#1676,#1676,#1678,.T.);
#1676 = VERTEX_POINT('',#1677);
#1677 = CARTESIAN_POINT('',(-5.,440.,25.5));
#1678 = CIRCLE('',#1679,5.5);
#1679 = AXIS2_PLACEMENT_3D('',#1680,#1681,#1682);
#1680 = CARTESIAN_POINT('',(-5.,440.,20.));
#1681 = DIRECTION('',(-1.,0.,0.));
#1682 = DIRECTION('',(0.,0.,1.));
#1683 = FACE_BOUND('',#1684,.T.);
#1684 = EDGE_LOOP('',(#1685));
#1685 = ORIENTED_EDGE('',*,*,#1686,.F.);
#1686 = EDGE_CURVE('',#1687,#1687,#1689,.T.);
#1687 = VERTEX_POINT('',#1688);
#1688 = CARTESIAN_POINT('',(-5.,325.,25.5));
#1689 = CIRCLE('',#1690,5.5);
#1690 = AXIS2_PLACEMENT_3D('',#1691,#1692,#1693);
#1691 = CARTESIAN_POINT('',(-5.,325.,20.));
#1692 = DIRECTION('',(-1.,0.,0.));
#1693 = DIRECTION('',(0.,0.,1.));
#1694 = FACE_BOUND('',#1695,.T.);
#1695 = EDGE_LOOP('',(#1696));
#1696 = ORIENTED_EDGE('',*,*,#1697,.T.);
#1697 = EDGE_CURVE('',#1698,#1698,#1700,.T.);
#1698 = VERTEX_POINT('',#1699);
#1699 = CARTESIAN_POINT('',(-5.,-20.5,55.));
#1700 = CIRCLE('',#1701,5.5);
#1701 = AXIS2_PLACEMENT_3D('',#1702,#1703,#1704);
#1702 = CARTESIAN_POINT('',(-5.,-26.,55.));
#1703 = DIRECTION('',(1.,0.,0.));
#1704 = DIRECTION('',(0.,1.,0.));
#1705 = FACE_BOUND('',#1706,.T.);
#1706 = EDGE_LOOP('',(#1707));
#1707 = ORIENTED_EDGE('',*,*,#1708,.T.);
#1708 = EDGE_CURVE('',#1709,#1709,#1711,.T.);
#1709 = VERTEX_POINT('',#1710);
#1710 = CARTESIAN_POINT('',(-5.,455.5,55.));
#1711 = CIRCLE('',#1712,5.5);
#1712 = AXIS2_PLACEMENT_3D('',#1713,#1714,#1715);
#1713 = CARTESIAN_POINT('',(-5.,450.,55.));
#1714 = DIRECTION('',(1.,0.,0.));
#1715 = DIRECTION('',(0.,1.,0.));
#1716 = PLANE('',#1717);
#1717 = AXIS2_PLACEMENT_3D('',#1718,#1719,#1720);
#1718 = CARTESIAN_POINT('',(-5.,211.29442915806,26.280848699565));
#1719 = DIRECTION('',(-1.,-0.,-1.9E-15));
#1720 = DIRECTION('',(1.9E-15,0.,-1.));
#1721 = ADVANCED_FACE('',(#1722),#1747,.T.);
#1722 = FACE_BOUND('',#1723,.T.);
#1723 = EDGE_LOOP('',(#1724,#1734,#1740,#1741));
#1724 = ORIENTED_EDGE('',*,*,#1725,.T.);
#1725 = EDGE_CURVE('',#1726,#1728,#1730,.T.);
#1726 = VERTEX_POINT('',#1727);
#1727 = CARTESIAN_POINT('',(402.,434.,40.));
#1728 = VERTEX_POINT('',#1729);
#1729 = CARTESIAN_POINT('',(405.,434.,40.));
#1730 = LINE('',#1731,#1732);
#1731 = CARTESIAN_POINT('',(402.,434.,40.));
#1732 = VECTOR('',#1733,1.);
#1733 = DIRECTION('',(1.,0.,0.));
#1734 = ORIENTED_EDGE('',*,*,#1735,.T.);
#1735 = EDGE_CURVE('',#1728,#938,#1736,.T.);
#1736 = LINE('',#1737,#1738);
#1737 = CARTESIAN_POINT('',(405.,-42.,40.));
#1738 = VECTOR('',#1739,1.);
#1739 = DIRECTION('',(0.,1.,-2.2E-16));
#1740 = ORIENTED_EDGE('',*,*,#945,.T.);
#1741 = ORIENTED_EDGE('',*,*,#1742,.F.);
#1742 = EDGE_CURVE('',#1726,#946,#1743,.T.);
#1743 = LINE('',#1744,#1745);
#1744 = CARTESIAN_POINT('',(402.,-42.,40.));
#1745 = VECTOR('',#1746,1.);
#1746 = DIRECTION('',(0.,1.,-2.2E-16));
#1747 = PLANE('',#1748);
#1748 = AXIS2_PLACEMENT_3D('',#1749,#1750,#1751);
#1749 = CARTESIAN_POINT('',(405.,-42.,40.));
#1750 = DIRECTION('',(0.,2.2E-16,1.));
#1751 = DIRECTION('',(-1.,0.,0.));
#1752 = ADVANCED_FACE('',(#1753),#1764,.T.);
#1753 = FACE_BOUND('',#1754,.T.);
#1754 = EDGE_LOOP('',(#1755,#1756,#1757,#1763));
#1755 = ORIENTED_EDGE('',*,*,#1025,.T.);
#1756 = ORIENTED_EDGE('',*,*,#1633,.T.);
#1757 = ORIENTED_EDGE('',*,*,#1758,.F.);
#1758 = EDGE_CURVE('',#1484,#1626,#1759,.T.);
#1759 = LINE('',#1760,#1761);
#1760 = CARTESIAN_POINT('',(-2.,434.,70.));
#1761 = VECTOR('',#1762,1.);
#1762 = DIRECTION('',(-1.,-0.,-0.));
#1763 = ORIENTED_EDGE('',*,*,#1483,.F.);
#1764 = PLANE('',#1765);
#1765 = AXIS2_PLACEMENT_3D('',#1766,#1767,#1768);
#1766 = CARTESIAN_POINT('',(-2.,466.,70.));
#1767 = DIRECTION('',(0.,0.,1.));
#1768 = DIRECTION('',(0.,-1.,0.));
#1769 = ADVANCED_FACE('',(#1770),#1786,.F.);
#1770 = FACE_BOUND('',#1771,.F.);
#1771 = EDGE_LOOP('',(#1772,#1773,#1779,#1780));
#1772 = ORIENTED_EDGE('',*,*,#101,.T.);
#1773 = ORIENTED_EDGE('',*,*,#1774,.T.);
#1774 = EDGE_CURVE('',#94,#1427,#1775,.T.);
#1775 = LINE('',#1776,#1777);
#1776 = CARTESIAN_POINT('',(405.,0.,70.));
#1777 = VECTOR('',#1778,1.);
#1778 = DIRECTION('',(0.,-0.554700196225,-0.832050294338));
#1779 = ORIENTED_EDGE('',*,*,#1434,.F.);
#1780 = ORIENTED_EDGE('',*,*,#1781,.F.);
#1781 = EDGE_CURVE('',#102,#1435,#1782,.T.);
#1782 = LINE('',#1783,#1784);
#1783 = CARTESIAN_POINT('',(402.,0.,70.));
#1784 = VECTOR('',#1785,1.);
#1785 = DIRECTION('',(0.,-0.554700196225,-0.832050294338));
#1786 = PLANE('',#1787);
#1787 = AXIS2_PLACEMENT_3D('',#1788,#1789,#1790);
#1788 = CARTESIAN_POINT('',(402.,0.,70.));
#1789 = DIRECTION('',(0.,0.832050294338,-0.554700196225));
#1790 = DIRECTION('',(0.,-0.554700196225,-0.832050294338));
#1791 = ADVANCED_FACE('',(#1792),#1808,.F.);
#1792 = FACE_BOUND('',#1793,.F.);
#1793 = EDGE_LOOP('',(#1794,#1800,#1801,#1807));
#1794 = ORIENTED_EDGE('',*,*,#1795,.T.);
#1795 = EDGE_CURVE('',#1457,#1610,#1796,.T.);
#1796 = LINE('',#1797,#1798);
#1797 = CARTESIAN_POINT('',(-2.,10.,40.));
#1798 = VECTOR('',#1799,1.);
#1799 = DIRECTION('',(-1.,-0.,-0.));
#1800 = ORIENTED_EDGE('',*,*,#1617,.T.);
#1801 = ORIENTED_EDGE('',*,*,#1802,.F.);
#1802 = EDGE_CURVE('',#1459,#1618,#1803,.T.);
#1803 = LINE('',#1804,#1805);
#1804 = CARTESIAN_POINT('',(-2.,404.,40.));
#1805 = VECTOR('',#1806,1.);
#1806 = DIRECTION('',(-1.,-0.,-0.));
#1807 = ORIENTED_EDGE('',*,*,#1456,.F.);
#1808 = PLANE('',#1809);
#1809 = AXIS2_PLACEMENT_3D('',#1810,#1811,#1812);
#1810 = CARTESIAN_POINT('',(-5.,-42.,40.));
#1811 = DIRECTION('',(0.,-2.2E-16,-1.));
#1812 = DIRECTION('',(1.,0.,0.));
#1813 = ADVANCED_FACE('',(#1814),#1820,.F.);
#1814 = FACE_BOUND('',#1815,.F.);
#1815 = EDGE_LOOP('',(#1816,#1817,#1818,#1819));
#1816 = ORIENTED_EDGE('',*,*,#1591,.T.);
#1817 = ORIENTED_EDGE('',*,*,#1609,.T.);
#1818 = ORIENTED_EDGE('',*,*,#1795,.F.);
#1819 = ORIENTED_EDGE('',*,*,#1466,.F.);
#1820 = PLANE('',#1821);
#1821 = AXIS2_PLACEMENT_3D('',#1822,#1823,#1824);
#1822 = CARTESIAN_POINT('',(-2.,-10.,70.));
#1823 = DIRECTION('',(0.,-0.832050294338,-0.554700196225));
#1824 = DIRECTION('',(0.,0.554700196225,-0.832050294338));
#1825 = ADVANCED_FACE('',(#1826),#1832,.T.);
#1826 = FACE_BOUND('',#1827,.T.);
#1827 = EDGE_LOOP('',(#1828,#1829,#1830,#1831));
#1828 = ORIENTED_EDGE('',*,*,#1758,.T.);
#1829 = ORIENTED_EDGE('',*,*,#1625,.T.);
#1830 = ORIENTED_EDGE('',*,*,#1802,.F.);
#1831 = ORIENTED_EDGE('',*,*,#1491,.F.);
#1832 = PLANE('',#1833);
#1833 = AXIS2_PLACEMENT_3D('',#1834,#1835,#1836);
#1834 = CARTESIAN_POINT('',(-2.,434.,70.));
#1835 = DIRECTION('',(0.,-0.707106781187,0.707106781187));
#1836 = DIRECTION('',(0.,-0.707106781187,-0.707106781187));
#1837 = ADVANCED_FACE('',(#1838),#1849,.F.);
#1838 = FACE_BOUND('',#1839,.T.);
#1839 = EDGE_LOOP('',(#1840,#1846,#1847,#1848));
#1840 = ORIENTED_EDGE('',*,*,#1841,.F.);
#1841 = EDGE_CURVE('',#1643,#1500,#1842,.T.);
#1842 = LINE('',#1843,#1844);
#1843 = CARTESIAN_POINT('',(-5.,210.,25.5));
#1844 = VECTOR('',#1845,1.);
#1845 = DIRECTION('',(1.,0.,-6.E-17));
#1846 = ORIENTED_EDGE('',*,*,#1642,.T.);
#1847 = ORIENTED_EDGE('',*,*,#1841,.T.);
#1848 = ORIENTED_EDGE('',*,*,#1499,.T.);
#1849 = CYLINDRICAL_SURFACE('',#1850,5.5);
#1850 = AXIS2_PLACEMENT_3D('',#1851,#1852,#1853);
#1851 = CARTESIAN_POINT('',(-5.,210.,20.));
#1852 = DIRECTION('',(1.,0.,0.));
#1853 = DIRECTION('',(0.,0.,1.));
#1854 = ADVANCED_FACE('',(#1855),#1866,.F.);
#1855 = FACE_BOUND('',#1856,.T.);
#1856 = EDGE_LOOP('',(#1857,#1863,#1864,#1865));
#1857 = ORIENTED_EDGE('',*,*,#1858,.F.);
#1858 = EDGE_CURVE('',#1654,#1511,#1859,.T.);
#1859 = LINE('',#1860,#1861);
#1860 = CARTESIAN_POINT('',(-5.,95.,25.5));
#1861 = VECTOR('',#1862,1.);
#1862 = DIRECTION('',(1.,0.,-6.E-17));
#1863 = ORIENTED_EDGE('',*,*,#1653,.T.);
#1864 = ORIENTED_EDGE('',*,*,#1858,.T.);
#1865 = ORIENTED_EDGE('',*,*,#1510,.T.);
#1866 = CYLINDRICAL_SURFACE('',#1867,5.5);
#1867 = AXIS2_PLACEMENT_3D('',#1868,#1869,#1870);
#1868 = CARTESIAN_POINT('',(-5.,95.,20.));
#1869 = DIRECTION('',(1.,0.,0.));
#1870 = DIRECTION('',(0.,0.,1.));
#1871 = ADVANCED_FACE('',(#1872),#1883,.F.);
#1872 = FACE_BOUND('',#1873,.T.);
#1873 = EDGE_LOOP('',(#1874,#1880,#1881,#1882));
#1874 = ORIENTED_EDGE('',*,*,#1875,.F.);
#1875 = EDGE_CURVE('',#1665,#1522,#1876,.T.);
#1876 = LINE('',#1877,#1878);
#1877 = CARTESIAN_POINT('',(-5.,-20.,25.5));
#1878 = VECTOR('',#1879,1.);
#1879 = DIRECTION('',(1.,0.,-6.E-17));
#1880 = ORIENTED_EDGE('',*,*,#1664,.T.);
#1881 = ORIENTED_EDGE('',*,*,#1875,.T.);
#1882 = ORIENTED_EDGE('',*,*,#1521,.T.);
#1883 = CYLINDRICAL_SURFACE('',#1884,5.5);
#1884 = AXIS2_PLACEMENT_3D('',#1885,#1886,#1887);
#1885 = CARTESIAN_POINT('',(-5.,-20.,20.));
#1886 = DIRECTION('',(1.,0.,0.));
#1887 = DIRECTION('',(0.,0.,1.));
#1888 = ADVANCED_FACE('',(#1889),#1900,.F.);
#1889 = FACE_BOUND('',#1890,.T.);
#1890 = EDGE_LOOP('',(#1891,#1897,#1898,#1899));
#1891 = ORIENTED_EDGE('',*,*,#1892,.F.);
#1892 = EDGE_CURVE('',#1676,#1533,#1893,.T.);
#1893 = LINE('',#1894,#1895);
#1894 = CARTESIAN_POINT('',(-5.,440.,25.5));
#1895 = VECTOR('',#1896,1.);
#1896 = DIRECTION('',(1.,0.,-6.E-17));
#1897 = ORIENTED_EDGE('',*,*,#1675,.T.);
#1898 = ORIENTED_EDGE('',*,*,#1892,.T.);
#1899 = ORIENTED_EDGE('',*,*,#1532,.T.);
#1900 = CYLINDRICAL_SURFACE('',#1901,5.5);
#1901 = AXIS2_PLACEMENT_3D('',#1902,#1903,#1904);
#1902 = CARTESIAN_POINT('',(-5.,440.,20.));
#1903 = DIRECTION('',(1.,0.,0.));
#1904 = DIRECTION('',(0.,0.,1.));
#1905 = ADVANCED_FACE('',(#1906),#1917,.F.);
#1906 = FACE_BOUND('',#1907,.T.);
#1907 = EDGE_LOOP('',(#1908,#1914,#1915,#1916));
#1908 = ORIENTED_EDGE('',*,*,#1909,.F.);
#1909 = EDGE_CURVE('',#1687,#1544,#1910,.T.);
#1910 = LINE('',#1911,#1912);
#1911 = CARTESIAN_POINT('',(-5.,325.,25.5));
#1912 = VECTOR('',#1913,1.);
#1913 = DIRECTION('',(1.,0.,-6.E-17));
#1914 = ORIENTED_EDGE('',*,*,#1686,.T.);
#1915 = ORIENTED_EDGE('',*,*,#1909,.T.);
#1916 = ORIENTED_EDGE('',*,*,#1543,.T.);
#1917 = CYLINDRICAL_SURFACE('',#1918,5.5);
#1918 = AXIS2_PLACEMENT_3D('',#1919,#1920,#1921);
#1919 = CARTESIAN_POINT('',(-5.,325.,20.));
#1920 = DIRECTION('',(1.,0.,0.));
#1921 = DIRECTION('',(0.,0.,1.));
#1922 = ADVANCED_FACE('',(#1923),#1934,.F.);
#1923 = FACE_BOUND('',#1924,.F.);
#1924 = EDGE_LOOP('',(#1925,#1931,#1932,#1933));
#1925 = ORIENTED_EDGE('',*,*,#1926,.T.);
#1926 = EDGE_CURVE('',#1555,#1698,#1927,.T.);
#1927 = LINE('',#1928,#1929);
#1928 = CARTESIAN_POINT('',(-2.,-20.5,55.));
#1929 = VECTOR('',#1930,1.);
#1930 = DIRECTION('',(-1.,-0.,-0.));
#1931 = ORIENTED_EDGE('',*,*,#1697,.T.);
#1932 = ORIENTED_EDGE('',*,*,#1926,.F.);
#1933 = ORIENTED_EDGE('',*,*,#1554,.F.);
#1934 = CYLINDRICAL_SURFACE('',#1935,5.5);
#1935 = AXIS2_PLACEMENT_3D('',#1936,#1937,#1938);
#1936 = CARTESIAN_POINT('',(-2.,-26.,55.));
#1937 = DIRECTION('',(1.,0.,0.));
#1938 = DIRECTION('',(0.,1.,0.));
#1939 = ADVANCED_FACE('',(#1940),#1951,.F.);
#1940 = FACE_BOUND('',#1941,.F.);
#1941 = EDGE_LOOP('',(#1942,#1948,#1949,#1950));
#1942 = ORIENTED_EDGE('',*,*,#1943,.T.);
#1943 = EDGE_CURVE('',#1566,#1709,#1944,.T.);
#1944 = LINE('',#1945,#1946);
#1945 = CARTESIAN_POINT('',(-2.,455.5,55.));
#1946 = VECTOR('',#1947,1.);
#1947 = DIRECTION('',(-1.,-0.,-0.));
#1948 = ORIENTED_EDGE('',*,*,#1708,.T.);
#1949 = ORIENTED_EDGE('',*,*,#1943,.F.);
#1950 = ORIENTED_EDGE('',*,*,#1565,.F.);
#1951 = CYLINDRICAL_SURFACE('',#1952,5.5);
#1952 = AXIS2_PLACEMENT_3D('',#1953,#1954,#1955);
#1953 = CARTESIAN_POINT('',(-2.,450.,55.));
#1954 = DIRECTION('',(1.,0.,0.));
#1955 = DIRECTION('',(0.,1.,0.));
#1956 = ADVANCED_FACE('',(#1957),#1982,.F.);
#1957 = FACE_BOUND('',#1958,.F.);
#1958 = EDGE_LOOP('',(#1959,#1960,#1968,#1976));
#1959 = ORIENTED_EDGE('',*,*,#1725,.T.);
#1960 = ORIENTED_EDGE('',*,*,#1961,.T.);
#1961 = EDGE_CURVE('',#1728,#1962,#1964,.T.);
#1962 = VERTEX_POINT('',#1963);
#1963 = CARTESIAN_POINT('',(405.,404.,70.));
#1964 = LINE('',#1965,#1966);
#1965 = CARTESIAN_POINT('',(405.,434.,40.));
#1966 = VECTOR('',#1967,1.);
#1967 = DIRECTION('',(0.,-0.707106781187,0.707106781187));
#1968 = ORIENTED_EDGE('',*,*,#1969,.F.);
#1969 = EDGE_CURVE('',#1970,#1962,#1972,.T.);
#1970 = VERTEX_POINT('',#1971);
#1971 = CARTESIAN_POINT('',(402.,404.,70.));
#1972 = LINE('',#1973,#1974);
#1973 = CARTESIAN_POINT('',(402.,404.,70.));
#1974 = VECTOR('',#1975,1.);
#1975 = DIRECTION('',(1.,0.,0.));
#1976 = ORIENTED_EDGE('',*,*,#1977,.F.);
#1977 = EDGE_CURVE('',#1726,#1970,#1978,.T.);
#1978 = LINE('',#1979,#1980);
#1979 = CARTESIAN_POINT('',(402.,434.,40.));
#1980 = VECTOR('',#1981,1.);
#1981 = DIRECTION('',(0.,-0.707106781187,0.707106781187));
#1982 = PLANE('',#1983);
#1983 = AXIS2_PLACEMENT_3D('',#1984,#1985,#1986);
#1984 = CARTESIAN_POINT('',(402.,434.,40.));
#1985 = DIRECTION('',(0.,-0.707106781187,-0.707106781187));
#1986 = DIRECTION('',(0.,-0.707106781187,0.707106781187));
#1987 = ADVANCED_FACE('',(#1988),#2013,.F.);
#1988 = FACE_BOUND('',#1989,.F.);
#1989 = EDGE_LOOP('',(#1990,#2000,#2006,#2007));
#1990 = ORIENTED_EDGE('',*,*,#1991,.T.);
#1991 = EDGE_CURVE('',#1992,#1994,#1996,.T.);
#1992 = VERTEX_POINT('',#1993);
#1993 = CARTESIAN_POINT('',(402.,372.,70.));
#1994 = VERTEX_POINT('',#1995);
#1995 = CARTESIAN_POINT('',(405.,372.,70.));
#1996 = LINE('',#1997,#1998);
#1997 = CARTESIAN_POINT('',(402.,372.,70.));
#1998 = VECTOR('',#1999,1.);
#1999 = DIRECTION('',(1.,0.,0.));
#2000 = ORIENTED_EDGE('',*,*,#2001,.T.);
#2001 = EDGE_CURVE('',#1994,#32,#2002,.T.);
#2002 = LINE('',#2003,#2004);
#2003 = CARTESIAN_POINT('',(405.,372.,70.));
#2004 = VECTOR('',#2005,1.);
#2005 = DIRECTION('',(0.,0.,-1.));
#2006 = ORIENTED_EDGE('',*,*,#39,.F.);
#2007 = ORIENTED_EDGE('',*,*,#2008,.F.);
#2008 = EDGE_CURVE('',#1992,#40,#2009,.T.);
#2009 = LINE('',#2010,#2011);
#2010 = CARTESIAN_POINT('',(402.,372.,70.));
#2011 = VECTOR('',#2012,1.);
#2012 = DIRECTION('',(0.,0.,-1.));
#2013 = PLANE('',#2014);
#2014 = AXIS2_PLACEMENT_3D('',#2015,#2016,#2017);
#2015 = CARTESIAN_POINT('',(402.,372.,70.));
#2016 = DIRECTION('',(0.,1.,0.));
#2017 = DIRECTION('',(0.,0.,-1.));
#2018 = ADVANCED_FACE('',(#2019),#2035,.F.);
#2019 = FACE_BOUND('',#2020,.F.);
#2020 = EDGE_LOOP('',(#2021,#2022,#2028,#2029));
#2021 = ORIENTED_EDGE('',*,*,#1969,.T.);
#2022 = ORIENTED_EDGE('',*,*,#2023,.T.);
#2023 = EDGE_CURVE('',#1962,#1994,#2024,.T.);
#2024 = LINE('',#2025,#2026);
#2025 = CARTESIAN_POINT('',(405.,404.,70.));
#2026 = VECTOR('',#2027,1.);
#2027 = DIRECTION('',(0.,-1.,0.));
#2028 = ORIENTED_EDGE('',*,*,#1991,.F.);
#2029 = ORIENTED_EDGE('',*,*,#2030,.F.);
#2030 = EDGE_CURVE('',#1970,#1992,#2031,.T.);
#2031 = LINE('',#2032,#2033);
#2032 = CARTESIAN_POINT('',(402.,404.,70.));
#2033 = VECTOR('',#2034,1.);
#2034 = DIRECTION('',(0.,-1.,0.));
#2035 = PLANE('',#2036);
#2036 = AXIS2_PLACEMENT_3D('',#2037,#2038,#2039);
#2037 = CARTESIAN_POINT('',(402.,404.,70.));
#2038 = DIRECTION('',(0.,0.,-1.));
#2039 = DIRECTION('',(0.,-1.,0.));
#2040 = ADVANCED_FACE('',(#2041,#2055,#2066,#2077,#2088,#2099,#2110,
    #2121),#2132,.T.);
#2041 = FACE_BOUND('',#2042,.T.);
#2042 = EDGE_LOOP('',(#2043,#2044,#2045,#2046,#2047,#2048,#2049,#2050,
    #2051,#2052,#2053,#2054));
#2043 = ORIENTED_EDGE('',*,*,#879,.T.);
#2044 = ORIENTED_EDGE('',*,*,#937,.T.);
#2045 = ORIENTED_EDGE('',*,*,#1735,.F.);
#2046 = ORIENTED_EDGE('',*,*,#1961,.T.);
#2047 = ORIENTED_EDGE('',*,*,#2023,.T.);
#2048 = ORIENTED_EDGE('',*,*,#2001,.T.);
#2049 = ORIENTED_EDGE('',*,*,#31,.F.);
#2050 = ORIENTED_EDGE('',*,*,#62,.T.);
#2051 = ORIENTED_EDGE('',*,*,#93,.T.);
#2052 = ORIENTED_EDGE('',*,*,#1774,.T.);
#2053 = ORIENTED_EDGE('',*,*,#1426,.F.);
#2054 = ORIENTED_EDGE('',*,*,#487,.F.);
#2055 = FACE_BOUND('',#2056,.T.);
#2056 = EDGE_LOOP('',(#2057));
#2057 = ORIENTED_EDGE('',*,*,#2058,.F.);
#2058 = EDGE_CURVE('',#2059,#2059,#2061,.T.);
#2059 = VERTEX_POINT('',#2060);
#2060 = CARTESIAN_POINT('',(405.,210.,25.5));
#2061 = CIRCLE('',#2062,5.5);
#2062 = AXIS2_PLACEMENT_3D('',#2063,#2064,#2065);
#2063 = CARTESIAN_POINT('',(405.,210.,20.));
#2064 = DIRECTION('',(1.,0.,-0.));
#2065 = DIRECTION('',(0.,0.,1.));
#2066 = FACE_BOUND('',#2067,.T.);
#2067 = EDGE_LOOP('',(#2068));
#2068 = ORIENTED_EDGE('',*,*,#2069,.F.);
#2069 = EDGE_CURVE('',#2070,#2070,#2072,.T.);
#2070 = VERTEX_POINT('',#2071);
#2071 = CARTESIAN_POINT('',(405.,95.,25.5));
#2072 = CIRCLE('',#2073,5.5);
#2073 = AXIS2_PLACEMENT_3D('',#2074,#2075,#2076);
#2074 = CARTESIAN_POINT('',(405.,95.,20.));
#2075 = DIRECTION('',(1.,0.,-0.));
#2076 = DIRECTION('',(0.,0.,1.));
#2077 = FACE_BOUND('',#2078,.T.);
#2078 = EDGE_LOOP('',(#2079));
#2079 = ORIENTED_EDGE('',*,*,#2080,.F.);
#2080 = EDGE_CURVE('',#2081,#2081,#2083,.T.);
#2081 = VERTEX_POINT('',#2082);
#2082 = CARTESIAN_POINT('',(405.,-20.,25.5));
#2083 = CIRCLE('',#2084,5.5);
#2084 = AXIS2_PLACEMENT_3D('',#2085,#2086,#2087);
#2085 = CARTESIAN_POINT('',(405.,-20.,20.));
#2086 = DIRECTION('',(1.,0.,-0.));
#2087 = DIRECTION('',(0.,0.,1.));
#2088 = FACE_BOUND('',#2089,.T.);
#2089 = EDGE_LOOP('',(#2090));
#2090 = ORIENTED_EDGE('',*,*,#2091,.F.);
#2091 = EDGE_CURVE('',#2092,#2092,#2094,.T.);
#2092 = VERTEX_POINT('',#2093);
#2093 = CARTESIAN_POINT('',(405.,440.,25.5));
#2094 = CIRCLE('',#2095,5.5);
#2095 = AXIS2_PLACEMENT_3D('',#2096,#2097,#2098);
#2096 = CARTESIAN_POINT('',(405.,440.,20.));
#2097 = DIRECTION('',(1.,0.,-0.));
#2098 = DIRECTION('',(0.,0.,1.));
#2099 = FACE_BOUND('',#2100,.T.);
#2100 = EDGE_LOOP('',(#2101));
#2101 = ORIENTED_EDGE('',*,*,#2102,.F.);
#2102 = EDGE_CURVE('',#2103,#2103,#2105,.T.);
#2103 = VERTEX_POINT('',#2104);
#2104 = CARTESIAN_POINT('',(405.,325.,25.5));
#2105 = CIRCLE('',#2106,5.5);
#2106 = AXIS2_PLACEMENT_3D('',#2107,#2108,#2109);
#2107 = CARTESIAN_POINT('',(405.,325.,20.));
#2108 = DIRECTION('',(1.,0.,-0.));
#2109 = DIRECTION('',(0.,0.,1.));
#2110 = FACE_BOUND('',#2111,.T.);
#2111 = EDGE_LOOP('',(#2112));
#2112 = ORIENTED_EDGE('',*,*,#2113,.F.);
#2113 = EDGE_CURVE('',#2114,#2114,#2116,.T.);
#2114 = VERTEX_POINT('',#2115);
#2115 = CARTESIAN_POINT('',(405.,20.5,55.));
#2116 = CIRCLE('',#2117,5.5);
#2117 = AXIS2_PLACEMENT_3D('',#2118,#2119,#2120);
#2118 = CARTESIAN_POINT('',(405.,15.,55.));
#2119 = DIRECTION('',(1.,0.,0.));
#2120 = DIRECTION('',(0.,1.,0.));
#2121 = FACE_BOUND('',#2122,.T.);
#2122 = EDGE_LOOP('',(#2123));
#2123 = ORIENTED_EDGE('',*,*,#2124,.F.);
#2124 = EDGE_CURVE('',#2125,#2125,#2127,.T.);
#2125 = VERTEX_POINT('',#2126);
#2126 = CARTESIAN_POINT('',(405.,393.5,55.));
#2127 = CIRCLE('',#2128,5.5);
#2128 = AXIS2_PLACEMENT_3D('',#2129,#2130,#2131);
#2129 = CARTESIAN_POINT('',(405.,388.,55.));
#2130 = DIRECTION('',(1.,0.,0.));
#2131 = DIRECTION('',(0.,1.,0.));
#2132 = PLANE('',#2133);
#2133 = AXIS2_PLACEMENT_3D('',#2134,#2135,#2136);
#2134 = CARTESIAN_POINT('',(405.,210.59814768551,26.229935778971));
#2135 = DIRECTION('',(1.,0.,-1.05E-15));
#2136 = DIRECTION('',(1.05E-15,0.,1.));
#2137 = ADVANCED_FACE('',(#2138),#2157,.F.);
#2138 = FACE_BOUND('',#2139,.T.);
#2139 = EDGE_LOOP('',(#2140,#2149,#2155,#2156));
#2140 = ORIENTED_EDGE('',*,*,#2141,.F.);
#2141 = EDGE_CURVE('',#2142,#2142,#2144,.T.);
#2142 = VERTEX_POINT('',#2143);
#2143 = CARTESIAN_POINT('',(402.,210.,25.5));
#2144 = CIRCLE('',#2145,5.5);
#2145 = AXIS2_PLACEMENT_3D('',#2146,#2147,#2148);
#2146 = CARTESIAN_POINT('',(402.,210.,20.));
#2147 = DIRECTION('',(1.,0.,-0.));
#2148 = DIRECTION('',(0.,0.,1.));
#2149 = ORIENTED_EDGE('',*,*,#2150,.T.);
#2150 = EDGE_CURVE('',#2142,#2059,#2151,.T.);
#2151 = LINE('',#2152,#2153);
#2152 = CARTESIAN_POINT('',(-5.,210.,25.5));
#2153 = VECTOR('',#2154,1.);
#2154 = DIRECTION('',(1.,0.,-6.E-17));
#2155 = ORIENTED_EDGE('',*,*,#2058,.T.);
#2156 = ORIENTED_EDGE('',*,*,#2150,.F.);
#2157 = CYLINDRICAL_SURFACE('',#2158,5.5);
#2158 = AXIS2_PLACEMENT_3D('',#2159,#2160,#2161);
#2159 = CARTESIAN_POINT('',(-5.,210.,20.));
#2160 = DIRECTION('',(1.,0.,0.));
#2161 = DIRECTION('',(0.,0.,1.));
#2162 = ADVANCED_FACE('',(#2163),#2182,.F.);
#2163 = FACE_BOUND('',#2164,.T.);
#2164 = EDGE_LOOP('',(#2165,#2174,#2180,#2181));
#2165 = ORIENTED_EDGE('',*,*,#2166,.F.);
#2166 = EDGE_CURVE('',#2167,#2167,#2169,.T.);
#2167 = VERTEX_POINT('',#2168);
#2168 = CARTESIAN_POINT('',(402.,95.,25.5));
#2169 = CIRCLE('',#2170,5.5);
#2170 = AXIS2_PLACEMENT_3D('',#2171,#2172,#2173);
#2171 = CARTESIAN_POINT('',(402.,95.,20.));
#2172 = DIRECTION('',(1.,0.,-0.));
#2173 = DIRECTION('',(0.,0.,1.));
#2174 = ORIENTED_EDGE('',*,*,#2175,.T.);
#2175 = EDGE_CURVE('',#2167,#2070,#2176,.T.);
#2176 = LINE('',#2177,#2178);
#2177 = CARTESIAN_POINT('',(-5.,95.,25.5));
#2178 = VECTOR('',#2179,1.);
#2179 = DIRECTION('',(1.,0.,-6.E-17));
#2180 = ORIENTED_EDGE('',*,*,#2069,.T.);
#2181 = ORIENTED_EDGE('',*,*,#2175,.F.);
#2182 = CYLINDRICAL_SURFACE('',#2183,5.5);
#2183 = AXIS2_PLACEMENT_3D('',#2184,#2185,#2186);
#2184 = CARTESIAN_POINT('',(-5.,95.,20.));
#2185 = DIRECTION('',(1.,0.,0.));
#2186 = DIRECTION('',(0.,0.,1.));
#2187 = ADVANCED_FACE('',(#2188),#2207,.F.);
#2188 = FACE_BOUND('',#2189,.T.);
#2189 = EDGE_LOOP('',(#2190,#2199,#2205,#2206));
#2190 = ORIENTED_EDGE('',*,*,#2191,.F.);
#2191 = EDGE_CURVE('',#2192,#2192,#2194,.T.);
#2192 = VERTEX_POINT('',#2193);
#2193 = CARTESIAN_POINT('',(402.,-20.,25.5));
#2194 = CIRCLE('',#2195,5.5);
#2195 = AXIS2_PLACEMENT_3D('',#2196,#2197,#2198);
#2196 = CARTESIAN_POINT('',(402.,-20.,20.));
#2197 = DIRECTION('',(1.,0.,-0.));
#2198 = DIRECTION('',(0.,0.,1.));
#2199 = ORIENTED_EDGE('',*,*,#2200,.T.);
#2200 = EDGE_CURVE('',#2192,#2081,#2201,.T.);
#2201 = LINE('',#2202,#2203);
#2202 = CARTESIAN_POINT('',(-5.,-20.,25.5));
#2203 = VECTOR('',#2204,1.);
#2204 = DIRECTION('',(1.,0.,-6.E-17));
#2205 = ORIENTED_EDGE('',*,*,#2080,.T.);
#2206 = ORIENTED_EDGE('',*,*,#2200,.F.);
#2207 = CYLINDRICAL_SURFACE('',#2208,5.5);
#2208 = AXIS2_PLACEMENT_3D('',#2209,#2210,#2211);
#2209 = CARTESIAN_POINT('',(-5.,-20.,20.));
#2210 = DIRECTION('',(1.,0.,0.));
#2211 = DIRECTION('',(0.,0.,1.));
#2212 = ADVANCED_FACE('',(#2213),#2232,.F.);
#2213 = FACE_BOUND('',#2214,.T.);
#2214 = EDGE_LOOP('',(#2215,#2224,#2230,#2231));
#2215 = ORIENTED_EDGE('',*,*,#2216,.F.);
#2216 = EDGE_CURVE('',#2217,#2217,#2219,.T.);
#2217 = VERTEX_POINT('',#2218);
#2218 = CARTESIAN_POINT('',(402.,440.,25.5));
#2219 = CIRCLE('',#2220,5.5);
#2220 = AXIS2_PLACEMENT_3D('',#2221,#2222,#2223);
#2221 = CARTESIAN_POINT('',(402.,440.,20.));
#2222 = DIRECTION('',(1.,0.,-0.));
#2223 = DIRECTION('',(0.,0.,1.));
#2224 = ORIENTED_EDGE('',*,*,#2225,.T.);
#2225 = EDGE_CURVE('',#2217,#2092,#2226,.T.);
#2226 = LINE('',#2227,#2228);
#2227 = CARTESIAN_POINT('',(-5.,440.,25.5));
#2228 = VECTOR('',#2229,1.);
#2229 = DIRECTION('',(1.,0.,-6.E-17));
#2230 = ORIENTED_EDGE('',*,*,#2091,.T.);
#2231 = ORIENTED_EDGE('',*,*,#2225,.F.);
#2232 = CYLINDRICAL_SURFACE('',#2233,5.5);
#2233 = AXIS2_PLACEMENT_3D('',#2234,#2235,#2236);
#2234 = CARTESIAN_POINT('',(-5.,440.,20.));
#2235 = DIRECTION('',(1.,0.,0.));
#2236 = DIRECTION('',(0.,0.,1.));
#2237 = ADVANCED_FACE('',(#2238),#2257,.F.);
#2238 = FACE_BOUND('',#2239,.T.);
#2239 = EDGE_LOOP('',(#2240,#2249,#2255,#2256));
#2240 = ORIENTED_EDGE('',*,*,#2241,.F.);
#2241 = EDGE_CURVE('',#2242,#2242,#2244,.T.);
#2242 = VERTEX_POINT('',#2243);
#2243 = CARTESIAN_POINT('',(402.,325.,25.5));
#2244 = CIRCLE('',#2245,5.5);
#2245 = AXIS2_PLACEMENT_3D('',#2246,#2247,#2248);
#2246 = CARTESIAN_POINT('',(402.,325.,20.));
#2247 = DIRECTION('',(1.,0.,-0.));
#2248 = DIRECTION('',(0.,0.,1.));
#2249 = ORIENTED_EDGE('',*,*,#2250,.T.);
#2250 = EDGE_CURVE('',#2242,#2103,#2251,.T.);
#2251 = LINE('',#2252,#2253);
#2252 = CARTESIAN_POINT('',(-5.,325.,25.5));
#2253 = VECTOR('',#2254,1.);
#2254 = DIRECTION('',(1.,0.,-6.E-17));
#2255 = ORIENTED_EDGE('',*,*,#2102,.T.);
#2256 = ORIENTED_EDGE('',*,*,#2250,.F.);
#2257 = CYLINDRICAL_SURFACE('',#2258,5.5);
#2258 = AXIS2_PLACEMENT_3D('',#2259,#2260,#2261);
#2259 = CARTESIAN_POINT('',(-5.,325.,20.));
#2260 = DIRECTION('',(1.,0.,0.));
#2261 = DIRECTION('',(0.,0.,1.));
#2262 = ADVANCED_FACE('',(#2263),#2282,.F.);
#2263 = FACE_BOUND('',#2264,.T.);
#2264 = EDGE_LOOP('',(#2265,#2273,#2274,#2275));
#2265 = ORIENTED_EDGE('',*,*,#2266,.T.);
#2266 = EDGE_CURVE('',#2267,#2114,#2269,.T.);
#2267 = VERTEX_POINT('',#2268);
#2268 = CARTESIAN_POINT('',(402.,20.5,55.));
#2269 = LINE('',#2270,#2271);
#2270 = CARTESIAN_POINT('',(402.,20.5,55.));
#2271 = VECTOR('',#2272,1.);
#2272 = DIRECTION('',(1.,0.,0.));
#2273 = ORIENTED_EDGE('',*,*,#2113,.T.);
#2274 = ORIENTED_EDGE('',*,*,#2266,.F.);
#2275 = ORIENTED_EDGE('',*,*,#2276,.F.);
#2276 = EDGE_CURVE('',#2267,#2267,#2277,.T.);
#2277 = CIRCLE('',#2278,5.5);
#2278 = AXIS2_PLACEMENT_3D('',#2279,#2280,#2281);
#2279 = CARTESIAN_POINT('',(402.,15.,55.));
#2280 = DIRECTION('',(1.,0.,0.));
#2281 = DIRECTION('',(0.,1.,0.));
#2282 = CYLINDRICAL_SURFACE('',#2283,5.5);
#2283 = AXIS2_PLACEMENT_3D('',#2284,#2285,#2286);
#2284 = CARTESIAN_POINT('',(402.,15.,55.));
#2285 = DIRECTION('',(-1.,-0.,-0.));
#2286 = DIRECTION('',(0.,1.,0.));
#2287 = ADVANCED_FACE('',(#2288),#2307,.F.);
#2288 = FACE_BOUND('',#2289,.T.);
#2289 = EDGE_LOOP('',(#2290,#2298,#2299,#2300));
#2290 = ORIENTED_EDGE('',*,*,#2291,.T.);
#2291 = EDGE_CURVE('',#2292,#2125,#2294,.T.);
#2292 = VERTEX_POINT('',#2293);
#2293 = CARTESIAN_POINT('',(402.,393.5,55.));
#2294 = LINE('',#2295,#2296);
#2295 = CARTESIAN_POINT('',(402.,393.5,55.));
#2296 = VECTOR('',#2297,1.);
#2297 = DIRECTION('',(1.,0.,0.));
#2298 = ORIENTED_EDGE('',*,*,#2124,.T.);
#2299 = ORIENTED_EDGE('',*,*,#2291,.F.);
#2300 = ORIENTED_EDGE('',*,*,#2301,.F.);
#2301 = EDGE_CURVE('',#2292,#2292,#2302,.T.);
#2302 = CIRCLE('',#2303,5.5);
#2303 = AXIS2_PLACEMENT_3D('',#2304,#2305,#2306);
#2304 = CARTESIAN_POINT('',(402.,388.,55.));
#2305 = DIRECTION('',(1.,0.,0.));
#2306 = DIRECTION('',(0.,1.,0.));
#2307 = CYLINDRICAL_SURFACE('',#2308,5.5);
#2308 = AXIS2_PLACEMENT_3D('',#2309,#2310,#2311);
#2309 = CARTESIAN_POINT('',(402.,388.,55.));
#2310 = DIRECTION('',(-1.,-0.,-0.));
#2311 = DIRECTION('',(0.,1.,0.));
#2312 = ADVANCED_FACE('',(#2313,#2327,#2330,#2333,#2336,#2339,#2342,
    #2345),#2348,.T.);
#2313 = FACE_BOUND('',#2314,.T.);
#2314 = EDGE_LOOP('',(#2315,#2316,#2317,#2318,#2319,#2320,#2321,#2322,
    #2323,#2324,#2325,#2326));
#2315 = ORIENTED_EDGE('',*,*,#1442,.T.);
#2316 = ORIENTED_EDGE('',*,*,#1781,.F.);
#2317 = ORIENTED_EDGE('',*,*,#109,.F.);
#2318 = ORIENTED_EDGE('',*,*,#78,.F.);
#2319 = ORIENTED_EDGE('',*,*,#47,.T.);
#2320 = ORIENTED_EDGE('',*,*,#2008,.F.);
#2321 = ORIENTED_EDGE('',*,*,#2030,.F.);
#2322 = ORIENTED_EDGE('',*,*,#1977,.F.);
#2323 = ORIENTED_EDGE('',*,*,#1742,.T.);
#2324 = ORIENTED_EDGE('',*,*,#953,.F.);
#2325 = ORIENTED_EDGE('',*,*,#529,.F.);
#2326 = ORIENTED_EDGE('',*,*,#503,.F.);
#2327 = FACE_BOUND('',#2328,.T.);
#2328 = EDGE_LOOP('',(#2329));
#2329 = ORIENTED_EDGE('',*,*,#2141,.T.);
#2330 = FACE_BOUND('',#2331,.T.);
#2331 = EDGE_LOOP('',(#2332));
#2332 = ORIENTED_EDGE('',*,*,#2166,.T.);
#2333 = FACE_BOUND('',#2334,.T.);
#2334 = EDGE_LOOP('',(#2335));
#2335 = ORIENTED_EDGE('',*,*,#2191,.T.);
#2336 = FACE_BOUND('',#2337,.T.);
#2337 = EDGE_LOOP('',(#2338));
#2338 = ORIENTED_EDGE('',*,*,#2216,.T.);
#2339 = FACE_BOUND('',#2340,.T.);
#2340 = EDGE_LOOP('',(#2341));
#2341 = ORIENTED_EDGE('',*,*,#2241,.T.);
#2342 = FACE_BOUND('',#2343,.T.);
#2343 = EDGE_LOOP('',(#2344));
#2344 = ORIENTED_EDGE('',*,*,#2276,.T.);
#2345 = FACE_BOUND('',#2346,.T.);
#2346 = EDGE_LOOP('',(#2347));
#2347 = ORIENTED_EDGE('',*,*,#2301,.T.);
#2348 = PLANE('',#2349);
#2349 = AXIS2_PLACEMENT_3D('',#2350,#2351,#2352);
#2350 = CARTESIAN_POINT('',(402.,210.59814768332,26.229936212543));
#2351 = DIRECTION('',(-1.,-0.,-0.));
#2352 = DIRECTION('',(0.,0.,-1.));
#2353 = ( GEOMETRIC_REPRESENTATION_CONTEXT(3) 
GLOBAL_UNCERTAINTY_ASSIGNED_CONTEXT((#2357)) 
GLOBAL_UNIT_ASSIGNED_CONTEXT((#2354,#2355,#2356)) REPRESENTATION_CONTEXT
('Context #1','3D Context with UNIT and UNCERTAINTY') );
#2354 = ( LENGTH_UNIT() NAMED_UNIT(*) SI_UNIT(.MILLI.,.METRE.) );
#2355 = ( NAMED_UNIT(*) PLANE_ANGLE_UNIT() SI_UNIT($,.RADIAN.) );
#2356 = ( NAMED_UNIT(*) SI_UNIT($,.STERADIAN.) SOLID_ANGLE_UNIT() );
#2357 = UNCERTAINTY_MEASURE_WITH_UNIT(LENGTH_MEASURE(1.E-07),#2354,
  'distance_accuracy_value','confusion accuracy');
#2358 = PRODUCT_RELATED_PRODUCT_CATEGORY('part',$,(#7));
ENDSEC;
END-ISO-10303-21;
