ISO-10303-21;
HEADER;
FILE_DESCRIPTION(('FreeCAD Model'),'2;1');
FILE_NAME('Open CASCADE Shape Model','2026-09-05T02:34:02',(''),(''),
  'Open CASCADE STEP processor 7.8','FreeCAD','Unknown');
FILE_SCHEMA(('AUTOMOTIVE_DESIGN { 1 0 10303 214 1 1 1 1 }'));
ENDSEC;
DATA;
#1 = APPLICATION_PROTOCOL_DEFINITION('international standard',
  'automotive_design',2000,#2);
#2 = APPLICATION_CONTEXT(
  'core data for automotive mechanical design processes');
#3 = SHAPE_DEFINITION_REPRESENTATION(#4,#10);
#4 = PRODUCT_DEFINITION_SHAPE('','',#5);
#5 = PRODUCT_DEFINITION('design','',#6,#9);
#6 = PRODUCT_DEFINITION_FORMATION('','',#7);
#7 = PRODUCT('HW-C3-FR-IGCSMP-A','HW-C3-FR-IGCSMP-A','',(#8));
#8 = PRODUCT_CONTEXT('',#2,'mechanical');
#9 = PRODUCT_DEFINITION_CONTEXT('part definition',#2,'design');
#10 = ADVANCED_BREP_SHAPE_REPRESENTATION('',(#11,#15),#1537);
#11 = AXIS2_PLACEMENT_3D('',#12,#13,#14);
#12 = CARTESIAN_POINT('',(0.,0.,0.));
#13 = DIRECTION('',(0.,0.,1.));
#14 = DIRECTION('',(1.,0.,-0.));
#15 = MANIFOLD_SOLID_BREP('',#16);
#16 = CLOSED_SHELL('',(#17,#243,#324,#409,#494,#543,#592,#616,#640,#682,
    #724,#791,#816,#841,#866,#897,#921,#945,#962,#987,#1012,#1037,#1062,
    #1087,#1111,#1178,#1195,#1260,#1277,#1346,#1363,#1375,#1392,#1404,
    #1421,#1438,#1450,#1467,#1479,#1496,#1513,#1525));
#17 = ADVANCED_FACE('',(#18,#116,#127,#138,#149,#183,#194,#205,#216,#227
    ),#238,.F.);
#18 = FACE_BOUND('',#19,.F.);
#19 = EDGE_LOOP('',(#20,#30,#38,#46,#54,#62,#70,#78,#86,#94,#102,#110));
#20 = ORIENTED_EDGE('',*,*,#21,.F.);
#21 = EDGE_CURVE('',#22,#24,#26,.T.);
#22 = VERTEX_POINT('',#23);
#23 = CARTESIAN_POINT('',(404.,-1.955999E-08,200.));
#24 = VERTEX_POINT('',#25);
#25 = CARTESIAN_POINT('',(6.,-1.9559991E-08,200.));
#26 = LINE('',#27,#28);
#27 = CARTESIAN_POINT('',(404.,0.,200.));
#28 = VECTOR('',#29,1.);
#29 = DIRECTION('',(-1.,0.,0.));
#30 = ORIENTED_EDGE('',*,*,#31,.T.);
#31 = EDGE_CURVE('',#22,#32,#34,.T.);
#32 = VERTEX_POINT('',#33);
#33 = CARTESIAN_POINT('',(404.,3.9E-14,176.));
#34 = LINE('',#35,#36);
#35 = CARTESIAN_POINT('',(404.,0.,200.));
#36 = VECTOR('',#37,1.);
#37 = DIRECTION('',(0.,0.,-1.));
#38 = ORIENTED_EDGE('',*,*,#39,.T.);
#39 = EDGE_CURVE('',#32,#40,#42,.T.);
#40 = VERTEX_POINT('',#41);
#41 = CARTESIAN_POINT('',(330.,2.1E-14,176.));
#42 = LINE('',#43,#44);
#43 = CARTESIAN_POINT('',(307.5,2.193E-14,176.));
#44 = VECTOR('',#45,1.);
#45 = DIRECTION('',(-1.,0.,0.));
#46 = ORIENTED_EDGE('',*,*,#47,.T.);
#47 = EDGE_CURVE('',#40,#48,#50,.T.);
#48 = VERTEX_POINT('',#49);
#49 = CARTESIAN_POINT('',(330.,2.1E-14,50.));
#50 = LINE('',#51,#52);
#51 = CARTESIAN_POINT('',(330.,2.193E-14,138.75));
#52 = VECTOR('',#53,1.);
#53 = DIRECTION('',(0.,0.,-1.));
#54 = ORIENTED_EDGE('',*,*,#55,.T.);
#55 = EDGE_CURVE('',#48,#56,#58,.T.);
#56 = VERTEX_POINT('',#57);
#57 = CARTESIAN_POINT('',(404.,1.1E-14,50.));
#58 = LINE('',#59,#60);
#59 = CARTESIAN_POINT('',(267.5,2.193E-14,50.));
#60 = VECTOR('',#61,1.);
#61 = DIRECTION('',(1.,0.,0.));
#62 = ORIENTED_EDGE('',*,*,#63,.T.);
#63 = EDGE_CURVE('',#56,#64,#66,.T.);
#64 = VERTEX_POINT('',#65);
#65 = CARTESIAN_POINT('',(404.,-1.9560012E-08,3.));
#66 = LINE('',#67,#68);
#67 = CARTESIAN_POINT('',(404.,0.,200.));
#68 = VECTOR('',#69,1.);
#69 = DIRECTION('',(0.,0.,-1.));
#70 = ORIENTED_EDGE('',*,*,#71,.F.);
#71 = EDGE_CURVE('',#72,#64,#74,.T.);
#72 = VERTEX_POINT('',#73);
#73 = CARTESIAN_POINT('',(6.,-1.9560012E-08,3.));
#74 = LINE('',#75,#76);
#75 = CARTESIAN_POINT('',(6.,0.,3.));
#76 = VECTOR('',#77,1.);
#77 = DIRECTION('',(1.,0.,0.));
#78 = ORIENTED_EDGE('',*,*,#79,.F.);
#79 = EDGE_CURVE('',#80,#72,#82,.T.);
#80 = VERTEX_POINT('',#81);
#81 = CARTESIAN_POINT('',(6.,1.1E-14,50.));
#82 = LINE('',#83,#84);
#83 = CARTESIAN_POINT('',(6.,0.,200.));
#84 = VECTOR('',#85,1.);
#85 = DIRECTION('',(0.,0.,-1.));
#86 = ORIENTED_EDGE('',*,*,#87,.T.);
#87 = EDGE_CURVE('',#80,#88,#90,.T.);
#88 = VERTEX_POINT('',#89);
#89 = CARTESIAN_POINT('',(40.,2.1E-14,50.));
#90 = LINE('',#91,#92);
#91 = CARTESIAN_POINT('',(97.5,2.193E-14,50.));
#92 = VECTOR('',#93,1.);
#93 = DIRECTION('',(1.,0.,0.));
#94 = ORIENTED_EDGE('',*,*,#95,.T.);
#95 = EDGE_CURVE('',#88,#96,#98,.T.);
#96 = VERTEX_POINT('',#97);
#97 = CARTESIAN_POINT('',(40.,2.1E-14,170.));
#98 = LINE('',#99,#100);
#99 = CARTESIAN_POINT('',(40.,2.193E-14,75.75));
#100 = VECTOR('',#101,1.);
#101 = DIRECTION('',(0.,0.,1.));
#102 = ORIENTED_EDGE('',*,*,#103,.T.);
#103 = EDGE_CURVE('',#96,#104,#106,.T.);
#104 = VERTEX_POINT('',#105);
#105 = CARTESIAN_POINT('',(6.,3.8E-14,170.));
#106 = LINE('',#107,#108);
#107 = CARTESIAN_POINT('',(122.5,2.193E-14,170.));
#108 = VECTOR('',#109,1.);
#109 = DIRECTION('',(-1.,0.,0.));
#110 = ORIENTED_EDGE('',*,*,#111,.F.);
#111 = EDGE_CURVE('',#24,#104,#112,.T.);
#112 = LINE('',#113,#114);
#113 = CARTESIAN_POINT('',(6.,0.,200.));
#114 = VECTOR('',#115,1.);
#115 = DIRECTION('',(0.,0.,-1.));
#116 = FACE_BOUND('',#117,.F.);
#117 = EDGE_LOOP('',(#118));
#118 = ORIENTED_EDGE('',*,*,#119,.T.);
#119 = EDGE_CURVE('',#120,#120,#122,.T.);
#120 = VERTEX_POINT('',#121);
#121 = CARTESIAN_POINT('',(44.5,9.E-15,40.));
#122 = CIRCLE('',#123,5.5);
#123 = AXIS2_PLACEMENT_3D('',#124,#125,#126);
#124 = CARTESIAN_POINT('',(50.,9.E-15,40.));
#125 = DIRECTION('',(0.,-1.,2.2E-16));
#126 = DIRECTION('',(-1.,0.,0.));
#127 = FACE_BOUND('',#128,.F.);
#128 = EDGE_LOOP('',(#129));
#129 = ORIENTED_EDGE('',*,*,#130,.T.);
#130 = EDGE_CURVE('',#131,#131,#133,.T.);
#131 = VERTEX_POINT('',#132);
#132 = CARTESIAN_POINT('',(134.5,9.E-15,40.));
#133 = CIRCLE('',#134,5.5);
#134 = AXIS2_PLACEMENT_3D('',#135,#136,#137);
#135 = CARTESIAN_POINT('',(140.,9.E-15,40.));
#136 = DIRECTION('',(0.,-1.,2.2E-16));
#137 = DIRECTION('',(-1.,0.,0.));
#138 = FACE_BOUND('',#139,.F.);
#139 = EDGE_LOOP('',(#140));
#140 = ORIENTED_EDGE('',*,*,#141,.T.);
#141 = EDGE_CURVE('',#142,#142,#144,.T.);
#142 = VERTEX_POINT('',#143);
#143 = CARTESIAN_POINT('',(54.5,4.E-14,180.));
#144 = CIRCLE('',#145,5.5);
#145 = AXIS2_PLACEMENT_3D('',#146,#147,#148);
#146 = CARTESIAN_POINT('',(60.,4.E-14,180.));
#147 = DIRECTION('',(0.,-1.,2.2E-16));
#148 = DIRECTION('',(-1.,0.,0.));
#149 = FACE_BOUND('',#150,.F.);
#150 = EDGE_LOOP('',(#151,#161,#169,#177));
#151 = ORIENTED_EDGE('',*,*,#152,.T.);
#152 = EDGE_CURVE('',#153,#155,#157,.T.);
#153 = VERTEX_POINT('',#154);
#154 = CARTESIAN_POINT('',(313.,2.1E-14,64.));
#155 = VERTEX_POINT('',#156);
#156 = CARTESIAN_POINT('',(313.,2.1E-14,162.));
#157 = LINE('',#158,#159);
#158 = CARTESIAN_POINT('',(313.,2.193E-14,82.75));
#159 = VECTOR('',#160,1.);
#160 = DIRECTION('',(0.,0.,1.));
#161 = ORIENTED_EDGE('',*,*,#162,.T.);
#162 = EDGE_CURVE('',#155,#163,#165,.T.);
#163 = VERTEX_POINT('',#164);
#164 = CARTESIAN_POINT('',(54.,2.1E-14,162.));
#165 = LINE('',#166,#167);
#166 = CARTESIAN_POINT('',(259.,2.193E-14,162.));
#167 = VECTOR('',#168,1.);
#168 = DIRECTION('',(-1.,0.,0.));
#169 = ORIENTED_EDGE('',*,*,#170,.T.);
#170 = EDGE_CURVE('',#163,#171,#173,.T.);
#171 = VERTEX_POINT('',#172);
#172 = CARTESIAN_POINT('',(54.,2.1E-14,64.));
#173 = LINE('',#174,#175);
#174 = CARTESIAN_POINT('',(54.,2.193E-14,131.75));
#175 = VECTOR('',#176,1.);
#176 = DIRECTION('',(0.,0.,-1.));
#177 = ORIENTED_EDGE('',*,*,#178,.T.);
#178 = EDGE_CURVE('',#171,#153,#179,.T.);
#179 = LINE('',#180,#181);
#180 = CARTESIAN_POINT('',(129.5,2.193E-14,64.));
#181 = VECTOR('',#182,1.);
#182 = DIRECTION('',(1.,0.,0.));
#183 = FACE_BOUND('',#184,.F.);
#184 = EDGE_LOOP('',(#185));
#185 = ORIENTED_EDGE('',*,*,#186,.T.);
#186 = EDGE_CURVE('',#187,#187,#189,.T.);
#187 = VERTEX_POINT('',#188);
#188 = CARTESIAN_POINT('',(134.5,4.E-14,180.));
#189 = CIRCLE('',#190,5.5);
#190 = AXIS2_PLACEMENT_3D('',#191,#192,#193);
#191 = CARTESIAN_POINT('',(140.,4.E-14,180.));
#192 = DIRECTION('',(0.,-1.,2.2E-16));
#193 = DIRECTION('',(-1.,0.,0.));
#194 = FACE_BOUND('',#195,.F.);
#195 = EDGE_LOOP('',(#196));
#196 = ORIENTED_EDGE('',*,*,#197,.T.);
#197 = EDGE_CURVE('',#198,#198,#200,.T.);
#198 = VERTEX_POINT('',#199);
#199 = CARTESIAN_POINT('',(224.5,9.E-15,40.));
#200 = CIRCLE('',#201,5.5);
#201 = AXIS2_PLACEMENT_3D('',#202,#203,#204);
#202 = CARTESIAN_POINT('',(230.,9.E-15,40.));
#203 = DIRECTION('',(0.,-1.,2.2E-16));
#204 = DIRECTION('',(-1.,0.,0.));
#205 = FACE_BOUND('',#206,.F.);
#206 = EDGE_LOOP('',(#207));
#207 = ORIENTED_EDGE('',*,*,#208,.T.);
#208 = EDGE_CURVE('',#209,#209,#211,.T.);
#209 = VERTEX_POINT('',#210);
#210 = CARTESIAN_POINT('',(314.5,9.E-15,40.));
#211 = CIRCLE('',#212,5.5);
#212 = AXIS2_PLACEMENT_3D('',#213,#214,#215);
#213 = CARTESIAN_POINT('',(320.,9.E-15,40.));
#214 = DIRECTION('',(0.,-1.,2.2E-16));
#215 = DIRECTION('',(-1.,0.,0.));
#216 = FACE_BOUND('',#217,.F.);
#217 = EDGE_LOOP('',(#218));
#218 = ORIENTED_EDGE('',*,*,#219,.T.);
#219 = EDGE_CURVE('',#220,#220,#222,.T.);
#220 = VERTEX_POINT('',#221);
#221 = CARTESIAN_POINT('',(224.5,4.E-14,180.));
#222 = CIRCLE('',#223,5.5);
#223 = AXIS2_PLACEMENT_3D('',#224,#225,#226);
#224 = CARTESIAN_POINT('',(230.,4.E-14,180.));
#225 = DIRECTION('',(0.,-1.,2.2E-16));
#226 = DIRECTION('',(-1.,0.,0.));
#227 = FACE_BOUND('',#228,.F.);
#228 = EDGE_LOOP('',(#229));
#229 = ORIENTED_EDGE('',*,*,#230,.T.);
#230 = EDGE_CURVE('',#231,#231,#233,.T.);
#231 = VERTEX_POINT('',#232);
#232 = CARTESIAN_POINT('',(304.5,4.E-14,180.));
#233 = CIRCLE('',#234,5.5);
#234 = AXIS2_PLACEMENT_3D('',#235,#236,#237);
#235 = CARTESIAN_POINT('',(310.,4.E-14,180.));
#236 = DIRECTION('',(0.,-1.,2.2E-16));
#237 = DIRECTION('',(-1.,0.,0.));
#238 = PLANE('',#239);
#239 = AXIS2_PLACEMENT_3D('',#240,#241,#242);
#240 = CARTESIAN_POINT('',(205.,2.254E-14,101.5));
#241 = DIRECTION('',(0.,1.,0.));
#242 = DIRECTION('',(0.,0.,1.));
#243 = ADVANCED_FACE('',(#244),#319,.T.);
#244 = FACE_BOUND('',#245,.T.);
#245 = EDGE_LOOP('',(#246,#247,#255,#263,#271,#280,#288,#297,#305,#313)
  );
#246 = ORIENTED_EDGE('',*,*,#21,.F.);
#247 = ORIENTED_EDGE('',*,*,#248,.T.);
#248 = EDGE_CURVE('',#22,#249,#251,.T.);
#249 = VERTEX_POINT('',#250);
#250 = CARTESIAN_POINT('',(404.,-25.,200.));
#251 = LINE('',#252,#253);
#252 = CARTESIAN_POINT('',(404.,-3.912002544E-08,200.));
#253 = VECTOR('',#254,1.);
#254 = DIRECTION('',(0.,-1.,0.));
#255 = ORIENTED_EDGE('',*,*,#256,.F.);
#256 = EDGE_CURVE('',#257,#249,#259,.T.);
#257 = VERTEX_POINT('',#258);
#258 = CARTESIAN_POINT('',(407.00000003912,-25.,200.));
#259 = LINE('',#260,#261);
#260 = CARTESIAN_POINT('',(102.49999994265,-25.,200.));
#261 = VECTOR('',#262,1.);
#262 = DIRECTION('',(-1.,0.,0.));
#263 = ORIENTED_EDGE('',*,*,#264,.T.);
#264 = EDGE_CURVE('',#257,#265,#267,.T.);
#265 = VERTEX_POINT('',#266);
#266 = CARTESIAN_POINT('',(407.00000003912,0.,200.));
#267 = LINE('',#268,#269);
#268 = CARTESIAN_POINT('',(407.00000003912,-200.,200.));
#269 = VECTOR('',#270,1.);
#270 = DIRECTION('',(0.,1.,0.));
#271 = ORIENTED_EDGE('',*,*,#272,.T.);
#272 = EDGE_CURVE('',#265,#273,#275,.T.);
#273 = VERTEX_POINT('',#274);
#274 = CARTESIAN_POINT('',(404.0000005,3.,200.));
#275 = CIRCLE('',#276,3.00000003912);
#276 = AXIS2_PLACEMENT_3D('',#277,#278,#279);
#277 = CARTESIAN_POINT('',(404.,-3.912002544E-08,200.));
#278 = DIRECTION('',(0.,0.,1.));
#279 = DIRECTION('',(1.,0.,0.));
#280 = ORIENTED_EDGE('',*,*,#281,.T.);
#281 = EDGE_CURVE('',#273,#282,#284,.T.);
#282 = VERTEX_POINT('',#283);
#283 = CARTESIAN_POINT('',(6.,3.,200.));
#284 = LINE('',#285,#286);
#285 = CARTESIAN_POINT('',(404.,3.,200.));
#286 = VECTOR('',#287,1.);
#287 = DIRECTION('',(-1.,0.,0.));
#288 = ORIENTED_EDGE('',*,*,#289,.T.);
#289 = EDGE_CURVE('',#282,#290,#292,.T.);
#290 = VERTEX_POINT('',#291);
#291 = CARTESIAN_POINT('',(2.99999996088,-1.038008148E-06,200.));
#292 = CIRCLE('',#293,3.00000003912);
#293 = AXIS2_PLACEMENT_3D('',#294,#295,#296);
#294 = CARTESIAN_POINT('',(6.,-3.912002544E-08,200.));
#295 = DIRECTION('',(0.,0.,1.));
#296 = DIRECTION('',(1.,0.,0.));
#297 = ORIENTED_EDGE('',*,*,#298,.F.);
#298 = EDGE_CURVE('',#299,#290,#301,.T.);
#299 = VERTEX_POINT('',#300);
#300 = CARTESIAN_POINT('',(2.99999996088,-25.,200.));
#301 = LINE('',#302,#303);
#302 = CARTESIAN_POINT('',(2.99999996088,-200.,200.));
#303 = VECTOR('',#304,1.);
#304 = DIRECTION('',(0.,1.,0.));
#305 = ORIENTED_EDGE('',*,*,#306,.F.);
#306 = EDGE_CURVE('',#307,#299,#309,.T.);
#307 = VERTEX_POINT('',#308);
#308 = CARTESIAN_POINT('',(6.,-25.,200.));
#309 = LINE('',#310,#311);
#310 = CARTESIAN_POINT('',(102.49999994265,-25.,200.));
#311 = VECTOR('',#312,1.);
#312 = DIRECTION('',(-1.,0.,0.));
#313 = ORIENTED_EDGE('',*,*,#314,.F.);
#314 = EDGE_CURVE('',#24,#307,#315,.T.);
#315 = LINE('',#316,#317);
#316 = CARTESIAN_POINT('',(6.,-3.912002544E-08,200.));
#317 = VECTOR('',#318,1.);
#318 = DIRECTION('',(0.,-1.,0.));
#319 = PLANE('',#320);
#320 = AXIS2_PLACEMENT_3D('',#321,#322,#323);
#321 = CARTESIAN_POINT('',(204.9999998853,-49.6417460337,200.));
#322 = DIRECTION('',(0.,0.,1.));
#323 = DIRECTION('',(1.,0.,0.));
#324 = ADVANCED_FACE('',(#325,#382,#393),#404,.F.);
#325 = FACE_BOUND('',#326,.F.);
#326 = EDGE_LOOP('',(#327,#328,#329,#337,#345,#353,#359,#360,#368,#376)
  );
#327 = ORIENTED_EDGE('',*,*,#31,.F.);
#328 = ORIENTED_EDGE('',*,*,#248,.T.);
#329 = ORIENTED_EDGE('',*,*,#330,.F.);
#330 = EDGE_CURVE('',#331,#249,#333,.T.);
#331 = VERTEX_POINT('',#332);
#332 = CARTESIAN_POINT('',(404.,-185.,40.));
#333 = LINE('',#334,#335);
#334 = CARTESIAN_POINT('',(404.,-67.00000000978,157.99999999022));
#335 = VECTOR('',#336,1.);
#336 = DIRECTION('',(0.,0.707106781187,0.707106781187));
#337 = ORIENTED_EDGE('',*,*,#338,.F.);
#338 = EDGE_CURVE('',#339,#331,#341,.T.);
#339 = VERTEX_POINT('',#340);
#340 = CARTESIAN_POINT('',(404.,-200.,40.));
#341 = LINE('',#342,#343);
#342 = CARTESIAN_POINT('',(404.,-92.50000001956,40.));
#343 = VECTOR('',#344,1.);
#344 = DIRECTION('',(0.,1.,0.));
#345 = ORIENTED_EDGE('',*,*,#346,.F.);
#346 = EDGE_CURVE('',#347,#339,#349,.T.);
#347 = VERTEX_POINT('',#348);
#348 = CARTESIAN_POINT('',(404.,-200.,3.));
#349 = LINE('',#350,#351);
#350 = CARTESIAN_POINT('',(404.,-200.,3.));
#351 = VECTOR('',#352,1.);
#352 = DIRECTION('',(0.,0.,1.));
#353 = ORIENTED_EDGE('',*,*,#354,.F.);
#354 = EDGE_CURVE('',#64,#347,#355,.T.);
#355 = LINE('',#356,#357);
#356 = CARTESIAN_POINT('',(404.,-3.912002544E-08,3.));
#357 = VECTOR('',#358,1.);
#358 = DIRECTION('',(0.,-1.,0.));
#359 = ORIENTED_EDGE('',*,*,#63,.F.);
#360 = ORIENTED_EDGE('',*,*,#361,.T.);
#361 = EDGE_CURVE('',#56,#362,#364,.T.);
#362 = VERTEX_POINT('',#363);
#363 = CARTESIAN_POINT('',(404.,-20.,50.));
#364 = LINE('',#365,#366);
#365 = CARTESIAN_POINT('',(404.,24.99999998044,50.));
#366 = VECTOR('',#367,1.);
#367 = DIRECTION('',(0.,-1.,2.2E-16));
#368 = ORIENTED_EDGE('',*,*,#369,.T.);
#369 = EDGE_CURVE('',#362,#370,#372,.T.);
#370 = VERTEX_POINT('',#371);
#371 = CARTESIAN_POINT('',(404.,-20.,176.));
#372 = LINE('',#373,#374);
#373 = CARTESIAN_POINT('',(404.,-20.,57.652114597544));
#374 = VECTOR('',#375,1.);
#375 = DIRECTION('',(0.,0.,1.));
#376 = ORIENTED_EDGE('',*,*,#377,.T.);
#377 = EDGE_CURVE('',#370,#32,#378,.T.);
#378 = LINE('',#379,#380);
#379 = CARTESIAN_POINT('',(404.,24.99999998044,176.));
#380 = VECTOR('',#381,1.);
#381 = DIRECTION('',(0.,1.,-2.2E-16));
#382 = FACE_BOUND('',#383,.F.);
#383 = EDGE_LOOP('',(#384));
#384 = ORIENTED_EDGE('',*,*,#385,.F.);
#385 = EDGE_CURVE('',#386,#386,#388,.T.);
#386 = VERTEX_POINT('',#387);
#387 = CARTESIAN_POINT('',(404.,-67.,25.5));
#388 = CIRCLE('',#389,5.5);
#389 = AXIS2_PLACEMENT_3D('',#390,#391,#392);
#390 = CARTESIAN_POINT('',(404.,-67.,20.));
#391 = DIRECTION('',(1.,0.,-0.));
#392 = DIRECTION('',(0.,0.,1.));
#393 = FACE_BOUND('',#394,.F.);
#394 = EDGE_LOOP('',(#395));
#395 = ORIENTED_EDGE('',*,*,#396,.F.);
#396 = EDGE_CURVE('',#397,#397,#399,.T.);
#397 = VERTEX_POINT('',#398);
#398 = CARTESIAN_POINT('',(404.,-182.,25.5));
#399 = CIRCLE('',#400,5.5);
#400 = AXIS2_PLACEMENT_3D('',#401,#402,#403);
#401 = CARTESIAN_POINT('',(404.,-182.,20.));
#402 = DIRECTION('',(1.,0.,-0.));
#403 = DIRECTION('',(0.,0.,1.));
#404 = PLANE('',#405);
#405 = AXIS2_PLACEMENT_3D('',#406,#407,#408);
#406 = CARTESIAN_POINT('',(404.,-3.912002544E-08,3.));
#407 = DIRECTION('',(1.,0.,0.));
#408 = DIRECTION('',(0.,-1.,0.));
#409 = ADVANCED_FACE('',(#410,#467,#478),#489,.T.);
#410 = FACE_BOUND('',#411,.T.);
#411 = EDGE_LOOP('',(#412,#413,#414,#422,#430,#438,#444,#445,#453,#461)
  );
#412 = ORIENTED_EDGE('',*,*,#111,.F.);
#413 = ORIENTED_EDGE('',*,*,#314,.T.);
#414 = ORIENTED_EDGE('',*,*,#415,.F.);
#415 = EDGE_CURVE('',#416,#307,#418,.T.);
#416 = VERTEX_POINT('',#417);
#417 = CARTESIAN_POINT('',(6.,-185.,40.));
#418 = LINE('',#419,#420);
#419 = CARTESIAN_POINT('',(6.,-67.00000000978,157.99999999022));
#420 = VECTOR('',#421,1.);
#421 = DIRECTION('',(0.,0.707106781187,0.707106781187));
#422 = ORIENTED_EDGE('',*,*,#423,.F.);
#423 = EDGE_CURVE('',#424,#416,#426,.T.);
#424 = VERTEX_POINT('',#425);
#425 = CARTESIAN_POINT('',(6.,-200.,40.));
#426 = LINE('',#427,#428);
#427 = CARTESIAN_POINT('',(6.,-92.50000001956,40.));
#428 = VECTOR('',#429,1.);
#429 = DIRECTION('',(0.,1.,0.));
#430 = ORIENTED_EDGE('',*,*,#431,.F.);
#431 = EDGE_CURVE('',#432,#424,#434,.T.);
#432 = VERTEX_POINT('',#433);
#433 = CARTESIAN_POINT('',(6.,-200.,3.));
#434 = LINE('',#435,#436);
#435 = CARTESIAN_POINT('',(6.,-200.,3.));
#436 = VECTOR('',#437,1.);
#437 = DIRECTION('',(0.,0.,1.));
#438 = ORIENTED_EDGE('',*,*,#439,.F.);
#439 = EDGE_CURVE('',#72,#432,#440,.T.);
#440 = LINE('',#441,#442);
#441 = CARTESIAN_POINT('',(6.,-3.912002544E-08,3.));
#442 = VECTOR('',#443,1.);
#443 = DIRECTION('',(0.,-1.,0.));
#444 = ORIENTED_EDGE('',*,*,#79,.F.);
#445 = ORIENTED_EDGE('',*,*,#446,.T.);
#446 = EDGE_CURVE('',#80,#447,#449,.T.);
#447 = VERTEX_POINT('',#448);
#448 = CARTESIAN_POINT('',(6.,-20.,50.));
#449 = LINE('',#450,#451);
#450 = CARTESIAN_POINT('',(6.,24.99999998044,50.));
#451 = VECTOR('',#452,1.);
#452 = DIRECTION('',(0.,-1.,2.2E-16));
#453 = ORIENTED_EDGE('',*,*,#454,.T.);
#454 = EDGE_CURVE('',#447,#455,#457,.T.);
#455 = VERTEX_POINT('',#456);
#456 = CARTESIAN_POINT('',(6.,-20.,170.));
#457 = LINE('',#458,#459);
#458 = CARTESIAN_POINT('',(6.,-20.,57.652114597544));
#459 = VECTOR('',#460,1.);
#460 = DIRECTION('',(0.,0.,1.));
#461 = ORIENTED_EDGE('',*,*,#462,.T.);
#462 = EDGE_CURVE('',#455,#104,#463,.T.);
#463 = LINE('',#464,#465);
#464 = CARTESIAN_POINT('',(6.,24.99999998044,170.));
#465 = VECTOR('',#466,1.);
#466 = DIRECTION('',(0.,1.,-2.2E-16));
#467 = FACE_BOUND('',#468,.T.);
#468 = EDGE_LOOP('',(#469));
#469 = ORIENTED_EDGE('',*,*,#470,.F.);
#470 = EDGE_CURVE('',#471,#471,#473,.T.);
#471 = VERTEX_POINT('',#472);
#472 = CARTESIAN_POINT('',(6.,-67.,25.5));
#473 = CIRCLE('',#474,5.5);
#474 = AXIS2_PLACEMENT_3D('',#475,#476,#477);
#475 = CARTESIAN_POINT('',(6.,-67.,20.));
#476 = DIRECTION('',(1.,0.,-0.));
#477 = DIRECTION('',(0.,0.,1.));
#478 = FACE_BOUND('',#479,.T.);
#479 = EDGE_LOOP('',(#480));
#480 = ORIENTED_EDGE('',*,*,#481,.F.);
#481 = EDGE_CURVE('',#482,#482,#484,.T.);
#482 = VERTEX_POINT('',#483);
#483 = CARTESIAN_POINT('',(6.,-182.,25.5));
#484 = CIRCLE('',#485,5.5);
#485 = AXIS2_PLACEMENT_3D('',#486,#487,#488);
#486 = CARTESIAN_POINT('',(6.,-182.,20.));
#487 = DIRECTION('',(1.,0.,-0.));
#488 = DIRECTION('',(0.,0.,1.));
#489 = PLANE('',#490);
#490 = AXIS2_PLACEMENT_3D('',#491,#492,#493);
#491 = CARTESIAN_POINT('',(6.,-3.912002544E-08,3.));
#492 = DIRECTION('',(1.,0.,0.));
#493 = DIRECTION('',(0.,-1.,0.));
#494 = ADVANCED_FACE('',(#495),#538,.T.);
#495 = FACE_BOUND('',#496,.T.);
#496 = EDGE_LOOP('',(#497,#507,#513,#514,#515,#523,#531));
#497 = ORIENTED_EDGE('',*,*,#498,.T.);
#498 = EDGE_CURVE('',#499,#501,#503,.T.);
#499 = VERTEX_POINT('',#500);
#500 = CARTESIAN_POINT('',(407.00000003912,0.,176.));
#501 = VERTEX_POINT('',#502);
#502 = CARTESIAN_POINT('',(407.00000003912,-20.,176.));
#503 = LINE('',#504,#505);
#504 = CARTESIAN_POINT('',(407.00000003912,-75.,176.));
#505 = VECTOR('',#506,1.);
#506 = DIRECTION('',(0.,-1.,2.2E-16));
#507 = ORIENTED_EDGE('',*,*,#508,.T.);
#508 = EDGE_CURVE('',#501,#370,#509,.T.);
#509 = LINE('',#510,#511);
#510 = CARTESIAN_POINT('',(410.,-20.,176.));
#511 = VECTOR('',#512,1.);
#512 = DIRECTION('',(-1.,0.,0.));
#513 = ORIENTED_EDGE('',*,*,#377,.T.);
#514 = ORIENTED_EDGE('',*,*,#39,.T.);
#515 = ORIENTED_EDGE('',*,*,#516,.F.);
#516 = EDGE_CURVE('',#517,#40,#519,.T.);
#517 = VERTEX_POINT('',#518);
#518 = CARTESIAN_POINT('',(330.,3.,176.));
#519 = LINE('',#520,#521);
#520 = CARTESIAN_POINT('',(330.,50.,176.));
#521 = VECTOR('',#522,1.);
#522 = DIRECTION('',(0.,-1.,2.2E-16));
#523 = ORIENTED_EDGE('',*,*,#524,.F.);
#524 = EDGE_CURVE('',#525,#517,#527,.T.);
#525 = VERTEX_POINT('',#526);
#526 = CARTESIAN_POINT('',(404.,3.,176.));
#527 = LINE('',#528,#529);
#528 = CARTESIAN_POINT('',(307.5,3.,176.));
#529 = VECTOR('',#530,1.);
#530 = DIRECTION('',(-1.,0.,0.));
#531 = ORIENTED_EDGE('',*,*,#532,.T.);
#532 = EDGE_CURVE('',#525,#499,#533,.T.);
#533 = CIRCLE('',#534,3.00000003912);
#534 = AXIS2_PLACEMENT_3D('',#535,#536,#537);
#535 = CARTESIAN_POINT('',(404.,-3.912002544E-08,176.));
#536 = DIRECTION('',(0.,0.,-1.));
#537 = DIRECTION('',(1.,0.,0.));
#538 = PLANE('',#539);
#539 = AXIS2_PLACEMENT_3D('',#540,#541,#542);
#540 = CARTESIAN_POINT('',(410.,50.,176.));
#541 = DIRECTION('',(-0.,-2.2E-16,-1.));
#542 = DIRECTION('',(-1.,0.,0.));
#543 = ADVANCED_FACE('',(#544),#587,.T.);
#544 = FACE_BOUND('',#545,.T.);
#545 = EDGE_LOOP('',(#546,#556,#562,#563,#564,#572,#580));
#546 = ORIENTED_EDGE('',*,*,#547,.F.);
#547 = EDGE_CURVE('',#548,#550,#552,.T.);
#548 = VERTEX_POINT('',#549);
#549 = CARTESIAN_POINT('',(40.,3.,170.));
#550 = VERTEX_POINT('',#551);
#551 = CARTESIAN_POINT('',(6.,3.,170.));
#552 = LINE('',#553,#554);
#553 = CARTESIAN_POINT('',(122.5,3.,170.));
#554 = VECTOR('',#555,1.);
#555 = DIRECTION('',(-1.,0.,0.));
#556 = ORIENTED_EDGE('',*,*,#557,.T.);
#557 = EDGE_CURVE('',#548,#96,#558,.T.);
#558 = LINE('',#559,#560);
#559 = CARTESIAN_POINT('',(40.,50.,170.));
#560 = VECTOR('',#561,1.);
#561 = DIRECTION('',(0.,-1.,2.2E-16));
#562 = ORIENTED_EDGE('',*,*,#103,.T.);
#563 = ORIENTED_EDGE('',*,*,#462,.F.);
#564 = ORIENTED_EDGE('',*,*,#565,.T.);
#565 = EDGE_CURVE('',#455,#566,#568,.T.);
#566 = VERTEX_POINT('',#567);
#567 = CARTESIAN_POINT('',(2.99999996088,-20.,170.));
#568 = LINE('',#569,#570);
#569 = CARTESIAN_POINT('',(40.,-20.,170.));
#570 = VECTOR('',#571,1.);
#571 = DIRECTION('',(-1.,0.,0.));
#572 = ORIENTED_EDGE('',*,*,#573,.F.);
#573 = EDGE_CURVE('',#574,#566,#576,.T.);
#574 = VERTEX_POINT('',#575);
#575 = CARTESIAN_POINT('',(2.99999996088,-1.038008148E-06,170.));
#576 = LINE('',#577,#578);
#577 = CARTESIAN_POINT('',(2.99999996088,-75.,170.));
#578 = VECTOR('',#579,1.);
#579 = DIRECTION('',(0.,-1.,2.2E-16));
#580 = ORIENTED_EDGE('',*,*,#581,.T.);
#581 = EDGE_CURVE('',#574,#550,#582,.T.);
#582 = CIRCLE('',#583,3.00000003912);
#583 = AXIS2_PLACEMENT_3D('',#584,#585,#586);
#584 = CARTESIAN_POINT('',(6.,-3.912002544E-08,170.));
#585 = DIRECTION('',(0.,0.,-1.));
#586 = DIRECTION('',(1.,0.,0.));
#587 = PLANE('',#588);
#588 = AXIS2_PLACEMENT_3D('',#589,#590,#591);
#589 = CARTESIAN_POINT('',(40.,50.,170.));
#590 = DIRECTION('',(-0.,-2.2E-16,-1.));
#591 = DIRECTION('',(-1.,0.,0.));
#592 = ADVANCED_FACE('',(#593),#611,.T.);
#593 = FACE_BOUND('',#594,.T.);
#594 = EDGE_LOOP('',(#595,#603,#604,#605));
#595 = ORIENTED_EDGE('',*,*,#596,.F.);
#596 = EDGE_CURVE('',#517,#597,#599,.T.);
#597 = VERTEX_POINT('',#598);
#598 = CARTESIAN_POINT('',(330.,3.,50.));
#599 = LINE('',#600,#601);
#600 = CARTESIAN_POINT('',(330.,3.,138.75));
#601 = VECTOR('',#602,1.);
#602 = DIRECTION('',(0.,0.,-1.));
#603 = ORIENTED_EDGE('',*,*,#516,.T.);
#604 = ORIENTED_EDGE('',*,*,#47,.T.);
#605 = ORIENTED_EDGE('',*,*,#606,.F.);
#606 = EDGE_CURVE('',#597,#48,#607,.T.);
#607 = LINE('',#608,#609);
#608 = CARTESIAN_POINT('',(330.,50.,50.));
#609 = VECTOR('',#610,1.);
#610 = DIRECTION('',(0.,-1.,2.2E-16));
#611 = PLANE('',#612);
#612 = AXIS2_PLACEMENT_3D('',#613,#614,#615);
#613 = CARTESIAN_POINT('',(330.,50.,176.));
#614 = DIRECTION('',(1.,0.,0.));
#615 = DIRECTION('',(0.,-2.2E-16,-1.));
#616 = ADVANCED_FACE('',(#617),#635,.T.);
#617 = FACE_BOUND('',#618,.T.);
#618 = EDGE_LOOP('',(#619,#627,#633,#634));
#619 = ORIENTED_EDGE('',*,*,#620,.F.);
#620 = EDGE_CURVE('',#621,#548,#623,.T.);
#621 = VERTEX_POINT('',#622);
#622 = CARTESIAN_POINT('',(40.,3.,50.));
#623 = LINE('',#624,#625);
#624 = CARTESIAN_POINT('',(40.,3.,75.75));
#625 = VECTOR('',#626,1.);
#626 = DIRECTION('',(0.,0.,1.));
#627 = ORIENTED_EDGE('',*,*,#628,.T.);
#628 = EDGE_CURVE('',#621,#88,#629,.T.);
#629 = LINE('',#630,#631);
#630 = CARTESIAN_POINT('',(40.,50.,50.));
#631 = VECTOR('',#632,1.);
#632 = DIRECTION('',(0.,-1.,2.2E-16));
#633 = ORIENTED_EDGE('',*,*,#95,.T.);
#634 = ORIENTED_EDGE('',*,*,#557,.F.);
#635 = PLANE('',#636);
#636 = AXIS2_PLACEMENT_3D('',#637,#638,#639);
#637 = CARTESIAN_POINT('',(40.,50.,50.));
#638 = DIRECTION('',(-1.,0.,0.));
#639 = DIRECTION('',(0.,2.2E-16,1.));
#640 = ADVANCED_FACE('',(#641),#677,.T.);
#641 = FACE_BOUND('',#642,.T.);
#642 = EDGE_LOOP('',(#643,#651,#652,#653,#654,#662,#670));
#643 = ORIENTED_EDGE('',*,*,#644,.F.);
#644 = EDGE_CURVE('',#597,#645,#647,.T.);
#645 = VERTEX_POINT('',#646);
#646 = CARTESIAN_POINT('',(404.,3.,50.));
#647 = LINE('',#648,#649);
#648 = CARTESIAN_POINT('',(267.5,3.,50.));
#649 = VECTOR('',#650,1.);
#650 = DIRECTION('',(1.,0.,0.));
#651 = ORIENTED_EDGE('',*,*,#606,.T.);
#652 = ORIENTED_EDGE('',*,*,#55,.T.);
#653 = ORIENTED_EDGE('',*,*,#361,.T.);
#654 = ORIENTED_EDGE('',*,*,#655,.T.);
#655 = EDGE_CURVE('',#362,#656,#658,.T.);
#656 = VERTEX_POINT('',#657);
#657 = CARTESIAN_POINT('',(407.00000003912,-20.,50.));
#658 = LINE('',#659,#660);
#659 = CARTESIAN_POINT('',(330.,-20.,50.));
#660 = VECTOR('',#661,1.);
#661 = DIRECTION('',(1.,0.,0.));
#662 = ORIENTED_EDGE('',*,*,#663,.T.);
#663 = EDGE_CURVE('',#656,#664,#666,.T.);
#664 = VERTEX_POINT('',#665);
#665 = CARTESIAN_POINT('',(407.00000003912,0.,50.));
#666 = LINE('',#667,#668);
#667 = CARTESIAN_POINT('',(407.00000003912,-75.,50.));
#668 = VECTOR('',#669,1.);
#669 = DIRECTION('',(0.,1.,-2.2E-16));
#670 = ORIENTED_EDGE('',*,*,#671,.F.);
#671 = EDGE_CURVE('',#645,#664,#672,.T.);
#672 = CIRCLE('',#673,3.00000003912);
#673 = AXIS2_PLACEMENT_3D('',#674,#675,#676);
#674 = CARTESIAN_POINT('',(404.,-3.912002544E-08,50.));
#675 = DIRECTION('',(0.,0.,-1.));
#676 = DIRECTION('',(1.,0.,0.));
#677 = PLANE('',#678);
#678 = AXIS2_PLACEMENT_3D('',#679,#680,#681);
#679 = CARTESIAN_POINT('',(330.,50.,50.));
#680 = DIRECTION('',(0.,2.2E-16,1.));
#681 = DIRECTION('',(1.,0.,0.));
#682 = ADVANCED_FACE('',(#683),#719,.T.);
#683 = FACE_BOUND('',#684,.T.);
#684 = EDGE_LOOP('',(#685,#695,#701,#702,#703,#704,#712));
#685 = ORIENTED_EDGE('',*,*,#686,.F.);
#686 = EDGE_CURVE('',#687,#689,#691,.T.);
#687 = VERTEX_POINT('',#688);
#688 = CARTESIAN_POINT('',(2.99999996088,-20.,50.));
#689 = VERTEX_POINT('',#690);
#690 = CARTESIAN_POINT('',(2.99999996088,-1.038008148E-06,50.));
#691 = LINE('',#692,#693);
#692 = CARTESIAN_POINT('',(2.99999996088,-75.,50.));
#693 = VECTOR('',#694,1.);
#694 = DIRECTION('',(0.,1.,-2.2E-16));
#695 = ORIENTED_EDGE('',*,*,#696,.T.);
#696 = EDGE_CURVE('',#687,#447,#697,.T.);
#697 = LINE('',#698,#699);
#698 = CARTESIAN_POINT('',(-10.,-20.,50.));
#699 = VECTOR('',#700,1.);
#700 = DIRECTION('',(1.,0.,0.));
#701 = ORIENTED_EDGE('',*,*,#446,.F.);
#702 = ORIENTED_EDGE('',*,*,#87,.T.);
#703 = ORIENTED_EDGE('',*,*,#628,.F.);
#704 = ORIENTED_EDGE('',*,*,#705,.F.);
#705 = EDGE_CURVE('',#706,#621,#708,.T.);
#706 = VERTEX_POINT('',#707);
#707 = CARTESIAN_POINT('',(6.,3.,50.));
#708 = LINE('',#709,#710);
#709 = CARTESIAN_POINT('',(97.5,3.,50.));
#710 = VECTOR('',#711,1.);
#711 = DIRECTION('',(1.,0.,0.));
#712 = ORIENTED_EDGE('',*,*,#713,.F.);
#713 = EDGE_CURVE('',#689,#706,#714,.T.);
#714 = CIRCLE('',#715,3.00000003912);
#715 = AXIS2_PLACEMENT_3D('',#716,#717,#718);
#716 = CARTESIAN_POINT('',(6.,-3.912002544E-08,50.));
#717 = DIRECTION('',(0.,0.,-1.));
#718 = DIRECTION('',(1.,0.,0.));
#719 = PLANE('',#720);
#720 = AXIS2_PLACEMENT_3D('',#721,#722,#723);
#721 = CARTESIAN_POINT('',(-10.,50.,50.));
#722 = DIRECTION('',(0.,2.2E-16,1.));
#723 = DIRECTION('',(1.,0.,0.));
#724 = ADVANCED_FACE('',(#725),#786,.T.);
#725 = FACE_BOUND('',#726,.T.);
#726 = EDGE_LOOP('',(#727,#728,#729,#737,#745,#754,#762,#771,#779,#785)
  );
#727 = ORIENTED_EDGE('',*,*,#71,.F.);
#728 = ORIENTED_EDGE('',*,*,#439,.T.);
#729 = ORIENTED_EDGE('',*,*,#730,.F.);
#730 = EDGE_CURVE('',#731,#432,#733,.T.);
#731 = VERTEX_POINT('',#732);
#732 = CARTESIAN_POINT('',(2.99999996088,-200.,3.));
#733 = LINE('',#734,#735);
#734 = CARTESIAN_POINT('',(2.99999996088,-200.,3.));
#735 = VECTOR('',#736,1.);
#736 = DIRECTION('',(1.,0.,0.));
#737 = ORIENTED_EDGE('',*,*,#738,.T.);
#738 = EDGE_CURVE('',#731,#739,#741,.T.);
#739 = VERTEX_POINT('',#740);
#740 = CARTESIAN_POINT('',(2.99999996088,-1.038008148E-06,3.));
#741 = LINE('',#742,#743);
#742 = CARTESIAN_POINT('',(2.99999996088,-200.,3.));
#743 = VECTOR('',#744,1.);
#744 = DIRECTION('',(0.,1.,0.));
#745 = ORIENTED_EDGE('',*,*,#746,.F.);
#746 = EDGE_CURVE('',#747,#739,#749,.T.);
#747 = VERTEX_POINT('',#748);
#748 = CARTESIAN_POINT('',(6.,3.,3.));
#749 = CIRCLE('',#750,3.00000003912);
#750 = AXIS2_PLACEMENT_3D('',#751,#752,#753);
#751 = CARTESIAN_POINT('',(6.,-3.912002544E-08,3.));
#752 = DIRECTION('',(0.,0.,1.));
#753 = DIRECTION('',(1.,0.,0.));
#754 = ORIENTED_EDGE('',*,*,#755,.T.);
#755 = EDGE_CURVE('',#747,#756,#758,.T.);
#756 = VERTEX_POINT('',#757);
#757 = CARTESIAN_POINT('',(404.0000005,3.,3.));
#758 = LINE('',#759,#760);
#759 = CARTESIAN_POINT('',(6.,3.,3.));
#760 = VECTOR('',#761,1.);
#761 = DIRECTION('',(1.,0.,0.));
#762 = ORIENTED_EDGE('',*,*,#763,.F.);
#763 = EDGE_CURVE('',#764,#756,#766,.T.);
#764 = VERTEX_POINT('',#765);
#765 = CARTESIAN_POINT('',(407.00000003912,0.,3.));
#766 = CIRCLE('',#767,3.00000003912);
#767 = AXIS2_PLACEMENT_3D('',#768,#769,#770);
#768 = CARTESIAN_POINT('',(404.,-3.912002544E-08,3.));
#769 = DIRECTION('',(0.,0.,1.));
#770 = DIRECTION('',(1.,0.,0.));
#771 = ORIENTED_EDGE('',*,*,#772,.F.);
#772 = EDGE_CURVE('',#773,#764,#775,.T.);
#773 = VERTEX_POINT('',#774);
#774 = CARTESIAN_POINT('',(407.00000003912,-200.,3.));
#775 = LINE('',#776,#777);
#776 = CARTESIAN_POINT('',(407.00000003912,-200.,3.));
#777 = VECTOR('',#778,1.);
#778 = DIRECTION('',(0.,1.,0.));
#779 = ORIENTED_EDGE('',*,*,#780,.F.);
#780 = EDGE_CURVE('',#347,#773,#781,.T.);
#781 = LINE('',#782,#783);
#782 = CARTESIAN_POINT('',(404.,-200.,3.));
#783 = VECTOR('',#784,1.);
#784 = DIRECTION('',(1.,0.,0.));
#785 = ORIENTED_EDGE('',*,*,#354,.F.);
#786 = PLANE('',#787);
#787 = AXIS2_PLACEMENT_3D('',#788,#789,#790);
#788 = CARTESIAN_POINT('',(204.9999998853,-49.6417460337,3.));
#789 = DIRECTION('',(-0.,-0.,-1.));
#790 = DIRECTION('',(-1.,0.,0.));
#791 = ADVANCED_FACE('',(#792),#811,.F.);
#792 = FACE_BOUND('',#793,.T.);
#793 = EDGE_LOOP('',(#794,#802,#803,#804));
#794 = ORIENTED_EDGE('',*,*,#795,.F.);
#795 = EDGE_CURVE('',#120,#796,#798,.T.);
#796 = VERTEX_POINT('',#797);
#797 = CARTESIAN_POINT('',(44.5,3.,40.));
#798 = LINE('',#799,#800);
#799 = CARTESIAN_POINT('',(44.5,9.E-15,40.));
#800 = VECTOR('',#801,1.);
#801 = DIRECTION('',(7.E-17,1.,-2.2E-16));
#802 = ORIENTED_EDGE('',*,*,#119,.T.);
#803 = ORIENTED_EDGE('',*,*,#795,.T.);
#804 = ORIENTED_EDGE('',*,*,#805,.T.);
#805 = EDGE_CURVE('',#796,#796,#806,.T.);
#806 = CIRCLE('',#807,5.5);
#807 = AXIS2_PLACEMENT_3D('',#808,#809,#810);
#808 = CARTESIAN_POINT('',(50.,3.,40.));
#809 = DIRECTION('',(0.,1.,-2.2E-16));
#810 = DIRECTION('',(-1.,0.,0.));
#811 = CYLINDRICAL_SURFACE('',#812,5.5);
#812 = AXIS2_PLACEMENT_3D('',#813,#814,#815);
#813 = CARTESIAN_POINT('',(50.,9.E-15,40.));
#814 = DIRECTION('',(0.,1.,-2.2E-16));
#815 = DIRECTION('',(-1.,0.,0.));
#816 = ADVANCED_FACE('',(#817),#836,.F.);
#817 = FACE_BOUND('',#818,.T.);
#818 = EDGE_LOOP('',(#819,#827,#828,#829));
#819 = ORIENTED_EDGE('',*,*,#820,.F.);
#820 = EDGE_CURVE('',#131,#821,#823,.T.);
#821 = VERTEX_POINT('',#822);
#822 = CARTESIAN_POINT('',(134.5,3.,40.));
#823 = LINE('',#824,#825);
#824 = CARTESIAN_POINT('',(134.5,9.E-15,40.));
#825 = VECTOR('',#826,1.);
#826 = DIRECTION('',(7.E-17,1.,-2.2E-16));
#827 = ORIENTED_EDGE('',*,*,#130,.T.);
#828 = ORIENTED_EDGE('',*,*,#820,.T.);
#829 = ORIENTED_EDGE('',*,*,#830,.T.);
#830 = EDGE_CURVE('',#821,#821,#831,.T.);
#831 = CIRCLE('',#832,5.5);
#832 = AXIS2_PLACEMENT_3D('',#833,#834,#835);
#833 = CARTESIAN_POINT('',(140.,3.,40.));
#834 = DIRECTION('',(0.,1.,-2.2E-16));
#835 = DIRECTION('',(-1.,0.,0.));
#836 = CYLINDRICAL_SURFACE('',#837,5.5);
#837 = AXIS2_PLACEMENT_3D('',#838,#839,#840);
#838 = CARTESIAN_POINT('',(140.,9.E-15,40.));
#839 = DIRECTION('',(0.,1.,-2.2E-16));
#840 = DIRECTION('',(-1.,0.,0.));
#841 = ADVANCED_FACE('',(#842),#861,.F.);
#842 = FACE_BOUND('',#843,.T.);
#843 = EDGE_LOOP('',(#844,#852,#853,#854));
#844 = ORIENTED_EDGE('',*,*,#845,.F.);
#845 = EDGE_CURVE('',#142,#846,#848,.T.);
#846 = VERTEX_POINT('',#847);
#847 = CARTESIAN_POINT('',(54.5,3.,180.));
#848 = LINE('',#849,#850);
#849 = CARTESIAN_POINT('',(54.5,4.E-14,180.));
#850 = VECTOR('',#851,1.);
#851 = DIRECTION('',(7.E-17,1.,-2.2E-16));
#852 = ORIENTED_EDGE('',*,*,#141,.T.);
#853 = ORIENTED_EDGE('',*,*,#845,.T.);
#854 = ORIENTED_EDGE('',*,*,#855,.T.);
#855 = EDGE_CURVE('',#846,#846,#856,.T.);
#856 = CIRCLE('',#857,5.5);
#857 = AXIS2_PLACEMENT_3D('',#858,#859,#860);
#858 = CARTESIAN_POINT('',(60.,3.,180.));
#859 = DIRECTION('',(0.,1.,-2.2E-16));
#860 = DIRECTION('',(-1.,0.,0.));
#861 = CYLINDRICAL_SURFACE('',#862,5.5);
#862 = AXIS2_PLACEMENT_3D('',#863,#864,#865);
#863 = CARTESIAN_POINT('',(60.,4.E-14,180.));
#864 = DIRECTION('',(0.,1.,-2.2E-16));
#865 = DIRECTION('',(-1.,0.,0.));
#866 = ADVANCED_FACE('',(#867),#892,.T.);
#867 = FACE_BOUND('',#868,.T.);
#868 = EDGE_LOOP('',(#869,#879,#885,#886));
#869 = ORIENTED_EDGE('',*,*,#870,.F.);
#870 = EDGE_CURVE('',#871,#873,#875,.T.);
#871 = VERTEX_POINT('',#872);
#872 = CARTESIAN_POINT('',(313.,3.,64.));
#873 = VERTEX_POINT('',#874);
#874 = CARTESIAN_POINT('',(313.,3.,162.));
#875 = LINE('',#876,#877);
#876 = CARTESIAN_POINT('',(313.,3.,82.75));
#877 = VECTOR('',#878,1.);
#878 = DIRECTION('',(0.,0.,1.));
#879 = ORIENTED_EDGE('',*,*,#880,.T.);
#880 = EDGE_CURVE('',#871,#153,#881,.T.);
#881 = LINE('',#882,#883);
#882 = CARTESIAN_POINT('',(313.,50.,64.));
#883 = VECTOR('',#884,1.);
#884 = DIRECTION('',(0.,-1.,2.2E-16));
#885 = ORIENTED_EDGE('',*,*,#152,.T.);
#886 = ORIENTED_EDGE('',*,*,#887,.F.);
#887 = EDGE_CURVE('',#873,#155,#888,.T.);
#888 = LINE('',#889,#890);
#889 = CARTESIAN_POINT('',(313.,50.,162.));
#890 = VECTOR('',#891,1.);
#891 = DIRECTION('',(0.,-1.,2.2E-16));
#892 = PLANE('',#893);
#893 = AXIS2_PLACEMENT_3D('',#894,#895,#896);
#894 = CARTESIAN_POINT('',(313.,50.,64.));
#895 = DIRECTION('',(-1.,0.,0.));
#896 = DIRECTION('',(0.,2.2E-16,1.));
#897 = ADVANCED_FACE('',(#898),#916,.T.);
#898 = FACE_BOUND('',#899,.T.);
#899 = EDGE_LOOP('',(#900,#908,#914,#915));
#900 = ORIENTED_EDGE('',*,*,#901,.F.);
#901 = EDGE_CURVE('',#902,#871,#904,.T.);
#902 = VERTEX_POINT('',#903);
#903 = CARTESIAN_POINT('',(54.,3.,64.));
#904 = LINE('',#905,#906);
#905 = CARTESIAN_POINT('',(129.5,3.,64.));
#906 = VECTOR('',#907,1.);
#907 = DIRECTION('',(1.,0.,0.));
#908 = ORIENTED_EDGE('',*,*,#909,.T.);
#909 = EDGE_CURVE('',#902,#171,#910,.T.);
#910 = LINE('',#911,#912);
#911 = CARTESIAN_POINT('',(54.,50.,64.));
#912 = VECTOR('',#913,1.);
#913 = DIRECTION('',(0.,-1.,2.2E-16));
#914 = ORIENTED_EDGE('',*,*,#178,.T.);
#915 = ORIENTED_EDGE('',*,*,#880,.F.);
#916 = PLANE('',#917);
#917 = AXIS2_PLACEMENT_3D('',#918,#919,#920);
#918 = CARTESIAN_POINT('',(54.,50.,64.));
#919 = DIRECTION('',(0.,2.2E-16,1.));
#920 = DIRECTION('',(1.,0.,0.));
#921 = ADVANCED_FACE('',(#922),#940,.T.);
#922 = FACE_BOUND('',#923,.T.);
#923 = EDGE_LOOP('',(#924,#932,#933,#934));
#924 = ORIENTED_EDGE('',*,*,#925,.F.);
#925 = EDGE_CURVE('',#873,#926,#928,.T.);
#926 = VERTEX_POINT('',#927);
#927 = CARTESIAN_POINT('',(54.,3.,162.));
#928 = LINE('',#929,#930);
#929 = CARTESIAN_POINT('',(259.,3.,162.));
#930 = VECTOR('',#931,1.);
#931 = DIRECTION('',(-1.,0.,0.));
#932 = ORIENTED_EDGE('',*,*,#887,.T.);
#933 = ORIENTED_EDGE('',*,*,#162,.T.);
#934 = ORIENTED_EDGE('',*,*,#935,.F.);
#935 = EDGE_CURVE('',#926,#163,#936,.T.);
#936 = LINE('',#937,#938);
#937 = CARTESIAN_POINT('',(54.,50.,162.));
#938 = VECTOR('',#939,1.);
#939 = DIRECTION('',(0.,-1.,2.2E-16));
#940 = PLANE('',#941);
#941 = AXIS2_PLACEMENT_3D('',#942,#943,#944);
#942 = CARTESIAN_POINT('',(313.,50.,162.));
#943 = DIRECTION('',(-0.,-2.2E-16,-1.));
#944 = DIRECTION('',(-1.,0.,0.));
#945 = ADVANCED_FACE('',(#946),#957,.T.);
#946 = FACE_BOUND('',#947,.T.);
#947 = EDGE_LOOP('',(#948,#954,#955,#956));
#948 = ORIENTED_EDGE('',*,*,#949,.F.);
#949 = EDGE_CURVE('',#926,#902,#950,.T.);
#950 = LINE('',#951,#952);
#951 = CARTESIAN_POINT('',(54.,3.,131.75));
#952 = VECTOR('',#953,1.);
#953 = DIRECTION('',(0.,0.,-1.));
#954 = ORIENTED_EDGE('',*,*,#935,.T.);
#955 = ORIENTED_EDGE('',*,*,#170,.T.);
#956 = ORIENTED_EDGE('',*,*,#909,.F.);
#957 = PLANE('',#958);
#958 = AXIS2_PLACEMENT_3D('',#959,#960,#961);
#959 = CARTESIAN_POINT('',(54.,50.,162.));
#960 = DIRECTION('',(1.,0.,0.));
#961 = DIRECTION('',(0.,-2.2E-16,-1.));
#962 = ADVANCED_FACE('',(#963),#982,.F.);
#963 = FACE_BOUND('',#964,.T.);
#964 = EDGE_LOOP('',(#965,#973,#974,#975));
#965 = ORIENTED_EDGE('',*,*,#966,.F.);
#966 = EDGE_CURVE('',#187,#967,#969,.T.);
#967 = VERTEX_POINT('',#968);
#968 = CARTESIAN_POINT('',(134.5,3.,180.));
#969 = LINE('',#970,#971);
#970 = CARTESIAN_POINT('',(134.5,4.E-14,180.));
#971 = VECTOR('',#972,1.);
#972 = DIRECTION('',(7.E-17,1.,-2.2E-16));
#973 = ORIENTED_EDGE('',*,*,#186,.T.);
#974 = ORIENTED_EDGE('',*,*,#966,.T.);
#975 = ORIENTED_EDGE('',*,*,#976,.T.);
#976 = EDGE_CURVE('',#967,#967,#977,.T.);
#977 = CIRCLE('',#978,5.5);
#978 = AXIS2_PLACEMENT_3D('',#979,#980,#981);
#979 = CARTESIAN_POINT('',(140.,3.,180.));
#980 = DIRECTION('',(0.,1.,-2.2E-16));
#981 = DIRECTION('',(-1.,0.,0.));
#982 = CYLINDRICAL_SURFACE('',#983,5.5);
#983 = AXIS2_PLACEMENT_3D('',#984,#985,#986);
#984 = CARTESIAN_POINT('',(140.,4.E-14,180.));
#985 = DIRECTION('',(0.,1.,-2.2E-16));
#986 = DIRECTION('',(-1.,0.,0.));
#987 = ADVANCED_FACE('',(#988),#1007,.F.);
#988 = FACE_BOUND('',#989,.T.);
#989 = EDGE_LOOP('',(#990,#998,#999,#1000));
#990 = ORIENTED_EDGE('',*,*,#991,.F.);
#991 = EDGE_CURVE('',#198,#992,#994,.T.);
#992 = VERTEX_POINT('',#993);
#993 = CARTESIAN_POINT('',(224.5,3.,40.));
#994 = LINE('',#995,#996);
#995 = CARTESIAN_POINT('',(224.5,9.E-15,40.));
#996 = VECTOR('',#997,1.);
#997 = DIRECTION('',(7.E-17,1.,-2.2E-16));
#998 = ORIENTED_EDGE('',*,*,#197,.T.);
#999 = ORIENTED_EDGE('',*,*,#991,.T.);
#1000 = ORIENTED_EDGE('',*,*,#1001,.T.);
#1001 = EDGE_CURVE('',#992,#992,#1002,.T.);
#1002 = CIRCLE('',#1003,5.5);
#1003 = AXIS2_PLACEMENT_3D('',#1004,#1005,#1006);
#1004 = CARTESIAN_POINT('',(230.,3.,40.));
#1005 = DIRECTION('',(0.,1.,-2.2E-16));
#1006 = DIRECTION('',(-1.,0.,0.));
#1007 = CYLINDRICAL_SURFACE('',#1008,5.5);
#1008 = AXIS2_PLACEMENT_3D('',#1009,#1010,#1011);
#1009 = CARTESIAN_POINT('',(230.,9.E-15,40.));
#1010 = DIRECTION('',(0.,1.,-2.2E-16));
#1011 = DIRECTION('',(-1.,0.,0.));
#1012 = ADVANCED_FACE('',(#1013),#1032,.F.);
#1013 = FACE_BOUND('',#1014,.T.);
#1014 = EDGE_LOOP('',(#1015,#1023,#1024,#1025));
#1015 = ORIENTED_EDGE('',*,*,#1016,.F.);
#1016 = EDGE_CURVE('',#209,#1017,#1019,.T.);
#1017 = VERTEX_POINT('',#1018);
#1018 = CARTESIAN_POINT('',(314.5,3.,40.));
#1019 = LINE('',#1020,#1021);
#1020 = CARTESIAN_POINT('',(314.5,9.E-15,40.));
#1021 = VECTOR('',#1022,1.);
#1022 = DIRECTION('',(7.E-17,1.,-2.2E-16));
#1023 = ORIENTED_EDGE('',*,*,#208,.T.);
#1024 = ORIENTED_EDGE('',*,*,#1016,.T.);
#1025 = ORIENTED_EDGE('',*,*,#1026,.T.);
#1026 = EDGE_CURVE('',#1017,#1017,#1027,.T.);
#1027 = CIRCLE('',#1028,5.5);
#1028 = AXIS2_PLACEMENT_3D('',#1029,#1030,#1031);
#1029 = CARTESIAN_POINT('',(320.,3.,40.));
#1030 = DIRECTION('',(0.,1.,-2.2E-16));
#1031 = DIRECTION('',(-1.,0.,0.));
#1032 = CYLINDRICAL_SURFACE('',#1033,5.5);
#1033 = AXIS2_PLACEMENT_3D('',#1034,#1035,#1036);
#1034 = CARTESIAN_POINT('',(320.,9.E-15,40.));
#1035 = DIRECTION('',(0.,1.,-2.2E-16));
#1036 = DIRECTION('',(-1.,0.,0.));
#1037 = ADVANCED_FACE('',(#1038),#1057,.F.);
#1038 = FACE_BOUND('',#1039,.T.);
#1039 = EDGE_LOOP('',(#1040,#1048,#1049,#1050));
#1040 = ORIENTED_EDGE('',*,*,#1041,.F.);
#1041 = EDGE_CURVE('',#220,#1042,#1044,.T.);
#1042 = VERTEX_POINT('',#1043);
#1043 = CARTESIAN_POINT('',(224.5,3.,180.));
#1044 = LINE('',#1045,#1046);
#1045 = CARTESIAN_POINT('',(224.5,4.E-14,180.));
#1046 = VECTOR('',#1047,1.);
#1047 = DIRECTION('',(7.E-17,1.,-2.2E-16));
#1048 = ORIENTED_EDGE('',*,*,#219,.T.);
#1049 = ORIENTED_EDGE('',*,*,#1041,.T.);
#1050 = ORIENTED_EDGE('',*,*,#1051,.T.);
#1051 = EDGE_CURVE('',#1042,#1042,#1052,.T.);
#1052 = CIRCLE('',#1053,5.5);
#1053 = AXIS2_PLACEMENT_3D('',#1054,#1055,#1056);
#1054 = CARTESIAN_POINT('',(230.,3.,180.));
#1055 = DIRECTION('',(0.,1.,-2.2E-16));
#1056 = DIRECTION('',(-1.,0.,0.));
#1057 = CYLINDRICAL_SURFACE('',#1058,5.5);
#1058 = AXIS2_PLACEMENT_3D('',#1059,#1060,#1061);
#1059 = CARTESIAN_POINT('',(230.,4.E-14,180.));
#1060 = DIRECTION('',(0.,1.,-2.2E-16));
#1061 = DIRECTION('',(-1.,0.,0.));
#1062 = ADVANCED_FACE('',(#1063),#1082,.F.);
#1063 = FACE_BOUND('',#1064,.T.);
#1064 = EDGE_LOOP('',(#1065,#1073,#1074,#1075));
#1065 = ORIENTED_EDGE('',*,*,#1066,.F.);
#1066 = EDGE_CURVE('',#231,#1067,#1069,.T.);
#1067 = VERTEX_POINT('',#1068);
#1068 = CARTESIAN_POINT('',(304.5,3.,180.));
#1069 = LINE('',#1070,#1071);
#1070 = CARTESIAN_POINT('',(304.5,4.E-14,180.));
#1071 = VECTOR('',#1072,1.);
#1072 = DIRECTION('',(7.E-17,1.,-2.2E-16));
#1073 = ORIENTED_EDGE('',*,*,#230,.T.);
#1074 = ORIENTED_EDGE('',*,*,#1066,.T.);
#1075 = ORIENTED_EDGE('',*,*,#1076,.T.);
#1076 = EDGE_CURVE('',#1067,#1067,#1077,.T.);
#1077 = CIRCLE('',#1078,5.5);
#1078 = AXIS2_PLACEMENT_3D('',#1079,#1080,#1081);
#1079 = CARTESIAN_POINT('',(310.,3.,180.));
#1080 = DIRECTION('',(0.,1.,-2.2E-16));
#1081 = DIRECTION('',(-1.,0.,0.));
#1082 = CYLINDRICAL_SURFACE('',#1083,5.5);
#1083 = AXIS2_PLACEMENT_3D('',#1084,#1085,#1086);
#1084 = CARTESIAN_POINT('',(310.,4.E-14,180.));
#1085 = DIRECTION('',(0.,1.,-2.2E-16));
#1086 = DIRECTION('',(-1.,0.,0.));
#1087 = ADVANCED_FACE('',(#1088),#1106,.F.);
#1088 = FACE_BOUND('',#1089,.F.);
#1089 = EDGE_LOOP('',(#1090,#1098,#1104,#1105));
#1090 = ORIENTED_EDGE('',*,*,#1091,.F.);
#1091 = EDGE_CURVE('',#1092,#416,#1094,.T.);
#1092 = VERTEX_POINT('',#1093);
#1093 = CARTESIAN_POINT('',(2.99999996088,-185.,40.));
#1094 = LINE('',#1095,#1096);
#1095 = CARTESIAN_POINT('',(0.,-185.,40.));
#1096 = VECTOR('',#1097,1.);
#1097 = DIRECTION('',(1.,0.,0.));
#1098 = ORIENTED_EDGE('',*,*,#1099,.F.);
#1099 = EDGE_CURVE('',#299,#1092,#1100,.T.);
#1100 = LINE('',#1101,#1102);
#1101 = CARTESIAN_POINT('',(2.99999996088,-117.,108.));
#1102 = VECTOR('',#1103,1.);
#1103 = DIRECTION('',(-0.,-0.707106781187,-0.707106781187));
#1104 = ORIENTED_EDGE('',*,*,#306,.F.);
#1105 = ORIENTED_EDGE('',*,*,#415,.F.);
#1106 = PLANE('',#1107);
#1107 = AXIS2_PLACEMENT_3D('',#1108,#1109,#1110);
#1108 = CARTESIAN_POINT('',(0.,-23.,202.));
#1109 = DIRECTION('',(0.,0.707106781187,-0.707106781187));
#1110 = DIRECTION('',(0.,-0.707106781187,-0.707106781187));
#1111 = ADVANCED_FACE('',(#1112,#1151,#1162),#1173,.T.);
#1112 = FACE_BOUND('',#1113,.T.);
#1113 = EDGE_LOOP('',(#1114,#1115,#1123,#1129,#1130,#1131,#1137,#1138,
    #1144,#1145));
#1114 = ORIENTED_EDGE('',*,*,#738,.F.);
#1115 = ORIENTED_EDGE('',*,*,#1116,.T.);
#1116 = EDGE_CURVE('',#731,#1117,#1119,.T.);
#1117 = VERTEX_POINT('',#1118);
#1118 = CARTESIAN_POINT('',(2.99999996088,-200.,40.));
#1119 = LINE('',#1120,#1121);
#1120 = CARTESIAN_POINT('',(2.99999996088,-200.,3.));
#1121 = VECTOR('',#1122,1.);
#1122 = DIRECTION('',(0.,0.,1.));
#1123 = ORIENTED_EDGE('',*,*,#1124,.F.);
#1124 = EDGE_CURVE('',#1092,#1117,#1125,.T.);
#1125 = LINE('',#1126,#1127);
#1126 = CARTESIAN_POINT('',(2.99999996088,-192.5,40.));
#1127 = VECTOR('',#1128,1.);
#1128 = DIRECTION('',(-0.,-1.,-0.));
#1129 = ORIENTED_EDGE('',*,*,#1099,.F.);
#1130 = ORIENTED_EDGE('',*,*,#298,.T.);
#1131 = ORIENTED_EDGE('',*,*,#1132,.F.);
#1132 = EDGE_CURVE('',#574,#290,#1133,.T.);
#1133 = LINE('',#1134,#1135);
#1134 = CARTESIAN_POINT('',(2.99999996088,-1.03800814844E-06,3.));
#1135 = VECTOR('',#1136,1.);
#1136 = DIRECTION('',(0.,0.,1.));
#1137 = ORIENTED_EDGE('',*,*,#573,.T.);
#1138 = ORIENTED_EDGE('',*,*,#1139,.T.);
#1139 = EDGE_CURVE('',#566,#687,#1140,.T.);
#1140 = LINE('',#1141,#1142);
#1141 = CARTESIAN_POINT('',(2.99999996088,-20.,57.652114597544));
#1142 = VECTOR('',#1143,1.);
#1143 = DIRECTION('',(0.,0.,-1.));
#1144 = ORIENTED_EDGE('',*,*,#686,.T.);
#1145 = ORIENTED_EDGE('',*,*,#1146,.F.);
#1146 = EDGE_CURVE('',#739,#689,#1147,.T.);
#1147 = LINE('',#1148,#1149);
#1148 = CARTESIAN_POINT('',(2.99999996088,-1.03800814844E-06,3.));
#1149 = VECTOR('',#1150,1.);
#1150 = DIRECTION('',(0.,0.,1.));
#1151 = FACE_BOUND('',#1152,.T.);
#1152 = EDGE_LOOP('',(#1153));
#1153 = ORIENTED_EDGE('',*,*,#1154,.T.);
#1154 = EDGE_CURVE('',#1155,#1155,#1157,.T.);
#1155 = VERTEX_POINT('',#1156);
#1156 = CARTESIAN_POINT('',(2.99999996088,-182.,25.5));
#1157 = CIRCLE('',#1158,5.5);
#1158 = AXIS2_PLACEMENT_3D('',#1159,#1160,#1161);
#1159 = CARTESIAN_POINT('',(2.99999996088,-182.,20.));
#1160 = DIRECTION('',(1.,0.,-0.));
#1161 = DIRECTION('',(0.,0.,1.));
#1162 = FACE_BOUND('',#1163,.T.);
#1163 = EDGE_LOOP('',(#1164));
#1164 = ORIENTED_EDGE('',*,*,#1165,.T.);
#1165 = EDGE_CURVE('',#1166,#1166,#1168,.T.);
#1166 = VERTEX_POINT('',#1167);
#1167 = CARTESIAN_POINT('',(2.99999996088,-67.,25.5));
#1168 = CIRCLE('',#1169,5.5);
#1169 = AXIS2_PLACEMENT_3D('',#1170,#1171,#1172);
#1170 = CARTESIAN_POINT('',(2.99999996088,-67.,20.));
#1171 = DIRECTION('',(1.,0.,-0.));
#1172 = DIRECTION('',(0.,0.,1.));
#1173 = PLANE('',#1174);
#1174 = AXIS2_PLACEMENT_3D('',#1175,#1176,#1177);
#1175 = CARTESIAN_POINT('',(2.99999996088,-200.,3.));
#1176 = DIRECTION('',(-1.,0.,0.));
#1177 = DIRECTION('',(0.,1.,0.));
#1178 = ADVANCED_FACE('',(#1179),#1190,.T.);
#1179 = FACE_BOUND('',#1180,.F.);
#1180 = EDGE_LOOP('',(#1181,#1187,#1188,#1189));
#1181 = ORIENTED_EDGE('',*,*,#1182,.F.);
#1182 = EDGE_CURVE('',#282,#550,#1183,.T.);
#1183 = LINE('',#1184,#1185);
#1184 = CARTESIAN_POINT('',(6.,3.,200.));
#1185 = VECTOR('',#1186,1.);
#1186 = DIRECTION('',(0.,0.,-1.));
#1187 = ORIENTED_EDGE('',*,*,#289,.T.);
#1188 = ORIENTED_EDGE('',*,*,#1132,.F.);
#1189 = ORIENTED_EDGE('',*,*,#581,.T.);
#1190 = CYLINDRICAL_SURFACE('',#1191,3.00000003912);
#1191 = AXIS2_PLACEMENT_3D('',#1192,#1193,#1194);
#1192 = CARTESIAN_POINT('',(6.,-3.912002544E-08,3.));
#1193 = DIRECTION('',(-0.,-0.,-1.));
#1194 = DIRECTION('',(1.,0.,0.));
#1195 = ADVANCED_FACE('',(#1196,#1225,#1228,#1231,#1234,#1240,#1243,
    #1246,#1249,#1252),#1255,.T.);
#1196 = FACE_BOUND('',#1197,.T.);
#1197 = EDGE_LOOP('',(#1198,#1199,#1205,#1206,#1207,#1208,#1214,#1215,
    #1221,#1222,#1223,#1224));
#1198 = ORIENTED_EDGE('',*,*,#281,.F.);
#1199 = ORIENTED_EDGE('',*,*,#1200,.T.);
#1200 = EDGE_CURVE('',#273,#525,#1201,.T.);
#1201 = LINE('',#1202,#1203);
#1202 = CARTESIAN_POINT('',(404.,3.,200.));
#1203 = VECTOR('',#1204,1.);
#1204 = DIRECTION('',(0.,0.,-1.));
#1205 = ORIENTED_EDGE('',*,*,#524,.T.);
#1206 = ORIENTED_EDGE('',*,*,#596,.T.);
#1207 = ORIENTED_EDGE('',*,*,#644,.T.);
#1208 = ORIENTED_EDGE('',*,*,#1209,.T.);
#1209 = EDGE_CURVE('',#645,#756,#1210,.T.);
#1210 = LINE('',#1211,#1212);
#1211 = CARTESIAN_POINT('',(404.,3.,200.));
#1212 = VECTOR('',#1213,1.);
#1213 = DIRECTION('',(0.,0.,-1.));
#1214 = ORIENTED_EDGE('',*,*,#755,.F.);
#1215 = ORIENTED_EDGE('',*,*,#1216,.F.);
#1216 = EDGE_CURVE('',#706,#747,#1217,.T.);
#1217 = LINE('',#1218,#1219);
#1218 = CARTESIAN_POINT('',(6.,3.,200.));
#1219 = VECTOR('',#1220,1.);
#1220 = DIRECTION('',(0.,0.,-1.));
#1221 = ORIENTED_EDGE('',*,*,#705,.T.);
#1222 = ORIENTED_EDGE('',*,*,#620,.T.);
#1223 = ORIENTED_EDGE('',*,*,#547,.T.);
#1224 = ORIENTED_EDGE('',*,*,#1182,.F.);
#1225 = FACE_BOUND('',#1226,.T.);
#1226 = EDGE_LOOP('',(#1227));
#1227 = ORIENTED_EDGE('',*,*,#805,.F.);
#1228 = FACE_BOUND('',#1229,.T.);
#1229 = EDGE_LOOP('',(#1230));
#1230 = ORIENTED_EDGE('',*,*,#830,.F.);
#1231 = FACE_BOUND('',#1232,.T.);
#1232 = EDGE_LOOP('',(#1233));
#1233 = ORIENTED_EDGE('',*,*,#855,.F.);
#1234 = FACE_BOUND('',#1235,.T.);
#1235 = EDGE_LOOP('',(#1236,#1237,#1238,#1239));
#1236 = ORIENTED_EDGE('',*,*,#870,.T.);
#1237 = ORIENTED_EDGE('',*,*,#925,.T.);
#1238 = ORIENTED_EDGE('',*,*,#949,.T.);
#1239 = ORIENTED_EDGE('',*,*,#901,.T.);
#1240 = FACE_BOUND('',#1241,.T.);
#1241 = EDGE_LOOP('',(#1242));
#1242 = ORIENTED_EDGE('',*,*,#976,.F.);
#1243 = FACE_BOUND('',#1244,.T.);
#1244 = EDGE_LOOP('',(#1245));
#1245 = ORIENTED_EDGE('',*,*,#1001,.F.);
#1246 = FACE_BOUND('',#1247,.T.);
#1247 = EDGE_LOOP('',(#1248));
#1248 = ORIENTED_EDGE('',*,*,#1026,.F.);
#1249 = FACE_BOUND('',#1250,.T.);
#1250 = EDGE_LOOP('',(#1251));
#1251 = ORIENTED_EDGE('',*,*,#1051,.F.);
#1252 = FACE_BOUND('',#1253,.T.);
#1253 = EDGE_LOOP('',(#1254));
#1254 = ORIENTED_EDGE('',*,*,#1076,.F.);
#1255 = PLANE('',#1256);
#1256 = AXIS2_PLACEMENT_3D('',#1257,#1258,#1259);
#1257 = CARTESIAN_POINT('',(205.,3.,101.5));
#1258 = DIRECTION('',(0.,1.,0.));
#1259 = DIRECTION('',(0.,0.,1.));
#1260 = ADVANCED_FACE('',(#1261),#1272,.T.);
#1261 = FACE_BOUND('',#1262,.F.);
#1262 = EDGE_LOOP('',(#1263,#1264,#1270,#1271));
#1263 = ORIENTED_EDGE('',*,*,#532,.T.);
#1264 = ORIENTED_EDGE('',*,*,#1265,.T.);
#1265 = EDGE_CURVE('',#499,#265,#1266,.T.);
#1266 = LINE('',#1267,#1268);
#1267 = CARTESIAN_POINT('',(407.00000003912,2.6E-16,3.));
#1268 = VECTOR('',#1269,1.);
#1269 = DIRECTION('',(0.,0.,1.));
#1270 = ORIENTED_EDGE('',*,*,#272,.T.);
#1271 = ORIENTED_EDGE('',*,*,#1200,.T.);
#1272 = CYLINDRICAL_SURFACE('',#1273,3.00000003912);
#1273 = AXIS2_PLACEMENT_3D('',#1274,#1275,#1276);
#1274 = CARTESIAN_POINT('',(404.,-3.912002544E-08,3.));
#1275 = DIRECTION('',(-0.,-0.,-1.));
#1276 = DIRECTION('',(1.,0.,0.));
#1277 = ADVANCED_FACE('',(#1278,#1319,#1330),#1341,.F.);
#1278 = FACE_BOUND('',#1279,.F.);
#1279 = EDGE_LOOP('',(#1280,#1281,#1289,#1297,#1303,#1304,#1305,#1306,
    #1312,#1313));
#1280 = ORIENTED_EDGE('',*,*,#772,.F.);
#1281 = ORIENTED_EDGE('',*,*,#1282,.T.);
#1282 = EDGE_CURVE('',#773,#1283,#1285,.T.);
#1283 = VERTEX_POINT('',#1284);
#1284 = CARTESIAN_POINT('',(407.00000003912,-200.,40.));
#1285 = LINE('',#1286,#1287);
#1286 = CARTESIAN_POINT('',(407.00000003912,-200.,3.));
#1287 = VECTOR('',#1288,1.);
#1288 = DIRECTION('',(0.,0.,1.));
#1289 = ORIENTED_EDGE('',*,*,#1290,.F.);
#1290 = EDGE_CURVE('',#1291,#1283,#1293,.T.);
#1291 = VERTEX_POINT('',#1292);
#1292 = CARTESIAN_POINT('',(407.00000003912,-185.,40.));
#1293 = LINE('',#1294,#1295);
#1294 = CARTESIAN_POINT('',(407.00000003912,-192.5,40.));
#1295 = VECTOR('',#1296,1.);
#1296 = DIRECTION('',(-0.,-1.,-0.));
#1297 = ORIENTED_EDGE('',*,*,#1298,.F.);
#1298 = EDGE_CURVE('',#257,#1291,#1299,.T.);
#1299 = LINE('',#1300,#1301);
#1300 = CARTESIAN_POINT('',(407.00000003912,-117.,108.));
#1301 = VECTOR('',#1302,1.);
#1302 = DIRECTION('',(-0.,-0.707106781187,-0.707106781187));
#1303 = ORIENTED_EDGE('',*,*,#264,.T.);
#1304 = ORIENTED_EDGE('',*,*,#1265,.F.);
#1305 = ORIENTED_EDGE('',*,*,#498,.T.);
#1306 = ORIENTED_EDGE('',*,*,#1307,.T.);
#1307 = EDGE_CURVE('',#501,#656,#1308,.T.);
#1308 = LINE('',#1309,#1310);
#1309 = CARTESIAN_POINT('',(407.00000003912,-20.,57.652114597544));
#1310 = VECTOR('',#1311,1.);
#1311 = DIRECTION('',(0.,0.,-1.));
#1312 = ORIENTED_EDGE('',*,*,#663,.T.);
#1313 = ORIENTED_EDGE('',*,*,#1314,.F.);
#1314 = EDGE_CURVE('',#764,#664,#1315,.T.);
#1315 = LINE('',#1316,#1317);
#1316 = CARTESIAN_POINT('',(407.00000003912,2.6E-16,3.));
#1317 = VECTOR('',#1318,1.);
#1318 = DIRECTION('',(0.,0.,1.));
#1319 = FACE_BOUND('',#1320,.F.);
#1320 = EDGE_LOOP('',(#1321));
#1321 = ORIENTED_EDGE('',*,*,#1322,.T.);
#1322 = EDGE_CURVE('',#1323,#1323,#1325,.T.);
#1323 = VERTEX_POINT('',#1324);
#1324 = CARTESIAN_POINT('',(407.00000003912,-182.,25.5));
#1325 = CIRCLE('',#1326,5.5);
#1326 = AXIS2_PLACEMENT_3D('',#1327,#1328,#1329);
#1327 = CARTESIAN_POINT('',(407.00000003912,-182.,20.));
#1328 = DIRECTION('',(1.,0.,-0.));
#1329 = DIRECTION('',(0.,0.,1.));
#1330 = FACE_BOUND('',#1331,.F.);
#1331 = EDGE_LOOP('',(#1332));
#1332 = ORIENTED_EDGE('',*,*,#1333,.T.);
#1333 = EDGE_CURVE('',#1334,#1334,#1336,.T.);
#1334 = VERTEX_POINT('',#1335);
#1335 = CARTESIAN_POINT('',(407.00000003912,-67.,25.5));
#1336 = CIRCLE('',#1337,5.5);
#1337 = AXIS2_PLACEMENT_3D('',#1338,#1339,#1340);
#1338 = CARTESIAN_POINT('',(407.00000003912,-67.,20.));
#1339 = DIRECTION('',(1.,0.,-0.));
#1340 = DIRECTION('',(0.,0.,1.));
#1341 = PLANE('',#1342);
#1342 = AXIS2_PLACEMENT_3D('',#1343,#1344,#1345);
#1343 = CARTESIAN_POINT('',(407.00000003912,-200.,3.));
#1344 = DIRECTION('',(-1.,0.,0.));
#1345 = DIRECTION('',(0.,1.,0.));
#1346 = ADVANCED_FACE('',(#1347),#1358,.F.);
#1347 = FACE_BOUND('',#1348,.F.);
#1348 = EDGE_LOOP('',(#1349,#1350,#1356,#1357));
#1349 = ORIENTED_EDGE('',*,*,#1298,.T.);
#1350 = ORIENTED_EDGE('',*,*,#1351,.F.);
#1351 = EDGE_CURVE('',#331,#1291,#1352,.T.);
#1352 = LINE('',#1353,#1354);
#1353 = CARTESIAN_POINT('',(0.,-185.,40.));
#1354 = VECTOR('',#1355,1.);
#1355 = DIRECTION('',(1.,0.,0.));
#1356 = ORIENTED_EDGE('',*,*,#330,.T.);
#1357 = ORIENTED_EDGE('',*,*,#256,.F.);
#1358 = PLANE('',#1359);
#1359 = AXIS2_PLACEMENT_3D('',#1360,#1361,#1362);
#1360 = CARTESIAN_POINT('',(0.,-23.,202.));
#1361 = DIRECTION('',(0.,0.707106781187,-0.707106781187));
#1362 = DIRECTION('',(0.,-0.707106781187,-0.707106781187));
#1363 = ADVANCED_FACE('',(#1364),#1370,.T.);
#1364 = FACE_BOUND('',#1365,.T.);
#1365 = EDGE_LOOP('',(#1366,#1367,#1368,#1369));
#1366 = ORIENTED_EDGE('',*,*,#369,.T.);
#1367 = ORIENTED_EDGE('',*,*,#508,.F.);
#1368 = ORIENTED_EDGE('',*,*,#1307,.T.);
#1369 = ORIENTED_EDGE('',*,*,#655,.F.);
#1370 = PLANE('',#1371);
#1371 = AXIS2_PLACEMENT_3D('',#1372,#1373,#1374);
#1372 = CARTESIAN_POINT('',(196.83424283765,-20.,112.30422919508));
#1373 = DIRECTION('',(0.,1.,0.));
#1374 = DIRECTION('',(0.,0.,1.));
#1375 = ADVANCED_FACE('',(#1376),#1387,.F.);
#1376 = FACE_BOUND('',#1377,.F.);
#1377 = EDGE_LOOP('',(#1378,#1379,#1380,#1381));
#1378 = ORIENTED_EDGE('',*,*,#338,.T.);
#1379 = ORIENTED_EDGE('',*,*,#1351,.T.);
#1380 = ORIENTED_EDGE('',*,*,#1290,.T.);
#1381 = ORIENTED_EDGE('',*,*,#1382,.F.);
#1382 = EDGE_CURVE('',#339,#1283,#1383,.T.);
#1383 = LINE('',#1384,#1385);
#1384 = CARTESIAN_POINT('',(0.,-200.,40.));
#1385 = VECTOR('',#1386,1.);
#1386 = DIRECTION('',(1.,0.,0.));
#1387 = PLANE('',#1388);
#1388 = AXIS2_PLACEMENT_3D('',#1389,#1390,#1391);
#1389 = CARTESIAN_POINT('',(0.,-185.,40.));
#1390 = DIRECTION('',(0.,0.,-1.));
#1391 = DIRECTION('',(0.,-1.,0.));
#1392 = ADVANCED_FACE('',(#1393),#1399,.F.);
#1393 = FACE_BOUND('',#1394,.F.);
#1394 = EDGE_LOOP('',(#1395,#1396,#1397,#1398));
#1395 = ORIENTED_EDGE('',*,*,#780,.F.);
#1396 = ORIENTED_EDGE('',*,*,#346,.T.);
#1397 = ORIENTED_EDGE('',*,*,#1382,.T.);
#1398 = ORIENTED_EDGE('',*,*,#1282,.F.);
#1399 = PLANE('',#1400);
#1400 = AXIS2_PLACEMENT_3D('',#1401,#1402,#1403);
#1401 = CARTESIAN_POINT('',(404.,-200.,3.));
#1402 = DIRECTION('',(0.,1.,0.));
#1403 = DIRECTION('',(1.,0.,0.));
#1404 = ADVANCED_FACE('',(#1405),#1416,.F.);
#1405 = FACE_BOUND('',#1406,.T.);
#1406 = EDGE_LOOP('',(#1407,#1408,#1414,#1415));
#1407 = ORIENTED_EDGE('',*,*,#385,.F.);
#1408 = ORIENTED_EDGE('',*,*,#1409,.T.);
#1409 = EDGE_CURVE('',#386,#1334,#1410,.T.);
#1410 = LINE('',#1411,#1412);
#1411 = CARTESIAN_POINT('',(0.,-67.,25.5));
#1412 = VECTOR('',#1413,1.);
#1413 = DIRECTION('',(1.,0.,-6.E-17));
#1414 = ORIENTED_EDGE('',*,*,#1333,.T.);
#1415 = ORIENTED_EDGE('',*,*,#1409,.F.);
#1416 = CYLINDRICAL_SURFACE('',#1417,5.5);
#1417 = AXIS2_PLACEMENT_3D('',#1418,#1419,#1420);
#1418 = CARTESIAN_POINT('',(0.,-67.,20.));
#1419 = DIRECTION('',(1.,0.,0.));
#1420 = DIRECTION('',(0.,0.,1.));
#1421 = ADVANCED_FACE('',(#1422),#1433,.F.);
#1422 = FACE_BOUND('',#1423,.T.);
#1423 = EDGE_LOOP('',(#1424,#1425,#1431,#1432));
#1424 = ORIENTED_EDGE('',*,*,#396,.F.);
#1425 = ORIENTED_EDGE('',*,*,#1426,.T.);
#1426 = EDGE_CURVE('',#397,#1323,#1427,.T.);
#1427 = LINE('',#1428,#1429);
#1428 = CARTESIAN_POINT('',(0.,-182.,25.5));
#1429 = VECTOR('',#1430,1.);
#1430 = DIRECTION('',(1.,0.,-6.E-17));
#1431 = ORIENTED_EDGE('',*,*,#1322,.T.);
#1432 = ORIENTED_EDGE('',*,*,#1426,.F.);
#1433 = CYLINDRICAL_SURFACE('',#1434,5.5);
#1434 = AXIS2_PLACEMENT_3D('',#1435,#1436,#1437);
#1435 = CARTESIAN_POINT('',(0.,-182.,20.));
#1436 = DIRECTION('',(1.,0.,0.));
#1437 = DIRECTION('',(0.,0.,1.));
#1438 = ADVANCED_FACE('',(#1439),#1445,.T.);
#1439 = FACE_BOUND('',#1440,.T.);
#1440 = EDGE_LOOP('',(#1441,#1442,#1443,#1444));
#1441 = ORIENTED_EDGE('',*,*,#565,.F.);
#1442 = ORIENTED_EDGE('',*,*,#454,.F.);
#1443 = ORIENTED_EDGE('',*,*,#696,.F.);
#1444 = ORIENTED_EDGE('',*,*,#1139,.F.);
#1445 = PLANE('',#1446);
#1446 = AXIS2_PLACEMENT_3D('',#1447,#1448,#1449);
#1447 = CARTESIAN_POINT('',(196.83424283765,-20.,112.30422919508));
#1448 = DIRECTION('',(0.,1.,0.));
#1449 = DIRECTION('',(0.,0.,1.));
#1450 = ADVANCED_FACE('',(#1451),#1462,.F.);
#1451 = FACE_BOUND('',#1452,.F.);
#1452 = EDGE_LOOP('',(#1453,#1454,#1455,#1456));
#1453 = ORIENTED_EDGE('',*,*,#1124,.F.);
#1454 = ORIENTED_EDGE('',*,*,#1091,.T.);
#1455 = ORIENTED_EDGE('',*,*,#423,.F.);
#1456 = ORIENTED_EDGE('',*,*,#1457,.F.);
#1457 = EDGE_CURVE('',#1117,#424,#1458,.T.);
#1458 = LINE('',#1459,#1460);
#1459 = CARTESIAN_POINT('',(0.,-200.,40.));
#1460 = VECTOR('',#1461,1.);
#1461 = DIRECTION('',(1.,0.,0.));
#1462 = PLANE('',#1463);
#1463 = AXIS2_PLACEMENT_3D('',#1464,#1465,#1466);
#1464 = CARTESIAN_POINT('',(0.,-185.,40.));
#1465 = DIRECTION('',(0.,0.,-1.));
#1466 = DIRECTION('',(0.,-1.,0.));
#1467 = ADVANCED_FACE('',(#1468),#1474,.F.);
#1468 = FACE_BOUND('',#1469,.F.);
#1469 = EDGE_LOOP('',(#1470,#1471,#1472,#1473));
#1470 = ORIENTED_EDGE('',*,*,#730,.F.);
#1471 = ORIENTED_EDGE('',*,*,#1116,.T.);
#1472 = ORIENTED_EDGE('',*,*,#1457,.T.);
#1473 = ORIENTED_EDGE('',*,*,#431,.F.);
#1474 = PLANE('',#1475);
#1475 = AXIS2_PLACEMENT_3D('',#1476,#1477,#1478);
#1476 = CARTESIAN_POINT('',(2.99999996088,-200.,3.));
#1477 = DIRECTION('',(0.,1.,0.));
#1478 = DIRECTION('',(1.,0.,0.));
#1479 = ADVANCED_FACE('',(#1480),#1491,.F.);
#1480 = FACE_BOUND('',#1481,.T.);
#1481 = EDGE_LOOP('',(#1482,#1483,#1489,#1490));
#1482 = ORIENTED_EDGE('',*,*,#1165,.F.);
#1483 = ORIENTED_EDGE('',*,*,#1484,.T.);
#1484 = EDGE_CURVE('',#1166,#471,#1485,.T.);
#1485 = LINE('',#1486,#1487);
#1486 = CARTESIAN_POINT('',(0.,-67.,25.5));
#1487 = VECTOR('',#1488,1.);
#1488 = DIRECTION('',(1.,0.,-6.E-17));
#1489 = ORIENTED_EDGE('',*,*,#470,.T.);
#1490 = ORIENTED_EDGE('',*,*,#1484,.F.);
#1491 = CYLINDRICAL_SURFACE('',#1492,5.5);
#1492 = AXIS2_PLACEMENT_3D('',#1493,#1494,#1495);
#1493 = CARTESIAN_POINT('',(0.,-67.,20.));
#1494 = DIRECTION('',(1.,0.,0.));
#1495 = DIRECTION('',(0.,0.,1.));
#1496 = ADVANCED_FACE('',(#1497),#1508,.F.);
#1497 = FACE_BOUND('',#1498,.T.);
#1498 = EDGE_LOOP('',(#1499,#1500,#1506,#1507));
#1499 = ORIENTED_EDGE('',*,*,#1154,.F.);
#1500 = ORIENTED_EDGE('',*,*,#1501,.T.);
#1501 = EDGE_CURVE('',#1155,#482,#1502,.T.);
#1502 = LINE('',#1503,#1504);
#1503 = CARTESIAN_POINT('',(0.,-182.,25.5));
#1504 = VECTOR('',#1505,1.);
#1505 = DIRECTION('',(1.,0.,-6.E-17));
#1506 = ORIENTED_EDGE('',*,*,#481,.T.);
#1507 = ORIENTED_EDGE('',*,*,#1501,.F.);
#1508 = CYLINDRICAL_SURFACE('',#1509,5.5);
#1509 = AXIS2_PLACEMENT_3D('',#1510,#1511,#1512);
#1510 = CARTESIAN_POINT('',(0.,-182.,20.));
#1511 = DIRECTION('',(1.,0.,0.));
#1512 = DIRECTION('',(0.,0.,1.));
#1513 = ADVANCED_FACE('',(#1514),#1520,.T.);
#1514 = FACE_BOUND('',#1515,.F.);
#1515 = EDGE_LOOP('',(#1516,#1517,#1518,#1519));
#1516 = ORIENTED_EDGE('',*,*,#763,.F.);
#1517 = ORIENTED_EDGE('',*,*,#1314,.T.);
#1518 = ORIENTED_EDGE('',*,*,#671,.F.);
#1519 = ORIENTED_EDGE('',*,*,#1209,.T.);
#1520 = CYLINDRICAL_SURFACE('',#1521,3.00000003912);
#1521 = AXIS2_PLACEMENT_3D('',#1522,#1523,#1524);
#1522 = CARTESIAN_POINT('',(404.,-3.912002544E-08,3.));
#1523 = DIRECTION('',(-0.,-0.,-1.));
#1524 = DIRECTION('',(1.,0.,0.));
#1525 = ADVANCED_FACE('',(#1526),#1532,.T.);
#1526 = FACE_BOUND('',#1527,.F.);
#1527 = EDGE_LOOP('',(#1528,#1529,#1530,#1531));
#1528 = ORIENTED_EDGE('',*,*,#1216,.F.);
#1529 = ORIENTED_EDGE('',*,*,#713,.F.);
#1530 = ORIENTED_EDGE('',*,*,#1146,.F.);
#1531 = ORIENTED_EDGE('',*,*,#746,.F.);
#1532 = CYLINDRICAL_SURFACE('',#1533,3.00000003912);
#1533 = AXIS2_PLACEMENT_3D('',#1534,#1535,#1536);
#1534 = CARTESIAN_POINT('',(6.,-3.912002544E-08,3.));
#1535 = DIRECTION('',(-0.,-0.,-1.));
#1536 = DIRECTION('',(1.,0.,0.));
#1537 = ( GEOMETRIC_REPRESENTATION_CONTEXT(3) 
GLOBAL_UNCERTAINTY_ASSIGNED_CONTEXT((#1541)) 
GLOBAL_UNIT_ASSIGNED_CONTEXT((#1538,#1539,#1540)) REPRESENTATION_CONTEXT
('Context #1','3D Context with UNIT and UNCERTAINTY') );
#1538 = ( LENGTH_UNIT() NAMED_UNIT(*) SI_UNIT(.MILLI.,.METRE.) );
#1539 = ( NAMED_UNIT(*) PLANE_ANGLE_UNIT() SI_UNIT($,.RADIAN.) );
#1540 = ( NAMED_UNIT(*) SI_UNIT($,.STERADIAN.) SOLID_ANGLE_UNIT() );
#1541 = UNCERTAINTY_MEASURE_WITH_UNIT(LENGTH_MEASURE(1.E-04),#1538,
  'distance_accuracy_value','confusion accuracy');
#1542 = PRODUCT_RELATED_PRODUCT_CATEGORY('part',$,(#7));
ENDSEC;
END-ISO-10303-21;
