ISO-10303-21;
HEADER;
FILE_DESCRIPTION(('FreeCAD Model'),'2;1');
FILE_NAME('Open CASCADE Shape Model','2026-08-20T01:53:46',(''),(''),
  'Open CASCADE STEP processor 7.8','FreeCAD','Unknown');
FILE_SCHEMA(('AUTOMOTIVE_DESIGN { 1 0 10303 214 1 1 1 1 }'));
ENDSEC;
DATA;
#1 = APPLICATION_PROTOCOL_DEFINITION('international standard',
  'automotive_design',2000,#2);
#2 = APPLICATION_CONTEXT(
  'core data for automotive mechanical design processes');
#3 = SHAPE_DEFINITION_REPRESENTATION(#4,#10);
#4 = PRODUCT_DEFINITION_SHAPE('','',#5);
#5 = PRODUCT_DEFINITION('design','',#6,#9);
#6 = PRODUCT_DEFINITION_FORMATION('','',#7);
#7 = PRODUCT('HW-C3-FR-TPENCL-A','HW-C3-FR-TPENCL-A','',(#8));
#8 = PRODUCT_CONTEXT('',#2,'mechanical');
#9 = PRODUCT_DEFINITION_CONTEXT('part definition',#2,'design');
#10 = ADVANCED_BREP_SHAPE_REPRESENTATION('',(#11,#15),#763);
#11 = AXIS2_PLACEMENT_3D('',#12,#13,#14);
#12 = CARTESIAN_POINT('',(0.,0.,0.));
#13 = DIRECTION('',(0.,0.,1.));
#14 = DIRECTION('',(1.,0.,-0.));
#15 = MANIFOLD_SOLID_BREP('',#16);
#16 = CLOSED_SHELL('',(#17,#57,#138,#210,#234,#299,#323,#395,#419,#491,
    #516,#540,#558,#586,#603,#620,#637,#654,#666,#683,#700,#717,#734,
    #751));
#17 = ADVANCED_FACE('',(#18),#52,.F.);
#18 = FACE_BOUND('',#19,.F.);
#19 = EDGE_LOOP('',(#20,#30,#38,#46));
#20 = ORIENTED_EDGE('',*,*,#21,.F.);
#21 = EDGE_CURVE('',#22,#24,#26,.T.);
#22 = VERTEX_POINT('',#23);
#23 = CARTESIAN_POINT('',(407.,9.E-15,40.));
#24 = VERTEX_POINT('',#25);
#25 = CARTESIAN_POINT('',(404.,9.E-15,40.));
#26 = LINE('',#27,#28);
#27 = CARTESIAN_POINT('',(407.,0.,40.));
#28 = VECTOR('',#29,1.);
#29 = DIRECTION('',(-1.,0.,0.));
#30 = ORIENTED_EDGE('',*,*,#31,.T.);
#31 = EDGE_CURVE('',#22,#32,#34,.T.);
#32 = VERTEX_POINT('',#33);
#33 = CARTESIAN_POINT('',(407.,72.,40.));
#34 = LINE('',#35,#36);
#35 = CARTESIAN_POINT('',(407.,8.88E-15,40.));
#36 = VECTOR('',#37,1.);
#37 = DIRECTION('',(0.,1.,-2.2E-16));
#38 = ORIENTED_EDGE('',*,*,#39,.F.);
#39 = EDGE_CURVE('',#40,#32,#42,.T.);
#40 = VERTEX_POINT('',#41);
#41 = CARTESIAN_POINT('',(404.,72.,40.));
#42 = LINE('',#43,#44);
#43 = CARTESIAN_POINT('',(0.,72.,40.));
#44 = VECTOR('',#45,1.);
#45 = DIRECTION('',(1.,0.,0.));
#46 = ORIENTED_EDGE('',*,*,#47,.F.);
#47 = EDGE_CURVE('',#24,#40,#48,.T.);
#48 = LINE('',#49,#50);
#49 = CARTESIAN_POINT('',(404.,8.88E-15,40.));
#50 = VECTOR('',#51,1.);
#51 = DIRECTION('',(0.,1.,-2.2E-16));
#52 = PLANE('',#53);
#53 = AXIS2_PLACEMENT_3D('',#54,#55,#56);
#54 = CARTESIAN_POINT('',(407.,8.88E-15,40.));
#55 = DIRECTION('',(0.,2.2E-16,1.));
#56 = DIRECTION('',(-1.,0.,0.));
#57 = ADVANCED_FACE('',(#58),#133,.F.);
#58 = FACE_BOUND('',#59,.F.);
#59 = EDGE_LOOP('',(#60,#61,#69,#77,#85,#93,#101,#110,#118,#127));
#60 = ORIENTED_EDGE('',*,*,#21,.T.);
#61 = ORIENTED_EDGE('',*,*,#62,.T.);
#62 = EDGE_CURVE('',#24,#63,#65,.T.);
#63 = VERTEX_POINT('',#64);
#64 = CARTESIAN_POINT('',(404.,6.4E-14,290.));
#65 = LINE('',#66,#67);
#66 = CARTESIAN_POINT('',(404.,0.,40.));
#67 = VECTOR('',#68,1.);
#68 = DIRECTION('',(0.,0.,1.));
#69 = ORIENTED_EDGE('',*,*,#70,.F.);
#70 = EDGE_CURVE('',#71,#63,#73,.T.);
#71 = VERTEX_POINT('',#72);
#72 = CARTESIAN_POINT('',(6.000001,6.4E-14,290.));
#73 = LINE('',#74,#75);
#74 = CARTESIAN_POINT('',(6.000001,0.,290.));
#75 = VECTOR('',#76,1.);
#76 = DIRECTION('',(1.,0.,0.));
#77 = ORIENTED_EDGE('',*,*,#78,.F.);
#78 = EDGE_CURVE('',#79,#71,#81,.T.);
#79 = VERTEX_POINT('',#80);
#80 = CARTESIAN_POINT('',(6.000001,9.E-15,40.000000980385));
#81 = LINE('',#82,#83);
#82 = CARTESIAN_POINT('',(6.000001,0.,40.000000980385));
#83 = VECTOR('',#84,1.);
#84 = DIRECTION('',(0.,0.,1.));
#85 = ORIENTED_EDGE('',*,*,#86,.T.);
#86 = EDGE_CURVE('',#79,#87,#89,.T.);
#87 = VERTEX_POINT('',#88);
#88 = CARTESIAN_POINT('',(3.000001,9.E-15,40.000000980385));
#89 = LINE('',#90,#91);
#90 = CARTESIAN_POINT('',(6.000001,0.,40.000000980385));
#91 = VECTOR('',#92,1.);
#92 = DIRECTION('',(-1.,0.,0.));
#93 = ORIENTED_EDGE('',*,*,#94,.T.);
#94 = EDGE_CURVE('',#87,#95,#97,.T.);
#95 = VERTEX_POINT('',#96);
#96 = CARTESIAN_POINT('',(3.000001,6.4E-14,290.00000098038));
#97 = LINE('',#98,#99);
#98 = CARTESIAN_POINT('',(3.000001,0.,40.000000980385));
#99 = VECTOR('',#100,1.);
#100 = DIRECTION('',(0.,0.,1.));
#101 = ORIENTED_EDGE('',*,*,#102,.F.);
#102 = EDGE_CURVE('',#103,#95,#105,.T.);
#103 = VERTEX_POINT('',#104);
#104 = CARTESIAN_POINT('',(6.000001,6.5E-14,293.));
#105 = CIRCLE('',#106,3.);
#106 = AXIS2_PLACEMENT_3D('',#107,#108,#109);
#107 = CARTESIAN_POINT('',(6.000001,0.,290.));
#108 = DIRECTION('',(0.,-1.,0.));
#109 = DIRECTION('',(1.,0.,0.));
#110 = ORIENTED_EDGE('',*,*,#111,.F.);
#111 = EDGE_CURVE('',#112,#103,#114,.T.);
#112 = VERTEX_POINT('',#113);
#113 = CARTESIAN_POINT('',(404.00000098038,6.5E-14,293.));
#114 = LINE('',#115,#116);
#115 = CARTESIAN_POINT('',(404.00000098038,0.,293.));
#116 = VECTOR('',#117,1.);
#117 = DIRECTION('',(-1.,0.,0.));
#118 = ORIENTED_EDGE('',*,*,#119,.F.);
#119 = EDGE_CURVE('',#120,#112,#122,.T.);
#120 = VERTEX_POINT('',#121);
#121 = CARTESIAN_POINT('',(407.,6.4E-14,290.));
#122 = CIRCLE('',#123,3.);
#123 = AXIS2_PLACEMENT_3D('',#124,#125,#126);
#124 = CARTESIAN_POINT('',(404.,0.,290.));
#125 = DIRECTION('',(0.,-1.,0.));
#126 = DIRECTION('',(1.,0.,0.));
#127 = ORIENTED_EDGE('',*,*,#128,.F.);
#128 = EDGE_CURVE('',#22,#120,#129,.T.);
#129 = LINE('',#130,#131);
#130 = CARTESIAN_POINT('',(407.,0.,40.));
#131 = VECTOR('',#132,1.);
#132 = DIRECTION('',(0.,0.,1.));
#133 = PLANE('',#134);
#134 = AXIS2_PLACEMENT_3D('',#135,#136,#137);
#135 = CARTESIAN_POINT('',(205.00000071698,4.903E-14,220.83012000469));
#136 = DIRECTION('',(0.,1.,0.));
#137 = DIRECTION('',(0.,0.,1.));
#138 = ADVANCED_FACE('',(#139),#205,.F.);
#139 = FACE_BOUND('',#140,.F.);
#140 = EDGE_LOOP('',(#141,#142,#143,#151,#159,#167,#175,#183,#191,#199)
  );
#141 = ORIENTED_EDGE('',*,*,#62,.F.);
#142 = ORIENTED_EDGE('',*,*,#47,.T.);
#143 = ORIENTED_EDGE('',*,*,#144,.F.);
#144 = EDGE_CURVE('',#145,#40,#147,.T.);
#145 = VERTEX_POINT('',#146);
#146 = CARTESIAN_POINT('',(404.,72.,80.));
#147 = LINE('',#148,#149);
#148 = CARTESIAN_POINT('',(404.,72.,40.));
#149 = VECTOR('',#150,1.);
#150 = DIRECTION('',(0.,0.,-1.));
#151 = ORIENTED_EDGE('',*,*,#152,.F.);
#152 = EDGE_CURVE('',#153,#145,#155,.T.);
#153 = VERTEX_POINT('',#154);
#154 = CARTESIAN_POINT('',(404.,66.,86.));
#155 = LINE('',#156,#157);
#156 = CARTESIAN_POINT('',(404.,64.,88.));
#157 = VECTOR('',#158,1.);
#158 = DIRECTION('',(0.,0.707106781187,-0.707106781187));
#159 = ORIENTED_EDGE('',*,*,#160,.F.);
#160 = EDGE_CURVE('',#161,#153,#163,.T.);
#161 = VERTEX_POINT('',#162);
#162 = CARTESIAN_POINT('',(404.,66.,250.));
#163 = LINE('',#164,#165);
#164 = CARTESIAN_POINT('',(404.,66.,63.));
#165 = VECTOR('',#166,1.);
#166 = DIRECTION('',(0.,0.,-1.));
#167 = ORIENTED_EDGE('',*,*,#168,.F.);
#168 = EDGE_CURVE('',#169,#161,#171,.T.);
#169 = VERTEX_POINT('',#170);
#170 = CARTESIAN_POINT('',(404.,414.,250.));
#171 = LINE('',#172,#173);
#172 = CARTESIAN_POINT('',(404.,33.,250.));
#173 = VECTOR('',#174,1.);
#174 = DIRECTION('',(0.,-1.,0.));
#175 = ORIENTED_EDGE('',*,*,#176,.T.);
#176 = EDGE_CURVE('',#169,#177,#179,.T.);
#177 = VERTEX_POINT('',#178);
#178 = CARTESIAN_POINT('',(404.,414.,40.));
#179 = LINE('',#180,#181);
#180 = CARTESIAN_POINT('',(404.,414.,40.));
#181 = VECTOR('',#182,1.);
#182 = DIRECTION('',(0.,0.,-1.));
#183 = ORIENTED_EDGE('',*,*,#184,.T.);
#184 = EDGE_CURVE('',#177,#185,#187,.T.);
#185 = VERTEX_POINT('',#186);
#186 = CARTESIAN_POINT('',(404.,508.,40.));
#187 = LINE('',#188,#189);
#188 = CARTESIAN_POINT('',(404.,8.88E-15,40.));
#189 = VECTOR('',#190,1.);
#190 = DIRECTION('',(0.,1.,-2.2E-16));
#191 = ORIENTED_EDGE('',*,*,#192,.T.);
#192 = EDGE_CURVE('',#185,#193,#195,.T.);
#193 = VERTEX_POINT('',#194);
#194 = CARTESIAN_POINT('',(404.,508.,290.));
#195 = LINE('',#196,#197);
#196 = CARTESIAN_POINT('',(404.,508.,40.));
#197 = VECTOR('',#198,1.);
#198 = DIRECTION('',(0.,0.,1.));
#199 = ORIENTED_EDGE('',*,*,#200,.F.);
#200 = EDGE_CURVE('',#63,#193,#201,.T.);
#201 = LINE('',#202,#203);
#202 = CARTESIAN_POINT('',(404.,6.439E-14,290.));
#203 = VECTOR('',#204,1.);
#204 = DIRECTION('',(0.,1.,-2.2E-16));
#205 = PLANE('',#206);
#206 = AXIS2_PLACEMENT_3D('',#207,#208,#209);
#207 = CARTESIAN_POINT('',(404.,8.88E-15,40.));
#208 = DIRECTION('',(1.,0.,0.));
#209 = DIRECTION('',(0.,2.2E-16,1.));
#210 = ADVANCED_FACE('',(#211),#229,.F.);
#211 = FACE_BOUND('',#212,.F.);
#212 = EDGE_LOOP('',(#213,#214,#215,#223));
#213 = ORIENTED_EDGE('',*,*,#144,.T.);
#214 = ORIENTED_EDGE('',*,*,#39,.T.);
#215 = ORIENTED_EDGE('',*,*,#216,.F.);
#216 = EDGE_CURVE('',#217,#32,#219,.T.);
#217 = VERTEX_POINT('',#218);
#218 = CARTESIAN_POINT('',(407.,72.,80.));
#219 = LINE('',#220,#221);
#220 = CARTESIAN_POINT('',(407.,72.,40.));
#221 = VECTOR('',#222,1.);
#222 = DIRECTION('',(0.,0.,-1.));
#223 = ORIENTED_EDGE('',*,*,#224,.F.);
#224 = EDGE_CURVE('',#145,#217,#225,.T.);
#225 = LINE('',#226,#227);
#226 = CARTESIAN_POINT('',(0.,72.,80.));
#227 = VECTOR('',#228,1.);
#228 = DIRECTION('',(1.,0.,0.));
#229 = PLANE('',#230);
#230 = AXIS2_PLACEMENT_3D('',#231,#232,#233);
#231 = CARTESIAN_POINT('',(0.,72.,40.));
#232 = DIRECTION('',(0.,-1.,0.));
#233 = DIRECTION('',(0.,0.,1.));
#234 = ADVANCED_FACE('',(#235),#294,.T.);
#235 = FACE_BOUND('',#236,.T.);
#236 = EDGE_LOOP('',(#237,#238,#239,#240,#248,#256,#264,#272,#280,#288)
  );
#237 = ORIENTED_EDGE('',*,*,#128,.F.);
#238 = ORIENTED_EDGE('',*,*,#31,.T.);
#239 = ORIENTED_EDGE('',*,*,#216,.F.);
#240 = ORIENTED_EDGE('',*,*,#241,.F.);
#241 = EDGE_CURVE('',#242,#217,#244,.T.);
#242 = VERTEX_POINT('',#243);
#243 = CARTESIAN_POINT('',(407.,66.,86.));
#244 = LINE('',#245,#246);
#245 = CARTESIAN_POINT('',(407.,64.,88.));
#246 = VECTOR('',#247,1.);
#247 = DIRECTION('',(0.,0.707106781187,-0.707106781187));
#248 = ORIENTED_EDGE('',*,*,#249,.F.);
#249 = EDGE_CURVE('',#250,#242,#252,.T.);
#250 = VERTEX_POINT('',#251);
#251 = CARTESIAN_POINT('',(407.,66.,250.));
#252 = LINE('',#253,#254);
#253 = CARTESIAN_POINT('',(407.,66.,63.));
#254 = VECTOR('',#255,1.);
#255 = DIRECTION('',(0.,0.,-1.));
#256 = ORIENTED_EDGE('',*,*,#257,.F.);
#257 = EDGE_CURVE('',#258,#250,#260,.T.);
#258 = VERTEX_POINT('',#259);
#259 = CARTESIAN_POINT('',(407.,414.,250.));
#260 = LINE('',#261,#262);
#261 = CARTESIAN_POINT('',(407.,33.,250.));
#262 = VECTOR('',#263,1.);
#263 = DIRECTION('',(0.,-1.,0.));
#264 = ORIENTED_EDGE('',*,*,#265,.T.);
#265 = EDGE_CURVE('',#258,#266,#268,.T.);
#266 = VERTEX_POINT('',#267);
#267 = CARTESIAN_POINT('',(407.,414.,40.));
#268 = LINE('',#269,#270);
#269 = CARTESIAN_POINT('',(407.,414.,40.));
#270 = VECTOR('',#271,1.);
#271 = DIRECTION('',(0.,0.,-1.));
#272 = ORIENTED_EDGE('',*,*,#273,.T.);
#273 = EDGE_CURVE('',#266,#274,#276,.T.);
#274 = VERTEX_POINT('',#275);
#275 = CARTESIAN_POINT('',(407.,508.,40.));
#276 = LINE('',#277,#278);
#277 = CARTESIAN_POINT('',(407.,8.88E-15,40.));
#278 = VECTOR('',#279,1.);
#279 = DIRECTION('',(0.,1.,-2.2E-16));
#280 = ORIENTED_EDGE('',*,*,#281,.T.);
#281 = EDGE_CURVE('',#274,#282,#284,.T.);
#282 = VERTEX_POINT('',#283);
#283 = CARTESIAN_POINT('',(407.,508.,290.));
#284 = LINE('',#285,#286);
#285 = CARTESIAN_POINT('',(407.,508.,40.));
#286 = VECTOR('',#287,1.);
#287 = DIRECTION('',(0.,0.,1.));
#288 = ORIENTED_EDGE('',*,*,#289,.F.);
#289 = EDGE_CURVE('',#120,#282,#290,.T.);
#290 = LINE('',#291,#292);
#291 = CARTESIAN_POINT('',(407.,6.439E-14,290.));
#292 = VECTOR('',#293,1.);
#293 = DIRECTION('',(0.,1.,-2.2E-16));
#294 = PLANE('',#295);
#295 = AXIS2_PLACEMENT_3D('',#296,#297,#298);
#296 = CARTESIAN_POINT('',(407.,8.88E-15,40.));
#297 = DIRECTION('',(1.,0.,0.));
#298 = DIRECTION('',(0.,2.2E-16,1.));
#299 = ADVANCED_FACE('',(#300),#318,.T.);
#300 = FACE_BOUND('',#301,.T.);
#301 = EDGE_LOOP('',(#302,#310,#316,#317));
#302 = ORIENTED_EDGE('',*,*,#303,.T.);
#303 = EDGE_CURVE('',#71,#304,#306,.T.);
#304 = VERTEX_POINT('',#305);
#305 = CARTESIAN_POINT('',(6.000001,508.,290.));
#306 = LINE('',#307,#308);
#307 = CARTESIAN_POINT('',(6.000001,6.439E-14,290.));
#308 = VECTOR('',#309,1.);
#309 = DIRECTION('',(0.,1.,-2.2E-16));
#310 = ORIENTED_EDGE('',*,*,#311,.T.);
#311 = EDGE_CURVE('',#304,#193,#312,.T.);
#312 = LINE('',#313,#314);
#313 = CARTESIAN_POINT('',(6.000001,508.,290.));
#314 = VECTOR('',#315,1.);
#315 = DIRECTION('',(1.,0.,0.));
#316 = ORIENTED_EDGE('',*,*,#200,.F.);
#317 = ORIENTED_EDGE('',*,*,#70,.F.);
#318 = PLANE('',#319);
#319 = AXIS2_PLACEMENT_3D('',#320,#321,#322);
#320 = CARTESIAN_POINT('',(6.000001,6.439E-14,290.));
#321 = DIRECTION('',(0.,-2.2E-16,-1.));
#322 = DIRECTION('',(1.,0.,0.));
#323 = ADVANCED_FACE('',(#324),#390,.T.);
#324 = FACE_BOUND('',#325,.T.);
#325 = EDGE_LOOP('',(#326,#327,#335,#343,#351,#359,#367,#375,#383,#389)
  );
#326 = ORIENTED_EDGE('',*,*,#78,.F.);
#327 = ORIENTED_EDGE('',*,*,#328,.T.);
#328 = EDGE_CURVE('',#79,#329,#331,.T.);
#329 = VERTEX_POINT('',#330);
#330 = CARTESIAN_POINT('',(6.000001,72.,40.000000490192));
#331 = LINE('',#332,#333);
#332 = CARTESIAN_POINT('',(6.000001,8.88E-15,40.000000980385));
#333 = VECTOR('',#334,1.);
#334 = DIRECTION('',(0.,1.,-2.2E-16));
#335 = ORIENTED_EDGE('',*,*,#336,.F.);
#336 = EDGE_CURVE('',#337,#329,#339,.T.);
#337 = VERTEX_POINT('',#338);
#338 = CARTESIAN_POINT('',(6.000001,72.,80.));
#339 = LINE('',#340,#341);
#340 = CARTESIAN_POINT('',(6.000001,72.,40.000000490192));
#341 = VECTOR('',#342,1.);
#342 = DIRECTION('',(0.,0.,-1.));
#343 = ORIENTED_EDGE('',*,*,#344,.F.);
#344 = EDGE_CURVE('',#345,#337,#347,.T.);
#345 = VERTEX_POINT('',#346);
#346 = CARTESIAN_POINT('',(6.000001,66.,86.));
#347 = LINE('',#348,#349);
#348 = CARTESIAN_POINT('',(6.000001,63.999999754904,88.000000245096));
#349 = VECTOR('',#350,1.);
#350 = DIRECTION('',(0.,0.707106781187,-0.707106781187));
#351 = ORIENTED_EDGE('',*,*,#352,.F.);
#352 = EDGE_CURVE('',#353,#345,#355,.T.);
#353 = VERTEX_POINT('',#354);
#354 = CARTESIAN_POINT('',(6.000001,66.,250.));
#355 = LINE('',#356,#357);
#356 = CARTESIAN_POINT('',(6.000001,66.,63.000000490192));
#357 = VECTOR('',#358,1.);
#358 = DIRECTION('',(0.,0.,-1.));
#359 = ORIENTED_EDGE('',*,*,#360,.F.);
#360 = EDGE_CURVE('',#361,#353,#363,.T.);
#361 = VERTEX_POINT('',#362);
#362 = CARTESIAN_POINT('',(6.000001,414.,250.));
#363 = LINE('',#364,#365);
#364 = CARTESIAN_POINT('',(6.000001,33.,250.));
#365 = VECTOR('',#366,1.);
#366 = DIRECTION('',(0.,-1.,0.));
#367 = ORIENTED_EDGE('',*,*,#368,.T.);
#368 = EDGE_CURVE('',#361,#369,#371,.T.);
#369 = VERTEX_POINT('',#370);
#370 = CARTESIAN_POINT('',(6.000001,414.,40.000000490192));
#371 = LINE('',#372,#373);
#372 = CARTESIAN_POINT('',(6.000001,414.,40.000000490192));
#373 = VECTOR('',#374,1.);
#374 = DIRECTION('',(0.,0.,-1.));
#375 = ORIENTED_EDGE('',*,*,#376,.T.);
#376 = EDGE_CURVE('',#369,#377,#379,.T.);
#377 = VERTEX_POINT('',#378);
#378 = CARTESIAN_POINT('',(6.000001,508.,40.000000980384));
#379 = LINE('',#380,#381);
#380 = CARTESIAN_POINT('',(6.000001,8.88E-15,40.000000980385));
#381 = VECTOR('',#382,1.);
#382 = DIRECTION('',(0.,1.,-2.2E-16));
#383 = ORIENTED_EDGE('',*,*,#384,.T.);
#384 = EDGE_CURVE('',#377,#304,#385,.T.);
#385 = LINE('',#386,#387);
#386 = CARTESIAN_POINT('',(6.000001,508.,40.000000980384));
#387 = VECTOR('',#388,1.);
#388 = DIRECTION('',(0.,0.,1.));
#389 = ORIENTED_EDGE('',*,*,#303,.F.);
#390 = PLANE('',#391);
#391 = AXIS2_PLACEMENT_3D('',#392,#393,#394);
#392 = CARTESIAN_POINT('',(6.000001,8.88E-15,40.000000980385));
#393 = DIRECTION('',(1.,0.,0.));
#394 = DIRECTION('',(0.,2.2E-16,1.));
#395 = ADVANCED_FACE('',(#396),#414,.F.);
#396 = FACE_BOUND('',#397,.F.);
#397 = EDGE_LOOP('',(#398,#399,#400,#408));
#398 = ORIENTED_EDGE('',*,*,#86,.F.);
#399 = ORIENTED_EDGE('',*,*,#328,.T.);
#400 = ORIENTED_EDGE('',*,*,#401,.F.);
#401 = EDGE_CURVE('',#402,#329,#404,.T.);
#402 = VERTEX_POINT('',#403);
#403 = CARTESIAN_POINT('',(3.000001,72.,40.000000490192));
#404 = LINE('',#405,#406);
#405 = CARTESIAN_POINT('',(0.,72.,40.));
#406 = VECTOR('',#407,1.);
#407 = DIRECTION('',(1.,0.,0.));
#408 = ORIENTED_EDGE('',*,*,#409,.F.);
#409 = EDGE_CURVE('',#87,#402,#410,.T.);
#410 = LINE('',#411,#412);
#411 = CARTESIAN_POINT('',(3.000001,8.88E-15,40.000000980385));
#412 = VECTOR('',#413,1.);
#413 = DIRECTION('',(0.,1.,-2.2E-16));
#414 = PLANE('',#415);
#415 = AXIS2_PLACEMENT_3D('',#416,#417,#418);
#416 = CARTESIAN_POINT('',(6.000001,8.88E-15,40.000000980385));
#417 = DIRECTION('',(0.,2.2E-16,1.));
#418 = DIRECTION('',(-1.,0.,0.));
#419 = ADVANCED_FACE('',(#420),#486,.F.);
#420 = FACE_BOUND('',#421,.F.);
#421 = EDGE_LOOP('',(#422,#423,#424,#432,#440,#448,#456,#464,#472,#480)
  );
#422 = ORIENTED_EDGE('',*,*,#94,.F.);
#423 = ORIENTED_EDGE('',*,*,#409,.T.);
#424 = ORIENTED_EDGE('',*,*,#425,.F.);
#425 = EDGE_CURVE('',#426,#402,#428,.T.);
#426 = VERTEX_POINT('',#427);
#427 = CARTESIAN_POINT('',(3.000001,72.,80.));
#428 = LINE('',#429,#430);
#429 = CARTESIAN_POINT('',(3.000001,72.,40.000000490192));
#430 = VECTOR('',#431,1.);
#431 = DIRECTION('',(0.,0.,-1.));
#432 = ORIENTED_EDGE('',*,*,#433,.F.);
#433 = EDGE_CURVE('',#434,#426,#436,.T.);
#434 = VERTEX_POINT('',#435);
#435 = CARTESIAN_POINT('',(3.000001,66.,86.));
#436 = LINE('',#437,#438);
#437 = CARTESIAN_POINT('',(3.000001,63.999999754904,88.000000245096));
#438 = VECTOR('',#439,1.);
#439 = DIRECTION('',(0.,0.707106781187,-0.707106781187));
#440 = ORIENTED_EDGE('',*,*,#441,.F.);
#441 = EDGE_CURVE('',#442,#434,#444,.T.);
#442 = VERTEX_POINT('',#443);
#443 = CARTESIAN_POINT('',(3.000001,66.,250.));
#444 = LINE('',#445,#446);
#445 = CARTESIAN_POINT('',(3.000001,66.,63.000000490192));
#446 = VECTOR('',#447,1.);
#447 = DIRECTION('',(0.,0.,-1.));
#448 = ORIENTED_EDGE('',*,*,#449,.F.);
#449 = EDGE_CURVE('',#450,#442,#452,.T.);
#450 = VERTEX_POINT('',#451);
#451 = CARTESIAN_POINT('',(3.000001,414.,250.));
#452 = LINE('',#453,#454);
#453 = CARTESIAN_POINT('',(3.000001,33.,250.));
#454 = VECTOR('',#455,1.);
#455 = DIRECTION('',(0.,-1.,0.));
#456 = ORIENTED_EDGE('',*,*,#457,.T.);
#457 = EDGE_CURVE('',#450,#458,#460,.T.);
#458 = VERTEX_POINT('',#459);
#459 = CARTESIAN_POINT('',(3.000001,414.,40.000000490192));
#460 = LINE('',#461,#462);
#461 = CARTESIAN_POINT('',(3.000001,414.,40.000000490192));
#462 = VECTOR('',#463,1.);
#463 = DIRECTION('',(0.,0.,-1.));
#464 = ORIENTED_EDGE('',*,*,#465,.T.);
#465 = EDGE_CURVE('',#458,#466,#468,.T.);
#466 = VERTEX_POINT('',#467);
#467 = CARTESIAN_POINT('',(3.000001,508.,40.000000980384));
#468 = LINE('',#469,#470);
#469 = CARTESIAN_POINT('',(3.000001,8.88E-15,40.000000980385));
#470 = VECTOR('',#471,1.);
#471 = DIRECTION('',(0.,1.,-2.2E-16));
#472 = ORIENTED_EDGE('',*,*,#473,.T.);
#473 = EDGE_CURVE('',#466,#474,#476,.T.);
#474 = VERTEX_POINT('',#475);
#475 = CARTESIAN_POINT('',(3.000001,508.,290.00000098038));
#476 = LINE('',#477,#478);
#477 = CARTESIAN_POINT('',(3.000001,508.,40.000000980384));
#478 = VECTOR('',#479,1.);
#479 = DIRECTION('',(0.,0.,1.));
#480 = ORIENTED_EDGE('',*,*,#481,.F.);
#481 = EDGE_CURVE('',#95,#474,#482,.T.);
#482 = LINE('',#483,#484);
#483 = CARTESIAN_POINT('',(3.000001,6.439E-14,290.00000098038));
#484 = VECTOR('',#485,1.);
#485 = DIRECTION('',(0.,1.,-2.2E-16));
#486 = PLANE('',#487);
#487 = AXIS2_PLACEMENT_3D('',#488,#489,#490);
#488 = CARTESIAN_POINT('',(3.000001,8.88E-15,40.000000980385));
#489 = DIRECTION('',(1.,0.,0.));
#490 = DIRECTION('',(0.,2.2E-16,1.));
#491 = ADVANCED_FACE('',(#492),#511,.T.);
#492 = FACE_BOUND('',#493,.T.);
#493 = EDGE_LOOP('',(#494,#502,#509,#510));
#494 = ORIENTED_EDGE('',*,*,#495,.T.);
#495 = EDGE_CURVE('',#103,#496,#498,.T.);
#496 = VERTEX_POINT('',#497);
#497 = CARTESIAN_POINT('',(6.000001,508.,293.));
#498 = LINE('',#499,#500);
#499 = CARTESIAN_POINT('',(6.000001,6.506E-14,293.));
#500 = VECTOR('',#501,1.);
#501 = DIRECTION('',(0.,1.,-2.2E-16));
#502 = ORIENTED_EDGE('',*,*,#503,.T.);
#503 = EDGE_CURVE('',#496,#474,#504,.T.);
#504 = CIRCLE('',#505,3.);
#505 = AXIS2_PLACEMENT_3D('',#506,#507,#508);
#506 = CARTESIAN_POINT('',(6.000001,508.,290.));
#507 = DIRECTION('',(0.,-1.,0.));
#508 = DIRECTION('',(1.,0.,0.));
#509 = ORIENTED_EDGE('',*,*,#481,.F.);
#510 = ORIENTED_EDGE('',*,*,#102,.F.);
#511 = CYLINDRICAL_SURFACE('',#512,3.);
#512 = AXIS2_PLACEMENT_3D('',#513,#514,#515);
#513 = CARTESIAN_POINT('',(6.000001,6.439E-14,290.));
#514 = DIRECTION('',(0.,-1.,2.2E-16));
#515 = DIRECTION('',(1.,0.,0.));
#516 = ADVANCED_FACE('',(#517),#535,.T.);
#517 = FACE_BOUND('',#518,.T.);
#518 = EDGE_LOOP('',(#519,#527,#533,#534));
#519 = ORIENTED_EDGE('',*,*,#520,.T.);
#520 = EDGE_CURVE('',#112,#521,#523,.T.);
#521 = VERTEX_POINT('',#522);
#522 = CARTESIAN_POINT('',(404.00000098038,508.,293.));
#523 = LINE('',#524,#525);
#524 = CARTESIAN_POINT('',(404.00000098038,6.506E-14,293.));
#525 = VECTOR('',#526,1.);
#526 = DIRECTION('',(0.,1.,-2.2E-16));
#527 = ORIENTED_EDGE('',*,*,#528,.T.);
#528 = EDGE_CURVE('',#521,#496,#529,.T.);
#529 = LINE('',#530,#531);
#530 = CARTESIAN_POINT('',(404.00000098038,508.,293.));
#531 = VECTOR('',#532,1.);
#532 = DIRECTION('',(-1.,0.,0.));
#533 = ORIENTED_EDGE('',*,*,#495,.F.);
#534 = ORIENTED_EDGE('',*,*,#111,.F.);
#535 = PLANE('',#536);
#536 = AXIS2_PLACEMENT_3D('',#537,#538,#539);
#537 = CARTESIAN_POINT('',(404.00000098038,6.506E-14,293.));
#538 = DIRECTION('',(0.,2.2E-16,1.));
#539 = DIRECTION('',(-1.,0.,0.));
#540 = ADVANCED_FACE('',(#541),#553,.T.);
#541 = FACE_BOUND('',#542,.T.);
#542 = EDGE_LOOP('',(#543,#544,#551,#552));
#543 = ORIENTED_EDGE('',*,*,#289,.T.);
#544 = ORIENTED_EDGE('',*,*,#545,.T.);
#545 = EDGE_CURVE('',#282,#521,#546,.T.);
#546 = CIRCLE('',#547,3.);
#547 = AXIS2_PLACEMENT_3D('',#548,#549,#550);
#548 = CARTESIAN_POINT('',(404.,508.,290.));
#549 = DIRECTION('',(0.,-1.,0.));
#550 = DIRECTION('',(1.,0.,0.));
#551 = ORIENTED_EDGE('',*,*,#520,.F.);
#552 = ORIENTED_EDGE('',*,*,#119,.F.);
#553 = CYLINDRICAL_SURFACE('',#554,3.);
#554 = AXIS2_PLACEMENT_3D('',#555,#556,#557);
#555 = CARTESIAN_POINT('',(404.,6.439E-14,290.));
#556 = DIRECTION('',(0.,-1.,2.2E-16));
#557 = DIRECTION('',(1.,0.,0.));
#558 = ADVANCED_FACE('',(#559),#581,.T.);
#559 = FACE_BOUND('',#560,.T.);
#560 = EDGE_LOOP('',(#561,#567,#568,#569,#570,#576,#577,#578,#579,#580)
  );
#561 = ORIENTED_EDGE('',*,*,#562,.T.);
#562 = EDGE_CURVE('',#274,#185,#563,.T.);
#563 = LINE('',#564,#565);
#564 = CARTESIAN_POINT('',(407.,508.,40.));
#565 = VECTOR('',#566,1.);
#566 = DIRECTION('',(-1.,0.,0.));
#567 = ORIENTED_EDGE('',*,*,#192,.T.);
#568 = ORIENTED_EDGE('',*,*,#311,.F.);
#569 = ORIENTED_EDGE('',*,*,#384,.F.);
#570 = ORIENTED_EDGE('',*,*,#571,.T.);
#571 = EDGE_CURVE('',#377,#466,#572,.T.);
#572 = LINE('',#573,#574);
#573 = CARTESIAN_POINT('',(6.000001,508.,40.000000980384));
#574 = VECTOR('',#575,1.);
#575 = DIRECTION('',(-1.,0.,0.));
#576 = ORIENTED_EDGE('',*,*,#473,.T.);
#577 = ORIENTED_EDGE('',*,*,#503,.F.);
#578 = ORIENTED_EDGE('',*,*,#528,.F.);
#579 = ORIENTED_EDGE('',*,*,#545,.F.);
#580 = ORIENTED_EDGE('',*,*,#281,.F.);
#581 = PLANE('',#582);
#582 = AXIS2_PLACEMENT_3D('',#583,#584,#585);
#583 = CARTESIAN_POINT('',(205.00000071698,508.,220.83012000469));
#584 = DIRECTION('',(0.,1.,0.));
#585 = DIRECTION('',(0.,0.,1.));
#586 = ADVANCED_FACE('',(#587),#598,.F.);
#587 = FACE_BOUND('',#588,.F.);
#588 = EDGE_LOOP('',(#589,#595,#596,#597));
#589 = ORIENTED_EDGE('',*,*,#590,.T.);
#590 = EDGE_CURVE('',#177,#266,#591,.T.);
#591 = LINE('',#592,#593);
#592 = CARTESIAN_POINT('',(0.,414.,40.));
#593 = VECTOR('',#594,1.);
#594 = DIRECTION('',(1.,0.,0.));
#595 = ORIENTED_EDGE('',*,*,#273,.T.);
#596 = ORIENTED_EDGE('',*,*,#562,.T.);
#597 = ORIENTED_EDGE('',*,*,#184,.F.);
#598 = PLANE('',#599);
#599 = AXIS2_PLACEMENT_3D('',#600,#601,#602);
#600 = CARTESIAN_POINT('',(407.,8.88E-15,40.));
#601 = DIRECTION('',(0.,2.2E-16,1.));
#602 = DIRECTION('',(-1.,0.,0.));
#603 = ADVANCED_FACE('',(#604),#615,.T.);
#604 = FACE_BOUND('',#605,.T.);
#605 = EDGE_LOOP('',(#606,#607,#608,#609));
#606 = ORIENTED_EDGE('',*,*,#176,.T.);
#607 = ORIENTED_EDGE('',*,*,#590,.T.);
#608 = ORIENTED_EDGE('',*,*,#265,.F.);
#609 = ORIENTED_EDGE('',*,*,#610,.F.);
#610 = EDGE_CURVE('',#169,#258,#611,.T.);
#611 = LINE('',#612,#613);
#612 = CARTESIAN_POINT('',(0.,414.,250.));
#613 = VECTOR('',#614,1.);
#614 = DIRECTION('',(1.,0.,0.));
#615 = PLANE('',#616);
#616 = AXIS2_PLACEMENT_3D('',#617,#618,#619);
#617 = CARTESIAN_POINT('',(0.,414.,40.));
#618 = DIRECTION('',(0.,-1.,0.));
#619 = DIRECTION('',(0.,0.,1.));
#620 = ADVANCED_FACE('',(#621),#632,.F.);
#621 = FACE_BOUND('',#622,.F.);
#622 = EDGE_LOOP('',(#623,#624,#630,#631));
#623 = ORIENTED_EDGE('',*,*,#168,.T.);
#624 = ORIENTED_EDGE('',*,*,#625,.T.);
#625 = EDGE_CURVE('',#161,#250,#626,.T.);
#626 = LINE('',#627,#628);
#627 = CARTESIAN_POINT('',(0.,66.,250.));
#628 = VECTOR('',#629,1.);
#629 = DIRECTION('',(1.,0.,0.));
#630 = ORIENTED_EDGE('',*,*,#257,.F.);
#631 = ORIENTED_EDGE('',*,*,#610,.F.);
#632 = PLANE('',#633);
#633 = AXIS2_PLACEMENT_3D('',#634,#635,#636);
#634 = CARTESIAN_POINT('',(0.,66.,250.));
#635 = DIRECTION('',(0.,0.,1.));
#636 = DIRECTION('',(0.,1.,0.));
#637 = ADVANCED_FACE('',(#638),#649,.F.);
#638 = FACE_BOUND('',#639,.F.);
#639 = EDGE_LOOP('',(#640,#641,#647,#648));
#640 = ORIENTED_EDGE('',*,*,#160,.T.);
#641 = ORIENTED_EDGE('',*,*,#642,.T.);
#642 = EDGE_CURVE('',#153,#242,#643,.T.);
#643 = LINE('',#644,#645);
#644 = CARTESIAN_POINT('',(0.,66.,86.));
#645 = VECTOR('',#646,1.);
#646 = DIRECTION('',(1.,0.,0.));
#647 = ORIENTED_EDGE('',*,*,#249,.F.);
#648 = ORIENTED_EDGE('',*,*,#625,.F.);
#649 = PLANE('',#650);
#650 = AXIS2_PLACEMENT_3D('',#651,#652,#653);
#651 = CARTESIAN_POINT('',(0.,66.,86.));
#652 = DIRECTION('',(0.,-1.,0.));
#653 = DIRECTION('',(0.,0.,1.));
#654 = ADVANCED_FACE('',(#655),#661,.F.);
#655 = FACE_BOUND('',#656,.F.);
#656 = EDGE_LOOP('',(#657,#658,#659,#660));
#657 = ORIENTED_EDGE('',*,*,#152,.T.);
#658 = ORIENTED_EDGE('',*,*,#224,.T.);
#659 = ORIENTED_EDGE('',*,*,#241,.F.);
#660 = ORIENTED_EDGE('',*,*,#642,.F.);
#661 = PLANE('',#662);
#662 = AXIS2_PLACEMENT_3D('',#663,#664,#665);
#663 = CARTESIAN_POINT('',(0.,72.,80.));
#664 = DIRECTION('',(0.,-0.707106781187,-0.707106781187));
#665 = DIRECTION('',(0.,-0.707106781187,0.707106781187));
#666 = ADVANCED_FACE('',(#667),#678,.F.);
#667 = FACE_BOUND('',#668,.F.);
#668 = EDGE_LOOP('',(#669,#675,#676,#677));
#669 = ORIENTED_EDGE('',*,*,#670,.T.);
#670 = EDGE_CURVE('',#458,#369,#671,.T.);
#671 = LINE('',#672,#673);
#672 = CARTESIAN_POINT('',(0.,414.,40.));
#673 = VECTOR('',#674,1.);
#674 = DIRECTION('',(1.,0.,0.));
#675 = ORIENTED_EDGE('',*,*,#376,.T.);
#676 = ORIENTED_EDGE('',*,*,#571,.T.);
#677 = ORIENTED_EDGE('',*,*,#465,.F.);
#678 = PLANE('',#679);
#679 = AXIS2_PLACEMENT_3D('',#680,#681,#682);
#680 = CARTESIAN_POINT('',(6.000001,8.88E-15,40.000000980385));
#681 = DIRECTION('',(0.,2.2E-16,1.));
#682 = DIRECTION('',(-1.,0.,0.));
#683 = ADVANCED_FACE('',(#684),#695,.T.);
#684 = FACE_BOUND('',#685,.T.);
#685 = EDGE_LOOP('',(#686,#687,#688,#689));
#686 = ORIENTED_EDGE('',*,*,#457,.T.);
#687 = ORIENTED_EDGE('',*,*,#670,.T.);
#688 = ORIENTED_EDGE('',*,*,#368,.F.);
#689 = ORIENTED_EDGE('',*,*,#690,.F.);
#690 = EDGE_CURVE('',#450,#361,#691,.T.);
#691 = LINE('',#692,#693);
#692 = CARTESIAN_POINT('',(0.,414.,250.));
#693 = VECTOR('',#694,1.);
#694 = DIRECTION('',(1.,0.,0.));
#695 = PLANE('',#696);
#696 = AXIS2_PLACEMENT_3D('',#697,#698,#699);
#697 = CARTESIAN_POINT('',(0.,414.,40.));
#698 = DIRECTION('',(0.,-1.,0.));
#699 = DIRECTION('',(0.,0.,1.));
#700 = ADVANCED_FACE('',(#701),#712,.F.);
#701 = FACE_BOUND('',#702,.F.);
#702 = EDGE_LOOP('',(#703,#704,#710,#711));
#703 = ORIENTED_EDGE('',*,*,#449,.T.);
#704 = ORIENTED_EDGE('',*,*,#705,.T.);
#705 = EDGE_CURVE('',#442,#353,#706,.T.);
#706 = LINE('',#707,#708);
#707 = CARTESIAN_POINT('',(0.,66.,250.));
#708 = VECTOR('',#709,1.);
#709 = DIRECTION('',(1.,0.,0.));
#710 = ORIENTED_EDGE('',*,*,#360,.F.);
#711 = ORIENTED_EDGE('',*,*,#690,.F.);
#712 = PLANE('',#713);
#713 = AXIS2_PLACEMENT_3D('',#714,#715,#716);
#714 = CARTESIAN_POINT('',(0.,66.,250.));
#715 = DIRECTION('',(0.,0.,1.));
#716 = DIRECTION('',(0.,1.,0.));
#717 = ADVANCED_FACE('',(#718),#729,.F.);
#718 = FACE_BOUND('',#719,.F.);
#719 = EDGE_LOOP('',(#720,#721,#727,#728));
#720 = ORIENTED_EDGE('',*,*,#441,.T.);
#721 = ORIENTED_EDGE('',*,*,#722,.T.);
#722 = EDGE_CURVE('',#434,#345,#723,.T.);
#723 = LINE('',#724,#725);
#724 = CARTESIAN_POINT('',(0.,66.,86.));
#725 = VECTOR('',#726,1.);
#726 = DIRECTION('',(1.,0.,0.));
#727 = ORIENTED_EDGE('',*,*,#352,.F.);
#728 = ORIENTED_EDGE('',*,*,#705,.F.);
#729 = PLANE('',#730);
#730 = AXIS2_PLACEMENT_3D('',#731,#732,#733);
#731 = CARTESIAN_POINT('',(0.,66.,86.));
#732 = DIRECTION('',(0.,-1.,0.));
#733 = DIRECTION('',(0.,0.,1.));
#734 = ADVANCED_FACE('',(#735),#746,.F.);
#735 = FACE_BOUND('',#736,.F.);
#736 = EDGE_LOOP('',(#737,#738,#744,#745));
#737 = ORIENTED_EDGE('',*,*,#433,.T.);
#738 = ORIENTED_EDGE('',*,*,#739,.T.);
#739 = EDGE_CURVE('',#426,#337,#740,.T.);
#740 = LINE('',#741,#742);
#741 = CARTESIAN_POINT('',(0.,72.,80.));
#742 = VECTOR('',#743,1.);
#743 = DIRECTION('',(1.,0.,0.));
#744 = ORIENTED_EDGE('',*,*,#344,.F.);
#745 = ORIENTED_EDGE('',*,*,#722,.F.);
#746 = PLANE('',#747);
#747 = AXIS2_PLACEMENT_3D('',#748,#749,#750);
#748 = CARTESIAN_POINT('',(0.,72.,80.));
#749 = DIRECTION('',(0.,-0.707106781187,-0.707106781187));
#750 = DIRECTION('',(0.,-0.707106781187,0.707106781187));
#751 = ADVANCED_FACE('',(#752),#758,.F.);
#752 = FACE_BOUND('',#753,.F.);
#753 = EDGE_LOOP('',(#754,#755,#756,#757));
#754 = ORIENTED_EDGE('',*,*,#425,.T.);
#755 = ORIENTED_EDGE('',*,*,#401,.T.);
#756 = ORIENTED_EDGE('',*,*,#336,.F.);
#757 = ORIENTED_EDGE('',*,*,#739,.F.);
#758 = PLANE('',#759);
#759 = AXIS2_PLACEMENT_3D('',#760,#761,#762);
#760 = CARTESIAN_POINT('',(0.,72.,40.));
#761 = DIRECTION('',(0.,-1.,0.));
#762 = DIRECTION('',(0.,0.,1.));
#763 = ( GEOMETRIC_REPRESENTATION_CONTEXT(3) 
GLOBAL_UNCERTAINTY_ASSIGNED_CONTEXT((#767)) GLOBAL_UNIT_ASSIGNED_CONTEXT
((#764,#765,#766)) REPRESENTATION_CONTEXT('Context #1',
  '3D Context with UNIT and UNCERTAINTY') );
#764 = ( LENGTH_UNIT() NAMED_UNIT(*) SI_UNIT(.MILLI.,.METRE.) );
#765 = ( NAMED_UNIT(*) PLANE_ANGLE_UNIT() SI_UNIT($,.RADIAN.) );
#766 = ( NAMED_UNIT(*) SI_UNIT($,.STERADIAN.) SOLID_ANGLE_UNIT() );
#767 = UNCERTAINTY_MEASURE_WITH_UNIT(LENGTH_MEASURE(2.E-04),#764,
  'distance_accuracy_value','confusion accuracy');
#768 = PRODUCT_RELATED_PRODUCT_CATEGORY('part',$,(#7));
ENDSEC;
END-ISO-10303-21;
