ISO-10303-21;
HEADER;
FILE_DESCRIPTION(('FreeCAD Model'),'2;1');
FILE_NAME('Open CASCADE Shape Model','2026-09-05T02:34:01',(''),(''),
  'Open CASCADE STEP processor 7.8','FreeCAD','Unknown');
FILE_SCHEMA(('AUTOMOTIVE_DESIGN { 1 0 10303 214 1 1 1 1 }'));
ENDSEC;
DATA;
#1 = APPLICATION_PROTOCOL_DEFINITION('international standard',
  'automotive_design',2000,#2);
#2 = APPLICATION_CONTEXT(
  'core data for automotive mechanical design processes');
#3 = SHAPE_DEFINITION_REPRESENTATION(#4,#10);
#4 = PRODUCT_DEFINITION_SHAPE('','',#5);
#5 = PRODUCT_DEFINITION('design','',#6,#9);
#6 = PRODUCT_DEFINITION_FORMATION('','',#7);
#7 = PRODUCT('HW-C3-DCLBB-N-A','HW-C3-DCLBB-N-A','',(#8));
#8 = PRODUCT_CONTEXT('',#2,'mechanical');
#9 = PRODUCT_DEFINITION_CONTEXT('part definition',#2,'design');
#10 = ADVANCED_BREP_SHAPE_REPRESENTATION('',(#11,#15),#2465);
#11 = AXIS2_PLACEMENT_3D('',#12,#13,#14);
#12 = CARTESIAN_POINT('',(0.,0.,0.));
#13 = DIRECTION('',(0.,0.,1.));
#14 = DIRECTION('',(1.,0.,-0.));
#15 = MANIFOLD_SOLID_BREP('',#16);
#16 = CLOSED_SHELL('',(#17,#527,#558,#583,#607,#631,#655,#680,#705,#729,
    #753,#777,#802,#826,#850,#874,#898,#947,#971,#1089,#1114,#1163,#1187
    ,#1211,#1236,#1260,#1284,#1308,#1332,#1349,#1374,#1399,#1424,#1456,
    #1480,#1504,#1529,#1554,#1578,#1602,#1620,#1645,#1677,#1701,#1725,
    #1750,#1775,#1799,#1823,#1841,#1866,#1891,#1916,#1941,#1966,#1991,
    #2016,#2041,#2138,#2254,#2266,#2283,#2305,#2317,#2334,#2351,#2368,
    #2385,#2402,#2419,#2431,#2448));
#17 = ADVANCED_FACE('',(#18,#250,#261,#272,#283,#353,#364,#434,#445,#456
    ,#467,#478,#489,#500,#511),#522,.T.);
#18 = FACE_BOUND('',#19,.T.);
#19 = EDGE_LOOP('',(#20,#30,#39,#47,#56,#64,#72,#80,#88,#96,#104,#112,
    #120,#128,#136,#144,#152,#160,#169,#177,#186,#194,#202,#210,#219,
    #227,#236,#244));
#20 = ORIENTED_EDGE('',*,*,#21,.F.);
#21 = EDGE_CURVE('',#22,#24,#26,.T.);
#22 = VERTEX_POINT('',#23);
#23 = CARTESIAN_POINT('',(60.,183.,0.));
#24 = VERTEX_POINT('',#25);
#25 = CARTESIAN_POINT('',(60.,40.,0.));
#26 = LINE('',#27,#28);
#27 = CARTESIAN_POINT('',(60.,170.,0.));
#28 = VECTOR('',#29,1.);
#29 = DIRECTION('',(0.,-1.,0.));
#30 = ORIENTED_EDGE('',*,*,#31,.T.);
#31 = EDGE_CURVE('',#22,#32,#34,.T.);
#32 = VERTEX_POINT('',#33);
#33 = CARTESIAN_POINT('',(57.,186.,0.));
#34 = CIRCLE('',#35,3.);
#35 = AXIS2_PLACEMENT_3D('',#36,#37,#38);
#36 = CARTESIAN_POINT('',(57.,183.,0.));
#37 = DIRECTION('',(0.,0.,1.));
#38 = DIRECTION('',(1.,0.,0.));
#39 = ORIENTED_EDGE('',*,*,#40,.T.);
#40 = EDGE_CURVE('',#32,#41,#43,.T.);
#41 = VERTEX_POINT('',#42);
#42 = CARTESIAN_POINT('',(20.,186.,0.));
#43 = LINE('',#44,#45);
#44 = CARTESIAN_POINT('',(57.,186.,0.));
#45 = VECTOR('',#46,1.);
#46 = DIRECTION('',(-1.,0.,0.));
#47 = ORIENTED_EDGE('',*,*,#48,.T.);
#48 = EDGE_CURVE('',#41,#49,#51,.T.);
#49 = VERTEX_POINT('',#50);
#50 = CARTESIAN_POINT('',(17.,183.,0.));
#51 = CIRCLE('',#52,3.);
#52 = AXIS2_PLACEMENT_3D('',#53,#54,#55);
#53 = CARTESIAN_POINT('',(20.,183.,0.));
#54 = DIRECTION('',(0.,0.,1.));
#55 = DIRECTION('',(1.,0.,0.));
#56 = ORIENTED_EDGE('',*,*,#57,.T.);
#57 = EDGE_CURVE('',#49,#58,#60,.T.);
#58 = VERTEX_POINT('',#59);
#59 = CARTESIAN_POINT('',(17.,170.,0.));
#60 = LINE('',#61,#62);
#61 = CARTESIAN_POINT('',(17.,183.,0.));
#62 = VECTOR('',#63,1.);
#63 = DIRECTION('',(0.,-1.,0.));
#64 = ORIENTED_EDGE('',*,*,#65,.T.);
#65 = EDGE_CURVE('',#58,#66,#68,.T.);
#66 = VERTEX_POINT('',#67);
#67 = CARTESIAN_POINT('',(5.,170.,0.));
#68 = LINE('',#69,#70);
#69 = CARTESIAN_POINT('',(60.,170.,0.));
#70 = VECTOR('',#71,1.);
#71 = DIRECTION('',(-1.,0.,0.));
#72 = ORIENTED_EDGE('',*,*,#73,.T.);
#73 = EDGE_CURVE('',#66,#74,#76,.T.);
#74 = VERTEX_POINT('',#75);
#75 = CARTESIAN_POINT('',(5.,270.,0.));
#76 = LINE('',#77,#78);
#77 = CARTESIAN_POINT('',(5.,170.,0.));
#78 = VECTOR('',#79,1.);
#79 = DIRECTION('',(0.,1.,0.));
#80 = ORIENTED_EDGE('',*,*,#81,.T.);
#81 = EDGE_CURVE('',#74,#82,#84,.T.);
#82 = VERTEX_POINT('',#83);
#83 = CARTESIAN_POINT('',(130.,270.,0.));
#84 = LINE('',#85,#86);
#85 = CARTESIAN_POINT('',(203.05487700188,270.,0.));
#86 = VECTOR('',#87,1.);
#87 = DIRECTION('',(1.,0.,0.));
#88 = ORIENTED_EDGE('',*,*,#89,.T.);
#89 = EDGE_CURVE('',#82,#90,#92,.T.);
#90 = VERTEX_POINT('',#91);
#91 = CARTESIAN_POINT('',(130.,315.,0.));
#92 = LINE('',#93,#94);
#93 = CARTESIAN_POINT('',(130.,251.8477443609,0.));
#94 = VECTOR('',#95,1.);
#95 = DIRECTION('',(0.,1.,0.));
#96 = ORIENTED_EDGE('',*,*,#97,.T.);
#97 = EDGE_CURVE('',#90,#98,#100,.T.);
#98 = VERTEX_POINT('',#99);
#99 = CARTESIAN_POINT('',(329.,315.,0.));
#100 = LINE('',#101,#102);
#101 = CARTESIAN_POINT('',(0.,315.,0.));
#102 = VECTOR('',#103,1.);
#103 = DIRECTION('',(1.,0.,0.));
#104 = ORIENTED_EDGE('',*,*,#105,.F.);
#105 = EDGE_CURVE('',#106,#98,#108,.T.);
#106 = VERTEX_POINT('',#107);
#107 = CARTESIAN_POINT('',(329.,270.,0.));
#108 = LINE('',#109,#110);
#109 = CARTESIAN_POINT('',(329.,251.8477443609,0.));
#110 = VECTOR('',#111,1.);
#111 = DIRECTION('',(0.,1.,0.));
#112 = ORIENTED_EDGE('',*,*,#113,.T.);
#113 = EDGE_CURVE('',#106,#114,#116,.T.);
#114 = VERTEX_POINT('',#115);
#115 = CARTESIAN_POINT('',(390.,270.,0.));
#116 = LINE('',#117,#118);
#117 = CARTESIAN_POINT('',(203.05487700188,270.,0.));
#118 = VECTOR('',#119,1.);
#119 = DIRECTION('',(1.,0.,0.));
#120 = ORIENTED_EDGE('',*,*,#121,.F.);
#121 = EDGE_CURVE('',#122,#114,#124,.T.);
#122 = VERTEX_POINT('',#123);
#123 = CARTESIAN_POINT('',(390.,170.,0.));
#124 = LINE('',#125,#126);
#125 = CARTESIAN_POINT('',(390.,270.,0.));
#126 = VECTOR('',#127,1.);
#127 = DIRECTION('',(0.,1.,0.));
#128 = ORIENTED_EDGE('',*,*,#129,.F.);
#129 = EDGE_CURVE('',#130,#122,#132,.T.);
#130 = VERTEX_POINT('',#131);
#131 = CARTESIAN_POINT('',(370.,170.,0.));
#132 = LINE('',#133,#134);
#133 = CARTESIAN_POINT('',(370.,170.,0.));
#134 = VECTOR('',#135,1.);
#135 = DIRECTION('',(1.,0.,0.));
#136 = ORIENTED_EDGE('',*,*,#137,.F.);
#137 = EDGE_CURVE('',#138,#130,#140,.T.);
#138 = VERTEX_POINT('',#139);
#139 = CARTESIAN_POINT('',(370.,40.,0.));
#140 = LINE('',#141,#142);
#141 = CARTESIAN_POINT('',(370.,40.,0.));
#142 = VECTOR('',#143,1.);
#143 = DIRECTION('',(0.,1.,0.));
#144 = ORIENTED_EDGE('',*,*,#145,.F.);
#145 = EDGE_CURVE('',#146,#138,#148,.T.);
#146 = VERTEX_POINT('',#147);
#147 = CARTESIAN_POINT('',(295.00000005884,40.,0.));
#148 = LINE('',#149,#150);
#149 = CARTESIAN_POINT('',(60.,40.,0.));
#150 = VECTOR('',#151,1.);
#151 = DIRECTION('',(1.,0.,0.));
#152 = ORIENTED_EDGE('',*,*,#153,.T.);
#153 = EDGE_CURVE('',#146,#154,#156,.T.);
#154 = VERTEX_POINT('',#155);
#155 = CARTESIAN_POINT('',(295.00000005884,80.999998960769,0.));
#156 = LINE('',#157,#158);
#157 = CARTESIAN_POINT('',(295.00000005884,37.,0.));
#158 = VECTOR('',#159,1.);
#159 = DIRECTION('',(0.,1.,0.));
#160 = ORIENTED_EDGE('',*,*,#161,.T.);
#161 = EDGE_CURVE('',#154,#162,#164,.T.);
#162 = VERTEX_POINT('',#163);
#163 = CARTESIAN_POINT('',(292.00000005884,83.999998960769,0.));
#164 = CIRCLE('',#165,3.);
#165 = AXIS2_PLACEMENT_3D('',#166,#167,#168);
#166 = CARTESIAN_POINT('',(292.00000005884,80.999998960769,0.));
#167 = DIRECTION('',(0.,0.,1.));
#168 = DIRECTION('',(1.,0.,0.));
#169 = ORIENTED_EDGE('',*,*,#170,.T.);
#170 = EDGE_CURVE('',#162,#171,#173,.T.);
#171 = VERTEX_POINT('',#172);
#172 = CARTESIAN_POINT('',(254.,83.999998960769,0.));
#173 = LINE('',#174,#175);
#174 = CARTESIAN_POINT('',(292.00000005884,83.999998960769,0.));
#175 = VECTOR('',#176,1.);
#176 = DIRECTION('',(-1.,0.,0.));
#177 = ORIENTED_EDGE('',*,*,#178,.T.);
#178 = EDGE_CURVE('',#171,#179,#181,.T.);
#179 = VERTEX_POINT('',#180);
#180 = CARTESIAN_POINT('',(251.,80.999998960769,0.));
#181 = CIRCLE('',#182,3.);
#182 = AXIS2_PLACEMENT_3D('',#183,#184,#185);
#183 = CARTESIAN_POINT('',(254.,80.999998960769,0.));
#184 = DIRECTION('',(0.,0.,1.));
#185 = DIRECTION('',(1.,0.,0.));
#186 = ORIENTED_EDGE('',*,*,#187,.T.);
#187 = EDGE_CURVE('',#179,#188,#190,.T.);
#188 = VERTEX_POINT('',#189);
#189 = CARTESIAN_POINT('',(251.,40.,0.));
#190 = LINE('',#191,#192);
#191 = CARTESIAN_POINT('',(251.,80.999998960769,0.));
#192 = VECTOR('',#193,1.);
#193 = DIRECTION('',(0.,-1.,0.));
#194 = ORIENTED_EDGE('',*,*,#195,.F.);
#195 = EDGE_CURVE('',#196,#188,#198,.T.);
#196 = VERTEX_POINT('',#197);
#197 = CARTESIAN_POINT('',(179.,40.,0.));
#198 = LINE('',#199,#200);
#199 = CARTESIAN_POINT('',(60.,40.,0.));
#200 = VECTOR('',#201,1.);
#201 = DIRECTION('',(1.,0.,0.));
#202 = ORIENTED_EDGE('',*,*,#203,.T.);
#203 = EDGE_CURVE('',#196,#204,#206,.T.);
#204 = VERTEX_POINT('',#205);
#205 = CARTESIAN_POINT('',(179.,81.,0.));
#206 = LINE('',#207,#208);
#207 = CARTESIAN_POINT('',(179.,37.,0.));
#208 = VECTOR('',#209,1.);
#209 = DIRECTION('',(0.,1.,0.));
#210 = ORIENTED_EDGE('',*,*,#211,.T.);
#211 = EDGE_CURVE('',#204,#212,#214,.T.);
#212 = VERTEX_POINT('',#213);
#213 = CARTESIAN_POINT('',(176.,84.,0.));
#214 = CIRCLE('',#215,3.);
#215 = AXIS2_PLACEMENT_3D('',#216,#217,#218);
#216 = CARTESIAN_POINT('',(176.,81.,0.));
#217 = DIRECTION('',(0.,0.,1.));
#218 = DIRECTION('',(1.,0.,0.));
#219 = ORIENTED_EDGE('',*,*,#220,.T.);
#220 = EDGE_CURVE('',#212,#221,#223,.T.);
#221 = VERTEX_POINT('',#222);
#222 = CARTESIAN_POINT('',(138.,84.,0.));
#223 = LINE('',#224,#225);
#224 = CARTESIAN_POINT('',(176.,84.,0.));
#225 = VECTOR('',#226,1.);
#226 = DIRECTION('',(-1.,0.,0.));
#227 = ORIENTED_EDGE('',*,*,#228,.T.);
#228 = EDGE_CURVE('',#221,#229,#231,.T.);
#229 = VERTEX_POINT('',#230);
#230 = CARTESIAN_POINT('',(135.,81.,0.));
#231 = CIRCLE('',#232,3.);
#232 = AXIS2_PLACEMENT_3D('',#233,#234,#235);
#233 = CARTESIAN_POINT('',(138.,81.,0.));
#234 = DIRECTION('',(0.,0.,1.));
#235 = DIRECTION('',(1.,0.,0.));
#236 = ORIENTED_EDGE('',*,*,#237,.T.);
#237 = EDGE_CURVE('',#229,#238,#240,.T.);
#238 = VERTEX_POINT('',#239);
#239 = CARTESIAN_POINT('',(135.,40.,0.));
#240 = LINE('',#241,#242);
#241 = CARTESIAN_POINT('',(135.,81.,0.));
#242 = VECTOR('',#243,1.);
#243 = DIRECTION('',(0.,-1.,0.));
#244 = ORIENTED_EDGE('',*,*,#245,.F.);
#245 = EDGE_CURVE('',#24,#238,#246,.T.);
#246 = LINE('',#247,#248);
#247 = CARTESIAN_POINT('',(60.,40.,0.));
#248 = VECTOR('',#249,1.);
#249 = DIRECTION('',(1.,0.,0.));
#250 = FACE_BOUND('',#251,.T.);
#251 = EDGE_LOOP('',(#252));
#252 = ORIENTED_EDGE('',*,*,#253,.F.);
#253 = EDGE_CURVE('',#254,#254,#256,.T.);
#254 = VERTEX_POINT('',#255);
#255 = CARTESIAN_POINT('',(347.200005,109.000002,0.));
#256 = CIRCLE('',#257,3.3);
#257 = AXIS2_PLACEMENT_3D('',#258,#259,#260);
#258 = CARTESIAN_POINT('',(350.500005,109.000002,0.));
#259 = DIRECTION('',(0.,0.,-1.));
#260 = DIRECTION('',(-1.,0.,0.));
#261 = FACE_BOUND('',#262,.T.);
#262 = EDGE_LOOP('',(#263));
#263 = ORIENTED_EDGE('',*,*,#264,.F.);
#264 = EDGE_CURVE('',#265,#265,#267,.T.);
#265 = VERTEX_POINT('',#266);
#266 = CARTESIAN_POINT('',(230.200003,109.000002,0.));
#267 = CIRCLE('',#268,3.3);
#268 = AXIS2_PLACEMENT_3D('',#269,#270,#271);
#269 = CARTESIAN_POINT('',(233.500003,109.000002,0.));
#270 = DIRECTION('',(0.,0.,-1.));
#271 = DIRECTION('',(-1.,0.,0.));
#272 = FACE_BOUND('',#273,.T.);
#273 = EDGE_LOOP('',(#274));
#274 = ORIENTED_EDGE('',*,*,#275,.F.);
#275 = EDGE_CURVE('',#276,#276,#278,.T.);
#276 = VERTEX_POINT('',#277);
#277 = CARTESIAN_POINT('',(382.25,180.,0.));
#278 = CIRCLE('',#279,2.75);
#279 = AXIS2_PLACEMENT_3D('',#280,#281,#282);
#280 = CARTESIAN_POINT('',(385.,180.,0.));
#281 = DIRECTION('',(0.,0.,-1.));
#282 = DIRECTION('',(-1.,0.,0.));
#283 = FACE_BOUND('',#284,.T.);
#284 = EDGE_LOOP('',(#285,#296,#304,#313,#321,#330,#338,#347));
#285 = ORIENTED_EDGE('',*,*,#286,.T.);
#286 = EDGE_CURVE('',#287,#289,#291,.T.);
#287 = VERTEX_POINT('',#288);
#288 = CARTESIAN_POINT('',(254.,186.,0.));
#289 = VERTEX_POINT('',#290);
#290 = CARTESIAN_POINT('',(251.,183.,0.));
#291 = CIRCLE('',#292,3.);
#292 = AXIS2_PLACEMENT_3D('',#293,#294,#295);
#293 = CARTESIAN_POINT('',(254.,183.,0.));
#294 = DIRECTION('',(0.,0.,1.));
#295 = DIRECTION('',(1.,0.,0.));
#296 = ORIENTED_EDGE('',*,*,#297,.T.);
#297 = EDGE_CURVE('',#289,#298,#300,.T.);
#298 = VERTEX_POINT('',#299);
#299 = CARTESIAN_POINT('',(251.,139.,0.));
#300 = LINE('',#301,#302);
#301 = CARTESIAN_POINT('',(251.,183.,0.));
#302 = VECTOR('',#303,1.);
#303 = DIRECTION('',(0.,-1.,0.));
#304 = ORIENTED_EDGE('',*,*,#305,.T.);
#305 = EDGE_CURVE('',#298,#306,#308,.T.);
#306 = VERTEX_POINT('',#307);
#307 = CARTESIAN_POINT('',(254.,136.,0.));
#308 = CIRCLE('',#309,3.);
#309 = AXIS2_PLACEMENT_3D('',#310,#311,#312);
#310 = CARTESIAN_POINT('',(254.,139.,0.));
#311 = DIRECTION('',(0.,0.,1.));
#312 = DIRECTION('',(1.,0.,0.));
#313 = ORIENTED_EDGE('',*,*,#314,.T.);
#314 = EDGE_CURVE('',#306,#315,#317,.T.);
#315 = VERTEX_POINT('',#316);
#316 = CARTESIAN_POINT('',(292.,136.,0.));
#317 = LINE('',#318,#319);
#318 = CARTESIAN_POINT('',(254.,136.,0.));
#319 = VECTOR('',#320,1.);
#320 = DIRECTION('',(1.,0.,0.));
#321 = ORIENTED_EDGE('',*,*,#322,.T.);
#322 = EDGE_CURVE('',#315,#323,#325,.T.);
#323 = VERTEX_POINT('',#324);
#324 = CARTESIAN_POINT('',(295.,139.,0.));
#325 = CIRCLE('',#326,3.);
#326 = AXIS2_PLACEMENT_3D('',#327,#328,#329);
#327 = CARTESIAN_POINT('',(292.,139.,0.));
#328 = DIRECTION('',(0.,0.,1.));
#329 = DIRECTION('',(1.,0.,0.));
#330 = ORIENTED_EDGE('',*,*,#331,.T.);
#331 = EDGE_CURVE('',#323,#332,#334,.T.);
#332 = VERTEX_POINT('',#333);
#333 = CARTESIAN_POINT('',(295.,183.,0.));
#334 = LINE('',#335,#336);
#335 = CARTESIAN_POINT('',(295.,139.,0.));
#336 = VECTOR('',#337,1.);
#337 = DIRECTION('',(0.,1.,0.));
#338 = ORIENTED_EDGE('',*,*,#339,.T.);
#339 = EDGE_CURVE('',#332,#340,#342,.T.);
#340 = VERTEX_POINT('',#341);
#341 = CARTESIAN_POINT('',(292.,186.,0.));
#342 = CIRCLE('',#343,3.);
#343 = AXIS2_PLACEMENT_3D('',#344,#345,#346);
#344 = CARTESIAN_POINT('',(292.,183.,0.));
#345 = DIRECTION('',(0.,0.,1.));
#346 = DIRECTION('',(1.,0.,0.));
#347 = ORIENTED_EDGE('',*,*,#348,.T.);
#348 = EDGE_CURVE('',#340,#287,#349,.T.);
#349 = LINE('',#350,#351);
#350 = CARTESIAN_POINT('',(292.,186.,0.));
#351 = VECTOR('',#352,1.);
#352 = DIRECTION('',(-1.,0.,0.));
#353 = FACE_BOUND('',#354,.T.);
#354 = EDGE_LOOP('',(#355));
#355 = ORIENTED_EDGE('',*,*,#356,.F.);
#356 = EDGE_CURVE('',#357,#357,#359,.T.);
#357 = VERTEX_POINT('',#358);
#358 = CARTESIAN_POINT('',(113.200002,109.000002,0.));
#359 = CIRCLE('',#360,3.3);
#360 = AXIS2_PLACEMENT_3D('',#361,#362,#363);
#361 = CARTESIAN_POINT('',(116.500002,109.000002,0.));
#362 = DIRECTION('',(0.,0.,-1.));
#363 = DIRECTION('',(-1.,0.,0.));
#364 = FACE_BOUND('',#365,.T.);
#365 = EDGE_LOOP('',(#366,#377,#385,#394,#402,#411,#419,#428));
#366 = ORIENTED_EDGE('',*,*,#367,.T.);
#367 = EDGE_CURVE('',#368,#370,#372,.T.);
#368 = VERTEX_POINT('',#369);
#369 = CARTESIAN_POINT('',(138.,186.,0.));
#370 = VERTEX_POINT('',#371);
#371 = CARTESIAN_POINT('',(135.,183.,0.));
#372 = CIRCLE('',#373,3.);
#373 = AXIS2_PLACEMENT_3D('',#374,#375,#376);
#374 = CARTESIAN_POINT('',(138.,183.,0.));
#375 = DIRECTION('',(0.,0.,1.));
#376 = DIRECTION('',(1.,0.,0.));
#377 = ORIENTED_EDGE('',*,*,#378,.T.);
#378 = EDGE_CURVE('',#370,#379,#381,.T.);
#379 = VERTEX_POINT('',#380);
#380 = CARTESIAN_POINT('',(135.,139.,0.));
#381 = LINE('',#382,#383);
#382 = CARTESIAN_POINT('',(135.,183.,0.));
#383 = VECTOR('',#384,1.);
#384 = DIRECTION('',(0.,-1.,0.));
#385 = ORIENTED_EDGE('',*,*,#386,.T.);
#386 = EDGE_CURVE('',#379,#387,#389,.T.);
#387 = VERTEX_POINT('',#388);
#388 = CARTESIAN_POINT('',(138.,136.,0.));
#389 = CIRCLE('',#390,3.);
#390 = AXIS2_PLACEMENT_3D('',#391,#392,#393);
#391 = CARTESIAN_POINT('',(138.,139.,0.));
#392 = DIRECTION('',(0.,0.,1.));
#393 = DIRECTION('',(1.,0.,0.));
#394 = ORIENTED_EDGE('',*,*,#395,.T.);
#395 = EDGE_CURVE('',#387,#396,#398,.T.);
#396 = VERTEX_POINT('',#397);
#397 = CARTESIAN_POINT('',(176.00000005884,136.,0.));
#398 = LINE('',#399,#400);
#399 = CARTESIAN_POINT('',(138.,136.,0.));
#400 = VECTOR('',#401,1.);
#401 = DIRECTION('',(1.,0.,0.));
#402 = ORIENTED_EDGE('',*,*,#403,.T.);
#403 = EDGE_CURVE('',#396,#404,#406,.T.);
#404 = VERTEX_POINT('',#405);
#405 = CARTESIAN_POINT('',(179.00000005884,139.,0.));
#406 = CIRCLE('',#407,3.);
#407 = AXIS2_PLACEMENT_3D('',#408,#409,#410);
#408 = CARTESIAN_POINT('',(176.00000005884,139.,0.));
#409 = DIRECTION('',(0.,0.,1.));
#410 = DIRECTION('',(1.,0.,0.));
#411 = ORIENTED_EDGE('',*,*,#412,.T.);
#412 = EDGE_CURVE('',#404,#413,#415,.T.);
#413 = VERTEX_POINT('',#414);
#414 = CARTESIAN_POINT('',(179.00000005884,183.,0.));
#415 = LINE('',#416,#417);
#416 = CARTESIAN_POINT('',(179.00000005884,139.,0.));
#417 = VECTOR('',#418,1.);
#418 = DIRECTION('',(0.,1.,0.));
#419 = ORIENTED_EDGE('',*,*,#420,.T.);
#420 = EDGE_CURVE('',#413,#421,#423,.T.);
#421 = VERTEX_POINT('',#422);
#422 = CARTESIAN_POINT('',(176.00000005884,186.,0.));
#423 = CIRCLE('',#424,3.);
#424 = AXIS2_PLACEMENT_3D('',#425,#426,#427);
#425 = CARTESIAN_POINT('',(176.00000005884,183.,0.));
#426 = DIRECTION('',(0.,0.,1.));
#427 = DIRECTION('',(1.,0.,0.));
#428 = ORIENTED_EDGE('',*,*,#429,.T.);
#429 = EDGE_CURVE('',#421,#368,#430,.T.);
#430 = LINE('',#431,#432);
#431 = CARTESIAN_POINT('',(176.00000005884,186.,0.));
#432 = VECTOR('',#433,1.);
#433 = DIRECTION('',(-1.,0.,0.));
#434 = FACE_BOUND('',#435,.T.);
#435 = EDGE_LOOP('',(#436));
#436 = ORIENTED_EDGE('',*,*,#437,.F.);
#437 = EDGE_CURVE('',#438,#438,#440,.T.);
#438 = VERTEX_POINT('',#439);
#439 = CARTESIAN_POINT('',(7.25,180.,0.));
#440 = CIRCLE('',#441,2.75);
#441 = AXIS2_PLACEMENT_3D('',#442,#443,#444);
#442 = CARTESIAN_POINT('',(10.,180.,0.));
#443 = DIRECTION('',(0.,0.,-1.));
#444 = DIRECTION('',(-1.,0.,0.));
#445 = FACE_BOUND('',#446,.T.);
#446 = EDGE_LOOP('',(#447));
#447 = ORIENTED_EDGE('',*,*,#448,.F.);
#448 = EDGE_CURVE('',#449,#449,#451,.T.);
#449 = VERTEX_POINT('',#450);
#450 = CARTESIAN_POINT('',(347.200005,211.000003,0.));
#451 = CIRCLE('',#452,3.3);
#452 = AXIS2_PLACEMENT_3D('',#453,#454,#455);
#453 = CARTESIAN_POINT('',(350.500005,211.000003,0.));
#454 = DIRECTION('',(0.,0.,-1.));
#455 = DIRECTION('',(-1.,0.,0.));
#456 = FACE_BOUND('',#457,.T.);
#457 = EDGE_LOOP('',(#458));
#458 = ORIENTED_EDGE('',*,*,#459,.F.);
#459 = EDGE_CURVE('',#460,#460,#462,.T.);
#460 = VERTEX_POINT('',#461);
#461 = CARTESIAN_POINT('',(382.25,220.,0.));
#462 = CIRCLE('',#463,2.75);
#463 = AXIS2_PLACEMENT_3D('',#464,#465,#466);
#464 = CARTESIAN_POINT('',(385.,220.,0.));
#465 = DIRECTION('',(0.,0.,-1.));
#466 = DIRECTION('',(-1.,0.,0.));
#467 = FACE_BOUND('',#468,.T.);
#468 = EDGE_LOOP('',(#469));
#469 = ORIENTED_EDGE('',*,*,#470,.F.);
#470 = EDGE_CURVE('',#471,#471,#473,.T.);
#471 = VERTEX_POINT('',#472);
#472 = CARTESIAN_POINT('',(230.200003,211.000003,0.));
#473 = CIRCLE('',#474,3.3);
#474 = AXIS2_PLACEMENT_3D('',#475,#476,#477);
#475 = CARTESIAN_POINT('',(233.500003,211.000003,0.));
#476 = DIRECTION('',(0.,0.,-1.));
#477 = DIRECTION('',(-1.,0.,0.));
#478 = FACE_BOUND('',#479,.T.);
#479 = EDGE_LOOP('',(#480));
#480 = ORIENTED_EDGE('',*,*,#481,.F.);
#481 = EDGE_CURVE('',#482,#482,#484,.T.);
#482 = VERTEX_POINT('',#483);
#483 = CARTESIAN_POINT('',(382.25,260.,0.));
#484 = CIRCLE('',#485,2.75);
#485 = AXIS2_PLACEMENT_3D('',#486,#487,#488);
#486 = CARTESIAN_POINT('',(385.,260.,0.));
#487 = DIRECTION('',(0.,0.,-1.));
#488 = DIRECTION('',(-1.,0.,0.));
#489 = FACE_BOUND('',#490,.T.);
#490 = EDGE_LOOP('',(#491));
#491 = ORIENTED_EDGE('',*,*,#492,.F.);
#492 = EDGE_CURVE('',#493,#493,#495,.T.);
#493 = VERTEX_POINT('',#494);
#494 = CARTESIAN_POINT('',(113.200002,211.000003,0.));
#495 = CIRCLE('',#496,3.3);
#496 = AXIS2_PLACEMENT_3D('',#497,#498,#499);
#497 = CARTESIAN_POINT('',(116.500002,211.000003,0.));
#498 = DIRECTION('',(0.,0.,-1.));
#499 = DIRECTION('',(-1.,0.,0.));
#500 = FACE_BOUND('',#501,.T.);
#501 = EDGE_LOOP('',(#502));
#502 = ORIENTED_EDGE('',*,*,#503,.F.);
#503 = EDGE_CURVE('',#504,#504,#506,.T.);
#504 = VERTEX_POINT('',#505);
#505 = CARTESIAN_POINT('',(7.25,220.,0.));
#506 = CIRCLE('',#507,2.75);
#507 = AXIS2_PLACEMENT_3D('',#508,#509,#510);
#508 = CARTESIAN_POINT('',(10.,220.,0.));
#509 = DIRECTION('',(0.,0.,-1.));
#510 = DIRECTION('',(-1.,0.,0.));
#511 = FACE_BOUND('',#512,.T.);
#512 = EDGE_LOOP('',(#513));
#513 = ORIENTED_EDGE('',*,*,#514,.F.);
#514 = EDGE_CURVE('',#515,#515,#517,.T.);
#515 = VERTEX_POINT('',#516);
#516 = CARTESIAN_POINT('',(7.25,260.,0.));
#517 = CIRCLE('',#518,2.75);
#518 = AXIS2_PLACEMENT_3D('',#519,#520,#521);
#519 = CARTESIAN_POINT('',(10.,260.,0.));
#520 = DIRECTION('',(0.,0.,-1.));
#521 = DIRECTION('',(-1.,0.,0.));
#522 = PLANE('',#523);
#523 = AXIS2_PLACEMENT_3D('',#524,#525,#526);
#524 = CARTESIAN_POINT('',(199.28571428571,185.6954887218,0.));
#525 = DIRECTION('',(-0.,-0.,-1.));
#526 = DIRECTION('',(-1.,0.,0.));
#527 = ADVANCED_FACE('',(#528),#553,.T.);
#528 = FACE_BOUND('',#529,.T.);
#529 = EDGE_LOOP('',(#530,#531,#539,#547));
#530 = ORIENTED_EDGE('',*,*,#21,.T.);
#531 = ORIENTED_EDGE('',*,*,#532,.T.);
#532 = EDGE_CURVE('',#24,#533,#535,.T.);
#533 = VERTEX_POINT('',#534);
#534 = CARTESIAN_POINT('',(60.,40.,3.));
#535 = LINE('',#536,#537);
#536 = CARTESIAN_POINT('',(60.,40.,0.));
#537 = VECTOR('',#538,1.);
#538 = DIRECTION('',(0.,0.,1.));
#539 = ORIENTED_EDGE('',*,*,#540,.F.);
#540 = EDGE_CURVE('',#541,#533,#543,.T.);
#541 = VERTEX_POINT('',#542);
#542 = CARTESIAN_POINT('',(60.,183.,3.));
#543 = LINE('',#544,#545);
#544 = CARTESIAN_POINT('',(60.,163.34774459995,3.));
#545 = VECTOR('',#546,1.);
#546 = DIRECTION('',(0.,-1.,5.5E-16));
#547 = ORIENTED_EDGE('',*,*,#548,.F.);
#548 = EDGE_CURVE('',#22,#541,#549,.T.);
#549 = LINE('',#550,#551);
#550 = CARTESIAN_POINT('',(60.,183.,0.));
#551 = VECTOR('',#552,1.);
#552 = DIRECTION('',(0.,0.,1.));
#553 = PLANE('',#554);
#554 = AXIS2_PLACEMENT_3D('',#555,#556,#557);
#555 = CARTESIAN_POINT('',(60.,111.5,1.5));
#556 = DIRECTION('',(-1.,2.7E-16,0.));
#557 = DIRECTION('',(-2.7E-16,-1.,0.));
#558 = ADVANCED_FACE('',(#559),#578,.F.);
#559 = FACE_BOUND('',#560,.T.);
#560 = EDGE_LOOP('',(#561,#562,#563,#572));
#561 = ORIENTED_EDGE('',*,*,#31,.F.);
#562 = ORIENTED_EDGE('',*,*,#548,.T.);
#563 = ORIENTED_EDGE('',*,*,#564,.F.);
#564 = EDGE_CURVE('',#565,#541,#567,.T.);
#565 = VERTEX_POINT('',#566);
#566 = CARTESIAN_POINT('',(57.,186.,3.));
#567 = CIRCLE('',#568,3.);
#568 = AXIS2_PLACEMENT_3D('',#569,#570,#571);
#569 = CARTESIAN_POINT('',(57.,183.,3.));
#570 = DIRECTION('',(0.,0.,-1.));
#571 = DIRECTION('',(1.,0.,0.));
#572 = ORIENTED_EDGE('',*,*,#573,.F.);
#573 = EDGE_CURVE('',#32,#565,#574,.T.);
#574 = LINE('',#575,#576);
#575 = CARTESIAN_POINT('',(57.,186.,0.));
#576 = VECTOR('',#577,1.);
#577 = DIRECTION('',(0.,0.,1.));
#578 = CYLINDRICAL_SURFACE('',#579,3.);
#579 = AXIS2_PLACEMENT_3D('',#580,#581,#582);
#580 = CARTESIAN_POINT('',(57.,183.,0.));
#581 = DIRECTION('',(-0.,-0.,-1.));
#582 = DIRECTION('',(1.,0.,0.));
#583 = ADVANCED_FACE('',(#584),#602,.F.);
#584 = FACE_BOUND('',#585,.F.);
#585 = EDGE_LOOP('',(#586,#587,#588,#596));
#586 = ORIENTED_EDGE('',*,*,#245,.F.);
#587 = ORIENTED_EDGE('',*,*,#532,.T.);
#588 = ORIENTED_EDGE('',*,*,#589,.T.);
#589 = EDGE_CURVE('',#533,#590,#592,.T.);
#590 = VERTEX_POINT('',#591);
#591 = CARTESIAN_POINT('',(135.,40.,3.));
#592 = LINE('',#593,#594);
#593 = CARTESIAN_POINT('',(60.,40.,3.));
#594 = VECTOR('',#595,1.);
#595 = DIRECTION('',(1.,0.,0.));
#596 = ORIENTED_EDGE('',*,*,#597,.T.);
#597 = EDGE_CURVE('',#590,#238,#598,.T.);
#598 = LINE('',#599,#600);
#599 = CARTESIAN_POINT('',(135.,40.,0.));
#600 = VECTOR('',#601,1.);
#601 = DIRECTION('',(0.,0.,-1.));
#602 = PLANE('',#603);
#603 = AXIS2_PLACEMENT_3D('',#604,#605,#606);
#604 = CARTESIAN_POINT('',(60.,40.,0.));
#605 = DIRECTION('',(0.,1.,0.));
#606 = DIRECTION('',(1.,0.,0.));
#607 = ADVANCED_FACE('',(#608),#626,.T.);
#608 = FACE_BOUND('',#609,.T.);
#609 = EDGE_LOOP('',(#610,#611,#612,#620));
#610 = ORIENTED_EDGE('',*,*,#40,.F.);
#611 = ORIENTED_EDGE('',*,*,#573,.T.);
#612 = ORIENTED_EDGE('',*,*,#613,.F.);
#613 = EDGE_CURVE('',#614,#565,#616,.T.);
#614 = VERTEX_POINT('',#615);
#615 = CARTESIAN_POINT('',(20.,186.,3.));
#616 = LINE('',#617,#618);
#617 = CARTESIAN_POINT('',(128.14285713969,186.,3.));
#618 = VECTOR('',#619,1.);
#619 = DIRECTION('',(1.,0.,0.));
#620 = ORIENTED_EDGE('',*,*,#621,.F.);
#621 = EDGE_CURVE('',#41,#614,#622,.T.);
#622 = LINE('',#623,#624);
#623 = CARTESIAN_POINT('',(20.,186.,0.));
#624 = VECTOR('',#625,1.);
#625 = DIRECTION('',(0.,0.,1.));
#626 = PLANE('',#627);
#627 = AXIS2_PLACEMENT_3D('',#628,#629,#630);
#628 = CARTESIAN_POINT('',(57.,186.,0.));
#629 = DIRECTION('',(0.,-1.,0.));
#630 = DIRECTION('',(-1.,0.,0.));
#631 = ADVANCED_FACE('',(#632),#650,.T.);
#632 = FACE_BOUND('',#633,.T.);
#633 = EDGE_LOOP('',(#634,#635,#643,#649));
#634 = ORIENTED_EDGE('',*,*,#237,.F.);
#635 = ORIENTED_EDGE('',*,*,#636,.T.);
#636 = EDGE_CURVE('',#229,#637,#639,.T.);
#637 = VERTEX_POINT('',#638);
#638 = CARTESIAN_POINT('',(135.,81.,3.));
#639 = LINE('',#640,#641);
#640 = CARTESIAN_POINT('',(135.,81.,0.));
#641 = VECTOR('',#642,1.);
#642 = DIRECTION('',(0.,0.,1.));
#643 = ORIENTED_EDGE('',*,*,#644,.F.);
#644 = EDGE_CURVE('',#590,#637,#645,.T.);
#645 = LINE('',#646,#647);
#646 = CARTESIAN_POINT('',(135.,133.34774459995,3.));
#647 = VECTOR('',#648,1.);
#648 = DIRECTION('',(0.,1.,-5.5E-16));
#649 = ORIENTED_EDGE('',*,*,#597,.T.);
#650 = PLANE('',#651);
#651 = AXIS2_PLACEMENT_3D('',#652,#653,#654);
#652 = CARTESIAN_POINT('',(135.,81.,0.));
#653 = DIRECTION('',(1.,0.,0.));
#654 = DIRECTION('',(0.,-1.,0.));
#655 = ADVANCED_FACE('',(#656),#675,.F.);
#656 = FACE_BOUND('',#657,.T.);
#657 = EDGE_LOOP('',(#658,#659,#660,#669));
#658 = ORIENTED_EDGE('',*,*,#48,.F.);
#659 = ORIENTED_EDGE('',*,*,#621,.T.);
#660 = ORIENTED_EDGE('',*,*,#661,.F.);
#661 = EDGE_CURVE('',#662,#614,#664,.T.);
#662 = VERTEX_POINT('',#663);
#663 = CARTESIAN_POINT('',(17.,183.,3.));
#664 = CIRCLE('',#665,3.);
#665 = AXIS2_PLACEMENT_3D('',#666,#667,#668);
#666 = CARTESIAN_POINT('',(20.,183.,3.));
#667 = DIRECTION('',(0.,0.,-1.));
#668 = DIRECTION('',(1.,0.,0.));
#669 = ORIENTED_EDGE('',*,*,#670,.F.);
#670 = EDGE_CURVE('',#49,#662,#671,.T.);
#671 = LINE('',#672,#673);
#672 = CARTESIAN_POINT('',(17.,183.,0.));
#673 = VECTOR('',#674,1.);
#674 = DIRECTION('',(0.,0.,1.));
#675 = CYLINDRICAL_SURFACE('',#676,3.);
#676 = AXIS2_PLACEMENT_3D('',#677,#678,#679);
#677 = CARTESIAN_POINT('',(20.,183.,0.));
#678 = DIRECTION('',(-0.,-0.,-1.));
#679 = DIRECTION('',(1.,0.,0.));
#680 = ADVANCED_FACE('',(#681),#700,.F.);
#681 = FACE_BOUND('',#682,.T.);
#682 = EDGE_LOOP('',(#683,#684,#692,#699));
#683 = ORIENTED_EDGE('',*,*,#228,.F.);
#684 = ORIENTED_EDGE('',*,*,#685,.T.);
#685 = EDGE_CURVE('',#221,#686,#688,.T.);
#686 = VERTEX_POINT('',#687);
#687 = CARTESIAN_POINT('',(138.,84.,3.));
#688 = LINE('',#689,#690);
#689 = CARTESIAN_POINT('',(138.,84.,0.));
#690 = VECTOR('',#691,1.);
#691 = DIRECTION('',(0.,0.,1.));
#692 = ORIENTED_EDGE('',*,*,#693,.F.);
#693 = EDGE_CURVE('',#637,#686,#694,.T.);
#694 = CIRCLE('',#695,3.);
#695 = AXIS2_PLACEMENT_3D('',#696,#697,#698);
#696 = CARTESIAN_POINT('',(138.,81.,3.));
#697 = DIRECTION('',(0.,0.,-1.));
#698 = DIRECTION('',(1.,0.,0.));
#699 = ORIENTED_EDGE('',*,*,#636,.F.);
#700 = CYLINDRICAL_SURFACE('',#701,3.);
#701 = AXIS2_PLACEMENT_3D('',#702,#703,#704);
#702 = CARTESIAN_POINT('',(138.,81.,0.));
#703 = DIRECTION('',(-0.,-0.,-1.));
#704 = DIRECTION('',(1.,0.,0.));
#705 = ADVANCED_FACE('',(#706),#724,.T.);
#706 = FACE_BOUND('',#707,.T.);
#707 = EDGE_LOOP('',(#708,#709,#710,#718));
#708 = ORIENTED_EDGE('',*,*,#57,.F.);
#709 = ORIENTED_EDGE('',*,*,#670,.T.);
#710 = ORIENTED_EDGE('',*,*,#711,.F.);
#711 = EDGE_CURVE('',#712,#662,#714,.T.);
#712 = VERTEX_POINT('',#713);
#713 = CARTESIAN_POINT('',(17.,170.,3.));
#714 = LINE('',#715,#716);
#715 = CARTESIAN_POINT('',(17.,184.34774459995,3.));
#716 = VECTOR('',#717,1.);
#717 = DIRECTION('',(0.,1.,-5.5E-16));
#718 = ORIENTED_EDGE('',*,*,#719,.F.);
#719 = EDGE_CURVE('',#58,#712,#720,.T.);
#720 = LINE('',#721,#722);
#721 = CARTESIAN_POINT('',(17.,170.,0.));
#722 = VECTOR('',#723,1.);
#723 = DIRECTION('',(0.,0.,1.));
#724 = PLANE('',#725);
#725 = AXIS2_PLACEMENT_3D('',#726,#727,#728);
#726 = CARTESIAN_POINT('',(17.,183.,0.));
#727 = DIRECTION('',(1.,0.,0.));
#728 = DIRECTION('',(0.,-1.,0.));
#729 = ADVANCED_FACE('',(#730),#748,.T.);
#730 = FACE_BOUND('',#731,.T.);
#731 = EDGE_LOOP('',(#732,#733,#741,#747));
#732 = ORIENTED_EDGE('',*,*,#220,.F.);
#733 = ORIENTED_EDGE('',*,*,#734,.T.);
#734 = EDGE_CURVE('',#212,#735,#737,.T.);
#735 = VERTEX_POINT('',#736);
#736 = CARTESIAN_POINT('',(176.,84.,3.));
#737 = LINE('',#738,#739);
#738 = CARTESIAN_POINT('',(176.,84.,0.));
#739 = VECTOR('',#740,1.);
#740 = DIRECTION('',(0.,0.,1.));
#741 = ORIENTED_EDGE('',*,*,#742,.F.);
#742 = EDGE_CURVE('',#686,#735,#743,.T.);
#743 = LINE('',#744,#745);
#744 = CARTESIAN_POINT('',(187.64285713969,84.,3.));
#745 = VECTOR('',#746,1.);
#746 = DIRECTION('',(1.,0.,0.));
#747 = ORIENTED_EDGE('',*,*,#685,.F.);
#748 = PLANE('',#749);
#749 = AXIS2_PLACEMENT_3D('',#750,#751,#752);
#750 = CARTESIAN_POINT('',(176.,84.,0.));
#751 = DIRECTION('',(0.,-1.,0.));
#752 = DIRECTION('',(-1.,0.,0.));
#753 = ADVANCED_FACE('',(#754),#772,.T.);
#754 = FACE_BOUND('',#755,.T.);
#755 = EDGE_LOOP('',(#756,#757,#758,#766));
#756 = ORIENTED_EDGE('',*,*,#65,.F.);
#757 = ORIENTED_EDGE('',*,*,#719,.T.);
#758 = ORIENTED_EDGE('',*,*,#759,.T.);
#759 = EDGE_CURVE('',#712,#760,#762,.T.);
#760 = VERTEX_POINT('',#761);
#761 = CARTESIAN_POINT('',(5.,170.,3.));
#762 = LINE('',#763,#764);
#763 = CARTESIAN_POINT('',(60.,170.,3.));
#764 = VECTOR('',#765,1.);
#765 = DIRECTION('',(-1.,0.,0.));
#766 = ORIENTED_EDGE('',*,*,#767,.F.);
#767 = EDGE_CURVE('',#66,#760,#768,.T.);
#768 = LINE('',#769,#770);
#769 = CARTESIAN_POINT('',(5.,170.,0.));
#770 = VECTOR('',#771,1.);
#771 = DIRECTION('',(0.,0.,1.));
#772 = PLANE('',#773);
#773 = AXIS2_PLACEMENT_3D('',#774,#775,#776);
#774 = CARTESIAN_POINT('',(60.,170.,0.));
#775 = DIRECTION('',(0.,-1.,0.));
#776 = DIRECTION('',(-1.,0.,0.));
#777 = ADVANCED_FACE('',(#778),#797,.F.);
#778 = FACE_BOUND('',#779,.T.);
#779 = EDGE_LOOP('',(#780,#781,#789,#796));
#780 = ORIENTED_EDGE('',*,*,#211,.F.);
#781 = ORIENTED_EDGE('',*,*,#782,.T.);
#782 = EDGE_CURVE('',#204,#783,#785,.T.);
#783 = VERTEX_POINT('',#784);
#784 = CARTESIAN_POINT('',(179.,81.,3.));
#785 = LINE('',#786,#787);
#786 = CARTESIAN_POINT('',(179.,81.,0.));
#787 = VECTOR('',#788,1.);
#788 = DIRECTION('',(0.,0.,1.));
#789 = ORIENTED_EDGE('',*,*,#790,.F.);
#790 = EDGE_CURVE('',#735,#783,#791,.T.);
#791 = CIRCLE('',#792,3.);
#792 = AXIS2_PLACEMENT_3D('',#793,#794,#795);
#793 = CARTESIAN_POINT('',(176.,81.,3.));
#794 = DIRECTION('',(0.,0.,-1.));
#795 = DIRECTION('',(1.,0.,0.));
#796 = ORIENTED_EDGE('',*,*,#734,.F.);
#797 = CYLINDRICAL_SURFACE('',#798,3.);
#798 = AXIS2_PLACEMENT_3D('',#799,#800,#801);
#799 = CARTESIAN_POINT('',(176.,81.,0.));
#800 = DIRECTION('',(-0.,-0.,-1.));
#801 = DIRECTION('',(1.,0.,0.));
#802 = ADVANCED_FACE('',(#803),#821,.T.);
#803 = FACE_BOUND('',#804,.T.);
#804 = EDGE_LOOP('',(#805,#806,#814,#820));
#805 = ORIENTED_EDGE('',*,*,#767,.T.);
#806 = ORIENTED_EDGE('',*,*,#807,.T.);
#807 = EDGE_CURVE('',#760,#808,#810,.T.);
#808 = VERTEX_POINT('',#809);
#809 = CARTESIAN_POINT('',(5.,270.,3.));
#810 = LINE('',#811,#812);
#811 = CARTESIAN_POINT('',(5.,170.,3.));
#812 = VECTOR('',#813,1.);
#813 = DIRECTION('',(0.,1.,0.));
#814 = ORIENTED_EDGE('',*,*,#815,.F.);
#815 = EDGE_CURVE('',#74,#808,#816,.T.);
#816 = LINE('',#817,#818);
#817 = CARTESIAN_POINT('',(5.,270.,0.));
#818 = VECTOR('',#819,1.);
#819 = DIRECTION('',(0.,0.,1.));
#820 = ORIENTED_EDGE('',*,*,#73,.F.);
#821 = PLANE('',#822);
#822 = AXIS2_PLACEMENT_3D('',#823,#824,#825);
#823 = CARTESIAN_POINT('',(5.,170.,0.));
#824 = DIRECTION('',(-1.,0.,0.));
#825 = DIRECTION('',(0.,1.,0.));
#826 = ADVANCED_FACE('',(#827),#845,.T.);
#827 = FACE_BOUND('',#828,.T.);
#828 = EDGE_LOOP('',(#829,#830,#838,#844));
#829 = ORIENTED_EDGE('',*,*,#203,.F.);
#830 = ORIENTED_EDGE('',*,*,#831,.T.);
#831 = EDGE_CURVE('',#196,#832,#834,.T.);
#832 = VERTEX_POINT('',#833);
#833 = CARTESIAN_POINT('',(179.,40.,3.));
#834 = LINE('',#835,#836);
#835 = CARTESIAN_POINT('',(179.,40.,0.));
#836 = VECTOR('',#837,1.);
#837 = DIRECTION('',(0.,0.,1.));
#838 = ORIENTED_EDGE('',*,*,#839,.F.);
#839 = EDGE_CURVE('',#783,#832,#840,.T.);
#840 = LINE('',#841,#842);
#841 = CARTESIAN_POINT('',(179.,111.34774459995,3.));
#842 = VECTOR('',#843,1.);
#843 = DIRECTION('',(0.,-1.,5.5E-16));
#844 = ORIENTED_EDGE('',*,*,#782,.F.);
#845 = PLANE('',#846);
#846 = AXIS2_PLACEMENT_3D('',#847,#848,#849);
#847 = CARTESIAN_POINT('',(179.,37.,0.));
#848 = DIRECTION('',(-1.,0.,0.));
#849 = DIRECTION('',(0.,1.,0.));
#850 = ADVANCED_FACE('',(#851),#869,.T.);
#851 = FACE_BOUND('',#852,.T.);
#852 = EDGE_LOOP('',(#853,#861,#862,#863));
#853 = ORIENTED_EDGE('',*,*,#854,.F.);
#854 = EDGE_CURVE('',#82,#855,#857,.T.);
#855 = VERTEX_POINT('',#856);
#856 = CARTESIAN_POINT('',(130.,270.,3.));
#857 = LINE('',#858,#859);
#858 = CARTESIAN_POINT('',(130.,270.,-55.));
#859 = VECTOR('',#860,1.);
#860 = DIRECTION('',(0.,0.,1.));
#861 = ORIENTED_EDGE('',*,*,#81,.F.);
#862 = ORIENTED_EDGE('',*,*,#815,.T.);
#863 = ORIENTED_EDGE('',*,*,#864,.F.);
#864 = EDGE_CURVE('',#855,#808,#865,.T.);
#865 = LINE('',#866,#867);
#866 = CARTESIAN_POINT('',(203.05487699872,270.,3.));
#867 = VECTOR('',#868,1.);
#868 = DIRECTION('',(-1.,0.,0.));
#869 = PLANE('',#870);
#870 = AXIS2_PLACEMENT_3D('',#871,#872,#873);
#871 = CARTESIAN_POINT('',(206.82403971805,270.,-85.93819479709));
#872 = DIRECTION('',(0.,1.,-3.3E-16));
#873 = DIRECTION('',(0.,3.3E-16,1.));
#874 = ADVANCED_FACE('',(#875),#893,.F.);
#875 = FACE_BOUND('',#876,.F.);
#876 = EDGE_LOOP('',(#877,#878,#879,#887));
#877 = ORIENTED_EDGE('',*,*,#195,.F.);
#878 = ORIENTED_EDGE('',*,*,#831,.T.);
#879 = ORIENTED_EDGE('',*,*,#880,.T.);
#880 = EDGE_CURVE('',#832,#881,#883,.T.);
#881 = VERTEX_POINT('',#882);
#882 = CARTESIAN_POINT('',(251.,40.,3.));
#883 = LINE('',#884,#885);
#884 = CARTESIAN_POINT('',(60.,40.,3.));
#885 = VECTOR('',#886,1.);
#886 = DIRECTION('',(1.,0.,0.));
#887 = ORIENTED_EDGE('',*,*,#888,.T.);
#888 = EDGE_CURVE('',#881,#188,#889,.T.);
#889 = LINE('',#890,#891);
#890 = CARTESIAN_POINT('',(251.,40.,0.));
#891 = VECTOR('',#892,1.);
#892 = DIRECTION('',(0.,0.,-1.));
#893 = PLANE('',#894);
#894 = AXIS2_PLACEMENT_3D('',#895,#896,#897);
#895 = CARTESIAN_POINT('',(60.,40.,0.));
#896 = DIRECTION('',(0.,1.,0.));
#897 = DIRECTION('',(1.,0.,0.));
#898 = ADVANCED_FACE('',(#899),#942,.T.);
#899 = FACE_BOUND('',#900,.T.);
#900 = EDGE_LOOP('',(#901,#911,#919,#925,#926,#927,#935));
#901 = ORIENTED_EDGE('',*,*,#902,.F.);
#902 = EDGE_CURVE('',#903,#905,#907,.T.);
#903 = VERTEX_POINT('',#904);
#904 = CARTESIAN_POINT('',(130.,318.,-55.));
#905 = VERTEX_POINT('',#906);
#906 = CARTESIAN_POINT('',(130.,318.,0.));
#907 = LINE('',#908,#909);
#908 = CARTESIAN_POINT('',(130.,318.,-55.));
#909 = VECTOR('',#910,1.);
#910 = DIRECTION('',(0.,0.,1.));
#911 = ORIENTED_EDGE('',*,*,#912,.T.);
#912 = EDGE_CURVE('',#903,#913,#915,.T.);
#913 = VERTEX_POINT('',#914);
#914 = CARTESIAN_POINT('',(130.,315.,-55.));
#915 = LINE('',#916,#917);
#916 = CARTESIAN_POINT('',(130.,318.,-55.));
#917 = VECTOR('',#918,1.);
#918 = DIRECTION('',(0.,-1.,2.2E-16));
#919 = ORIENTED_EDGE('',*,*,#920,.F.);
#920 = EDGE_CURVE('',#90,#913,#921,.T.);
#921 = LINE('',#922,#923);
#922 = CARTESIAN_POINT('',(130.,315.,-86.));
#923 = VECTOR('',#924,1.);
#924 = DIRECTION('',(-0.,-0.,-1.));
#925 = ORIENTED_EDGE('',*,*,#89,.F.);
#926 = ORIENTED_EDGE('',*,*,#854,.T.);
#927 = ORIENTED_EDGE('',*,*,#928,.F.);
#928 = EDGE_CURVE('',#929,#855,#931,.T.);
#929 = VERTEX_POINT('',#930);
#930 = CARTESIAN_POINT('',(130.,315.00000098038,3.));
#931 = LINE('',#932,#933);
#932 = CARTESIAN_POINT('',(130.,251.84774459995,3.));
#933 = VECTOR('',#934,1.);
#934 = DIRECTION('',(0.,-1.,5.5E-16));
#935 = ORIENTED_EDGE('',*,*,#936,.T.);
#936 = EDGE_CURVE('',#929,#905,#937,.T.);
#937 = CIRCLE('',#938,3.);
#938 = AXIS2_PLACEMENT_3D('',#939,#940,#941);
#939 = CARTESIAN_POINT('',(130.,315.,0.));
#940 = DIRECTION('',(-1.,0.,0.));
#941 = DIRECTION('',(0.,1.,0.));
#942 = PLANE('',#943);
#943 = AXIS2_PLACEMENT_3D('',#944,#945,#946);
#944 = CARTESIAN_POINT('',(130.,318.,-55.));
#945 = DIRECTION('',(-1.,0.,0.));
#946 = DIRECTION('',(0.,2.2E-16,1.));
#947 = ADVANCED_FACE('',(#948),#966,.T.);
#948 = FACE_BOUND('',#949,.T.);
#949 = EDGE_LOOP('',(#950,#951,#959,#965));
#950 = ORIENTED_EDGE('',*,*,#187,.F.);
#951 = ORIENTED_EDGE('',*,*,#952,.T.);
#952 = EDGE_CURVE('',#179,#953,#955,.T.);
#953 = VERTEX_POINT('',#954);
#954 = CARTESIAN_POINT('',(251.,80.999998960769,3.));
#955 = LINE('',#956,#957);
#956 = CARTESIAN_POINT('',(251.,80.999998960769,0.));
#957 = VECTOR('',#958,1.);
#958 = DIRECTION('',(0.,0.,1.));
#959 = ORIENTED_EDGE('',*,*,#960,.F.);
#960 = EDGE_CURVE('',#881,#953,#961,.T.);
#961 = LINE('',#962,#963);
#962 = CARTESIAN_POINT('',(251.,133.34774408034,3.));
#963 = VECTOR('',#964,1.);
#964 = DIRECTION('',(0.,1.,-5.5E-16));
#965 = ORIENTED_EDGE('',*,*,#888,.T.);
#966 = PLANE('',#967);
#967 = AXIS2_PLACEMENT_3D('',#968,#969,#970);
#968 = CARTESIAN_POINT('',(251.,80.999998960769,0.));
#969 = DIRECTION('',(1.,0.,0.));
#970 = DIRECTION('',(0.,-1.,0.));
#971 = ADVANCED_FACE('',(#972,#1062,#1073),#1084,.T.);
#972 = FACE_BOUND('',#973,.T.);
#973 = EDGE_LOOP('',(#974,#984,#992,#1000,#1008,#1016,#1024,#1032,#1040,
    #1046,#1047,#1048,#1056));
#974 = ORIENTED_EDGE('',*,*,#975,.T.);
#975 = EDGE_CURVE('',#976,#978,#980,.T.);
#976 = VERTEX_POINT('',#977);
#977 = CARTESIAN_POINT('',(202.,315.,-90.));
#978 = VERTEX_POINT('',#979);
#979 = CARTESIAN_POINT('',(202.,315.,-117.));
#980 = LINE('',#981,#982);
#981 = CARTESIAN_POINT('',(202.,315.,-117.));
#982 = VECTOR('',#983,1.);
#983 = DIRECTION('',(-0.,-0.,-1.));
#984 = ORIENTED_EDGE('',*,*,#985,.T.);
#985 = EDGE_CURVE('',#978,#986,#988,.T.);
#986 = VERTEX_POINT('',#987);
#987 = CARTESIAN_POINT('',(220.,315.,-117.));
#988 = LINE('',#989,#990);
#989 = CARTESIAN_POINT('',(0.,315.,-117.));
#990 = VECTOR('',#991,1.);
#991 = DIRECTION('',(1.,0.,0.));
#992 = ORIENTED_EDGE('',*,*,#993,.T.);
#993 = EDGE_CURVE('',#986,#994,#996,.T.);
#994 = VERTEX_POINT('',#995);
#995 = CARTESIAN_POINT('',(220.,315.,-90.));
#996 = LINE('',#997,#998);
#997 = CARTESIAN_POINT('',(220.,315.,-103.5));
#998 = VECTOR('',#999,1.);
#999 = DIRECTION('',(0.,0.,1.));
#1000 = ORIENTED_EDGE('',*,*,#1001,.T.);
#1001 = EDGE_CURVE('',#994,#1002,#1004,.T.);
#1002 = VERTEX_POINT('',#1003);
#1003 = CARTESIAN_POINT('',(276.,315.,-90.));
#1004 = LINE('',#1005,#1006);
#1005 = CARTESIAN_POINT('',(138.,315.,-90.));
#1006 = VECTOR('',#1007,1.);
#1007 = DIRECTION('',(1.,0.,0.));
#1008 = ORIENTED_EDGE('',*,*,#1009,.T.);
#1009 = EDGE_CURVE('',#1002,#1010,#1012,.T.);
#1010 = VERTEX_POINT('',#1011);
#1011 = CARTESIAN_POINT('',(276.,315.,-117.));
#1012 = LINE('',#1013,#1014);
#1013 = CARTESIAN_POINT('',(276.,315.,-117.));
#1014 = VECTOR('',#1015,1.);
#1015 = DIRECTION('',(-0.,-0.,-1.));
#1016 = ORIENTED_EDGE('',*,*,#1017,.T.);
#1017 = EDGE_CURVE('',#1010,#1018,#1020,.T.);
#1018 = VERTEX_POINT('',#1019);
#1019 = CARTESIAN_POINT('',(294.,315.,-117.));
#1020 = LINE('',#1021,#1022);
#1021 = CARTESIAN_POINT('',(0.,315.,-117.));
#1022 = VECTOR('',#1023,1.);
#1023 = DIRECTION('',(1.,0.,0.));
#1024 = ORIENTED_EDGE('',*,*,#1025,.F.);
#1025 = EDGE_CURVE('',#1026,#1018,#1028,.T.);
#1026 = VERTEX_POINT('',#1027);
#1027 = CARTESIAN_POINT('',(294.,315.,-90.));
#1028 = LINE('',#1029,#1030);
#1029 = CARTESIAN_POINT('',(294.,315.,-117.));
#1030 = VECTOR('',#1031,1.);
#1031 = DIRECTION('',(-0.,-0.,-1.));
#1032 = ORIENTED_EDGE('',*,*,#1033,.F.);
#1033 = EDGE_CURVE('',#1034,#1026,#1036,.T.);
#1034 = VERTEX_POINT('',#1035);
#1035 = CARTESIAN_POINT('',(329.,315.,-55.));
#1036 = LINE('',#1037,#1038);
#1037 = CARTESIAN_POINT('',(213.75,315.,-170.25));
#1038 = VECTOR('',#1039,1.);
#1039 = DIRECTION('',(-0.707106781187,-0.,-0.707106781187));
#1040 = ORIENTED_EDGE('',*,*,#1041,.F.);
#1041 = EDGE_CURVE('',#98,#1034,#1042,.T.);
#1042 = LINE('',#1043,#1044);
#1043 = CARTESIAN_POINT('',(329.,315.,-86.));
#1044 = VECTOR('',#1045,1.);
#1045 = DIRECTION('',(-0.,-0.,-1.));
#1046 = ORIENTED_EDGE('',*,*,#97,.F.);
#1047 = ORIENTED_EDGE('',*,*,#920,.T.);
#1048 = ORIENTED_EDGE('',*,*,#1049,.T.);
#1049 = EDGE_CURVE('',#913,#1050,#1052,.T.);
#1050 = VERTEX_POINT('',#1051);
#1051 = CARTESIAN_POINT('',(165.,315.,-90.));
#1052 = LINE('',#1053,#1054);
#1053 = CARTESIAN_POINT('',(130.5,315.,-55.5));
#1054 = VECTOR('',#1055,1.);
#1055 = DIRECTION('',(0.707106781187,0.,-0.707106781187));
#1056 = ORIENTED_EDGE('',*,*,#1057,.T.);
#1057 = EDGE_CURVE('',#1050,#976,#1058,.T.);
#1058 = LINE('',#1059,#1060);
#1059 = CARTESIAN_POINT('',(101.,315.,-90.));
#1060 = VECTOR('',#1061,1.);
#1061 = DIRECTION('',(1.,0.,0.));
#1062 = FACE_BOUND('',#1063,.T.);
#1063 = EDGE_LOOP('',(#1064));
#1064 = ORIENTED_EDGE('',*,*,#1065,.T.);
#1065 = EDGE_CURVE('',#1066,#1066,#1068,.T.);
#1066 = VERTEX_POINT('',#1067);
#1067 = CARTESIAN_POINT('',(281.720477,315.,-107.500002));
#1068 = CIRCLE('',#1069,3.3);
#1069 = AXIS2_PLACEMENT_3D('',#1070,#1071,#1072);
#1070 = CARTESIAN_POINT('',(285.020477,315.,-107.500002));
#1071 = DIRECTION('',(0.,1.,-2.2E-16));
#1072 = DIRECTION('',(-1.,0.,0.));
#1073 = FACE_BOUND('',#1074,.T.);
#1074 = EDGE_LOOP('',(#1075));
#1075 = ORIENTED_EDGE('',*,*,#1076,.T.);
#1076 = EDGE_CURVE('',#1077,#1077,#1079,.T.);
#1077 = VERTEX_POINT('',#1078);
#1078 = CARTESIAN_POINT('',(207.700003,315.,-107.500002));
#1079 = CIRCLE('',#1080,3.3);
#1080 = AXIS2_PLACEMENT_3D('',#1081,#1082,#1083);
#1081 = CARTESIAN_POINT('',(211.000003,315.,-107.500002));
#1082 = DIRECTION('',(0.,1.,-2.2E-16));
#1083 = DIRECTION('',(-1.,0.,0.));
#1084 = PLANE('',#1085);
#1085 = AXIS2_PLACEMENT_3D('',#1086,#1087,#1088);
#1086 = CARTESIAN_POINT('',(0.,315.,-117.));
#1087 = DIRECTION('',(0.,-1.,0.));
#1088 = DIRECTION('',(0.,0.,1.));
#1089 = ADVANCED_FACE('',(#1090),#1109,.F.);
#1090 = FACE_BOUND('',#1091,.T.);
#1091 = EDGE_LOOP('',(#1092,#1093,#1101,#1108));
#1092 = ORIENTED_EDGE('',*,*,#178,.F.);
#1093 = ORIENTED_EDGE('',*,*,#1094,.T.);
#1094 = EDGE_CURVE('',#171,#1095,#1097,.T.);
#1095 = VERTEX_POINT('',#1096);
#1096 = CARTESIAN_POINT('',(254.,83.999998960769,3.));
#1097 = LINE('',#1098,#1099);
#1098 = CARTESIAN_POINT('',(254.,83.999998960769,0.));
#1099 = VECTOR('',#1100,1.);
#1100 = DIRECTION('',(0.,0.,1.));
#1101 = ORIENTED_EDGE('',*,*,#1102,.F.);
#1102 = EDGE_CURVE('',#953,#1095,#1103,.T.);
#1103 = CIRCLE('',#1104,3.);
#1104 = AXIS2_PLACEMENT_3D('',#1105,#1106,#1107);
#1105 = CARTESIAN_POINT('',(254.,80.999998960769,3.));
#1106 = DIRECTION('',(0.,0.,-1.));
#1107 = DIRECTION('',(1.,0.,0.));
#1108 = ORIENTED_EDGE('',*,*,#952,.F.);
#1109 = CYLINDRICAL_SURFACE('',#1110,3.);
#1110 = AXIS2_PLACEMENT_3D('',#1111,#1112,#1113);
#1111 = CARTESIAN_POINT('',(254.,80.999998960769,0.));
#1112 = DIRECTION('',(-0.,-0.,-1.));
#1113 = DIRECTION('',(1.,0.,0.));
#1114 = ADVANCED_FACE('',(#1115),#1158,.F.);
#1115 = FACE_BOUND('',#1116,.F.);
#1116 = EDGE_LOOP('',(#1117,#1127,#1133,#1134,#1135,#1143,#1151));
#1117 = ORIENTED_EDGE('',*,*,#1118,.F.);
#1118 = EDGE_CURVE('',#1119,#1121,#1123,.T.);
#1119 = VERTEX_POINT('',#1120);
#1120 = CARTESIAN_POINT('',(329.,318.,-55.));
#1121 = VERTEX_POINT('',#1122);
#1122 = CARTESIAN_POINT('',(329.,318.,0.));
#1123 = LINE('',#1124,#1125);
#1124 = CARTESIAN_POINT('',(329.,318.,-55.));
#1125 = VECTOR('',#1126,1.);
#1126 = DIRECTION('',(0.,0.,1.));
#1127 = ORIENTED_EDGE('',*,*,#1128,.T.);
#1128 = EDGE_CURVE('',#1119,#1034,#1129,.T.);
#1129 = LINE('',#1130,#1131);
#1130 = CARTESIAN_POINT('',(329.,318.,-55.));
#1131 = VECTOR('',#1132,1.);
#1132 = DIRECTION('',(0.,-1.,2.2E-16));
#1133 = ORIENTED_EDGE('',*,*,#1041,.F.);
#1134 = ORIENTED_EDGE('',*,*,#105,.F.);
#1135 = ORIENTED_EDGE('',*,*,#1136,.T.);
#1136 = EDGE_CURVE('',#106,#1137,#1139,.T.);
#1137 = VERTEX_POINT('',#1138);
#1138 = CARTESIAN_POINT('',(329.,270.,3.));
#1139 = LINE('',#1140,#1141);
#1140 = CARTESIAN_POINT('',(329.,270.,-55.));
#1141 = VECTOR('',#1142,1.);
#1142 = DIRECTION('',(0.,0.,1.));
#1143 = ORIENTED_EDGE('',*,*,#1144,.F.);
#1144 = EDGE_CURVE('',#1145,#1137,#1147,.T.);
#1145 = VERTEX_POINT('',#1146);
#1146 = CARTESIAN_POINT('',(329.,315.00000098038,3.));
#1147 = LINE('',#1148,#1149);
#1148 = CARTESIAN_POINT('',(329.,251.84774459995,3.));
#1149 = VECTOR('',#1150,1.);
#1150 = DIRECTION('',(0.,-1.,5.5E-16));
#1151 = ORIENTED_EDGE('',*,*,#1152,.T.);
#1152 = EDGE_CURVE('',#1145,#1121,#1153,.T.);
#1153 = CIRCLE('',#1154,3.);
#1154 = AXIS2_PLACEMENT_3D('',#1155,#1156,#1157);
#1155 = CARTESIAN_POINT('',(329.,315.,0.));
#1156 = DIRECTION('',(-1.,0.,0.));
#1157 = DIRECTION('',(0.,1.,0.));
#1158 = PLANE('',#1159);
#1159 = AXIS2_PLACEMENT_3D('',#1160,#1161,#1162);
#1160 = CARTESIAN_POINT('',(329.,318.,-55.));
#1161 = DIRECTION('',(-1.,0.,0.));
#1162 = DIRECTION('',(0.,2.2E-16,1.));
#1163 = ADVANCED_FACE('',(#1164),#1182,.T.);
#1164 = FACE_BOUND('',#1165,.T.);
#1165 = EDGE_LOOP('',(#1166,#1167,#1175,#1181));
#1166 = ORIENTED_EDGE('',*,*,#170,.F.);
#1167 = ORIENTED_EDGE('',*,*,#1168,.T.);
#1168 = EDGE_CURVE('',#162,#1169,#1171,.T.);
#1169 = VERTEX_POINT('',#1170);
#1170 = CARTESIAN_POINT('',(292.00000005884,83.999998960769,3.));
#1171 = LINE('',#1172,#1173);
#1172 = CARTESIAN_POINT('',(292.00000005884,83.999998960769,0.));
#1173 = VECTOR('',#1174,1.);
#1174 = DIRECTION('',(0.,0.,1.));
#1175 = ORIENTED_EDGE('',*,*,#1176,.F.);
#1176 = EDGE_CURVE('',#1095,#1169,#1177,.T.);
#1177 = LINE('',#1178,#1179);
#1178 = CARTESIAN_POINT('',(245.64285716912,83.999998960769,3.));
#1179 = VECTOR('',#1180,1.);
#1180 = DIRECTION('',(1.,0.,0.));
#1181 = ORIENTED_EDGE('',*,*,#1094,.F.);
#1182 = PLANE('',#1183);
#1183 = AXIS2_PLACEMENT_3D('',#1184,#1185,#1186);
#1184 = CARTESIAN_POINT('',(292.00000005884,83.999998960769,0.));
#1185 = DIRECTION('',(0.,-1.,0.));
#1186 = DIRECTION('',(-1.,0.,0.));
#1187 = ADVANCED_FACE('',(#1188),#1206,.T.);
#1188 = FACE_BOUND('',#1189,.T.);
#1189 = EDGE_LOOP('',(#1190,#1191,#1192,#1200));
#1190 = ORIENTED_EDGE('',*,*,#113,.F.);
#1191 = ORIENTED_EDGE('',*,*,#1136,.T.);
#1192 = ORIENTED_EDGE('',*,*,#1193,.F.);
#1193 = EDGE_CURVE('',#1194,#1137,#1196,.T.);
#1194 = VERTEX_POINT('',#1195);
#1195 = CARTESIAN_POINT('',(390.,270.,3.));
#1196 = LINE('',#1197,#1198);
#1197 = CARTESIAN_POINT('',(203.05487699872,270.,3.));
#1198 = VECTOR('',#1199,1.);
#1199 = DIRECTION('',(-1.,0.,0.));
#1200 = ORIENTED_EDGE('',*,*,#1201,.F.);
#1201 = EDGE_CURVE('',#114,#1194,#1202,.T.);
#1202 = LINE('',#1203,#1204);
#1203 = CARTESIAN_POINT('',(390.,270.,-55.67982816768));
#1204 = VECTOR('',#1205,1.);
#1205 = DIRECTION('',(0.,3.3E-16,1.));
#1206 = PLANE('',#1207);
#1207 = AXIS2_PLACEMENT_3D('',#1208,#1209,#1210);
#1208 = CARTESIAN_POINT('',(206.82403971805,270.,-85.93819479709));
#1209 = DIRECTION('',(0.,1.,-3.3E-16));
#1210 = DIRECTION('',(0.,3.3E-16,1.));
#1211 = ADVANCED_FACE('',(#1212),#1231,.F.);
#1212 = FACE_BOUND('',#1213,.T.);
#1213 = EDGE_LOOP('',(#1214,#1215,#1223,#1230));
#1214 = ORIENTED_EDGE('',*,*,#161,.F.);
#1215 = ORIENTED_EDGE('',*,*,#1216,.T.);
#1216 = EDGE_CURVE('',#154,#1217,#1219,.T.);
#1217 = VERTEX_POINT('',#1218);
#1218 = CARTESIAN_POINT('',(295.00000005884,80.999998960769,3.));
#1219 = LINE('',#1220,#1221);
#1220 = CARTESIAN_POINT('',(295.00000005884,80.999998960769,0.));
#1221 = VECTOR('',#1222,1.);
#1222 = DIRECTION('',(0.,0.,1.));
#1223 = ORIENTED_EDGE('',*,*,#1224,.F.);
#1224 = EDGE_CURVE('',#1169,#1217,#1225,.T.);
#1225 = CIRCLE('',#1226,3.);
#1226 = AXIS2_PLACEMENT_3D('',#1227,#1228,#1229);
#1227 = CARTESIAN_POINT('',(292.00000005884,80.999998960769,3.));
#1228 = DIRECTION('',(0.,0.,-1.));
#1229 = DIRECTION('',(1.,0.,0.));
#1230 = ORIENTED_EDGE('',*,*,#1168,.F.);
#1231 = CYLINDRICAL_SURFACE('',#1232,3.);
#1232 = AXIS2_PLACEMENT_3D('',#1233,#1234,#1235);
#1233 = CARTESIAN_POINT('',(292.00000005884,80.999998960769,0.));
#1234 = DIRECTION('',(-0.,-0.,-1.));
#1235 = DIRECTION('',(1.,0.,0.));
#1236 = ADVANCED_FACE('',(#1237),#1255,.T.);
#1237 = FACE_BOUND('',#1238,.T.);
#1238 = EDGE_LOOP('',(#1239,#1247,#1248,#1249));
#1239 = ORIENTED_EDGE('',*,*,#1240,.F.);
#1240 = EDGE_CURVE('',#122,#1241,#1243,.T.);
#1241 = VERTEX_POINT('',#1242);
#1242 = CARTESIAN_POINT('',(390.,170.,3.));
#1243 = LINE('',#1244,#1245);
#1244 = CARTESIAN_POINT('',(390.,170.,0.));
#1245 = VECTOR('',#1246,1.);
#1246 = DIRECTION('',(0.,0.,1.));
#1247 = ORIENTED_EDGE('',*,*,#121,.T.);
#1248 = ORIENTED_EDGE('',*,*,#1201,.T.);
#1249 = ORIENTED_EDGE('',*,*,#1250,.F.);
#1250 = EDGE_CURVE('',#1241,#1194,#1251,.T.);
#1251 = LINE('',#1252,#1253);
#1252 = CARTESIAN_POINT('',(390.,170.,3.));
#1253 = VECTOR('',#1254,1.);
#1254 = DIRECTION('',(0.,1.,0.));
#1255 = PLANE('',#1256);
#1256 = AXIS2_PLACEMENT_3D('',#1257,#1258,#1259);
#1257 = CARTESIAN_POINT('',(390.,275.54341774124,-25.42146153826));
#1258 = DIRECTION('',(1.,0.,0.));
#1259 = DIRECTION('',(0.,0.,1.));
#1260 = ADVANCED_FACE('',(#1261),#1279,.T.);
#1261 = FACE_BOUND('',#1262,.T.);
#1262 = EDGE_LOOP('',(#1263,#1264,#1272,#1278));
#1263 = ORIENTED_EDGE('',*,*,#153,.F.);
#1264 = ORIENTED_EDGE('',*,*,#1265,.T.);
#1265 = EDGE_CURVE('',#146,#1266,#1268,.T.);
#1266 = VERTEX_POINT('',#1267);
#1267 = CARTESIAN_POINT('',(295.00000005884,40.,3.));
#1268 = LINE('',#1269,#1270);
#1269 = CARTESIAN_POINT('',(295.00000005884,40.,0.));
#1270 = VECTOR('',#1271,1.);
#1271 = DIRECTION('',(0.,0.,1.));
#1272 = ORIENTED_EDGE('',*,*,#1273,.F.);
#1273 = EDGE_CURVE('',#1217,#1266,#1274,.T.);
#1274 = LINE('',#1275,#1276);
#1275 = CARTESIAN_POINT('',(295.00000005884,111.34774459995,3.));
#1276 = VECTOR('',#1277,1.);
#1277 = DIRECTION('',(0.,-1.,5.5E-16));
#1278 = ORIENTED_EDGE('',*,*,#1216,.F.);
#1279 = PLANE('',#1280);
#1280 = AXIS2_PLACEMENT_3D('',#1281,#1282,#1283);
#1281 = CARTESIAN_POINT('',(295.00000005884,37.,0.));
#1282 = DIRECTION('',(-1.,0.,0.));
#1283 = DIRECTION('',(0.,1.,0.));
#1284 = ADVANCED_FACE('',(#1285),#1303,.F.);
#1285 = FACE_BOUND('',#1286,.F.);
#1286 = EDGE_LOOP('',(#1287,#1295,#1301,#1302));
#1287 = ORIENTED_EDGE('',*,*,#1288,.T.);
#1288 = EDGE_CURVE('',#130,#1289,#1291,.T.);
#1289 = VERTEX_POINT('',#1290);
#1290 = CARTESIAN_POINT('',(370.,170.,3.));
#1291 = LINE('',#1292,#1293);
#1292 = CARTESIAN_POINT('',(370.,170.,0.));
#1293 = VECTOR('',#1294,1.);
#1294 = DIRECTION('',(0.,0.,1.));
#1295 = ORIENTED_EDGE('',*,*,#1296,.T.);
#1296 = EDGE_CURVE('',#1289,#1241,#1297,.T.);
#1297 = LINE('',#1298,#1299);
#1298 = CARTESIAN_POINT('',(370.,170.,3.));
#1299 = VECTOR('',#1300,1.);
#1300 = DIRECTION('',(1.,0.,0.));
#1301 = ORIENTED_EDGE('',*,*,#1240,.F.);
#1302 = ORIENTED_EDGE('',*,*,#129,.F.);
#1303 = PLANE('',#1304);
#1304 = AXIS2_PLACEMENT_3D('',#1305,#1306,#1307);
#1305 = CARTESIAN_POINT('',(370.,170.,0.));
#1306 = DIRECTION('',(0.,1.,0.));
#1307 = DIRECTION('',(1.,0.,0.));
#1308 = ADVANCED_FACE('',(#1309),#1327,.F.);
#1309 = FACE_BOUND('',#1310,.F.);
#1310 = EDGE_LOOP('',(#1311,#1312,#1313,#1321));
#1311 = ORIENTED_EDGE('',*,*,#145,.F.);
#1312 = ORIENTED_EDGE('',*,*,#1265,.T.);
#1313 = ORIENTED_EDGE('',*,*,#1314,.T.);
#1314 = EDGE_CURVE('',#1266,#1315,#1317,.T.);
#1315 = VERTEX_POINT('',#1316);
#1316 = CARTESIAN_POINT('',(370.,40.,3.));
#1317 = LINE('',#1318,#1319);
#1318 = CARTESIAN_POINT('',(60.,40.,3.));
#1319 = VECTOR('',#1320,1.);
#1320 = DIRECTION('',(1.,0.,0.));
#1321 = ORIENTED_EDGE('',*,*,#1322,.F.);
#1322 = EDGE_CURVE('',#138,#1315,#1323,.T.);
#1323 = LINE('',#1324,#1325);
#1324 = CARTESIAN_POINT('',(370.,40.,0.));
#1325 = VECTOR('',#1326,1.);
#1326 = DIRECTION('',(0.,0.,1.));
#1327 = PLANE('',#1328);
#1328 = AXIS2_PLACEMENT_3D('',#1329,#1330,#1331);
#1329 = CARTESIAN_POINT('',(60.,40.,0.));
#1330 = DIRECTION('',(0.,1.,0.));
#1331 = DIRECTION('',(1.,0.,0.));
#1332 = ADVANCED_FACE('',(#1333),#1344,.F.);
#1333 = FACE_BOUND('',#1334,.F.);
#1334 = EDGE_LOOP('',(#1335,#1336,#1342,#1343));
#1335 = ORIENTED_EDGE('',*,*,#1322,.T.);
#1336 = ORIENTED_EDGE('',*,*,#1337,.T.);
#1337 = EDGE_CURVE('',#1315,#1289,#1338,.T.);
#1338 = LINE('',#1339,#1340);
#1339 = CARTESIAN_POINT('',(370.,40.,3.));
#1340 = VECTOR('',#1341,1.);
#1341 = DIRECTION('',(0.,1.,0.));
#1342 = ORIENTED_EDGE('',*,*,#1288,.F.);
#1343 = ORIENTED_EDGE('',*,*,#137,.F.);
#1344 = PLANE('',#1345);
#1345 = AXIS2_PLACEMENT_3D('',#1346,#1347,#1348);
#1346 = CARTESIAN_POINT('',(370.,40.,0.));
#1347 = DIRECTION('',(-1.,0.,0.));
#1348 = DIRECTION('',(0.,1.,0.));
#1349 = ADVANCED_FACE('',(#1350),#1369,.F.);
#1350 = FACE_BOUND('',#1351,.T.);
#1351 = EDGE_LOOP('',(#1352,#1360,#1361,#1362));
#1352 = ORIENTED_EDGE('',*,*,#1353,.F.);
#1353 = EDGE_CURVE('',#254,#1354,#1356,.T.);
#1354 = VERTEX_POINT('',#1355);
#1355 = CARTESIAN_POINT('',(347.200005,109.000002,3.));
#1356 = LINE('',#1357,#1358);
#1357 = CARTESIAN_POINT('',(347.200005,109.000002,0.));
#1358 = VECTOR('',#1359,1.);
#1359 = DIRECTION('',(5.E-17,0.,1.));
#1360 = ORIENTED_EDGE('',*,*,#253,.T.);
#1361 = ORIENTED_EDGE('',*,*,#1353,.T.);
#1362 = ORIENTED_EDGE('',*,*,#1363,.T.);
#1363 = EDGE_CURVE('',#1354,#1354,#1364,.T.);
#1364 = CIRCLE('',#1365,3.3);
#1365 = AXIS2_PLACEMENT_3D('',#1366,#1367,#1368);
#1366 = CARTESIAN_POINT('',(350.500005,109.000002,3.));
#1367 = DIRECTION('',(0.,0.,1.));
#1368 = DIRECTION('',(-1.,0.,0.));
#1369 = CYLINDRICAL_SURFACE('',#1370,3.3);
#1370 = AXIS2_PLACEMENT_3D('',#1371,#1372,#1373);
#1371 = CARTESIAN_POINT('',(350.500005,109.000002,0.));
#1372 = DIRECTION('',(0.,0.,1.));
#1373 = DIRECTION('',(-1.,0.,0.));
#1374 = ADVANCED_FACE('',(#1375),#1394,.F.);
#1375 = FACE_BOUND('',#1376,.T.);
#1376 = EDGE_LOOP('',(#1377,#1385,#1386,#1387));
#1377 = ORIENTED_EDGE('',*,*,#1378,.F.);
#1378 = EDGE_CURVE('',#265,#1379,#1381,.T.);
#1379 = VERTEX_POINT('',#1380);
#1380 = CARTESIAN_POINT('',(230.200003,109.000002,3.));
#1381 = LINE('',#1382,#1383);
#1382 = CARTESIAN_POINT('',(230.200003,109.000002,0.));
#1383 = VECTOR('',#1384,1.);
#1384 = DIRECTION('',(5.E-17,0.,1.));
#1385 = ORIENTED_EDGE('',*,*,#264,.T.);
#1386 = ORIENTED_EDGE('',*,*,#1378,.T.);
#1387 = ORIENTED_EDGE('',*,*,#1388,.T.);
#1388 = EDGE_CURVE('',#1379,#1379,#1389,.T.);
#1389 = CIRCLE('',#1390,3.3);
#1390 = AXIS2_PLACEMENT_3D('',#1391,#1392,#1393);
#1391 = CARTESIAN_POINT('',(233.500003,109.000002,3.));
#1392 = DIRECTION('',(0.,0.,1.));
#1393 = DIRECTION('',(-1.,0.,0.));
#1394 = CYLINDRICAL_SURFACE('',#1395,3.3);
#1395 = AXIS2_PLACEMENT_3D('',#1396,#1397,#1398);
#1396 = CARTESIAN_POINT('',(233.500003,109.000002,0.));
#1397 = DIRECTION('',(0.,0.,1.));
#1398 = DIRECTION('',(-1.,0.,0.));
#1399 = ADVANCED_FACE('',(#1400),#1419,.F.);
#1400 = FACE_BOUND('',#1401,.T.);
#1401 = EDGE_LOOP('',(#1402,#1410,#1411,#1412));
#1402 = ORIENTED_EDGE('',*,*,#1403,.F.);
#1403 = EDGE_CURVE('',#276,#1404,#1406,.T.);
#1404 = VERTEX_POINT('',#1405);
#1405 = CARTESIAN_POINT('',(382.25,180.,3.));
#1406 = LINE('',#1407,#1408);
#1407 = CARTESIAN_POINT('',(382.25,180.,0.));
#1408 = VECTOR('',#1409,1.);
#1409 = DIRECTION('',(5.E-17,0.,1.));
#1410 = ORIENTED_EDGE('',*,*,#275,.T.);
#1411 = ORIENTED_EDGE('',*,*,#1403,.T.);
#1412 = ORIENTED_EDGE('',*,*,#1413,.T.);
#1413 = EDGE_CURVE('',#1404,#1404,#1414,.T.);
#1414 = CIRCLE('',#1415,2.75);
#1415 = AXIS2_PLACEMENT_3D('',#1416,#1417,#1418);
#1416 = CARTESIAN_POINT('',(385.,180.,3.));
#1417 = DIRECTION('',(0.,0.,1.));
#1418 = DIRECTION('',(-1.,0.,0.));
#1419 = CYLINDRICAL_SURFACE('',#1420,2.75);
#1420 = AXIS2_PLACEMENT_3D('',#1421,#1422,#1423);
#1421 = CARTESIAN_POINT('',(385.,180.,0.));
#1422 = DIRECTION('',(0.,0.,1.));
#1423 = DIRECTION('',(-1.,0.,0.));
#1424 = ADVANCED_FACE('',(#1425),#1451,.F.);
#1425 = FACE_BOUND('',#1426,.T.);
#1426 = EDGE_LOOP('',(#1427,#1428,#1436,#1445));
#1427 = ORIENTED_EDGE('',*,*,#286,.F.);
#1428 = ORIENTED_EDGE('',*,*,#1429,.T.);
#1429 = EDGE_CURVE('',#287,#1430,#1432,.T.);
#1430 = VERTEX_POINT('',#1431);
#1431 = CARTESIAN_POINT('',(254.,186.,3.));
#1432 = LINE('',#1433,#1434);
#1433 = CARTESIAN_POINT('',(254.,186.,0.));
#1434 = VECTOR('',#1435,1.);
#1435 = DIRECTION('',(0.,0.,1.));
#1436 = ORIENTED_EDGE('',*,*,#1437,.F.);
#1437 = EDGE_CURVE('',#1438,#1430,#1440,.T.);
#1438 = VERTEX_POINT('',#1439);
#1439 = CARTESIAN_POINT('',(251.,183.,3.));
#1440 = CIRCLE('',#1441,3.);
#1441 = AXIS2_PLACEMENT_3D('',#1442,#1443,#1444);
#1442 = CARTESIAN_POINT('',(254.,183.,3.));
#1443 = DIRECTION('',(0.,0.,-1.));
#1444 = DIRECTION('',(1.,0.,0.));
#1445 = ORIENTED_EDGE('',*,*,#1446,.F.);
#1446 = EDGE_CURVE('',#289,#1438,#1447,.T.);
#1447 = LINE('',#1448,#1449);
#1448 = CARTESIAN_POINT('',(251.,183.,0.));
#1449 = VECTOR('',#1450,1.);
#1450 = DIRECTION('',(0.,0.,1.));
#1451 = CYLINDRICAL_SURFACE('',#1452,3.);
#1452 = AXIS2_PLACEMENT_3D('',#1453,#1454,#1455);
#1453 = CARTESIAN_POINT('',(254.,183.,0.));
#1454 = DIRECTION('',(-0.,-0.,-1.));
#1455 = DIRECTION('',(1.,0.,0.));
#1456 = ADVANCED_FACE('',(#1457),#1475,.T.);
#1457 = FACE_BOUND('',#1458,.T.);
#1458 = EDGE_LOOP('',(#1459,#1460,#1468,#1474));
#1459 = ORIENTED_EDGE('',*,*,#348,.F.);
#1460 = ORIENTED_EDGE('',*,*,#1461,.T.);
#1461 = EDGE_CURVE('',#340,#1462,#1464,.T.);
#1462 = VERTEX_POINT('',#1463);
#1463 = CARTESIAN_POINT('',(292.,186.,3.));
#1464 = LINE('',#1465,#1466);
#1465 = CARTESIAN_POINT('',(292.,186.,0.));
#1466 = VECTOR('',#1467,1.);
#1467 = DIRECTION('',(0.,0.,1.));
#1468 = ORIENTED_EDGE('',*,*,#1469,.F.);
#1469 = EDGE_CURVE('',#1430,#1462,#1470,.T.);
#1470 = LINE('',#1471,#1472);
#1471 = CARTESIAN_POINT('',(245.64285713969,186.,3.));
#1472 = VECTOR('',#1473,1.);
#1473 = DIRECTION('',(1.,0.,0.));
#1474 = ORIENTED_EDGE('',*,*,#1429,.F.);
#1475 = PLANE('',#1476);
#1476 = AXIS2_PLACEMENT_3D('',#1477,#1478,#1479);
#1477 = CARTESIAN_POINT('',(292.,186.,0.));
#1478 = DIRECTION('',(0.,-1.,0.));
#1479 = DIRECTION('',(-1.,0.,0.));
#1480 = ADVANCED_FACE('',(#1481),#1499,.T.);
#1481 = FACE_BOUND('',#1482,.T.);
#1482 = EDGE_LOOP('',(#1483,#1484,#1485,#1493));
#1483 = ORIENTED_EDGE('',*,*,#297,.F.);
#1484 = ORIENTED_EDGE('',*,*,#1446,.T.);
#1485 = ORIENTED_EDGE('',*,*,#1486,.F.);
#1486 = EDGE_CURVE('',#1487,#1438,#1489,.T.);
#1487 = VERTEX_POINT('',#1488);
#1488 = CARTESIAN_POINT('',(251.,139.,3.));
#1489 = LINE('',#1490,#1491);
#1490 = CARTESIAN_POINT('',(251.,184.34774459995,3.));
#1491 = VECTOR('',#1492,1.);
#1492 = DIRECTION('',(0.,1.,-5.5E-16));
#1493 = ORIENTED_EDGE('',*,*,#1494,.F.);
#1494 = EDGE_CURVE('',#298,#1487,#1495,.T.);
#1495 = LINE('',#1496,#1497);
#1496 = CARTESIAN_POINT('',(251.,139.,0.));
#1497 = VECTOR('',#1498,1.);
#1498 = DIRECTION('',(0.,0.,1.));
#1499 = PLANE('',#1500);
#1500 = AXIS2_PLACEMENT_3D('',#1501,#1502,#1503);
#1501 = CARTESIAN_POINT('',(251.,183.,0.));
#1502 = DIRECTION('',(1.,0.,0.));
#1503 = DIRECTION('',(0.,-1.,0.));
#1504 = ADVANCED_FACE('',(#1505),#1524,.F.);
#1505 = FACE_BOUND('',#1506,.T.);
#1506 = EDGE_LOOP('',(#1507,#1508,#1516,#1523));
#1507 = ORIENTED_EDGE('',*,*,#339,.F.);
#1508 = ORIENTED_EDGE('',*,*,#1509,.T.);
#1509 = EDGE_CURVE('',#332,#1510,#1512,.T.);
#1510 = VERTEX_POINT('',#1511);
#1511 = CARTESIAN_POINT('',(295.,183.,3.));
#1512 = LINE('',#1513,#1514);
#1513 = CARTESIAN_POINT('',(295.,183.,0.));
#1514 = VECTOR('',#1515,1.);
#1515 = DIRECTION('',(0.,0.,1.));
#1516 = ORIENTED_EDGE('',*,*,#1517,.F.);
#1517 = EDGE_CURVE('',#1462,#1510,#1518,.T.);
#1518 = CIRCLE('',#1519,3.);
#1519 = AXIS2_PLACEMENT_3D('',#1520,#1521,#1522);
#1520 = CARTESIAN_POINT('',(292.,183.,3.));
#1521 = DIRECTION('',(0.,0.,-1.));
#1522 = DIRECTION('',(1.,0.,0.));
#1523 = ORIENTED_EDGE('',*,*,#1461,.F.);
#1524 = CYLINDRICAL_SURFACE('',#1525,3.);
#1525 = AXIS2_PLACEMENT_3D('',#1526,#1527,#1528);
#1526 = CARTESIAN_POINT('',(292.,183.,0.));
#1527 = DIRECTION('',(-0.,-0.,-1.));
#1528 = DIRECTION('',(1.,0.,0.));
#1529 = ADVANCED_FACE('',(#1530),#1549,.F.);
#1530 = FACE_BOUND('',#1531,.T.);
#1531 = EDGE_LOOP('',(#1532,#1533,#1534,#1543));
#1532 = ORIENTED_EDGE('',*,*,#305,.F.);
#1533 = ORIENTED_EDGE('',*,*,#1494,.T.);
#1534 = ORIENTED_EDGE('',*,*,#1535,.F.);
#1535 = EDGE_CURVE('',#1536,#1487,#1538,.T.);
#1536 = VERTEX_POINT('',#1537);
#1537 = CARTESIAN_POINT('',(254.,136.,3.));
#1538 = CIRCLE('',#1539,3.);
#1539 = AXIS2_PLACEMENT_3D('',#1540,#1541,#1542);
#1540 = CARTESIAN_POINT('',(254.,139.,3.));
#1541 = DIRECTION('',(0.,0.,-1.));
#1542 = DIRECTION('',(1.,0.,0.));
#1543 = ORIENTED_EDGE('',*,*,#1544,.F.);
#1544 = EDGE_CURVE('',#306,#1536,#1545,.T.);
#1545 = LINE('',#1546,#1547);
#1546 = CARTESIAN_POINT('',(254.,136.,0.));
#1547 = VECTOR('',#1548,1.);
#1548 = DIRECTION('',(0.,0.,1.));
#1549 = CYLINDRICAL_SURFACE('',#1550,3.);
#1550 = AXIS2_PLACEMENT_3D('',#1551,#1552,#1553);
#1551 = CARTESIAN_POINT('',(254.,139.,0.));
#1552 = DIRECTION('',(-0.,-0.,-1.));
#1553 = DIRECTION('',(1.,0.,0.));
#1554 = ADVANCED_FACE('',(#1555),#1573,.T.);
#1555 = FACE_BOUND('',#1556,.T.);
#1556 = EDGE_LOOP('',(#1557,#1558,#1566,#1572));
#1557 = ORIENTED_EDGE('',*,*,#331,.F.);
#1558 = ORIENTED_EDGE('',*,*,#1559,.T.);
#1559 = EDGE_CURVE('',#323,#1560,#1562,.T.);
#1560 = VERTEX_POINT('',#1561);
#1561 = CARTESIAN_POINT('',(295.,139.,3.));
#1562 = LINE('',#1563,#1564);
#1563 = CARTESIAN_POINT('',(295.,139.,0.));
#1564 = VECTOR('',#1565,1.);
#1565 = DIRECTION('',(0.,0.,1.));
#1566 = ORIENTED_EDGE('',*,*,#1567,.F.);
#1567 = EDGE_CURVE('',#1510,#1560,#1568,.T.);
#1568 = LINE('',#1569,#1570);
#1569 = CARTESIAN_POINT('',(295.,162.34774459995,3.));
#1570 = VECTOR('',#1571,1.);
#1571 = DIRECTION('',(0.,-1.,5.5E-16));
#1572 = ORIENTED_EDGE('',*,*,#1509,.F.);
#1573 = PLANE('',#1574);
#1574 = AXIS2_PLACEMENT_3D('',#1575,#1576,#1577);
#1575 = CARTESIAN_POINT('',(295.,139.,0.));
#1576 = DIRECTION('',(-1.,0.,0.));
#1577 = DIRECTION('',(0.,1.,0.));
#1578 = ADVANCED_FACE('',(#1579),#1597,.T.);
#1579 = FACE_BOUND('',#1580,.T.);
#1580 = EDGE_LOOP('',(#1581,#1582,#1583,#1591));
#1581 = ORIENTED_EDGE('',*,*,#314,.F.);
#1582 = ORIENTED_EDGE('',*,*,#1544,.T.);
#1583 = ORIENTED_EDGE('',*,*,#1584,.F.);
#1584 = EDGE_CURVE('',#1585,#1536,#1587,.T.);
#1585 = VERTEX_POINT('',#1586);
#1586 = CARTESIAN_POINT('',(292.,136.,3.));
#1587 = LINE('',#1588,#1589);
#1588 = CARTESIAN_POINT('',(226.64285713969,136.,3.));
#1589 = VECTOR('',#1590,1.);
#1590 = DIRECTION('',(-1.,0.,0.));
#1591 = ORIENTED_EDGE('',*,*,#1592,.F.);
#1592 = EDGE_CURVE('',#315,#1585,#1593,.T.);
#1593 = LINE('',#1594,#1595);
#1594 = CARTESIAN_POINT('',(292.,136.,0.));
#1595 = VECTOR('',#1596,1.);
#1596 = DIRECTION('',(0.,0.,1.));
#1597 = PLANE('',#1598);
#1598 = AXIS2_PLACEMENT_3D('',#1599,#1600,#1601);
#1599 = CARTESIAN_POINT('',(254.,136.,0.));
#1600 = DIRECTION('',(0.,1.,0.));
#1601 = DIRECTION('',(1.,0.,0.));
#1602 = ADVANCED_FACE('',(#1603),#1615,.F.);
#1603 = FACE_BOUND('',#1604,.T.);
#1604 = EDGE_LOOP('',(#1605,#1606,#1607,#1614));
#1605 = ORIENTED_EDGE('',*,*,#322,.F.);
#1606 = ORIENTED_EDGE('',*,*,#1592,.T.);
#1607 = ORIENTED_EDGE('',*,*,#1608,.F.);
#1608 = EDGE_CURVE('',#1560,#1585,#1609,.T.);
#1609 = CIRCLE('',#1610,3.);
#1610 = AXIS2_PLACEMENT_3D('',#1611,#1612,#1613);
#1611 = CARTESIAN_POINT('',(292.,139.,3.));
#1612 = DIRECTION('',(0.,0.,-1.));
#1613 = DIRECTION('',(1.,0.,0.));
#1614 = ORIENTED_EDGE('',*,*,#1559,.F.);
#1615 = CYLINDRICAL_SURFACE('',#1616,3.);
#1616 = AXIS2_PLACEMENT_3D('',#1617,#1618,#1619);
#1617 = CARTESIAN_POINT('',(292.,139.,0.));
#1618 = DIRECTION('',(-0.,-0.,-1.));
#1619 = DIRECTION('',(1.,0.,0.));
#1620 = ADVANCED_FACE('',(#1621),#1640,.F.);
#1621 = FACE_BOUND('',#1622,.T.);
#1622 = EDGE_LOOP('',(#1623,#1631,#1632,#1633));
#1623 = ORIENTED_EDGE('',*,*,#1624,.F.);
#1624 = EDGE_CURVE('',#357,#1625,#1627,.T.);
#1625 = VERTEX_POINT('',#1626);
#1626 = CARTESIAN_POINT('',(113.200002,109.000002,3.));
#1627 = LINE('',#1628,#1629);
#1628 = CARTESIAN_POINT('',(113.200002,109.000002,0.));
#1629 = VECTOR('',#1630,1.);
#1630 = DIRECTION('',(5.E-17,0.,1.));
#1631 = ORIENTED_EDGE('',*,*,#356,.T.);
#1632 = ORIENTED_EDGE('',*,*,#1624,.T.);
#1633 = ORIENTED_EDGE('',*,*,#1634,.T.);
#1634 = EDGE_CURVE('',#1625,#1625,#1635,.T.);
#1635 = CIRCLE('',#1636,3.3);
#1636 = AXIS2_PLACEMENT_3D('',#1637,#1638,#1639);
#1637 = CARTESIAN_POINT('',(116.500002,109.000002,3.));
#1638 = DIRECTION('',(0.,0.,1.));
#1639 = DIRECTION('',(-1.,0.,0.));
#1640 = CYLINDRICAL_SURFACE('',#1641,3.3);
#1641 = AXIS2_PLACEMENT_3D('',#1642,#1643,#1644);
#1642 = CARTESIAN_POINT('',(116.500002,109.000002,0.));
#1643 = DIRECTION('',(0.,0.,1.));
#1644 = DIRECTION('',(-1.,0.,0.));
#1645 = ADVANCED_FACE('',(#1646),#1672,.F.);
#1646 = FACE_BOUND('',#1647,.T.);
#1647 = EDGE_LOOP('',(#1648,#1649,#1657,#1666));
#1648 = ORIENTED_EDGE('',*,*,#367,.F.);
#1649 = ORIENTED_EDGE('',*,*,#1650,.T.);
#1650 = EDGE_CURVE('',#368,#1651,#1653,.T.);
#1651 = VERTEX_POINT('',#1652);
#1652 = CARTESIAN_POINT('',(138.,186.,3.));
#1653 = LINE('',#1654,#1655);
#1654 = CARTESIAN_POINT('',(138.,186.,0.));
#1655 = VECTOR('',#1656,1.);
#1656 = DIRECTION('',(0.,0.,1.));
#1657 = ORIENTED_EDGE('',*,*,#1658,.F.);
#1658 = EDGE_CURVE('',#1659,#1651,#1661,.T.);
#1659 = VERTEX_POINT('',#1660);
#1660 = CARTESIAN_POINT('',(135.,183.,3.));
#1661 = CIRCLE('',#1662,3.);
#1662 = AXIS2_PLACEMENT_3D('',#1663,#1664,#1665);
#1663 = CARTESIAN_POINT('',(138.,183.,3.));
#1664 = DIRECTION('',(0.,0.,-1.));
#1665 = DIRECTION('',(1.,0.,0.));
#1666 = ORIENTED_EDGE('',*,*,#1667,.F.);
#1667 = EDGE_CURVE('',#370,#1659,#1668,.T.);
#1668 = LINE('',#1669,#1670);
#1669 = CARTESIAN_POINT('',(135.,183.,0.));
#1670 = VECTOR('',#1671,1.);
#1671 = DIRECTION('',(0.,0.,1.));
#1672 = CYLINDRICAL_SURFACE('',#1673,3.);
#1673 = AXIS2_PLACEMENT_3D('',#1674,#1675,#1676);
#1674 = CARTESIAN_POINT('',(138.,183.,0.));
#1675 = DIRECTION('',(-0.,-0.,-1.));
#1676 = DIRECTION('',(1.,0.,0.));
#1677 = ADVANCED_FACE('',(#1678),#1696,.T.);
#1678 = FACE_BOUND('',#1679,.T.);
#1679 = EDGE_LOOP('',(#1680,#1681,#1689,#1695));
#1680 = ORIENTED_EDGE('',*,*,#429,.F.);
#1681 = ORIENTED_EDGE('',*,*,#1682,.T.);
#1682 = EDGE_CURVE('',#421,#1683,#1685,.T.);
#1683 = VERTEX_POINT('',#1684);
#1684 = CARTESIAN_POINT('',(176.00000005884,186.,3.));
#1685 = LINE('',#1686,#1687);
#1686 = CARTESIAN_POINT('',(176.00000005884,186.,0.));
#1687 = VECTOR('',#1688,1.);
#1688 = DIRECTION('',(0.,0.,1.));
#1689 = ORIENTED_EDGE('',*,*,#1690,.F.);
#1690 = EDGE_CURVE('',#1651,#1683,#1691,.T.);
#1691 = LINE('',#1692,#1693);
#1692 = CARTESIAN_POINT('',(187.64285716912,186.,3.));
#1693 = VECTOR('',#1694,1.);
#1694 = DIRECTION('',(1.,0.,0.));
#1695 = ORIENTED_EDGE('',*,*,#1650,.F.);
#1696 = PLANE('',#1697);
#1697 = AXIS2_PLACEMENT_3D('',#1698,#1699,#1700);
#1698 = CARTESIAN_POINT('',(176.00000005884,186.,0.));
#1699 = DIRECTION('',(0.,-1.,0.));
#1700 = DIRECTION('',(-1.,0.,0.));
#1701 = ADVANCED_FACE('',(#1702),#1720,.T.);
#1702 = FACE_BOUND('',#1703,.T.);
#1703 = EDGE_LOOP('',(#1704,#1705,#1706,#1714));
#1704 = ORIENTED_EDGE('',*,*,#378,.F.);
#1705 = ORIENTED_EDGE('',*,*,#1667,.T.);
#1706 = ORIENTED_EDGE('',*,*,#1707,.F.);
#1707 = EDGE_CURVE('',#1708,#1659,#1710,.T.);
#1708 = VERTEX_POINT('',#1709);
#1709 = CARTESIAN_POINT('',(135.,139.,3.));
#1710 = LINE('',#1711,#1712);
#1711 = CARTESIAN_POINT('',(135.,184.34774459995,3.));
#1712 = VECTOR('',#1713,1.);
#1713 = DIRECTION('',(0.,1.,-5.5E-16));
#1714 = ORIENTED_EDGE('',*,*,#1715,.F.);
#1715 = EDGE_CURVE('',#379,#1708,#1716,.T.);
#1716 = LINE('',#1717,#1718);
#1717 = CARTESIAN_POINT('',(135.,139.,0.));
#1718 = VECTOR('',#1719,1.);
#1719 = DIRECTION('',(0.,0.,1.));
#1720 = PLANE('',#1721);
#1721 = AXIS2_PLACEMENT_3D('',#1722,#1723,#1724);
#1722 = CARTESIAN_POINT('',(135.,183.,0.));
#1723 = DIRECTION('',(1.,0.,0.));
#1724 = DIRECTION('',(0.,-1.,0.));
#1725 = ADVANCED_FACE('',(#1726),#1745,.F.);
#1726 = FACE_BOUND('',#1727,.T.);
#1727 = EDGE_LOOP('',(#1728,#1729,#1737,#1744));
#1728 = ORIENTED_EDGE('',*,*,#420,.F.);
#1729 = ORIENTED_EDGE('',*,*,#1730,.T.);
#1730 = EDGE_CURVE('',#413,#1731,#1733,.T.);
#1731 = VERTEX_POINT('',#1732);
#1732 = CARTESIAN_POINT('',(179.00000005884,183.,3.));
#1733 = LINE('',#1734,#1735);
#1734 = CARTESIAN_POINT('',(179.00000005884,183.,0.));
#1735 = VECTOR('',#1736,1.);
#1736 = DIRECTION('',(0.,0.,1.));
#1737 = ORIENTED_EDGE('',*,*,#1738,.F.);
#1738 = EDGE_CURVE('',#1683,#1731,#1739,.T.);
#1739 = CIRCLE('',#1740,3.);
#1740 = AXIS2_PLACEMENT_3D('',#1741,#1742,#1743);
#1741 = CARTESIAN_POINT('',(176.00000005884,183.,3.));
#1742 = DIRECTION('',(0.,0.,-1.));
#1743 = DIRECTION('',(1.,0.,0.));
#1744 = ORIENTED_EDGE('',*,*,#1682,.F.);
#1745 = CYLINDRICAL_SURFACE('',#1746,3.);
#1746 = AXIS2_PLACEMENT_3D('',#1747,#1748,#1749);
#1747 = CARTESIAN_POINT('',(176.00000005884,183.,0.));
#1748 = DIRECTION('',(-0.,-0.,-1.));
#1749 = DIRECTION('',(1.,0.,0.));
#1750 = ADVANCED_FACE('',(#1751),#1770,.F.);
#1751 = FACE_BOUND('',#1752,.T.);
#1752 = EDGE_LOOP('',(#1753,#1754,#1755,#1764));
#1753 = ORIENTED_EDGE('',*,*,#386,.F.);
#1754 = ORIENTED_EDGE('',*,*,#1715,.T.);
#1755 = ORIENTED_EDGE('',*,*,#1756,.F.);
#1756 = EDGE_CURVE('',#1757,#1708,#1759,.T.);
#1757 = VERTEX_POINT('',#1758);
#1758 = CARTESIAN_POINT('',(138.,136.,3.));
#1759 = CIRCLE('',#1760,3.);
#1760 = AXIS2_PLACEMENT_3D('',#1761,#1762,#1763);
#1761 = CARTESIAN_POINT('',(138.,139.,3.));
#1762 = DIRECTION('',(0.,0.,-1.));
#1763 = DIRECTION('',(1.,0.,0.));
#1764 = ORIENTED_EDGE('',*,*,#1765,.F.);
#1765 = EDGE_CURVE('',#387,#1757,#1766,.T.);
#1766 = LINE('',#1767,#1768);
#1767 = CARTESIAN_POINT('',(138.,136.,0.));
#1768 = VECTOR('',#1769,1.);
#1769 = DIRECTION('',(0.,0.,1.));
#1770 = CYLINDRICAL_SURFACE('',#1771,3.);
#1771 = AXIS2_PLACEMENT_3D('',#1772,#1773,#1774);
#1772 = CARTESIAN_POINT('',(138.,139.,0.));
#1773 = DIRECTION('',(-0.,-0.,-1.));
#1774 = DIRECTION('',(1.,0.,0.));
#1775 = ADVANCED_FACE('',(#1776),#1794,.T.);
#1776 = FACE_BOUND('',#1777,.T.);
#1777 = EDGE_LOOP('',(#1778,#1779,#1787,#1793));
#1778 = ORIENTED_EDGE('',*,*,#412,.F.);
#1779 = ORIENTED_EDGE('',*,*,#1780,.T.);
#1780 = EDGE_CURVE('',#404,#1781,#1783,.T.);
#1781 = VERTEX_POINT('',#1782);
#1782 = CARTESIAN_POINT('',(179.00000005884,139.,3.));
#1783 = LINE('',#1784,#1785);
#1784 = CARTESIAN_POINT('',(179.00000005884,139.,0.));
#1785 = VECTOR('',#1786,1.);
#1786 = DIRECTION('',(0.,0.,1.));
#1787 = ORIENTED_EDGE('',*,*,#1788,.F.);
#1788 = EDGE_CURVE('',#1731,#1781,#1789,.T.);
#1789 = LINE('',#1790,#1791);
#1790 = CARTESIAN_POINT('',(179.00000005884,162.34774459995,3.));
#1791 = VECTOR('',#1792,1.);
#1792 = DIRECTION('',(0.,-1.,5.5E-16));
#1793 = ORIENTED_EDGE('',*,*,#1730,.F.);
#1794 = PLANE('',#1795);
#1795 = AXIS2_PLACEMENT_3D('',#1796,#1797,#1798);
#1796 = CARTESIAN_POINT('',(179.00000005884,139.,0.));
#1797 = DIRECTION('',(-1.,0.,0.));
#1798 = DIRECTION('',(0.,1.,0.));
#1799 = ADVANCED_FACE('',(#1800),#1818,.T.);
#1800 = FACE_BOUND('',#1801,.T.);
#1801 = EDGE_LOOP('',(#1802,#1803,#1804,#1812));
#1802 = ORIENTED_EDGE('',*,*,#395,.F.);
#1803 = ORIENTED_EDGE('',*,*,#1765,.T.);
#1804 = ORIENTED_EDGE('',*,*,#1805,.F.);
#1805 = EDGE_CURVE('',#1806,#1757,#1808,.T.);
#1806 = VERTEX_POINT('',#1807);
#1807 = CARTESIAN_POINT('',(176.00000005884,136.,3.));
#1808 = LINE('',#1809,#1810);
#1809 = CARTESIAN_POINT('',(168.64285713969,136.,3.));
#1810 = VECTOR('',#1811,1.);
#1811 = DIRECTION('',(-1.,0.,0.));
#1812 = ORIENTED_EDGE('',*,*,#1813,.F.);
#1813 = EDGE_CURVE('',#396,#1806,#1814,.T.);
#1814 = LINE('',#1815,#1816);
#1815 = CARTESIAN_POINT('',(176.00000005884,136.,0.));
#1816 = VECTOR('',#1817,1.);
#1817 = DIRECTION('',(0.,0.,1.));
#1818 = PLANE('',#1819);
#1819 = AXIS2_PLACEMENT_3D('',#1820,#1821,#1822);
#1820 = CARTESIAN_POINT('',(138.,136.,0.));
#1821 = DIRECTION('',(0.,1.,0.));
#1822 = DIRECTION('',(1.,0.,0.));
#1823 = ADVANCED_FACE('',(#1824),#1836,.F.);
#1824 = FACE_BOUND('',#1825,.T.);
#1825 = EDGE_LOOP('',(#1826,#1827,#1828,#1835));
#1826 = ORIENTED_EDGE('',*,*,#403,.F.);
#1827 = ORIENTED_EDGE('',*,*,#1813,.T.);
#1828 = ORIENTED_EDGE('',*,*,#1829,.F.);
#1829 = EDGE_CURVE('',#1781,#1806,#1830,.T.);
#1830 = CIRCLE('',#1831,3.);
#1831 = AXIS2_PLACEMENT_3D('',#1832,#1833,#1834);
#1832 = CARTESIAN_POINT('',(176.00000005884,139.,3.));
#1833 = DIRECTION('',(0.,0.,-1.));
#1834 = DIRECTION('',(1.,0.,0.));
#1835 = ORIENTED_EDGE('',*,*,#1780,.F.);
#1836 = CYLINDRICAL_SURFACE('',#1837,3.);
#1837 = AXIS2_PLACEMENT_3D('',#1838,#1839,#1840);
#1838 = CARTESIAN_POINT('',(176.00000005884,139.,0.));
#1839 = DIRECTION('',(-0.,-0.,-1.));
#1840 = DIRECTION('',(1.,0.,0.));
#1841 = ADVANCED_FACE('',(#1842),#1861,.F.);
#1842 = FACE_BOUND('',#1843,.T.);
#1843 = EDGE_LOOP('',(#1844,#1852,#1853,#1854));
#1844 = ORIENTED_EDGE('',*,*,#1845,.F.);
#1845 = EDGE_CURVE('',#438,#1846,#1848,.T.);
#1846 = VERTEX_POINT('',#1847);
#1847 = CARTESIAN_POINT('',(7.25,180.,3.));
#1848 = LINE('',#1849,#1850);
#1849 = CARTESIAN_POINT('',(7.25,180.,0.));
#1850 = VECTOR('',#1851,1.);
#1851 = DIRECTION('',(5.E-17,0.,1.));
#1852 = ORIENTED_EDGE('',*,*,#437,.T.);
#1853 = ORIENTED_EDGE('',*,*,#1845,.T.);
#1854 = ORIENTED_EDGE('',*,*,#1855,.T.);
#1855 = EDGE_CURVE('',#1846,#1846,#1856,.T.);
#1856 = CIRCLE('',#1857,2.75);
#1857 = AXIS2_PLACEMENT_3D('',#1858,#1859,#1860);
#1858 = CARTESIAN_POINT('',(10.,180.,3.));
#1859 = DIRECTION('',(0.,0.,1.));
#1860 = DIRECTION('',(-1.,0.,0.));
#1861 = CYLINDRICAL_SURFACE('',#1862,2.75);
#1862 = AXIS2_PLACEMENT_3D('',#1863,#1864,#1865);
#1863 = CARTESIAN_POINT('',(10.,180.,0.));
#1864 = DIRECTION('',(0.,0.,1.));
#1865 = DIRECTION('',(-1.,0.,0.));
#1866 = ADVANCED_FACE('',(#1867),#1886,.F.);
#1867 = FACE_BOUND('',#1868,.T.);
#1868 = EDGE_LOOP('',(#1869,#1877,#1878,#1879));
#1869 = ORIENTED_EDGE('',*,*,#1870,.F.);
#1870 = EDGE_CURVE('',#449,#1871,#1873,.T.);
#1871 = VERTEX_POINT('',#1872);
#1872 = CARTESIAN_POINT('',(347.200005,211.000003,3.));
#1873 = LINE('',#1874,#1875);
#1874 = CARTESIAN_POINT('',(347.200005,211.000003,0.));
#1875 = VECTOR('',#1876,1.);
#1876 = DIRECTION('',(5.E-17,0.,1.));
#1877 = ORIENTED_EDGE('',*,*,#448,.T.);
#1878 = ORIENTED_EDGE('',*,*,#1870,.T.);
#1879 = ORIENTED_EDGE('',*,*,#1880,.T.);
#1880 = EDGE_CURVE('',#1871,#1871,#1881,.T.);
#1881 = CIRCLE('',#1882,3.3);
#1882 = AXIS2_PLACEMENT_3D('',#1883,#1884,#1885);
#1883 = CARTESIAN_POINT('',(350.500005,211.000003,3.));
#1884 = DIRECTION('',(0.,0.,1.));
#1885 = DIRECTION('',(-1.,0.,0.));
#1886 = CYLINDRICAL_SURFACE('',#1887,3.3);
#1887 = AXIS2_PLACEMENT_3D('',#1888,#1889,#1890);
#1888 = CARTESIAN_POINT('',(350.500005,211.000003,0.));
#1889 = DIRECTION('',(0.,0.,1.));
#1890 = DIRECTION('',(-1.,0.,0.));
#1891 = ADVANCED_FACE('',(#1892),#1911,.F.);
#1892 = FACE_BOUND('',#1893,.T.);
#1893 = EDGE_LOOP('',(#1894,#1902,#1903,#1904));
#1894 = ORIENTED_EDGE('',*,*,#1895,.F.);
#1895 = EDGE_CURVE('',#460,#1896,#1898,.T.);
#1896 = VERTEX_POINT('',#1897);
#1897 = CARTESIAN_POINT('',(382.25,220.,3.));
#1898 = LINE('',#1899,#1900);
#1899 = CARTESIAN_POINT('',(382.25,220.,0.));
#1900 = VECTOR('',#1901,1.);
#1901 = DIRECTION('',(5.E-17,0.,1.));
#1902 = ORIENTED_EDGE('',*,*,#459,.T.);
#1903 = ORIENTED_EDGE('',*,*,#1895,.T.);
#1904 = ORIENTED_EDGE('',*,*,#1905,.T.);
#1905 = EDGE_CURVE('',#1896,#1896,#1906,.T.);
#1906 = CIRCLE('',#1907,2.75);
#1907 = AXIS2_PLACEMENT_3D('',#1908,#1909,#1910);
#1908 = CARTESIAN_POINT('',(385.,220.,3.));
#1909 = DIRECTION('',(0.,0.,1.));
#1910 = DIRECTION('',(-1.,0.,0.));
#1911 = CYLINDRICAL_SURFACE('',#1912,2.75);
#1912 = AXIS2_PLACEMENT_3D('',#1913,#1914,#1915);
#1913 = CARTESIAN_POINT('',(385.,220.,0.));
#1914 = DIRECTION('',(0.,0.,1.));
#1915 = DIRECTION('',(-1.,0.,0.));
#1916 = ADVANCED_FACE('',(#1917),#1936,.F.);
#1917 = FACE_BOUND('',#1918,.T.);
#1918 = EDGE_LOOP('',(#1919,#1927,#1928,#1929));
#1919 = ORIENTED_EDGE('',*,*,#1920,.F.);
#1920 = EDGE_CURVE('',#471,#1921,#1923,.T.);
#1921 = VERTEX_POINT('',#1922);
#1922 = CARTESIAN_POINT('',(230.200003,211.000003,3.));
#1923 = LINE('',#1924,#1925);
#1924 = CARTESIAN_POINT('',(230.200003,211.000003,0.));
#1925 = VECTOR('',#1926,1.);
#1926 = DIRECTION('',(5.E-17,0.,1.));
#1927 = ORIENTED_EDGE('',*,*,#470,.T.);
#1928 = ORIENTED_EDGE('',*,*,#1920,.T.);
#1929 = ORIENTED_EDGE('',*,*,#1930,.T.);
#1930 = EDGE_CURVE('',#1921,#1921,#1931,.T.);
#1931 = CIRCLE('',#1932,3.3);
#1932 = AXIS2_PLACEMENT_3D('',#1933,#1934,#1935);
#1933 = CARTESIAN_POINT('',(233.500003,211.000003,3.));
#1934 = DIRECTION('',(0.,0.,1.));
#1935 = DIRECTION('',(-1.,0.,0.));
#1936 = CYLINDRICAL_SURFACE('',#1937,3.3);
#1937 = AXIS2_PLACEMENT_3D('',#1938,#1939,#1940);
#1938 = CARTESIAN_POINT('',(233.500003,211.000003,0.));
#1939 = DIRECTION('',(0.,0.,1.));
#1940 = DIRECTION('',(-1.,0.,0.));
#1941 = ADVANCED_FACE('',(#1942),#1961,.F.);
#1942 = FACE_BOUND('',#1943,.T.);
#1943 = EDGE_LOOP('',(#1944,#1952,#1953,#1954));
#1944 = ORIENTED_EDGE('',*,*,#1945,.F.);
#1945 = EDGE_CURVE('',#482,#1946,#1948,.T.);
#1946 = VERTEX_POINT('',#1947);
#1947 = CARTESIAN_POINT('',(382.25,260.,3.));
#1948 = LINE('',#1949,#1950);
#1949 = CARTESIAN_POINT('',(382.25,260.,0.));
#1950 = VECTOR('',#1951,1.);
#1951 = DIRECTION('',(5.E-17,0.,1.));
#1952 = ORIENTED_EDGE('',*,*,#481,.T.);
#1953 = ORIENTED_EDGE('',*,*,#1945,.T.);
#1954 = ORIENTED_EDGE('',*,*,#1955,.T.);
#1955 = EDGE_CURVE('',#1946,#1946,#1956,.T.);
#1956 = CIRCLE('',#1957,2.75);
#1957 = AXIS2_PLACEMENT_3D('',#1958,#1959,#1960);
#1958 = CARTESIAN_POINT('',(385.,260.,3.));
#1959 = DIRECTION('',(0.,0.,1.));
#1960 = DIRECTION('',(-1.,0.,0.));
#1961 = CYLINDRICAL_SURFACE('',#1962,2.75);
#1962 = AXIS2_PLACEMENT_3D('',#1963,#1964,#1965);
#1963 = CARTESIAN_POINT('',(385.,260.,0.));
#1964 = DIRECTION('',(0.,0.,1.));
#1965 = DIRECTION('',(-1.,0.,0.));
#1966 = ADVANCED_FACE('',(#1967),#1986,.F.);
#1967 = FACE_BOUND('',#1968,.T.);
#1968 = EDGE_LOOP('',(#1969,#1977,#1978,#1979));
#1969 = ORIENTED_EDGE('',*,*,#1970,.F.);
#1970 = EDGE_CURVE('',#493,#1971,#1973,.T.);
#1971 = VERTEX_POINT('',#1972);
#1972 = CARTESIAN_POINT('',(113.200002,211.000003,3.));
#1973 = LINE('',#1974,#1975);
#1974 = CARTESIAN_POINT('',(113.200002,211.000003,0.));
#1975 = VECTOR('',#1976,1.);
#1976 = DIRECTION('',(5.E-17,0.,1.));
#1977 = ORIENTED_EDGE('',*,*,#492,.T.);
#1978 = ORIENTED_EDGE('',*,*,#1970,.T.);
#1979 = ORIENTED_EDGE('',*,*,#1980,.T.);
#1980 = EDGE_CURVE('',#1971,#1971,#1981,.T.);
#1981 = CIRCLE('',#1982,3.3);
#1982 = AXIS2_PLACEMENT_3D('',#1983,#1984,#1985);
#1983 = CARTESIAN_POINT('',(116.500002,211.000003,3.));
#1984 = DIRECTION('',(0.,0.,1.));
#1985 = DIRECTION('',(-1.,0.,0.));
#1986 = CYLINDRICAL_SURFACE('',#1987,3.3);
#1987 = AXIS2_PLACEMENT_3D('',#1988,#1989,#1990);
#1988 = CARTESIAN_POINT('',(116.500002,211.000003,0.));
#1989 = DIRECTION('',(0.,0.,1.));
#1990 = DIRECTION('',(-1.,0.,0.));
#1991 = ADVANCED_FACE('',(#1992),#2011,.F.);
#1992 = FACE_BOUND('',#1993,.T.);
#1993 = EDGE_LOOP('',(#1994,#2002,#2003,#2004));
#1994 = ORIENTED_EDGE('',*,*,#1995,.F.);
#1995 = EDGE_CURVE('',#504,#1996,#1998,.T.);
#1996 = VERTEX_POINT('',#1997);
#1997 = CARTESIAN_POINT('',(7.25,220.,3.));
#1998 = LINE('',#1999,#2000);
#1999 = CARTESIAN_POINT('',(7.25,220.,0.));
#2000 = VECTOR('',#2001,1.);
#2001 = DIRECTION('',(5.E-17,0.,1.));
#2002 = ORIENTED_EDGE('',*,*,#503,.T.);
#2003 = ORIENTED_EDGE('',*,*,#1995,.T.);
#2004 = ORIENTED_EDGE('',*,*,#2005,.T.);
#2005 = EDGE_CURVE('',#1996,#1996,#2006,.T.);
#2006 = CIRCLE('',#2007,2.75);
#2007 = AXIS2_PLACEMENT_3D('',#2008,#2009,#2010);
#2008 = CARTESIAN_POINT('',(10.,220.,3.));
#2009 = DIRECTION('',(0.,0.,1.));
#2010 = DIRECTION('',(-1.,0.,0.));
#2011 = CYLINDRICAL_SURFACE('',#2012,2.75);
#2012 = AXIS2_PLACEMENT_3D('',#2013,#2014,#2015);
#2013 = CARTESIAN_POINT('',(10.,220.,0.));
#2014 = DIRECTION('',(0.,0.,1.));
#2015 = DIRECTION('',(-1.,0.,0.));
#2016 = ADVANCED_FACE('',(#2017),#2036,.F.);
#2017 = FACE_BOUND('',#2018,.T.);
#2018 = EDGE_LOOP('',(#2019,#2027,#2028,#2029));
#2019 = ORIENTED_EDGE('',*,*,#2020,.F.);
#2020 = EDGE_CURVE('',#515,#2021,#2023,.T.);
#2021 = VERTEX_POINT('',#2022);
#2022 = CARTESIAN_POINT('',(7.25,260.,3.));
#2023 = LINE('',#2024,#2025);
#2024 = CARTESIAN_POINT('',(7.25,260.,0.));
#2025 = VECTOR('',#2026,1.);
#2026 = DIRECTION('',(5.E-17,0.,1.));
#2027 = ORIENTED_EDGE('',*,*,#514,.T.);
#2028 = ORIENTED_EDGE('',*,*,#2020,.T.);
#2029 = ORIENTED_EDGE('',*,*,#2030,.T.);
#2030 = EDGE_CURVE('',#2021,#2021,#2031,.T.);
#2031 = CIRCLE('',#2032,2.75);
#2032 = AXIS2_PLACEMENT_3D('',#2033,#2034,#2035);
#2033 = CARTESIAN_POINT('',(10.,260.,3.));
#2034 = DIRECTION('',(0.,0.,1.));
#2035 = DIRECTION('',(-1.,0.,0.));
#2036 = CYLINDRICAL_SURFACE('',#2037,2.75);
#2037 = AXIS2_PLACEMENT_3D('',#2038,#2039,#2040);
#2038 = CARTESIAN_POINT('',(10.,260.,0.));
#2039 = DIRECTION('',(0.,0.,1.));
#2040 = DIRECTION('',(-1.,0.,0.));
#2041 = ADVANCED_FACE('',(#2042,#2077,#2080,#2083,#2086,#2096,#2099,
    #2102,#2105,#2108,#2111,#2121,#2124,#2127,#2130),#2133,.T.);
#2042 = FACE_BOUND('',#2043,.T.);
#2043 = EDGE_LOOP('',(#2044,#2045,#2046,#2047,#2048,#2049,#2050,#2051,
    #2052,#2053,#2054,#2055,#2056,#2057,#2058,#2059,#2060,#2061,#2062,
    #2063,#2069,#2070,#2071,#2072,#2073,#2074,#2075,#2076));
#2044 = ORIENTED_EDGE('',*,*,#540,.T.);
#2045 = ORIENTED_EDGE('',*,*,#589,.T.);
#2046 = ORIENTED_EDGE('',*,*,#644,.T.);
#2047 = ORIENTED_EDGE('',*,*,#693,.T.);
#2048 = ORIENTED_EDGE('',*,*,#742,.T.);
#2049 = ORIENTED_EDGE('',*,*,#790,.T.);
#2050 = ORIENTED_EDGE('',*,*,#839,.T.);
#2051 = ORIENTED_EDGE('',*,*,#880,.T.);
#2052 = ORIENTED_EDGE('',*,*,#960,.T.);
#2053 = ORIENTED_EDGE('',*,*,#1102,.T.);
#2054 = ORIENTED_EDGE('',*,*,#1176,.T.);
#2055 = ORIENTED_EDGE('',*,*,#1224,.T.);
#2056 = ORIENTED_EDGE('',*,*,#1273,.T.);
#2057 = ORIENTED_EDGE('',*,*,#1314,.T.);
#2058 = ORIENTED_EDGE('',*,*,#1337,.T.);
#2059 = ORIENTED_EDGE('',*,*,#1296,.T.);
#2060 = ORIENTED_EDGE('',*,*,#1250,.T.);
#2061 = ORIENTED_EDGE('',*,*,#1193,.T.);
#2062 = ORIENTED_EDGE('',*,*,#1144,.F.);
#2063 = ORIENTED_EDGE('',*,*,#2064,.F.);
#2064 = EDGE_CURVE('',#929,#1145,#2065,.T.);
#2065 = LINE('',#2066,#2067);
#2066 = CARTESIAN_POINT('',(0.,315.00000098038,3.));
#2067 = VECTOR('',#2068,1.);
#2068 = DIRECTION('',(1.,0.,0.));
#2069 = ORIENTED_EDGE('',*,*,#928,.T.);
#2070 = ORIENTED_EDGE('',*,*,#864,.T.);
#2071 = ORIENTED_EDGE('',*,*,#807,.F.);
#2072 = ORIENTED_EDGE('',*,*,#759,.F.);
#2073 = ORIENTED_EDGE('',*,*,#711,.T.);
#2074 = ORIENTED_EDGE('',*,*,#661,.T.);
#2075 = ORIENTED_EDGE('',*,*,#613,.T.);
#2076 = ORIENTED_EDGE('',*,*,#564,.T.);
#2077 = FACE_BOUND('',#2078,.T.);
#2078 = EDGE_LOOP('',(#2079));
#2079 = ORIENTED_EDGE('',*,*,#1363,.F.);
#2080 = FACE_BOUND('',#2081,.T.);
#2081 = EDGE_LOOP('',(#2082));
#2082 = ORIENTED_EDGE('',*,*,#1413,.F.);
#2083 = FACE_BOUND('',#2084,.T.);
#2084 = EDGE_LOOP('',(#2085));
#2085 = ORIENTED_EDGE('',*,*,#1388,.F.);
#2086 = FACE_BOUND('',#2087,.T.);
#2087 = EDGE_LOOP('',(#2088,#2089,#2090,#2091,#2092,#2093,#2094,#2095));
#2088 = ORIENTED_EDGE('',*,*,#1535,.T.);
#2089 = ORIENTED_EDGE('',*,*,#1486,.T.);
#2090 = ORIENTED_EDGE('',*,*,#1437,.T.);
#2091 = ORIENTED_EDGE('',*,*,#1469,.T.);
#2092 = ORIENTED_EDGE('',*,*,#1517,.T.);
#2093 = ORIENTED_EDGE('',*,*,#1567,.T.);
#2094 = ORIENTED_EDGE('',*,*,#1608,.T.);
#2095 = ORIENTED_EDGE('',*,*,#1584,.T.);
#2096 = FACE_BOUND('',#2097,.T.);
#2097 = EDGE_LOOP('',(#2098));
#2098 = ORIENTED_EDGE('',*,*,#1905,.F.);
#2099 = FACE_BOUND('',#2100,.T.);
#2100 = EDGE_LOOP('',(#2101));
#2101 = ORIENTED_EDGE('',*,*,#1880,.F.);
#2102 = FACE_BOUND('',#2103,.T.);
#2103 = EDGE_LOOP('',(#2104));
#2104 = ORIENTED_EDGE('',*,*,#1955,.F.);
#2105 = FACE_BOUND('',#2106,.T.);
#2106 = EDGE_LOOP('',(#2107));
#2107 = ORIENTED_EDGE('',*,*,#1930,.F.);
#2108 = FACE_BOUND('',#2109,.T.);
#2109 = EDGE_LOOP('',(#2110));
#2110 = ORIENTED_EDGE('',*,*,#1634,.F.);
#2111 = FACE_BOUND('',#2112,.T.);
#2112 = EDGE_LOOP('',(#2113,#2114,#2115,#2116,#2117,#2118,#2119,#2120));
#2113 = ORIENTED_EDGE('',*,*,#1756,.T.);
#2114 = ORIENTED_EDGE('',*,*,#1707,.T.);
#2115 = ORIENTED_EDGE('',*,*,#1658,.T.);
#2116 = ORIENTED_EDGE('',*,*,#1690,.T.);
#2117 = ORIENTED_EDGE('',*,*,#1738,.T.);
#2118 = ORIENTED_EDGE('',*,*,#1788,.T.);
#2119 = ORIENTED_EDGE('',*,*,#1829,.T.);
#2120 = ORIENTED_EDGE('',*,*,#1805,.T.);
#2121 = FACE_BOUND('',#2122,.T.);
#2122 = EDGE_LOOP('',(#2123));
#2123 = ORIENTED_EDGE('',*,*,#1855,.F.);
#2124 = FACE_BOUND('',#2125,.T.);
#2125 = EDGE_LOOP('',(#2126));
#2126 = ORIENTED_EDGE('',*,*,#1980,.F.);
#2127 = FACE_BOUND('',#2128,.T.);
#2128 = EDGE_LOOP('',(#2129));
#2129 = ORIENTED_EDGE('',*,*,#2005,.F.);
#2130 = FACE_BOUND('',#2131,.T.);
#2131 = EDGE_LOOP('',(#2132));
#2132 = ORIENTED_EDGE('',*,*,#2030,.F.);
#2133 = PLANE('',#2134);
#2134 = AXIS2_PLACEMENT_3D('',#2135,#2136,#2137);
#2135 = CARTESIAN_POINT('',(199.28571427939,185.69548919991,3.));
#2136 = DIRECTION('',(0.,5.5E-16,1.));
#2137 = DIRECTION('',(0.,1.,-5.5E-16));
#2138 = ADVANCED_FACE('',(#2139,#2227,#2238),#2249,.T.);
#2139 = FACE_BOUND('',#2140,.T.);
#2140 = EDGE_LOOP('',(#2141,#2142,#2148,#2149,#2157,#2165,#2173,#2181,
    #2189,#2197,#2205,#2213,#2221));
#2141 = ORIENTED_EDGE('',*,*,#902,.T.);
#2142 = ORIENTED_EDGE('',*,*,#2143,.T.);
#2143 = EDGE_CURVE('',#905,#1121,#2144,.T.);
#2144 = LINE('',#2145,#2146);
#2145 = CARTESIAN_POINT('',(0.,318.,0.));
#2146 = VECTOR('',#2147,1.);
#2147 = DIRECTION('',(1.,0.,0.));
#2148 = ORIENTED_EDGE('',*,*,#1118,.F.);
#2149 = ORIENTED_EDGE('',*,*,#2150,.F.);
#2150 = EDGE_CURVE('',#2151,#1119,#2153,.T.);
#2151 = VERTEX_POINT('',#2152);
#2152 = CARTESIAN_POINT('',(294.,318.,-90.));
#2153 = LINE('',#2154,#2155);
#2154 = CARTESIAN_POINT('',(294.,318.,-90.));
#2155 = VECTOR('',#2156,1.);
#2156 = DIRECTION('',(0.707106781187,0.,0.707106781187));
#2157 = ORIENTED_EDGE('',*,*,#2158,.F.);
#2158 = EDGE_CURVE('',#2159,#2151,#2161,.T.);
#2159 = VERTEX_POINT('',#2160);
#2160 = CARTESIAN_POINT('',(294.,318.,-117.));
#2161 = LINE('',#2162,#2163);
#2162 = CARTESIAN_POINT('',(294.,318.,-117.));
#2163 = VECTOR('',#2164,1.);
#2164 = DIRECTION('',(0.,0.,1.));
#2165 = ORIENTED_EDGE('',*,*,#2166,.F.);
#2166 = EDGE_CURVE('',#2167,#2159,#2169,.T.);
#2167 = VERTEX_POINT('',#2168);
#2168 = CARTESIAN_POINT('',(276.,318.,-117.));
#2169 = LINE('',#2170,#2171);
#2170 = CARTESIAN_POINT('',(0.,318.,-117.));
#2171 = VECTOR('',#2172,1.);
#2172 = DIRECTION('',(1.,0.,0.));
#2173 = ORIENTED_EDGE('',*,*,#2174,.T.);
#2174 = EDGE_CURVE('',#2167,#2175,#2177,.T.);
#2175 = VERTEX_POINT('',#2176);
#2176 = CARTESIAN_POINT('',(276.,318.,-90.));
#2177 = LINE('',#2178,#2179);
#2178 = CARTESIAN_POINT('',(276.,318.,-117.));
#2179 = VECTOR('',#2180,1.);
#2180 = DIRECTION('',(0.,0.,1.));
#2181 = ORIENTED_EDGE('',*,*,#2182,.T.);
#2182 = EDGE_CURVE('',#2175,#2183,#2185,.T.);
#2183 = VERTEX_POINT('',#2184);
#2184 = CARTESIAN_POINT('',(220.,318.,-90.));
#2185 = LINE('',#2186,#2187);
#2186 = CARTESIAN_POINT('',(276.,318.,-90.));
#2187 = VECTOR('',#2188,1.);
#2188 = DIRECTION('',(-1.,0.,0.));
#2189 = ORIENTED_EDGE('',*,*,#2190,.T.);
#2190 = EDGE_CURVE('',#2183,#2191,#2193,.T.);
#2191 = VERTEX_POINT('',#2192);
#2192 = CARTESIAN_POINT('',(220.,318.,-117.));
#2193 = LINE('',#2194,#2195);
#2194 = CARTESIAN_POINT('',(220.,318.,-90.));
#2195 = VECTOR('',#2196,1.);
#2196 = DIRECTION('',(0.,0.,-1.));
#2197 = ORIENTED_EDGE('',*,*,#2198,.F.);
#2198 = EDGE_CURVE('',#2199,#2191,#2201,.T.);
#2199 = VERTEX_POINT('',#2200);
#2200 = CARTESIAN_POINT('',(202.,318.,-117.));
#2201 = LINE('',#2202,#2203);
#2202 = CARTESIAN_POINT('',(0.,318.,-117.));
#2203 = VECTOR('',#2204,1.);
#2204 = DIRECTION('',(1.,0.,0.));
#2205 = ORIENTED_EDGE('',*,*,#2206,.T.);
#2206 = EDGE_CURVE('',#2199,#2207,#2209,.T.);
#2207 = VERTEX_POINT('',#2208);
#2208 = CARTESIAN_POINT('',(202.,318.,-90.));
#2209 = LINE('',#2210,#2211);
#2210 = CARTESIAN_POINT('',(202.,318.,-117.));
#2211 = VECTOR('',#2212,1.);
#2212 = DIRECTION('',(0.,0.,1.));
#2213 = ORIENTED_EDGE('',*,*,#2214,.T.);
#2214 = EDGE_CURVE('',#2207,#2215,#2217,.T.);
#2215 = VERTEX_POINT('',#2216);
#2216 = CARTESIAN_POINT('',(165.,318.,-90.));
#2217 = LINE('',#2218,#2219);
#2218 = CARTESIAN_POINT('',(202.,318.,-90.));
#2219 = VECTOR('',#2220,1.);
#2220 = DIRECTION('',(-1.,0.,0.));
#2221 = ORIENTED_EDGE('',*,*,#2222,.T.);
#2222 = EDGE_CURVE('',#2215,#903,#2223,.T.);
#2223 = LINE('',#2224,#2225);
#2224 = CARTESIAN_POINT('',(165.,318.,-90.));
#2225 = VECTOR('',#2226,1.);
#2226 = DIRECTION('',(-0.707106781187,0.,0.707106781187));
#2227 = FACE_BOUND('',#2228,.T.);
#2228 = EDGE_LOOP('',(#2229));
#2229 = ORIENTED_EDGE('',*,*,#2230,.F.);
#2230 = EDGE_CURVE('',#2231,#2231,#2233,.T.);
#2231 = VERTEX_POINT('',#2232);
#2232 = CARTESIAN_POINT('',(281.720477,318.,-107.500002));
#2233 = CIRCLE('',#2234,3.3);
#2234 = AXIS2_PLACEMENT_3D('',#2235,#2236,#2237);
#2235 = CARTESIAN_POINT('',(285.020477,318.,-107.500002));
#2236 = DIRECTION('',(0.,1.,-2.2E-16));
#2237 = DIRECTION('',(-1.,0.,0.));
#2238 = FACE_BOUND('',#2239,.T.);
#2239 = EDGE_LOOP('',(#2240));
#2240 = ORIENTED_EDGE('',*,*,#2241,.F.);
#2241 = EDGE_CURVE('',#2242,#2242,#2244,.T.);
#2242 = VERTEX_POINT('',#2243);
#2243 = CARTESIAN_POINT('',(207.700003,318.,-107.500002));
#2244 = CIRCLE('',#2245,3.3);
#2245 = AXIS2_PLACEMENT_3D('',#2246,#2247,#2248);
#2246 = CARTESIAN_POINT('',(211.000003,318.,-107.500002));
#2247 = DIRECTION('',(0.,1.,-2.2E-16));
#2248 = DIRECTION('',(-1.,0.,0.));
#2249 = PLANE('',#2250);
#2250 = AXIS2_PLACEMENT_3D('',#2251,#2252,#2253);
#2251 = CARTESIAN_POINT('',(0.,318.,0.));
#2252 = DIRECTION('',(0.,1.,0.));
#2253 = DIRECTION('',(0.,0.,-1.));
#2254 = ADVANCED_FACE('',(#2255),#2261,.T.);
#2255 = FACE_BOUND('',#2256,.F.);
#2256 = EDGE_LOOP('',(#2257,#2258,#2259,#2260));
#2257 = ORIENTED_EDGE('',*,*,#936,.T.);
#2258 = ORIENTED_EDGE('',*,*,#2143,.T.);
#2259 = ORIENTED_EDGE('',*,*,#1152,.F.);
#2260 = ORIENTED_EDGE('',*,*,#2064,.F.);
#2261 = CYLINDRICAL_SURFACE('',#2262,3.);
#2262 = AXIS2_PLACEMENT_3D('',#2263,#2264,#2265);
#2263 = CARTESIAN_POINT('',(0.,315.,0.));
#2264 = DIRECTION('',(-1.,-0.,-0.));
#2265 = DIRECTION('',(0.,1.,0.));
#2266 = ADVANCED_FACE('',(#2267),#2278,.T.);
#2267 = FACE_BOUND('',#2268,.T.);
#2268 = EDGE_LOOP('',(#2269,#2270,#2276,#2277));
#2269 = ORIENTED_EDGE('',*,*,#2222,.F.);
#2270 = ORIENTED_EDGE('',*,*,#2271,.T.);
#2271 = EDGE_CURVE('',#2215,#1050,#2272,.T.);
#2272 = LINE('',#2273,#2274);
#2273 = CARTESIAN_POINT('',(165.,318.,-90.));
#2274 = VECTOR('',#2275,1.);
#2275 = DIRECTION('',(0.,-1.,2.2E-16));
#2276 = ORIENTED_EDGE('',*,*,#1049,.F.);
#2277 = ORIENTED_EDGE('',*,*,#912,.F.);
#2278 = PLANE('',#2279);
#2279 = AXIS2_PLACEMENT_3D('',#2280,#2281,#2282);
#2280 = CARTESIAN_POINT('',(165.,318.,-90.));
#2281 = DIRECTION('',(-0.707106781187,-1.6E-16,-0.707106781187));
#2282 = DIRECTION('',(-0.707106781187,1.6E-16,0.707106781187));
#2283 = ADVANCED_FACE('',(#2284),#2300,.T.);
#2284 = FACE_BOUND('',#2285,.T.);
#2285 = EDGE_LOOP('',(#2286,#2287,#2293,#2294));
#2286 = ORIENTED_EDGE('',*,*,#2206,.F.);
#2287 = ORIENTED_EDGE('',*,*,#2288,.T.);
#2288 = EDGE_CURVE('',#2199,#978,#2289,.T.);
#2289 = LINE('',#2290,#2291);
#2290 = CARTESIAN_POINT('',(202.,318.,-117.));
#2291 = VECTOR('',#2292,1.);
#2292 = DIRECTION('',(0.,-1.,2.2E-16));
#2293 = ORIENTED_EDGE('',*,*,#975,.F.);
#2294 = ORIENTED_EDGE('',*,*,#2295,.F.);
#2295 = EDGE_CURVE('',#2207,#976,#2296,.T.);
#2296 = LINE('',#2297,#2298);
#2297 = CARTESIAN_POINT('',(202.,318.,-90.));
#2298 = VECTOR('',#2299,1.);
#2299 = DIRECTION('',(0.,-1.,2.2E-16));
#2300 = PLANE('',#2301);
#2301 = AXIS2_PLACEMENT_3D('',#2302,#2303,#2304);
#2302 = CARTESIAN_POINT('',(202.,318.,-117.));
#2303 = DIRECTION('',(-1.,0.,0.));
#2304 = DIRECTION('',(0.,2.2E-16,1.));
#2305 = ADVANCED_FACE('',(#2306),#2312,.T.);
#2306 = FACE_BOUND('',#2307,.T.);
#2307 = EDGE_LOOP('',(#2308,#2309,#2310,#2311));
#2308 = ORIENTED_EDGE('',*,*,#2214,.F.);
#2309 = ORIENTED_EDGE('',*,*,#2295,.T.);
#2310 = ORIENTED_EDGE('',*,*,#1057,.F.);
#2311 = ORIENTED_EDGE('',*,*,#2271,.F.);
#2312 = PLANE('',#2313);
#2313 = AXIS2_PLACEMENT_3D('',#2314,#2315,#2316);
#2314 = CARTESIAN_POINT('',(202.,318.,-90.));
#2315 = DIRECTION('',(-0.,-2.2E-16,-1.));
#2316 = DIRECTION('',(-1.,0.,0.));
#2317 = ADVANCED_FACE('',(#2318),#2329,.F.);
#2318 = FACE_BOUND('',#2319,.F.);
#2319 = EDGE_LOOP('',(#2320,#2321,#2322,#2328));
#2320 = ORIENTED_EDGE('',*,*,#2288,.T.);
#2321 = ORIENTED_EDGE('',*,*,#985,.T.);
#2322 = ORIENTED_EDGE('',*,*,#2323,.F.);
#2323 = EDGE_CURVE('',#2191,#986,#2324,.T.);
#2324 = LINE('',#2325,#2326);
#2325 = CARTESIAN_POINT('',(220.,318.,-117.));
#2326 = VECTOR('',#2327,1.);
#2327 = DIRECTION('',(0.,-1.,2.2E-16));
#2328 = ORIENTED_EDGE('',*,*,#2198,.F.);
#2329 = PLANE('',#2330);
#2330 = AXIS2_PLACEMENT_3D('',#2331,#2332,#2333);
#2331 = CARTESIAN_POINT('',(0.,315.,-117.));
#2332 = DIRECTION('',(0.,0.,1.));
#2333 = DIRECTION('',(0.,1.,0.));
#2334 = ADVANCED_FACE('',(#2335),#2346,.T.);
#2335 = FACE_BOUND('',#2336,.T.);
#2336 = EDGE_LOOP('',(#2337,#2338,#2344,#2345));
#2337 = ORIENTED_EDGE('',*,*,#2190,.F.);
#2338 = ORIENTED_EDGE('',*,*,#2339,.T.);
#2339 = EDGE_CURVE('',#2183,#994,#2340,.T.);
#2340 = LINE('',#2341,#2342);
#2341 = CARTESIAN_POINT('',(220.,318.,-90.));
#2342 = VECTOR('',#2343,1.);
#2343 = DIRECTION('',(0.,-1.,2.2E-16));
#2344 = ORIENTED_EDGE('',*,*,#993,.F.);
#2345 = ORIENTED_EDGE('',*,*,#2323,.F.);
#2346 = PLANE('',#2347);
#2347 = AXIS2_PLACEMENT_3D('',#2348,#2349,#2350);
#2348 = CARTESIAN_POINT('',(220.,318.,-90.));
#2349 = DIRECTION('',(1.,0.,0.));
#2350 = DIRECTION('',(0.,-2.2E-16,-1.));
#2351 = ADVANCED_FACE('',(#2352),#2363,.T.);
#2352 = FACE_BOUND('',#2353,.T.);
#2353 = EDGE_LOOP('',(#2354,#2355,#2361,#2362));
#2354 = ORIENTED_EDGE('',*,*,#2182,.F.);
#2355 = ORIENTED_EDGE('',*,*,#2356,.T.);
#2356 = EDGE_CURVE('',#2175,#1002,#2357,.T.);
#2357 = LINE('',#2358,#2359);
#2358 = CARTESIAN_POINT('',(276.,318.,-90.));
#2359 = VECTOR('',#2360,1.);
#2360 = DIRECTION('',(0.,-1.,2.2E-16));
#2361 = ORIENTED_EDGE('',*,*,#1001,.F.);
#2362 = ORIENTED_EDGE('',*,*,#2339,.F.);
#2363 = PLANE('',#2364);
#2364 = AXIS2_PLACEMENT_3D('',#2365,#2366,#2367);
#2365 = CARTESIAN_POINT('',(276.,318.,-90.));
#2366 = DIRECTION('',(-0.,-2.2E-16,-1.));
#2367 = DIRECTION('',(-1.,0.,0.));
#2368 = ADVANCED_FACE('',(#2369),#2380,.T.);
#2369 = FACE_BOUND('',#2370,.T.);
#2370 = EDGE_LOOP('',(#2371,#2372,#2378,#2379));
#2371 = ORIENTED_EDGE('',*,*,#2174,.F.);
#2372 = ORIENTED_EDGE('',*,*,#2373,.T.);
#2373 = EDGE_CURVE('',#2167,#1010,#2374,.T.);
#2374 = LINE('',#2375,#2376);
#2375 = CARTESIAN_POINT('',(276.,318.,-117.));
#2376 = VECTOR('',#2377,1.);
#2377 = DIRECTION('',(0.,-1.,2.2E-16));
#2378 = ORIENTED_EDGE('',*,*,#1009,.F.);
#2379 = ORIENTED_EDGE('',*,*,#2356,.F.);
#2380 = PLANE('',#2381);
#2381 = AXIS2_PLACEMENT_3D('',#2382,#2383,#2384);
#2382 = CARTESIAN_POINT('',(276.,318.,-117.));
#2383 = DIRECTION('',(-1.,0.,0.));
#2384 = DIRECTION('',(0.,2.2E-16,1.));
#2385 = ADVANCED_FACE('',(#2386),#2397,.F.);
#2386 = FACE_BOUND('',#2387,.F.);
#2387 = EDGE_LOOP('',(#2388,#2389,#2390,#2396));
#2388 = ORIENTED_EDGE('',*,*,#2373,.T.);
#2389 = ORIENTED_EDGE('',*,*,#1017,.T.);
#2390 = ORIENTED_EDGE('',*,*,#2391,.F.);
#2391 = EDGE_CURVE('',#2159,#1018,#2392,.T.);
#2392 = LINE('',#2393,#2394);
#2393 = CARTESIAN_POINT('',(294.,318.,-117.));
#2394 = VECTOR('',#2395,1.);
#2395 = DIRECTION('',(0.,-1.,2.2E-16));
#2396 = ORIENTED_EDGE('',*,*,#2166,.F.);
#2397 = PLANE('',#2398);
#2398 = AXIS2_PLACEMENT_3D('',#2399,#2400,#2401);
#2399 = CARTESIAN_POINT('',(0.,315.,-117.));
#2400 = DIRECTION('',(0.,0.,1.));
#2401 = DIRECTION('',(0.,1.,0.));
#2402 = ADVANCED_FACE('',(#2403),#2414,.F.);
#2403 = FACE_BOUND('',#2404,.F.);
#2404 = EDGE_LOOP('',(#2405,#2406,#2412,#2413));
#2405 = ORIENTED_EDGE('',*,*,#2150,.F.);
#2406 = ORIENTED_EDGE('',*,*,#2407,.T.);
#2407 = EDGE_CURVE('',#2151,#1026,#2408,.T.);
#2408 = LINE('',#2409,#2410);
#2409 = CARTESIAN_POINT('',(294.,318.,-90.));
#2410 = VECTOR('',#2411,1.);
#2411 = DIRECTION('',(0.,-1.,2.2E-16));
#2412 = ORIENTED_EDGE('',*,*,#1033,.F.);
#2413 = ORIENTED_EDGE('',*,*,#1128,.F.);
#2414 = PLANE('',#2415);
#2415 = AXIS2_PLACEMENT_3D('',#2416,#2417,#2418);
#2416 = CARTESIAN_POINT('',(294.,318.,-90.));
#2417 = DIRECTION('',(-0.707106781187,1.6E-16,0.707106781187));
#2418 = DIRECTION('',(0.707106781187,1.6E-16,0.707106781187));
#2419 = ADVANCED_FACE('',(#2420),#2426,.F.);
#2420 = FACE_BOUND('',#2421,.F.);
#2421 = EDGE_LOOP('',(#2422,#2423,#2424,#2425));
#2422 = ORIENTED_EDGE('',*,*,#2158,.F.);
#2423 = ORIENTED_EDGE('',*,*,#2391,.T.);
#2424 = ORIENTED_EDGE('',*,*,#1025,.F.);
#2425 = ORIENTED_EDGE('',*,*,#2407,.F.);
#2426 = PLANE('',#2427);
#2427 = AXIS2_PLACEMENT_3D('',#2428,#2429,#2430);
#2428 = CARTESIAN_POINT('',(294.,318.,-117.));
#2429 = DIRECTION('',(-1.,0.,0.));
#2430 = DIRECTION('',(0.,2.2E-16,1.));
#2431 = ADVANCED_FACE('',(#2432),#2443,.F.);
#2432 = FACE_BOUND('',#2433,.T.);
#2433 = EDGE_LOOP('',(#2434,#2435,#2441,#2442));
#2434 = ORIENTED_EDGE('',*,*,#1065,.F.);
#2435 = ORIENTED_EDGE('',*,*,#2436,.T.);
#2436 = EDGE_CURVE('',#1066,#2231,#2437,.T.);
#2437 = LINE('',#2438,#2439);
#2438 = CARTESIAN_POINT('',(281.720477,-2.4E-14,-107.500002));
#2439 = VECTOR('',#2440,1.);
#2440 = DIRECTION('',(6.E-17,1.,-2.2E-16));
#2441 = ORIENTED_EDGE('',*,*,#2230,.T.);
#2442 = ORIENTED_EDGE('',*,*,#2436,.F.);
#2443 = CYLINDRICAL_SURFACE('',#2444,3.3);
#2444 = AXIS2_PLACEMENT_3D('',#2445,#2446,#2447);
#2445 = CARTESIAN_POINT('',(285.020477,-2.4E-14,-107.500002));
#2446 = DIRECTION('',(0.,1.,-2.2E-16));
#2447 = DIRECTION('',(-1.,0.,0.));
#2448 = ADVANCED_FACE('',(#2449),#2460,.F.);
#2449 = FACE_BOUND('',#2450,.T.);
#2450 = EDGE_LOOP('',(#2451,#2452,#2458,#2459));
#2451 = ORIENTED_EDGE('',*,*,#1076,.F.);
#2452 = ORIENTED_EDGE('',*,*,#2453,.T.);
#2453 = EDGE_CURVE('',#1077,#2242,#2454,.T.);
#2454 = LINE('',#2455,#2456);
#2455 = CARTESIAN_POINT('',(207.700003,-2.4E-14,-107.500002));
#2456 = VECTOR('',#2457,1.);
#2457 = DIRECTION('',(6.E-17,1.,-2.2E-16));
#2458 = ORIENTED_EDGE('',*,*,#2241,.T.);
#2459 = ORIENTED_EDGE('',*,*,#2453,.F.);
#2460 = CYLINDRICAL_SURFACE('',#2461,3.3);
#2461 = AXIS2_PLACEMENT_3D('',#2462,#2463,#2464);
#2462 = CARTESIAN_POINT('',(211.000003,-2.4E-14,-107.500002));
#2463 = DIRECTION('',(0.,1.,-2.2E-16));
#2464 = DIRECTION('',(-1.,0.,0.));
#2465 = ( GEOMETRIC_REPRESENTATION_CONTEXT(3) 
GLOBAL_UNCERTAINTY_ASSIGNED_CONTEXT((#2469)) 
GLOBAL_UNIT_ASSIGNED_CONTEXT((#2466,#2467,#2468)) REPRESENTATION_CONTEXT
('Context #1','3D Context with UNIT and UNCERTAINTY') );
#2466 = ( LENGTH_UNIT() NAMED_UNIT(*) SI_UNIT(.MILLI.,.METRE.) );
#2467 = ( NAMED_UNIT(*) PLANE_ANGLE_UNIT() SI_UNIT($,.RADIAN.) );
#2468 = ( NAMED_UNIT(*) SI_UNIT($,.STERADIAN.) SOLID_ANGLE_UNIT() );
#2469 = UNCERTAINTY_MEASURE_WITH_UNIT(LENGTH_MEASURE(1.E-04),#2466,
  'distance_accuracy_value','confusion accuracy');
#2470 = PRODUCT_RELATED_PRODUCT_CATEGORY('part',$,(#7));
ENDSEC;
END-ISO-10303-21;
